<svg width="16" height="23" viewBox="0 0 16 23" fill="none" xmlns="http://www.w3.org/2000/svg">
<g clip-path="url(#clip0_3849_986)">
<path fill-rule="evenodd" clip-rule="evenodd" d="M14 7.56934C14 4.19711 11.0182 1.69136 7.70464 1.80352C4.49633 1.91213 1.79998 4.31263 1.8 7.56934C1.80002 10.6271 3.36851 13.7738 5.03219 16.2293C5.85385 17.442 6.67689 18.4544 7.29435 19.1632C7.41882 19.3061 7.53476 19.4364 7.64045 19.5534C7.77739 19.3886 7.93263 19.1995 8.10245 18.9887C8.76883 18.1618 9.6558 17.0074 10.541 15.6951C11.4279 14.3802 12.3018 12.9233 12.9512 11.4901C13.6067 10.0433 14 8.69221 14 7.56934ZM7.67419 20.9C7.04297 21.5415 7.04279 21.5413 7.04258 21.5411L7.04048 21.539L7.03553 21.5341L7.01842 21.5171C7.00387 21.5025 6.98308 21.4816 6.95646 21.4546C6.90323 21.4004 6.82668 21.3217 6.73015 21.2199C6.53714 21.0164 6.26388 20.7206 5.93711 20.3455C5.28442 19.5963 4.41392 18.5258 3.54203 17.2389C1.81863 14.6954 1.94312e-05 11.1768 1.14895e-10 7.56935C-2.35437e-05 3.19629 3.61834 0.140816 7.64375 0.00455349C11.8255 -0.137003 15.8 3.0359 15.8 7.56934C15.8 9.06482 15.2901 10.6892 14.5908 12.2329C13.8852 13.7901 12.9527 15.3386 12.0332 16.7017C11.1119 18.0675 10.1925 19.2639 9.504 20.1182C9.15938 20.5458 8.87168 20.889 8.6693 21.1261C8.56809 21.2447 8.48815 21.3369 8.43303 21.4C8.40547 21.4315 8.38411 21.4558 8.36938 21.4725L8.35233 21.4917L8.34628 21.4985C8.34613 21.4987 8.34558 21.4993 7.67419 20.9ZM7.67419 20.9L8.34557 21.4993L7.7164 22.2041L7.04258 21.5411L7.67419 20.9Z" fill="#E3CC9D"/>
<path d="M9.7998 8.06924C9.7998 9.11858 8.94915 9.96924 7.8998 9.96924C6.85046 9.96924 5.9998 9.11858 5.9998 8.06924C5.9998 7.01989 6.85046 6.16924 7.8998 6.16924C8.94915 6.16924 9.7998 7.01989 9.7998 8.06924ZM7.8998 11.6692C9.88803 11.6692 11.4998 10.0575 11.4998 8.06924C11.4998 6.08101 9.88803 4.46924 7.8998 4.46924C5.91158 4.46924 4.2998 6.08101 4.2998 8.06924C4.2998 10.0575 5.91158 11.6692 7.8998 11.6692Z" fill="#E3CC9D" stroke="#E3CC9D" stroke-width="0.2"/>
</g>
<defs>
<clipPath id="clip0_3849_986">
<rect width="16" height="23" fill="white"/>
</clipPath>
</defs>
</svg>
