<svg width="21" height="22" viewBox="0 0 21 22" fill="none" xmlns="http://www.w3.org/2000/svg">
<path d="M12.1503 0H7.95982C3.57079 0 0 3.56996 0 7.95814V11.733C0 15.0009 2.00807 17.9378 5.02752 19.1339V21.581C5.02752 21.7469 5.12514 21.8969 5.2768 21.964C5.33126 21.9883 5.38908 22 5.44648 22C5.54829 22 5.64925 21.9627 5.7276 21.8915L8.15715 19.6911H12.1503C16.5393 19.6911 20.1101 16.1212 20.1101 11.733V7.95814C20.1101 3.56996 16.5393 0 12.1503 0ZM19.2722 11.733C19.2722 15.659 16.0776 18.8532 12.1503 18.8532H7.99543C7.89153 18.8532 7.7914 18.8917 7.71431 18.9617L5.86544 20.6363V18.8436C5.86544 18.6659 5.75358 18.5076 5.58599 18.4489C2.74628 17.4446 0.83792 14.7457 0.83792 11.733V7.95814C0.83792 4.03207 4.03291 0.83792 7.95982 0.83792H12.1503C16.0776 0.83792 19.2722 4.03207 19.2722 7.95814V11.733Z" fill="#9d72e5"/>
<path d="M15.592 12.7753L13.0171 11.1028C12.7356 10.9197 12.4004 10.8577 12.0724 10.9256C11.7439 10.9947 11.4615 11.1887 11.2784 11.4715L11.1574 11.6575C10.0429 11.2893 8.81412 10.8188 8.07842 8.68919L8.38301 8.42441C8.90587 7.96984 8.96075 7.17465 8.50618 6.65095L6.49182 4.33368C6.34016 4.15898 6.07537 4.14096 5.90067 4.29221L4.63583 5.39156C3.52642 6.356 4.04468 7.78256 4.21519 8.25138C4.22273 8.27233 4.23195 8.29244 4.24284 8.31213C4.28683 8.39089 5.33717 10.2653 7.03354 11.9931C8.73661 13.728 11.8114 15.3301 11.9056 15.3766C12.2567 15.6045 12.6518 15.7139 13.0427 15.7139C13.7289 15.7139 14.4018 15.3775 14.8031 14.7608L15.7156 13.3556C15.8413 13.1607 15.786 12.9014 15.592 12.7753ZM14.1001 14.3041C13.7226 14.8856 12.9425 15.0507 12.3267 14.6535C12.2961 14.6376 9.24145 13.0468 7.63139 11.4066C6.12649 9.87359 5.12727 8.17052 4.99111 7.93297C4.65929 7.00246 4.71794 6.43058 5.1855 6.02419L6.13445 5.19967L7.87397 7.20063C8.02856 7.37827 8.01055 7.63802 7.83375 7.79178L7.31968 8.23839C7.19442 8.34732 7.14498 8.51951 7.194 8.67788C8.07046 11.526 9.77479 12.0853 11.0191 12.4938L11.2005 12.5537C11.3819 12.6148 11.5805 12.5449 11.6844 12.3848L11.9815 11.9273C12.0426 11.8326 12.1365 11.7685 12.2454 11.7455C12.3547 11.722 12.4662 11.7438 12.5609 11.8054L14.7847 13.2496L14.1001 14.3041Z" fill="#9d72e5"/>
<path d="M11.0115 6.80694C10.7886 6.74283 10.5569 6.87229 10.4937 7.09518C10.4304 7.31765 10.5595 7.54933 10.7819 7.6126C11.4062 7.79023 11.9035 8.28838 12.0794 8.91305C12.1314 9.09739 12.2994 9.21847 12.4825 9.21847C12.5202 9.21847 12.5583 9.21344 12.5964 9.20297C12.8189 9.14012 12.9488 8.90886 12.8859 8.68597C12.6316 7.78353 11.9131 7.06334 11.0115 6.80694Z" fill="#9d72e5"/>
<path d="M14.1998 9.30889C14.2375 9.30889 14.2757 9.30386 14.3138 9.29339C14.5367 9.23054 14.6661 8.99886 14.6033 8.77639C14.1089 7.02388 12.7142 5.62623 10.9629 5.12767C10.7405 5.06357 10.5088 5.19387 10.4455 5.41633C10.3823 5.6388 10.5113 5.87049 10.7338 5.93375C12.2072 6.35271 13.3808 7.52957 13.7968 9.00389C13.8492 9.18823 14.0167 9.30889 14.1998 9.30889Z" fill="#9d72e5"/>
<path d="M10.7824 3.17656C10.5595 3.11246 10.3278 3.24192 10.2646 3.46523C10.2013 3.68769 10.3303 3.91938 10.5528 3.98264C13.0494 4.69278 15.0382 6.68619 15.7429 9.18445C15.7948 9.36879 15.9628 9.48987 16.1459 9.48987C16.1836 9.48987 16.2217 9.48484 16.2599 9.47437C16.4823 9.41152 16.6122 9.17984 16.5494 8.95737C15.7663 6.18092 13.5567 3.9663 10.7824 3.17656Z" fill="#9d72e5"/>
</svg>
