<svg width="22" height="24" viewBox="0 0 22 24" fill="none" xmlns="http://www.w3.org/2000/svg">
<path fill-rule="evenodd" clip-rule="evenodd" d="M2.51432 18C1.46174 20.0043 0.94211 21.3585 0.806929 22.2417C0.748744 22.6219 0.761783 22.9147 0.834204 23.1346C0.907465 23.3571 0.608263 22.8655 0.790797 22.9533C1.33284 23.2141 2.67728 23.0751 3.75379 22.666C4.16628 22.5092 4.83194 22.4121 5.25771 22.2356C6.61952 21.671 7.77797 21.5469 8.5 21.7147C9.30315 21.9013 10.14 22 11 22C17.0751 22 22 17.0751 22 11C22 4.92487 17.0751 0 11 0C4.92487 0 0 4.92487 0 11C0 13.6593 0.943635 16.0981 2.51432 18ZM3.59379 21.401C3.91516 21.2758 4.13854 21.2284 4.5 21.0787C4.75236 20.9743 4.98685 20.8666 5.25771 20.7571C5.8168 20.5312 6.28878 20.5012 6.84061 20.351C7.34354 20.2141 8.15877 20.1981 8.81692 20.351C9.51689 20.5137 10.2475 20.6 11 20.6C16.3019 20.6 20.6 16.3019 20.6 11C20.6 5.69807 16.3019 1.4 11 1.4C5.69807 1.4 1.4 5.69807 1.4 11C1.4 13.322 2.22264 15.4482 3.59379 17.1085L4.18676 17.8265L3.75379 18.6509C3.08148 19.9311 2.65699 20.8933 2.41583 21.6023C2.36462 21.7529 2.15324 21.3138 2.15324 21.7147L3.59379 21.401Z" fill="#BD933B"/>
<path d="M4.5 11H7.5" stroke="#BD933B" stroke-width="2.4"/>
<path d="M9.5 11H12.5" stroke="#BD933B" stroke-width="2.4"/>
<path d="M14.5 11H17.5" stroke="#BD933B" stroke-width="2.4"/>
</svg>
