<svg width="22" height="21" viewBox="0 0 22 21" fill="none" xmlns="http://www.w3.org/2000/svg">
<path d="M11.9092 13.8938C11.7282 13.8938 11.5467 13.8302 11.3995 13.7014L8.90789 11.5205L4.47584 13.4102C4.16114 13.548 3.77455 13.4504 3.56019 13.1768C3.33315 12.8872 3.34193 12.4791 3.57889 12.1996L4.7899 10.614C4.92944 10.4314 5.1908 10.3964 5.37344 10.5359C5.55625 10.6755 5.59121 10.9368 5.45167 11.1195L4.35354 12.5572L8.82186 10.6519C8.96888 10.5891 9.139 10.6163 9.25935 10.7217L11.9032 13.0355L16.9425 7.24755L12.1314 9.15855C11.9863 9.21612 11.8211 9.18766 11.7036 9.08487L9.05524 6.76695L7.79789 8.20256C7.64631 8.37544 7.38316 8.39285 7.21028 8.24143C7.03739 8.09001 7.01999 7.82687 7.17141 7.65398L8.46942 6.17202C8.75274 5.85341 9.24081 5.82268 9.55926 6.1016L12.0605 8.29071L16.8552 6.38638C17.1898 6.25009 17.5801 6.36703 17.7847 6.66482C17.988 6.96033 17.9589 7.36351 17.7162 7.62715L12.4828 13.6378C12.4793 13.642 12.4755 13.6462 12.4716 13.6503C12.3191 13.8118 12.1146 13.8938 11.9092 13.8938ZM4.14715 12.6452C4.14666 12.6453 4.14617 12.6457 4.14569 12.6458L4.14715 12.6452Z" fill="#0095ff"/>
<path d="M6.30318 9.81343C6.12672 9.81343 5.96603 9.69747 5.90927 9.53077C5.85268 9.36423 5.90992 9.17394 6.04979 9.06676C6.18251 8.96495 6.36694 8.95389 6.51152 9.037C6.66001 9.12222 6.74198 9.29608 6.71401 9.4649C6.68132 9.66299 6.5042 9.81343 6.30318 9.81343Z" fill="#0095ff"/>
<path d="M4.46068 21C4.3883 21 4.31625 20.9813 4.25185 20.9439C4.13426 20.8757 4.05717 20.7544 4.04579 20.6189L3.78963 17.6031C1.37868 15.7011 0 12.9312 0 9.97492C0 7.30505 1.11244 4.79669 3.13225 2.91171C5.14408 1.03405 7.81704 0 10.6588 0C13.5006 0 16.1735 1.03405 18.1852 2.91171C20.205 4.79669 21.3173 7.30522 21.3173 9.97525C21.3173 12.645 20.205 15.1535 18.1852 17.0385C16.1734 18.9161 13.5004 19.9502 10.6588 19.9502C9.64005 19.9502 8.633 19.816 7.66253 19.5511L4.63649 20.9611C4.58054 20.9872 4.52053 21 4.46068 21ZM10.6588 0.832707C5.24069 0.832707 0.832707 4.93395 0.832707 9.97492C0.832707 12.7287 2.14796 15.3091 4.44132 17.0547C4.53484 17.126 4.59404 17.2335 4.60396 17.3507L4.82499 19.9546L7.45062 18.7312C7.54186 18.6886 7.64513 18.6806 7.7419 18.7084C8.68374 18.9799 9.6651 19.1175 10.6588 19.1175C16.0768 19.1175 20.4846 15.0162 20.4846 9.97525C20.4846 4.93395 16.0768 0.832707 10.6588 0.832707Z" fill="#0095ff"/>
</svg>
