<svg width="21" height="21" viewBox="0 0 21 21" fill="none" xmlns="http://www.w3.org/2000/svg">
<path d="M16.5814 13.0085C16.1514 12.5609 15.6329 12.3216 15.0833 12.3216C14.5381 12.3216 14.0151 12.5565 13.5675 13.0041L12.1669 14.4003C12.0516 14.3382 11.9364 14.2806 11.8256 14.223C11.666 14.1432 11.5154 14.0678 11.3868 13.9881C10.0749 13.1548 8.88263 12.0689 7.73912 10.6639C7.1851 9.96363 6.81279 9.37415 6.54243 8.7758C6.90587 8.44339 7.24272 8.09768 7.5707 7.76526C7.6948 7.64116 7.8189 7.51263 7.943 7.38852C8.87376 6.45776 8.87376 5.25221 7.943 4.32145L6.73301 3.11146C6.59562 2.97406 6.45379 2.83223 6.32082 2.6904C6.05489 2.4156 5.77566 2.13194 5.48757 1.86601C5.05764 1.44052 4.54351 1.21448 4.00278 1.21448C3.46205 1.21448 2.93905 1.44052 2.49584 1.86601C2.4914 1.87044 2.4914 1.87044 2.48697 1.87487L0.980024 3.39512C0.412703 3.96244 0.089153 4.65386 0.0182378 5.45609C-0.0881349 6.75029 0.293034 7.95585 0.585559 8.74478C1.30357 10.6816 2.37617 12.4767 3.97619 14.4003C5.91749 16.7183 8.25326 18.5488 10.9214 19.8386C11.9408 20.3217 13.3015 20.8934 14.8218 20.9909C14.9148 20.9954 15.0124 20.9998 15.101 20.9998C16.1248 20.9998 16.9847 20.6319 17.6584 19.9006C17.6628 19.8917 17.6717 19.8873 17.6761 19.8785C17.9066 19.5992 18.1725 19.3466 18.4517 19.0762C18.6423 18.8945 18.8373 18.7039 19.0279 18.5045C19.4667 18.048 19.6972 17.5161 19.6972 16.9709C19.6972 16.4213 19.4623 15.8939 19.0146 15.4507L16.5814 13.0085ZM18.1681 17.6756C18.1636 17.6756 18.1636 17.6801 18.1681 17.6756C17.9952 17.8618 17.8179 18.0302 17.6273 18.2164C17.3393 18.4912 17.0467 18.7793 16.7719 19.1028C16.3243 19.5815 15.7969 19.8075 15.1054 19.8075C15.0389 19.8075 14.968 19.8075 14.9016 19.8031C13.5852 19.7189 12.3619 19.2048 11.4444 18.766C8.93581 17.5515 6.73301 15.8274 4.90252 13.6424C3.39114 11.8207 2.3806 10.1365 1.71134 8.32815C1.29914 7.22453 1.14845 6.36469 1.21493 5.5536C1.25925 5.03503 1.4587 4.60511 1.82657 4.23723L3.33795 2.72586C3.55513 2.52198 3.7856 2.41117 4.01165 2.41117C4.29087 2.41117 4.51692 2.57959 4.65875 2.72142C4.66318 2.72586 4.66761 2.73029 4.67204 2.73472C4.94241 2.98736 5.19947 3.24886 5.46984 3.52808C5.60724 3.66991 5.74907 3.81174 5.8909 3.95801L7.10089 5.168C7.5707 5.63781 7.5707 6.07216 7.10089 6.54198C6.97235 6.67051 6.84825 6.79904 6.71972 6.92314C6.34741 7.30431 5.99284 7.65889 5.60724 8.0046C5.59837 8.01346 5.58951 8.0179 5.58508 8.02676C5.20391 8.40793 5.27482 8.78023 5.3546 9.03287C5.35903 9.04617 5.36347 9.05946 5.3679 9.07276C5.68258 9.8351 6.1258 10.5531 6.7995 11.4085L6.80393 11.413C8.02722 12.9199 9.31698 14.0944 10.7397 14.9942C10.9214 15.1094 11.1076 15.2025 11.2849 15.2911C11.4444 15.3709 11.5951 15.4463 11.7237 15.526C11.7414 15.5349 11.7591 15.5482 11.7769 15.5571C11.9275 15.6324 12.0694 15.6679 12.2156 15.6679C12.5835 15.6679 12.814 15.4374 12.8893 15.362L14.4051 13.8462C14.5558 13.6955 14.7952 13.5138 15.0744 13.5138C15.3492 13.5138 15.5752 13.6867 15.7126 13.8374C15.7171 13.8418 15.7171 13.8418 15.7215 13.8462L18.1636 16.2884C18.6202 16.7405 18.6202 17.2058 18.1681 17.6756Z" fill="#fff"/>
<path d="M11.3338 4.99545C12.495 5.19046 13.5499 5.74005 14.392 6.58217C15.2341 7.42429 15.7793 8.47915 15.9787 9.64039C16.0275 9.93291 16.2801 10.1368 16.5682 10.1368C16.6036 10.1368 16.6347 10.1324 16.6701 10.1279C16.9981 10.0747 17.2153 9.76449 17.1621 9.43651C16.9228 8.0315 16.2579 6.7506 15.243 5.73562C14.228 4.72065 12.9471 4.05582 11.5421 3.81648C11.2141 3.7633 10.9083 3.98047 10.8507 4.30402C10.793 4.62757 11.0058 4.94226 11.3338 4.99545Z" fill="#fff"/>
<path d="M20.9604 9.26355C20.5659 6.94994 19.4756 4.84465 17.8003 3.16928C16.1249 1.49391 14.0196 0.403587 11.706 0.00912211C11.3824 -0.0484964 11.0766 0.173113 11.019 0.496664C10.9658 0.824646 11.183 1.13047 11.511 1.18809C13.5764 1.53823 15.4601 2.51774 16.9581 4.01139C18.4562 5.50948 19.4313 7.39316 19.7814 9.45856C19.8302 9.75109 20.0828 9.95497 20.3709 9.95497C20.4064 9.95497 20.4374 9.95054 20.4729 9.94611C20.7964 9.89735 21.018 9.5871 20.9604 9.26355Z" fill="#fff"/>
</svg>
