<svg width="31" height="25" viewBox="0 0 33 27" fill="none" xmlns="http://www.w3.org/2000/svg">
<path d="M1 1C1 1 5.2 1 5.8 1C6.4 1 7 1.55556 7.6 2.11111C8.2 2.66667 8.8 4.88889 8.8 4.88889L8.83871 5.44444M12.95 23.7778H11.75C11.75 23.7778 10 23.2222 10 22.1111C10 21 9.53548 15.4444 9.53548 15.4444M12.95 23.7778C12.95 23.7778 12.95 21.5556 15.35 21.5556C17.75 21.5556 17.75 23.7778 17.75 23.7778M12.95 23.7778C12.95 23.7778 12.95 26 15.35 26C17.75 26 17.75 23.7778 17.75 23.7778M17.75 23.7778H22.55M22.55 23.7778C22.55 23.7778 22.55 21.5556 24.95 21.5556C27.35 21.5556 27.35 23.7778 27.35 23.7778C27.35 23.7778 27.35 26 24.95 26C22.55 26 22.55 23.7778 22.55 23.7778ZM8.83871 5.44444H31C31 5.44444 30 10.5 29 13.7778C28.5137 15.3719 26.6 15.4444 26.6 15.4444H9.53548M8.83871 5.44444L9.53548 15.4444" stroke="white" stroke-width="1.3"/>
</svg>
