<svg width="24" height="24" viewBox="0 0 24 24" fill="none" xmlns="http://www.w3.org/2000/svg">
<path d="M22.5 23.0001H1L6.51282 14.7308C6.51282 14.7308 10.3718 20.2437 12.0256 20.2437C13.6795 20.2437 16.9872 14.7308 16.9872 14.7308L22.5 23.0001Z" stroke="white"/>
<path d="M6.51273 14.7308C6.51273 14.7308 4.85888 12.5257 4.85889 8.66668C4.85889 4.8077 7.50454 0.94873 11.4743 0.94873C15.444 0.94873 18.0897 5.35899 18.0897 8.66668C18.0896 11.9744 16.9871 14.7308 16.9871 14.7308" stroke="white"/>
<path d="M13.7308 8.6667C13.7308 10.3066 12.6391 11.4744 11.4744 11.4744C10.3097 11.4744 9.21802 10.3066 9.21802 8.6667C9.21802 7.02683 10.3097 5.85901 11.4744 5.85901C12.6391 5.85901 13.7308 7.02683 13.7308 8.6667Z" stroke="white"/>
</svg>
