<svg width="21" height="19" viewBox="0 0 21 19" fill="none" xmlns="http://www.w3.org/2000/svg">
<path d="M1 1C1 1 3.66 1 4.04 1C4.42 1 4.8 1.37778 5.18 1.75556C5.56 2.13333 5.94 3.64444 5.94 3.64444L5.96452 4.02222M8.56833 16.4889H7.80833C7.80833 16.4889 6.7 16.1111 6.7 15.3556C6.7 14.6 6.40581 10.8222 6.40581 10.8222M8.56833 16.4889C8.56833 16.4889 8.56833 14.9778 10.0883 14.9778C11.6083 14.9778 11.6083 16.4889 11.6083 16.4889M8.56833 16.4889C8.56833 16.4889 8.56833 18 10.0883 18C11.6083 18 11.6083 16.4889 11.6083 16.4889M11.6083 16.4889H14.6483M14.6483 16.4889C14.6483 16.4889 14.6483 14.9778 16.1683 14.9778C17.6883 14.9778 17.6883 16.4889 17.6883 16.4889C17.6883 16.4889 17.6883 18 16.1683 18C14.6483 18 14.6483 16.4889 14.6483 16.4889ZM5.96452 4.02222H20C20 4.02222 20 7.375 20 9.68889C20 10.8222 18.48 10.8222 18.48 10.8222H6.40581M5.96452 4.02222L6.40581 10.8222" stroke="#fff"/>
</svg>
