<svg width="27" height="14" viewBox="0 0 27 14" fill="none" xmlns="http://www.w3.org/2000/svg">
<path d="M1.40537 5.38519L3.57422 4.40855L5.48856 1.3968C6.04184 0.523825 7.01561 -0.0054143 8.0613 4.17811e-05H16.2166C17.1627 4.17811e-05 18.059 0.431072 18.6344 1.1731L21.1076 4.36491L25.2295 5.47795C26.2752 5.76166 27 6.70556 27 7.77496V9.32994C27 10.6449 25.9377 11.7306 24.6043 11.7306H24.2502C23.8242 13.3511 22.1478 14.3223 20.5045 13.9021C19.4256 13.6239 18.5791 12.7945 18.3025 11.7306H9.0074C8.58138 13.3511 6.90495 14.3223 5.26171 13.9021C4.18282 13.6239 3.33631 12.7945 3.05967 11.7306H2.39573C1.06233 11.7306 4.19617e-05 10.6449 4.19617e-05 9.32994V7.55671C-0.00549126 6.62372 0.547787 5.77257 1.40537 5.38519ZM21.2791 12.8982C22.3635 12.8982 23.2432 12.0307 23.2432 10.9613C23.2432 9.89192 22.3635 9.0244 21.2791 9.0244C20.1947 9.0244 19.315 9.89192 19.315 10.9613C19.3094 12.0252 20.1891 12.8928 21.2791 12.8982ZM6.0363 12.8982C7.12073 12.8982 8.00044 12.0307 8.00044 10.9613C8.00044 9.89192 7.12073 9.0244 6.0363 9.0244C4.95188 9.0244 4.07217 9.89192 4.07217 10.9613C4.06663 12.0252 4.94635 12.8928 6.0363 12.8982ZM2.39573 10.6394H2.98221C3.16479 8.97529 4.68631 7.77496 6.3738 7.96046C7.80679 8.11323 8.93548 9.23173 9.09039 10.6394H18.225C18.4076 8.97529 19.9291 7.77496 21.6166 7.96046C23.0496 8.11323 24.1783 9.23173 24.3332 10.6394H24.6098C25.3346 10.6394 25.899 10.0447 25.899 9.32994V7.77496C25.9045 7.19116 25.5117 6.68374 24.9418 6.52551L20.6318 5.36337C20.5156 5.33063 20.4105 5.26516 20.3385 5.16695L17.7603 1.83328C17.3896 1.36406 16.8197 1.09126 16.2166 1.09126H8.0613C7.39737 1.0858 6.77216 1.41862 6.4236 1.97514L4.42073 5.12876C4.3654 5.22151 4.27688 5.29244 4.18282 5.33609L1.87012 6.3782C1.40537 6.59099 1.1066 7.0493 1.11213 7.55671V9.32994H1.1066C1.1066 10.0447 1.67094 10.6394 2.39573 10.6394Z" fill="#C2C2C8"/>
</svg>
