<svg width="22" height="22" viewBox="0 0 22 22" fill="none" xmlns="http://www.w3.org/2000/svg">
<path d="M20.7856 3.88789e-08H1.21336C0.543152 0.000335732 -0.000167808 0.543991 3.88789e-08 1.21437V20.7866C0.000335732 21.4568 0.543991 22.0002 1.21437 22H20.7856C21.4562 22.0002 21.9998 21.4567 22 20.7861C22 20.786 22 20.7858 22 20.7856V1.21336C21.9997 0.543152 21.456 -0.000167808 20.7856 3.88789e-08Z" fill="#4267B2"/>
<path d="M15.1895 22V13.4922H18.0576L18.4873 10.1621H15.1895V8.04118C15.1895 7.07925 15.4565 6.42381 16.8359 6.42381H18.584V3.45343C18.2798 3.41298 17.2363 3.32251 16.0221 3.32251C13.487 3.32251 11.752 4.86938 11.752 7.71136V10.1621H8.89453V13.4922H11.752V22H15.1895Z" fill="white"/>
</svg>
