<svg width="20" height="23" viewBox="0 0 20 23" fill="none" xmlns="http://www.w3.org/2000/svg">
<path d="M6.68421 12.8696C6.68421 12.8696 1 15.1522 1 17.8913C1 20.6304 3.84211 22 5.73684 22C7.63158 22 10 22 10 22C10 22 12.3684 22 14.2632 22C16.1579 22 19 20.6304 19 17.8913C19 15.1522 13.3158 12.8696 13.3158 12.8696M10 1C7.63158 1 5.73684 3.69339 5.73684 6.47826C5.73684 9.26313 7.63158 11.9565 10 11.9565C12.3684 11.9565 14.2632 9.21739 14.2632 6.47826C14.2632 3.73913 12.3684 1 10 1Z" stroke="black"/>
</svg>
