<svg width="380" height="384" viewBox="0 0 380 384" fill="none" xmlns="http://www.w3.org/2000/svg">
<mask id="mask0" style="mask-type:alpha" maskUnits="userSpaceOnUse" x="0" y="0" width="380" height="384">
<path d="M378.595 361.998C378.595 361.999 378.595 362 378.657 362H378.595C378.595 373.874 368.969 383.5 357.095 383.5H22.095C10.2209 383.5 0.594975 373.874 0.594975 362C0.594975 348.6 0.576052 298.675 0.555099 243.395L0.54751 223.349C0.523774 160.51 0.500031 95.6385 0.5 72.5C0.499991 65.3574 2.73726 59.9581 6.45835 56.3438C10.1824 52.7266 15.4462 50.8453 21.595 50.8453C34.0965 50.8453 85.5985 50.6128 98.0995 50.5C104.408 50.443 110.049 49.0558 114.114 45.4571C118.191 41.8473 120.595 36.0927 120.595 27.5V27.4874V27.4748V27.4621V27.4494V27.4367V27.424V27.4112V27.3985V27.3856V27.3728V27.3599V27.3471V27.3341V27.3212V27.3082V27.2952V27.2822V27.2692V27.2561V27.2431V27.2299V27.2168V27.2037V27.1905V27.1773V27.1641V27.1508V27.1376V27.1243V27.111V27.0976V27.0843V27.0709V27.0575V27.0441V27.0307V27.0172V27.0037V26.9902V26.9767V26.9632V26.9496V26.9361V26.9225V26.9088V26.8952V26.8816V26.8679V26.8542V26.8405V26.8268V26.8131V26.7993V26.7856V26.7718V26.758V26.7442V26.7303V26.7165V26.7026V26.6887V26.6748V26.6609V26.647V26.6331V26.6191V26.6051V26.5912V26.5772V26.5631V26.5491V26.5351V26.521V26.507V26.4929V26.4788V26.4647V26.4506V26.4365V26.4224V26.4082V26.3941V26.3799V26.3657V26.3515V26.3373V26.3231V26.3089V26.2947V26.2804V26.2662V26.2519V26.2377V26.2234V26.2091V26.1948V26.1805V26.1662V26.1519V26.1376V26.1233V26.1089V26.0946V26.0803V26.0659V26.0515V26.0372V26.0228V26.0084V25.9941V25.9797V25.9653V25.9509V25.9365V25.9221V25.9077V25.8932V25.8788V25.8644V25.85V25.8356V25.8211V25.8067V25.7923V25.7778V25.7634V25.7489V25.7345V25.72V25.7056V25.6911V25.6767V25.6622V25.6478V25.6334V25.6189V25.6045V25.59V25.5756V25.5611V25.5467V25.5322V25.5178V25.5033V25.4889V25.4744V25.46V25.4456V25.4311V25.4167V25.4023V25.3879V25.3734V25.359V25.3446V25.3302V25.3158V25.3014V25.287V25.2726V25.2582V25.2438V25.2295V25.2151V25.2007V25.1864V25.172V25.1577V25.1433V25.129V25.1147V25.1004V25.0861V25.0718V25.0575V25.0432V25.0289V25.0146V25.0004V24.9861V24.9719V24.9576V24.9434V24.9292V24.915V24.9008V24.8866V24.8725V24.8583V24.8441V24.83V24.8159V24.8018V24.7876V24.7736V24.7595V24.7454V24.7313V24.7173V24.7033V24.6893V24.6753V24.6613V24.6473V24.6333V24.6194V24.6054V24.5915V24.5776V24.5637V24.5499V24.536V24.5222V24.5083V24.4945V24.4807V24.4669V24.4532V24.4394V24.4257V24.412V24.3983V24.3846V24.371V24.3573V24.3437V24.3301V24.3165V24.3029V24.2894V24.2759V24.2624V24.2489V24.2354V24.222V24.2085V24.1951V24.1817V24.1684V24.155V24.1417V24.1284V24.1151V24.1019V24.0886V24.0754V24.0622V24.049V24.0359V24.0228V24.0097V23.9966V23.9836V23.9705V23.9575V23.9445V23.9316V23.9187V23.9058V23.8929V23.88V23.8672V23.8544V23.8416V23.8289V23.8161V23.8034V23.7908V23.7781V23.7655V23.7529V23.7404V23.7278V23.7153V23.7028V23.6904V23.678V23.6656V23.6532V23.6409V23.6286V23.6163V23.6041V23.5919V23.5797V23.5675V23.5554V23.5433V23.5312V23.5192V23.5072V23.4952V23.4833V23.4714V23.4595V23.4477V23.4359V23.4241V23.4124V23.4007V23.389V23.3774V23.3658V23.3542V23.3427V23.3312V23.3197V23.3083V23.2969V23.2855V23.2742V23.2629V23.2516V23.2404V23.2292V23.2181V23.207V23.1959V23.1849V23.1739V23.1629V23.152V23.1411V23.1303V23.1195V23.1087V23.098V23.0873V23.0767V23.066V23.0555V23.0449V23.0345V23.024V23.0136V23.0032V22.9929V22.9826V22.9724V22.9622V22.952V22.9419V22.9318V22.9218V22.9118V22.9018V22.8919V22.882V22.8722V22.8624V22.8527V22.843V22.8334V22.8238V22.8142V22.8047V22.7952V22.7858V22.7764V22.7671V22.7578V22.7486V22.7394V22.7302V22.7211V22.7121V22.7031V22.6941V22.6852V22.6763V22.6675V22.6587V22.65V22.6413V22.6327V22.6242V22.6156V22.6071V22.5987V22.5903V22.582V22.5737V22.5655V22.5573V22.5492V22.5411V22.5331V22.5251V22.5172V22.5093V22.5015V22.4938V22.486V22.4784V22.4708V22.4632V22.4557V22.4483V22.4409V22.4335V22.4262V22.419V22.4118V22.4047V22.3976V22.3906V22.3836V22.3767V22.3699V22.3631V22.3564V22.3497V22.343V22.3365V22.33V22.3235V22.3171V22.3108V22.3045V22.2983V22.2921V22.286V22.2799V22.2739V22.268V22.2621V22.2563V22.2506V22.2449V22.2392V22.2337V22.2281V22.2227V22.2173V22.212V22.2067V22.2015V22.1963V22.1912V22.1862V22.1812V22.1763V22.1715V22.1667V22.162V22.1573V22.1528V22.1482V22.1438V22.1394V22.135V22.1308V22.1266V22.1224V22.1184V22.1143V22.1104V22.1065V22.1027V22.099V22.0953V22.0917V22.0881V22.0846V22.0812V22.0779V22.0746V22.0714V22.0682V22.0652V22.0621V22.0592V22.0563V22.0535V22.0508V22.0481V22.0455V22.043V22.0406V22.0382V22.0359V22.0336V22.0314V22.0293V22.0273V22.0253V22.0234V22.0216V22.0199V22.0182V22.0166V22.0151V22.0136V22.0122V22.0109V22.0097V22.0085V22.0074V22.0064V22.0055V22.0046V22.0038V22.0031V22.0024V22.0019V22.0014V22.001V22.0006V22.0003V22.0002V22C120.595 10.1259 130.221 0.5 142.095 0.5H235.095C246.354 0.5 255.592 9.15434 256.518 20.1736C256.511 21.5882 256.506 24.0319 256.506 28C256.506 36.608 259.168 42.2881 263.37 45.8037C267.555 49.3054 273.187 50.5904 279 50.5904C284.748 50.5904 301.86 50.6928 318.668 50.7952L321.699 50.8137C337.418 50.9095 352.247 51 356.495 51C368.608 51 378.091 60.7657 378.091 73C378.091 79.2506 378.217 151.501 378.343 222.188C378.406 257.532 378.469 292.485 378.516 318.602L378.573 350.096L378.589 358.893L378.594 361.207L378.595 361.8L378.595 361.951L378.595 361.988L378.595 361.998Z" fill="white" stroke="#E2E2E6"/>
</mask>
<g mask="url(#mask0)">
<path d="M120.095 23C120.095 10.8497 129.945 1 142.095 1H235.095C247.245 1 257.095 10.8497 257.095 23C257.095 23 257.006 12 257.006 29C257.006 46 267.5 51.0904 279 51.0904C290.5 51.0904 347.458 51.5 356.495 51.5C368.895 51.5 378.591 61.5 378.591 74C378.591 86.5 379.095 362 379.095 362C379.095 374.15 369.245 384 357.095 384H22.095C9.94471 384 0.0949745 374.15 0.0949745 362C0.0949745 331.989 6.11174e-05 119.777 0 73.5C-1.91499e-05 59 9.09497 51.3453 21.595 51.3453C34.095 51.3453 85.5955 51.1128 98.095 51C110.594 50.8872 120.095 45.5 120.095 28.5C120.095 26.3521 120.095 23 120.095 23Z" fill="white"/>
<path d="M378.595 361.998C378.595 361.999 378.595 362 378.655 362H378.595C378.595 373.874 368.969 383.5 357.095 383.5H22.095C10.2208 383.5 0.594975 373.874 0.594975 362C0.594975 348.6 0.576052 298.875 0.555099 243.816L0.54751 223.849C0.523774 161.26 0.500031 96.6385 0.5 73.5C0.499991 66.3574 2.73726 60.9581 6.45835 57.3438C10.1824 53.7266 15.4462 51.8453 21.595 51.8453C34.0965 51.8453 85.5985 51.6128 98.0995 51.5C104.408 51.443 110.049 50.0558 114.114 46.4571C118.191 42.8473 120.595 37.0927 120.595 28.5V28.4874V28.4748V28.4621V28.4494V28.4367V28.424V28.4112V28.3985V28.3856V28.3728V28.3599V28.3471V28.3341V28.3212V28.3082V28.2952V28.2822V28.2692V28.2561V28.2431V28.2299V28.2168V28.2037V28.1905V28.1773V28.1641V28.1508V28.1376V28.1243V28.111V28.0976V28.0843V28.0709V28.0575V28.0441V28.0307V28.0172V28.0037V27.9902V27.9767V27.9632V27.9496V27.9361V27.9225V27.9088V27.8952V27.8816V27.8679V27.8542V27.8405V27.8268V27.8131V27.7993V27.7856V27.7718V27.758V27.7442V27.7303V27.7165V27.7026V27.6887V27.6748V27.6609V27.647V27.6331V27.6191V27.6051V27.5912V27.5772V27.5631V27.5491V27.5351V27.521V27.507V27.4929V27.4788V27.4647V27.4506V27.4365V27.4224V27.4082V27.3941V27.3799V27.3657V27.3515V27.3373V27.3231V27.3089V27.2947V27.2804V27.2662V27.2519V27.2377V27.2234V27.2091V27.1948V27.1805V27.1662V27.1519V27.1376V27.1233V27.1089V27.0946V27.0803V27.0659V27.0515V27.0372V27.0228V27.0084V26.9941V26.9797V26.9653V26.9509V26.9365V26.9221V26.9077V26.8932V26.8788V26.8644V26.85V26.8356V26.8211V26.8067V26.7923V26.7778V26.7634V26.7489V26.7345V26.72V26.7056V26.6911V26.6767V26.6622V26.6478V26.6334V26.6189V26.6045V26.59V26.5756V26.5611V26.5467V26.5322V26.5178V26.5033V26.4889V26.4744V26.46V26.4456V26.4311V26.4167V26.4023V26.3879V26.3734V26.359V26.3446V26.3302V26.3158V26.3014V26.287V26.2726V26.2582V26.2438V26.2295V26.2151V26.2007V26.1864V26.172V26.1577V26.1433V26.129V26.1147V26.1004V26.0861V26.0718V26.0575V26.0432V26.0289V26.0146V26.0004V25.9861V25.9719V25.9576V25.9434V25.9292V25.915V25.9008V25.8866V25.8725V25.8583V25.8441V25.83V25.8159V25.8018V25.7876V25.7736V25.7595V25.7454V25.7313V25.7173V25.7033V25.6893V25.6753V25.6613V25.6473V25.6333V25.6194V25.6054V25.5915V25.5776V25.5637V25.5499V25.536V25.5222V25.5083V25.4945V25.4807V25.4669V25.4532V25.4394V25.4257V25.412V25.3983V25.3846V25.371V25.3573V25.3437V25.3301V25.3165V25.3029V25.2894V25.2759V25.2624V25.2489V25.2354V25.222V25.2085V25.1951V25.1817V25.1684V25.155V25.1417V25.1284V25.1151V25.1019V25.0886V25.0754V25.0622V25.049V25.0359V25.0228V25.0097V24.9966V24.9836V24.9705V24.9575V24.9445V24.9316V24.9187V24.9058V24.8929V24.88V24.8672V24.8544V24.8416V24.8289V24.8161V24.8034V24.7908V24.7781V24.7655V24.7529V24.7404V24.7278V24.7153V24.7028V24.6904V24.678V24.6656V24.6532V24.6409V24.6286V24.6163V24.6041V24.5919V24.5797V24.5675V24.5554V24.5433V24.5312V24.5192V24.5072V24.4952V24.4833V24.4714V24.4595V24.4477V24.4359V24.4241V24.4124V24.4007V24.389V24.3774V24.3658V24.3542V24.3427V24.3312V24.3197V24.3083V24.2969V24.2855V24.2742V24.2629V24.2516V24.2404V24.2292V24.2181V24.207V24.1959V24.1849V24.1739V24.1629V24.152V24.1411V24.1303V24.1195V24.1087V24.098V24.0873V24.0767V24.066V24.0555V24.0449V24.0345V24.024V24.0136V24.0032V23.9929V23.9826V23.9724V23.9622V23.952V23.9419V23.9318V23.9218V23.9118V23.9018V23.8919V23.882V23.8722V23.8624V23.8527V23.843V23.8334V23.8238V23.8142V23.8047V23.7952V23.7858V23.7764V23.7671V23.7578V23.7486V23.7394V23.7302V23.7211V23.7121V23.7031V23.6941V23.6852V23.6763V23.6675V23.6587V23.65V23.6413V23.6327V23.6242V23.6156V23.6071V23.5987V23.5903V23.582V23.5737V23.5655V23.5573V23.5492V23.5411V23.5331V23.5251V23.5172V23.5093V23.5015V23.4938V23.486V23.4784V23.4708V23.4632V23.4557V23.4483V23.4409V23.4335V23.4262V23.419V23.4118V23.4047V23.3976V23.3906V23.3836V23.3767V23.3699V23.3631V23.3564V23.3497V23.343V23.3365V23.33V23.3235V23.3171V23.3108V23.3045V23.2983V23.2921V23.286V23.2799V23.2739V23.268V23.2621V23.2563V23.2506V23.2449V23.2392V23.2337V23.2281V23.2227V23.2173V23.212V23.2067V23.2015V23.1963V23.1912V23.1862V23.1812V23.1763V23.1715V23.1667V23.162V23.1573V23.1528V23.1482V23.1438V23.1394V23.135V23.1308V23.1266V23.1224V23.1184V23.1143V23.1104V23.1065V23.1027V23.099V23.0953V23.0917V23.0881V23.0846V23.0812V23.0779V23.0746V23.0714V23.0682V23.0652V23.0621V23.0592V23.0563V23.0535V23.0508V23.0481V23.0455V23.043V23.0406V23.0382V23.0359V23.0336V23.0314V23.0293V23.0273V23.0253V23.0234V23.0216V23.0199V23.0182V23.0166V23.0151V23.0136V23.0122V23.0109V23.0097V23.0085V23.0074V23.0064V23.0055V23.0046V23.0038V23.0031V23.0024V23.0019V23.0014V23.001V23.0006V23.0003V23.0002V23C120.595 11.1259 130.221 1.5 142.095 1.5H235.095C246.354 1.5 255.592 10.1543 256.518 21.1736C256.511 22.5882 256.506 25.0319 256.506 29C256.506 37.608 259.168 43.2881 263.37 46.8037C267.555 50.3054 273.187 51.5904 279 51.5904C284.748 51.5904 301.86 51.6928 318.668 51.7952L321.699 51.8137C337.418 51.9095 352.247 52 356.495 52C368.608 52 378.091 61.7657 378.091 74C378.091 80.2506 378.217 152.251 378.343 222.688C378.406 257.907 378.469 292.735 378.516 318.759L378.573 350.139L378.589 358.904L378.594 361.21L378.595 361.801L378.595 361.951L378.595 361.988L378.595 361.998Z" stroke="#D8D8DD"/>
</g>
</svg>
