<svg width="25" height="23" viewBox="0 0 25 23" fill="none" xmlns="http://www.w3.org/2000/svg">
<path d="M0 1C0 1 3.36 1 3.84 1C4.32 1 4.8 1.46667 5.28 1.93333C5.76 2.4 6.24 4.26667 6.24 4.26667L6.27097 4.73333M9.56 20.1333H8.6C8.6 20.1333 7.2 19.6667 7.2 18.7333C7.2 17.8 6.82839 13.1333 6.82839 13.1333M9.56 20.1333C9.56 20.1333 9.56 18.2667 11.48 18.2667C13.4 18.2667 13.4 20.1333 13.4 20.1333M9.56 20.1333C9.56 20.1333 9.56 22 11.48 22C13.4 22 13.4 20.1333 13.4 20.1333M13.4 20.1333H17.24M17.24 20.1333C17.24 20.1333 17.24 18.2667 19.16 18.2667C21.08 18.2667 21.08 20.1333 21.08 20.1333C21.08 20.1333 21.08 22 19.16 22C17.24 22 17.24 20.1333 17.24 20.1333ZM6.27097 4.73333H24C24 4.73333 24 8.875 24 11.7333C24 13.1333 22.08 13.1333 22.08 13.1333H6.82839M6.27097 4.73333L6.82839 13.1333" stroke="black"/>
</svg>
