<svg width="23" height="21" viewBox="0 0 23 21" fill="none" xmlns="http://www.w3.org/2000/svg">
<path opacity="0.6" d="M22.4688 8.95257L21.2254 8.83399C21.0794 8.32411 20.881 7.83794 20.6183 7.37549L21.4063 6.40909C21.599 6.17194 21.5815 5.83399 21.3713 5.61462L19.8185 4.01976C19.6084 3.80039 19.264 3.78261 19.0305 3.97826L18.0789 4.77866C17.6294 4.51779 17.1449 4.31028 16.6487 4.16206L16.532 2.90514C16.5028 2.60277 16.2518 2.37154 15.9482 2.37154H14.0102V0.592885C14.0102 0.266798 13.7475 0 13.4264 0C13.1053 0 12.8426 0.266798 12.8426 0.592885V3.55731H10.636C9.69619 3.55731 8.80305 4.00791 8.23096 4.7668L5.82589 7.98617L1.78046 9.10672C0.729695 9.39723 0.00583756 10.3636 0 11.4723V13.0435C0.00583756 14.3953 1.09162 15.4862 2.42259 15.4862H2.73782C3.17563 17.1403 4.85102 18.1126 6.4797 17.668C7.52462 17.3775 8.34772 16.5474 8.62792 15.4862H12.8426V20.4071C12.8426 20.7332 13.1053 21 13.4264 21C13.7475 21 14.0102 20.7332 14.0102 20.4071V18.9842H15.9482C16.2518 18.9842 16.5028 18.753 16.532 18.4447L16.6487 17.1818C17.1508 17.0336 17.6294 16.832 18.0848 16.5711L19.0363 17.3715C19.2698 17.5672 19.6084 17.5494 19.8185 17.336L21.3888 15.7411C21.599 15.5277 21.6165 15.1779 21.4239 14.9407L20.6358 13.9743C20.8926 13.5119 21.097 13.0257 21.2429 12.5217L22.4688 12.4032C22.7665 12.3735 23 12.1186 23 11.8103V9.53953C23 9.23715 22.7665 8.98221 22.4688 8.95257ZM5.67995 16.5949C4.64086 16.5949 3.79442 15.7352 3.79442 14.6798C3.79442 13.6245 4.64086 12.7648 5.67995 12.7648C6.71904 12.7648 7.56548 13.6245 7.56548 14.6798C7.56548 15.7352 6.72487 16.5949 5.67995 16.5949ZM12.8426 14.2945H8.70964C8.50533 12.5929 6.98173 11.3893 5.31218 11.5909C3.92284 11.7628 2.82538 12.8775 2.65025 14.2945H2.41675C1.72792 14.3004 1.16751 13.7372 1.16168 13.0375V11.4723C1.16751 10.9032 1.54112 10.4051 2.08401 10.251L6.32208 9.07708C6.44467 9.0415 6.55558 8.97036 6.63147 8.86364L9.16497 5.49012C9.51523 5.02174 10.064 4.74901 10.6419 4.74901H12.8426V14.2945ZM14.0102 8.1581C15.3761 7.69565 16.853 8.44862 17.3084 9.8419C17.7637 11.2352 17.0223 12.7292 15.6505 13.1917C15.1193 13.3696 14.5414 13.3696 14.0102 13.1917V8.1581ZM21.8325 11.2648L20.7234 11.3715C20.4723 11.3953 20.2622 11.585 20.2096 11.834C20.0637 12.498 19.801 13.1265 19.4332 13.6957C19.2931 13.915 19.3107 14.1937 19.4741 14.3953L20.1863 15.2727L19.369 16.1028L18.5051 15.3854C18.3066 15.2194 18.0264 15.2016 17.8104 15.3498C17.2558 15.7233 16.6371 15.9901 15.9832 16.1324C15.7322 16.1858 15.5513 16.3992 15.5279 16.6542L15.4228 17.7925H14.0102V14.419C16.0475 14.8814 18.0673 13.5771 18.5168 11.5079C18.9721 9.43874 17.6878 7.38735 15.6505 6.9249C15.1076 6.80039 14.5472 6.80039 14.0102 6.9249V3.56324H15.417L15.5279 4.69565C15.5513 4.95059 15.7381 5.16403 15.9832 5.21739C16.6371 5.36561 17.2558 5.63241 17.8162 6C18.0322 6.14229 18.3066 6.12451 18.5051 5.9585L19.3632 5.23518L20.1688 6.05929L19.4508 6.94269C19.2873 7.14427 19.2698 7.42885 19.4157 7.64822C19.7835 8.21146 20.0462 8.83992 20.1863 9.50395C20.2447 9.75889 20.449 9.94269 20.7058 9.9664L21.8325 10.0791V11.2648Z" fill="white"/>
</svg>
