<svg width="17" height="22" viewBox="0 0 17 22" fill="none" xmlns="http://www.w3.org/2000/svg">
<g opacity="0.4">
<path d="M15.6321 3.4195C14.6816 1.23788 13.36 0.0428969 11.9168 0.0428969L5.50631 0.0306407C5.37879 0.0122563 5.24548 0 5.11217 0C3.66314 0 2.33583 1.20724 1.37948 3.40111C0.486874 5.44178 0 8.13816 0 11C0 13.8618 0.49267 16.5582 1.37948 18.5989C2.33583 20.7928 3.66314 22 5.11217 22C5.24548 22 5.373 21.9877 5.50631 21.9694L11.8704 21.9571C13.3195 21.9571 14.6468 20.7682 15.6089 18.5866C16.5073 16.5521 17 13.8557 17 11C17 8.13816 16.5131 5.44791 15.6321 3.4195ZM5.29185 20.7621H5.26287C5.22809 20.7621 5.19332 20.7682 5.15854 20.7744C5.14115 20.7744 5.12376 20.7744 5.10638 20.7744C4.15581 20.7744 3.18207 19.7939 2.43437 18.0903C1.61132 16.2089 1.15922 13.6903 1.15922 11C1.15922 8.30975 1.61132 5.79721 2.43437 3.90975C3.17627 2.2 4.15581 1.22563 5.11217 1.22563C6.06853 1.22563 7.04807 2.20613 7.78998 3.90975C8.61302 5.79109 9.06512 8.30975 9.06512 11C9.06512 13.6903 8.61302 16.2028 7.78998 18.0903C7.09444 19.6897 6.19025 20.6518 5.29185 20.7621ZM10.404 17.6735C10.2185 17.8451 10.0041 18.0351 9.86499 18.3047C9.71429 18.5928 9.66792 18.8992 9.62155 19.1688C9.59836 19.3097 9.56359 19.5242 9.52881 19.5733C9.45926 19.6652 9.25639 19.7265 9.06512 19.7877C8.85066 19.8429 8.6478 19.9287 8.45653 20.039C8.21889 20.1922 8.0566 20.4435 7.9059 20.6702C7.88851 20.7008 7.86532 20.7315 7.84794 20.756H7.52915C8.01602 20.2045 8.46233 19.4875 8.85067 18.605C9.74327 16.5643 10.2301 13.868 10.2301 11.0061C10.2301 8.14429 9.73747 5.44791 8.85067 3.40724C8.46233 2.51866 8.01602 1.79554 7.52335 1.24401L8.57825 1.25014C8.63621 1.28078 8.69997 1.31755 8.76952 1.35432C9.03614 1.50752 9.37232 1.70362 9.52881 1.89972C9.56938 1.95487 9.59836 2.16323 9.62155 2.30418C9.66212 2.57382 9.71429 2.88022 9.86499 3.16825C10.0041 3.43788 10.2185 3.62786 10.404 3.79944C10.5373 3.92201 10.6938 4.06295 10.7344 4.16713C10.7634 4.24067 10.7402 4.44903 10.7228 4.60223C10.6938 4.88412 10.6648 5.20891 10.7518 5.53983C10.8387 5.85237 11.0184 6.10362 11.1749 6.31811C11.2792 6.46518 11.401 6.62451 11.4183 6.72869C11.4357 6.80836 11.3836 7.00446 11.343 7.16379C11.2734 7.43956 11.1923 7.75822 11.2329 8.10139C11.2734 8.43231 11.4241 8.70808 11.5517 8.9532C11.6386 9.11254 11.7313 9.28412 11.7371 9.3883C11.7429 9.47409 11.6676 9.66407 11.6096 9.81727C11.5053 10.0808 11.3836 10.3872 11.3836 10.7365C11.3836 11.0858 11.5053 11.3861 11.6096 11.6557C11.6676 11.8089 11.7429 11.9989 11.7371 12.0847C11.7313 12.1827 11.6328 12.3604 11.5517 12.5198C11.4183 12.7649 11.2676 13.0407 11.2329 13.3716C11.1923 13.7209 11.2734 14.0334 11.343 14.3092C11.3836 14.4685 11.4357 14.6646 11.4183 14.7443C11.401 14.8485 11.2792 15.0078 11.1749 15.1549C11.0126 15.3694 10.8329 15.6206 10.7518 15.9331C10.6648 16.2702 10.6938 16.5889 10.7228 16.8708C10.7402 17.024 10.7576 17.2323 10.7344 17.3058C10.6938 17.41 10.5431 17.551 10.404 17.6735ZM11.6328 19.1688C11.6096 19.3097 11.5748 19.5242 11.5401 19.5733C11.4705 19.6652 11.2676 19.7265 11.0764 19.7877C10.9257 19.8306 10.7808 19.8858 10.6359 19.9471C10.6938 19.7571 10.7402 19.5671 10.7634 19.371C10.7924 19.1872 10.8213 19.0033 10.8793 18.893C10.9141 18.8195 11.0416 18.7092 11.1575 18.605C11.3836 18.3967 11.6676 18.1454 11.8125 17.7532C11.94 17.4039 11.9052 17.0546 11.8762 16.7421C11.8588 16.5582 11.8415 16.3682 11.8704 16.2641C11.8936 16.1783 11.998 16.0373 12.0965 15.9086C12.2704 15.6696 12.4906 15.3694 12.566 14.9833C12.6355 14.6156 12.5486 14.2847 12.4732 13.9844C12.4269 13.8067 12.3805 13.629 12.3921 13.5187C12.4037 13.4267 12.4906 13.2674 12.5718 13.1203C12.7109 12.863 12.8848 12.5382 12.9079 12.1521C12.9311 11.7783 12.8036 11.4596 12.6877 11.1777C12.6239 11.0123 12.5544 10.8345 12.5544 10.7365C12.5544 10.6384 12.6239 10.4607 12.6877 10.2953C12.7978 10.0134 12.9253 9.68858 12.9079 9.32089C12.8848 8.93482 12.7109 8.61003 12.5718 8.35265C12.4964 8.2117 12.4037 8.04624 12.3921 7.95432C12.3805 7.85014 12.4269 7.6663 12.4732 7.48858C12.5486 7.19443 12.6355 6.85738 12.566 6.48969C12.4906 6.10362 12.2762 5.80334 12.0965 5.56435C12.0038 5.43566 11.8936 5.28858 11.8704 5.20891C11.8415 5.09861 11.8588 4.91476 11.8762 4.73092C11.9052 4.42451 11.94 4.06908 11.8125 3.72591C11.6676 3.3337 11.3836 3.08245 11.1575 2.87409C11.0474 2.77604 10.9199 2.65961 10.8793 2.58607C10.8213 2.47577 10.7924 2.29192 10.7634 2.10808C10.717 1.83231 10.6706 1.52591 10.5084 1.25627H10.6011C10.6591 1.29304 10.717 1.32368 10.7808 1.36045C11.0474 1.51365 11.3836 1.70975 11.5401 1.90585C11.5806 1.961 11.6096 2.16936 11.6328 2.31031C11.6734 2.57994 11.7255 2.88635 11.8762 3.17437C12.0153 3.44401 12.2298 3.63398 12.4153 3.80557C12.5486 3.92813 12.7051 4.06908 12.7457 4.16713C12.7746 4.24067 12.7514 4.44903 12.7341 4.60223C12.7109 4.87799 12.6761 5.20279 12.763 5.53983C12.85 5.85237 13.0297 6.10362 13.1862 6.31811C13.2905 6.46518 13.4122 6.62451 13.4296 6.72869C13.447 6.80836 13.3948 7.00446 13.3542 7.16379C13.2847 7.43956 13.2035 7.75822 13.2441 8.10139C13.2847 8.43231 13.4354 8.70808 13.5629 8.9532C13.6498 9.11254 13.7426 9.28412 13.7484 9.3883C13.7542 9.47409 13.6788 9.66407 13.6209 9.81727C13.5165 10.0808 13.3948 10.3872 13.3948 10.7365C13.3948 11.0858 13.5165 11.3861 13.6209 11.6557C13.6788 11.8089 13.7542 11.9989 13.7484 12.0847C13.7426 12.1827 13.6441 12.3604 13.5629 12.5198C13.4296 12.7649 13.2789 13.0407 13.2441 13.3716C13.2035 13.7209 13.2847 14.0334 13.3542 14.3092C13.3948 14.4685 13.447 14.6646 13.4296 14.7443C13.4122 14.8485 13.2905 15.0078 13.1862 15.1549C13.0239 15.3694 12.8442 15.6206 12.763 15.9331C12.6761 16.2702 12.7051 16.5889 12.7341 16.8708C12.7514 17.024 12.7688 17.2323 12.7457 17.3058C12.7051 17.41 12.5544 17.551 12.4153 17.6735C12.2298 17.8451 12.0153 18.0351 11.8762 18.3047C11.7255 18.5928 11.6792 18.8992 11.6328 19.1688ZM14.5598 18.0719C13.8353 19.7081 12.8964 20.6763 11.969 20.7376C12.1487 20.6457 12.3051 20.517 12.4327 20.3577C12.6703 20.0574 12.7283 19.6897 12.7804 19.371C12.8094 19.1872 12.8384 19.0033 12.8964 18.893C12.9311 18.8195 13.0586 18.7092 13.1746 18.605C13.4006 18.3967 13.6846 18.1454 13.8295 17.7532C13.957 17.4039 13.9223 17.0546 13.8933 16.7421C13.8759 16.5582 13.8585 16.3682 13.8875 16.2641C13.9107 16.1783 14.015 16.0373 14.1135 15.9086C14.2874 15.6696 14.5077 15.3694 14.583 14.9833C14.6526 14.6156 14.5656 14.2847 14.4903 13.9844C14.4439 13.8067 14.3975 13.629 14.4091 13.5187C14.4207 13.4267 14.5077 13.2674 14.5888 13.1203C14.7279 12.863 14.9018 12.5382 14.925 12.1521C14.9482 11.7783 14.8207 11.4596 14.7047 11.1777C14.641 11.0123 14.5714 10.8345 14.5714 10.7365C14.5714 10.6384 14.641 10.4607 14.7047 10.2953C14.8149 10.0134 14.9424 9.68858 14.925 9.32089C14.9018 8.93482 14.7279 8.61003 14.5888 8.35265C14.5135 8.2117 14.4207 8.04624 14.4091 7.95432C14.3975 7.85014 14.4439 7.6663 14.4903 7.48858C14.5656 7.19443 14.6526 6.85738 14.583 6.48969C14.5077 6.10362 14.2932 5.80334 14.1135 5.56435C14.0208 5.43566 13.9107 5.28858 13.8875 5.20891C13.8585 5.09861 13.8759 4.91476 13.8933 4.73092C13.9223 4.42451 13.957 4.06908 13.8295 3.71978C13.6846 3.32758 13.4006 3.07632 13.1746 2.86797C13.0644 2.76992 12.9369 2.65348 12.8964 2.57994C12.8384 2.46964 12.8094 2.28579 12.7804 2.10195C12.7514 1.86908 12.6993 1.64234 12.6181 1.42786C13.3369 1.77716 14.0266 2.64735 14.583 3.92813C15.3945 5.79721 15.8408 8.30975 15.8408 11C15.8408 13.6841 15.3887 16.1905 14.5598 18.0719Z" fill="white"/>
<path d="M5.11216 5.44177C3.59938 5.44177 2.63143 7.62338 2.63143 11C2.63143 14.3766 3.60517 16.5582 5.11796 16.5582C6.63075 16.5582 7.5987 14.3766 7.5987 11C7.5987 7.62338 6.62495 5.44177 5.11216 5.44177ZM5.97579 14.2724C5.85986 14.5911 5.54108 15.3265 5.11796 15.3265C4.69484 15.3265 4.37026 14.5911 4.25434 14.2724C3.95294 13.4512 3.79065 12.2869 3.79065 11C3.79065 9.71308 3.95874 8.54873 4.26014 7.72756C4.37606 7.4089 4.69484 6.67352 5.11796 6.67352C5.54108 6.67352 5.85986 7.41503 5.97579 7.72756C6.27718 8.54873 6.44527 9.71308 6.44527 11C6.44527 12.2869 6.27718 13.4512 5.97579 14.2724Z" fill="white"/>
</g>
</svg>
