<svg width="80" height="80" viewBox="0 0 80 80" fill="none" xmlns="http://www.w3.org/2000/svg">
<g clip-path="url(#clip0_3569_686)">
<path d="M77.584 50.8C75.2553 58.9774 70.3254 66.1732 63.5408 71.2978C56.7561 76.4223 48.4864 79.1965 39.984 79.2C34.8368 79.2032 29.7395 78.1912 24.9839 76.2219C20.2283 74.2527 15.9078 71.3648 12.2696 67.7237C8.6315 64.0826 5.74719 59.7598 3.78182 55.0026C1.81644 50.2454 0.808593 45.1472 0.815958 40C0.823958 18.344 18.32 0.800049 39.976 0.800049C50.808 0.800049 60.576 5.20805 67.656 12.32L68.224 12.88L68.792 12.32L79.176 1.92005V34.1921H46.912L61.672 19.4401L62.232 18.88L61.672 18.312C58.8359 15.4366 55.4586 13.151 51.7349 11.5871C48.0112 10.0232 44.0147 9.21193 39.976 9.20005C35.931 9.199 31.9254 9.99495 28.1881 11.5424C24.4508 13.0899 21.055 15.3586 18.1947 18.2188C15.3345 21.0791 13.0658 24.4749 11.5183 28.2122C9.97085 31.9495 9.17491 35.955 9.17596 40C9.18831 47.2053 11.7271 54.1782 16.3503 59.7047C20.9735 65.2312 27.3884 68.9614 34.4783 70.246C41.5682 71.5305 48.884 70.2881 55.1523 66.735C61.4206 63.1818 66.2444 57.543 68.784 50.8H77.584Z" fill="#A5883A" stroke="#A5883A" stroke-width="0.3"/>
</g>
<defs>
<clipPath id="clip0_3569_686">
<rect width="80" height="80" fill="white"/>
</clipPath>
</defs>
</svg>
