<svg width="19" height="10" viewBox="0 0 19 10" fill="none" xmlns="http://www.w3.org/2000/svg">
<g clip-path="url(#clip0_3970_1006)">
<path d="M0.988959 3.84657L2.51519 3.14897L3.86232 0.997715C4.25166 0.374161 4.93691 -0.00386735 5.67277 2.98436e-05H11.4117C12.0775 2.98436e-05 12.7082 0.307909 13.1131 0.837931L14.8535 3.11779L17.7541 3.91282C18.49 4.11547 19 4.78969 19 5.55354V6.66425C19 7.60347 18.2525 8.379 17.3142 8.379H17.065C16.7651 9.53646 15.5855 10.2302 14.4291 9.93008C13.6699 9.73131 13.0742 9.139 12.8795 8.379H6.33855C6.03875 9.53646 4.85904 10.2302 3.70269 9.93008C2.94347 9.73131 2.34777 9.139 2.1531 8.379H1.68589C0.747569 8.379 2.89142e-05 7.60347 2.89142e-05 6.66425V5.39765C-0.00386322 4.73123 0.385479 4.12327 0.988959 3.84657ZM14.9742 9.213C15.7373 9.213 16.3563 8.59338 16.3563 7.82954C16.3563 7.06565 15.7373 6.446 14.9742 6.446C14.2111 6.446 13.592 7.06565 13.592 7.82954C13.5881 8.58946 14.2072 9.20908 14.9742 9.213ZM4.24777 9.213C5.01089 9.213 5.62994 8.59338 5.62994 7.82954C5.62994 7.06565 5.01089 6.446 4.24777 6.446C3.48465 6.446 2.8656 7.06565 2.8656 7.82954C2.86171 8.58946 3.48076 9.20908 4.24777 9.213ZM1.68589 7.59957H2.09859C2.22708 6.41092 3.29777 5.55354 4.48527 5.68605C5.49367 5.79517 6.28793 6.59409 6.39694 7.59957H12.825C12.9535 6.41092 14.0242 5.55354 15.2117 5.68605C16.2201 5.79517 17.0143 6.59409 17.1233 7.59957H17.318C17.8281 7.59957 18.2252 7.17478 18.2252 6.66425V5.55354C18.2291 5.13654 17.9526 4.7741 17.5517 4.66108L14.5187 3.83098C14.4369 3.80759 14.3629 3.76083 14.3123 3.69068L12.498 1.30949C12.2371 0.974331 11.8361 0.779469 11.4117 0.779469H5.67277C5.20555 0.775569 4.7656 1.0133 4.52031 1.41082L3.11089 3.6634C3.07195 3.72965 3.00965 3.78032 2.94347 3.81149L1.31601 4.55585C0.988959 4.70785 0.77872 5.03522 0.782611 5.39765V6.66425H0.77872C0.77872 7.17478 1.17584 7.59957 1.68589 7.59957Z" fill="#B9B9B9"/>
</g>
<defs>
<clipPath id="clip0_3970_1006">
<rect width="19" height="10" fill="white"/>
</clipPath>
</defs>
</svg>
