<svg width="110" height="18" viewBox="0 0 110 18" fill="none" xmlns="http://www.w3.org/2000/svg">
<path d="M5.13 4.47C5.65 4.47 6.09 4.485 6.45 4.515C6.82 4.535 7.155 4.575 7.455 4.635C7.755 4.685 8.07 4.755 8.4 4.845L8.19 6.915C7.85 6.905 7.535 6.895 7.245 6.885C6.955 6.875 6.645 6.87 6.315 6.87C5.985 6.86 5.59 6.855 5.13 6.855C4.71 6.855 4.385 6.94 4.155 7.11C3.925 7.28 3.765 7.58 3.675 8.01C3.585 8.44 3.54 9.045 3.54 9.825C3.54 10.605 3.585 11.21 3.675 11.64C3.765 12.07 3.925 12.37 4.155 12.54C4.385 12.71 4.71 12.795 5.13 12.795C5.86 12.795 6.465 12.79 6.945 12.78C7.435 12.76 7.925 12.72 8.415 12.66L8.625 14.715C8.125 14.885 7.61 15.005 7.08 15.075C6.56 15.145 5.91 15.18 5.13 15.18C4.02 15.18 3.13 15.01 2.46 14.67C1.8 14.32 1.32 13.755 1.02 12.975C0.73 12.195 0.585 11.145 0.585 9.825C0.585 8.505 0.73 7.455 1.02 6.675C1.32 5.895 1.8 5.335 2.46 4.995C3.13 4.645 4.02 4.47 5.13 4.47ZM18.5652 4.65V10.8C18.5652 11.87 18.4252 12.73 18.1452 13.38C17.8752 14.03 17.4302 14.5 16.8102 14.79C16.1902 15.07 15.3602 15.21 14.3202 15.21C13.2102 15.21 12.3202 15.07 11.6502 14.79C10.9902 14.5 10.5102 14.03 10.2102 13.38C9.9202 12.73 9.7752 11.87 9.7752 10.8V4.65H12.5952V10.8C12.5952 11.39 12.6402 11.85 12.7302 12.18C12.8302 12.51 12.9952 12.74 13.2252 12.87C13.4552 13 13.7702 13.065 14.1702 13.065C14.5802 13.065 14.9002 13 15.1302 12.87C15.3602 12.74 15.5202 12.51 15.6102 12.18C15.7002 11.85 15.7452 11.39 15.7452 10.8V4.65H18.5652ZM23.9845 4.44C24.5145 4.45 25.0995 4.485 25.7395 4.545C26.3795 4.605 26.9995 4.73 27.5995 4.92L27.4195 6.75C26.9795 6.74 26.4395 6.73 25.7995 6.72C25.1695 6.71 24.5495 6.705 23.9395 6.705C23.4795 6.705 23.1595 6.745 22.9795 6.825C22.8095 6.895 22.7245 7.075 22.7245 7.365C22.7245 7.605 22.7945 7.79 22.9345 7.92C23.0845 8.04 23.3445 8.165 23.7145 8.295L25.6495 9.015C26.4895 9.355 27.0745 9.765 27.4045 10.245C27.7445 10.725 27.9145 11.35 27.9145 12.12C27.9145 12.9 27.7845 13.515 27.5245 13.965C27.2745 14.415 26.8545 14.735 26.2645 14.925C25.6745 15.115 24.8745 15.21 23.8645 15.21C23.5145 15.21 22.9995 15.185 22.3195 15.135C21.6495 15.085 20.8895 14.955 20.0395 14.745L20.2045 12.765C21.0945 12.785 21.8445 12.805 22.4545 12.825C23.0645 12.835 23.5245 12.84 23.8345 12.84C24.3345 12.84 24.6695 12.8 24.8395 12.72C25.0095 12.63 25.0945 12.45 25.0945 12.18C25.0945 11.93 25.0345 11.75 24.9145 11.64C24.7945 11.52 24.5745 11.41 24.2545 11.31L22.1845 10.485C21.3645 10.155 20.7845 9.755 20.4445 9.285C20.1045 8.805 19.9345 8.185 19.9345 7.425C19.9345 6.635 20.0645 6.025 20.3245 5.595C20.5945 5.165 21.0245 4.865 21.6145 4.695C22.2145 4.525 23.0045 4.44 23.9845 4.44ZM37.374 4.65V6.795H34.389V15H31.569V6.795H28.569V4.65H37.374ZM42.7057 4.44C43.5657 4.44 44.2907 4.525 44.8807 4.695C45.4707 4.865 45.9457 5.155 46.3057 5.565C46.6757 5.965 46.9407 6.515 47.1007 7.215C47.2707 7.905 47.3557 8.775 47.3557 9.825C47.3557 10.875 47.2707 11.75 47.1007 12.45C46.9407 13.14 46.6757 13.69 46.3057 14.1C45.9457 14.5 45.4707 14.785 44.8807 14.955C44.2907 15.125 43.5657 15.21 42.7057 15.21C41.8457 15.21 41.1207 15.125 40.5307 14.955C39.9407 14.785 39.4607 14.5 39.0907 14.1C38.7307 13.69 38.4657 13.14 38.2957 12.45C38.1357 11.75 38.0557 10.875 38.0557 9.825C38.0557 8.775 38.1357 7.905 38.2957 7.215C38.4657 6.515 38.7307 5.965 39.0907 5.565C39.4607 5.155 39.9407 4.865 40.5307 4.695C41.1207 4.525 41.8457 4.44 42.7057 4.44ZM42.7057 6.585C42.2657 6.585 41.9207 6.675 41.6707 6.855C41.4307 7.035 41.2607 7.36 41.1607 7.83C41.0607 8.3 41.0107 8.965 41.0107 9.825C41.0107 10.685 41.0607 11.35 41.1607 11.82C41.2607 12.29 41.4307 12.615 41.6707 12.795C41.9207 12.975 42.2657 13.065 42.7057 13.065C43.1457 13.065 43.4857 12.975 43.7257 12.795C43.9757 12.615 44.1457 12.29 44.2357 11.82C44.3357 11.35 44.3857 10.685 44.3857 9.825C44.3857 8.965 44.3357 8.3 44.2357 7.83C44.1457 7.36 43.9757 7.035 43.7257 6.855C43.4857 6.675 43.1457 6.585 42.7057 6.585ZM59.8693 4.65C60.5193 4.65 60.8543 4.98 60.8743 5.64L61.2643 15H58.6993L58.3693 6.78H58.1293L56.8093 12.585C56.7093 13.165 56.3493 13.455 55.7293 13.455H54.1543C53.5443 13.455 53.1793 13.165 53.0593 12.585L51.7393 6.78H51.4993L51.2143 15H48.6493L49.0243 5.64C49.0543 4.98 49.3893 4.65 50.0293 4.65H52.5493C53.1493 4.65 53.5043 4.945 53.6143 5.535L54.6343 10.14C54.6843 10.39 54.7243 10.64 54.7543 10.89C54.7843 11.14 54.8193 11.395 54.8593 11.655H55.0243C55.0643 11.395 55.0993 11.14 55.1293 10.89C55.1593 10.64 55.1993 10.385 55.2493 10.125L56.2393 5.535C56.3393 4.945 56.6993 4.65 57.3193 4.65H59.8693Z" fill="white"/>
<path d="M86.13 4.47C86.65 4.47 87.09 4.485 87.45 4.515C87.82 4.535 88.155 4.575 88.455 4.635C88.755 4.685 89.07 4.755 89.4 4.845L89.19 6.915C88.85 6.905 88.535 6.895 88.245 6.885C87.955 6.875 87.645 6.87 87.315 6.87C86.985 6.86 86.59 6.855 86.13 6.855C85.71 6.855 85.385 6.94 85.155 7.11C84.925 7.28 84.765 7.58 84.675 8.01C84.585 8.44 84.54 9.045 84.54 9.825C84.54 10.605 84.585 11.21 84.675 11.64C84.765 12.07 84.925 12.37 85.155 12.54C85.385 12.71 85.71 12.795 86.13 12.795C86.86 12.795 87.465 12.79 87.945 12.78C88.435 12.76 88.925 12.72 89.415 12.66L89.625 14.715C89.125 14.885 88.61 15.005 88.08 15.075C87.56 15.145 86.91 15.18 86.13 15.18C85.02 15.18 84.13 15.01 83.46 14.67C82.8 14.32 82.32 13.755 82.02 12.975C81.73 12.195 81.585 11.145 81.585 9.825C81.585 8.505 81.73 7.455 82.02 6.675C82.32 5.895 82.8 5.335 83.46 4.995C84.13 4.645 85.02 4.47 86.13 4.47ZM96.2652 4.65C96.4952 4.65 96.6952 4.715 96.8652 4.845C97.0452 4.975 97.1652 5.155 97.2252 5.385L100.06 15H97.1802L96.5652 12.54H93.3852L92.7552 15H89.8752L92.7102 5.385C92.7702 5.155 92.8852 4.975 93.0552 4.845C93.2352 4.715 93.4402 4.65 93.6702 4.65H96.2652ZM94.5702 7.86L93.8952 10.515H96.0402L95.3652 7.86C95.3252 7.69 95.2852 7.51 95.2452 7.32C95.2152 7.12 95.1902 6.935 95.1702 6.765H94.7652C94.7352 6.935 94.7052 7.12 94.6752 7.32C94.6452 7.51 94.6102 7.69 94.5702 7.86ZM105.084 4.5C106.054 4.5 106.844 4.595 107.454 4.785C108.064 4.965 108.509 5.285 108.789 5.745C109.079 6.195 109.224 6.82 109.224 7.62C109.224 8.29 109.074 8.855 108.774 9.315C108.484 9.765 107.949 10.035 107.169 10.125V10.215C107.359 10.245 107.559 10.31 107.769 10.41C107.989 10.51 108.189 10.67 108.369 10.89C108.549 11.11 108.684 11.415 108.774 11.805L109.629 15H106.674L105.939 11.895C105.859 11.585 105.744 11.375 105.594 11.265C105.454 11.155 105.239 11.1 104.949 11.1C104.699 11.1 104.464 11.1 104.244 11.1C104.034 11.09 103.834 11.085 103.644 11.085V15H100.884V4.65C101.324 4.61 101.739 4.58 102.129 4.56C102.519 4.53 102.944 4.515 103.404 4.515C103.874 4.505 104.434 4.5 105.084 4.5ZM105.024 6.54C104.524 6.54 104.064 6.54 103.644 6.54V9.06H105.024C105.554 9.06 105.914 8.975 106.104 8.805C106.294 8.635 106.389 8.3 106.389 7.8C106.389 7.29 106.294 6.955 106.104 6.795C105.914 6.625 105.554 6.54 105.024 6.54Z" fill="white"/>
<path d="M74 1.5L64 11L65 14.5H73L72.5 18H76.5L77.5 11H69L79 1.5H74Z" fill="#D4B05C"/>
<path d="M74 7.5L73.5 10H77.5L78.5 3.5L74 7.5Z" fill="#D4B05C"/>
</svg>
