<svg width="26" height="13" viewBox="0 0 26 13" fill="none" xmlns="http://www.w3.org/2000/svg">
<path d="M8.74194 3.03516V10.5H7.20386L4.20459 5.49609V10.5H2.6665V3.03516H4.20459L7.20898 8.04419V3.03516H8.74194ZM15.0891 9.30029V10.5H11.1157V9.30029H15.0891ZM11.6182 3.03516V10.5H10.0801V3.03516H11.6182ZM14.5713 6.07544V7.24438H11.1157V6.07544H14.5713ZM15.084 3.03516V4.23999H11.1157V3.03516H15.084ZM17.7859 9.31567L19.2727 3.03516H20.1033L20.293 4.08105L18.7087 10.5H17.8167L17.7859 9.31567ZM17.022 3.03516L18.2524 9.31567L18.1499 10.5H17.1553L15.4993 3.03516H17.022ZM21.6003 9.29004L22.8154 3.03516H24.3381L22.6873 10.5H21.6926L21.6003 9.29004ZM20.5698 3.03516L22.0669 9.34131L22.0259 10.5H21.1338L19.5393 4.07593L19.7444 3.03516H20.5698Z" fill="#BD8F35"/>
<path d="M0.00390625 2.95097L0.316906 1.99097L25.9959 10.048L25.6829 11.008L0.00390625 2.95097Z" fill="#BD8F35"/>
</svg>
