<svg width="17" height="22" viewBox="0 0 17 22" fill="none" xmlns="http://www.w3.org/2000/svg">
<path d="M0.5 1V21M1 21.5H16M16.5 21V5M16.5 5L12 0.5M16.5 5H12V0.5M12 0.5H1" stroke="#BABABC"/>
<path d="M3.5 15V15.5M3.5 20V17.5M3.5 17.5H5M3.5 17.5V15.5M3.5 15.5H5M5 16.5H6M7.5 15V15.5M7.5 20V19.5M7.5 19.5H10M7.5 19.5V15.5M10.5 19V16M10 15.5H7.5" stroke="#BABABC"/>
<path d="M12.4996 15.0004V15.5004M12.4996 20.0004V17.5004M12.4996 17.5004H13.9996M12.4996 17.5004V15.5004M12.4996 15.5004H14.9996M8.49962 8.00036C8.49962 8.00036 6.5 6.5 6.49962 5.00036C6.49937 4.02405 7.02357 2.97766 7.99962 3.00036C8.82782 3.01962 9.49941 3.67193 9.49962 4.50036C9.5 6 8.49962 8.00036 8.49962 8.00036ZM8.49962 8.00036C8.49962 8.00036 13.5 9.50036 13.4996 10.0004C13.4991 10.7044 12.68 10.8194 11.9996 11.0004C10.2598 11.463 8.49962 8.00036 8.49962 8.00036ZM8.49962 8.00036C8.49962 8.00036 3.99999 14.5004 3.49999 12.5004C3.49999 12.5004 3.32533 11.8497 3.49999 11.5004C4 10.5004 8.49962 8.00036 8.49962 8.00036Z" stroke="#BABABC"/>
</svg>
