<svg width="96" height="107" viewBox="0 0 96 107" fill="none" xmlns="http://www.w3.org/2000/svg">
<path opacity="0.1" d="M0 21.5144C0 15.1291 2.09481 9.95903 6.28442 6.00401C10.474 2.00134 15.9639 0 22.754 0C29.6403 0 35.1783 1.97751 39.3679 5.93253C43.5576 9.8399 45.6524 15.153 45.6524 21.8717V27.018C45.6524 33.4509 43.5576 38.621 39.3679 42.5284C35.1783 46.4358 29.6885 48.3894 22.8984 48.3894C16.0602 48.3894 10.5222 46.4358 6.28442 42.5284C2.09481 38.5734 0 33.2603 0 26.5892V21.5144ZM13.8691 27.018C13.8691 29.8771 14.6877 32.1882 16.3251 33.9512C18.0105 35.6667 20.2017 36.5244 22.8984 36.5244C25.5952 36.5244 27.7381 35.6428 29.3273 33.8798C30.9165 32.1167 31.7111 29.758 31.7111 26.8036V21.5144C31.7111 18.6553 30.9165 16.3442 29.3273 14.5812C27.7381 12.8181 25.547 11.9365 22.754 11.9365C20.1053 11.9365 17.9624 12.8181 16.3251 14.5812C14.6877 16.2966 13.8691 18.703 13.8691 21.8003V27.018ZM50.2754 80.0534C50.2754 73.6206 52.3943 68.4505 56.6321 64.5431C60.8698 60.5881 66.3597 58.6106 73.1016 58.6106C79.9398 58.6106 85.4537 60.5642 89.6433 64.4716C93.8811 68.3313 96 73.6682 96 80.4823V85.6286C96 92.0138 93.9293 97.1839 89.7878 101.139C85.6464 105.046 80.1324 107 73.246 107C66.3115 107 60.7494 105.022 56.5598 101.067C52.3702 97.1124 50.2754 91.8708 50.2754 85.3427V80.0534ZM64.1445 85.6286C64.1445 88.2494 65.0113 90.489 66.7449 92.3474C68.4786 94.2057 70.6456 95.1349 73.246 95.1349C79.1211 95.1349 82.0587 91.9185 82.0587 85.4856V80.0534C82.0587 77.1944 81.24 74.9071 79.6027 73.1917C77.9654 71.4286 75.7983 70.5471 73.1016 70.5471C70.4048 70.5471 68.2378 71.4286 66.6005 73.1917C64.9631 74.9071 64.1445 77.2659 64.1445 80.2679V85.6286ZM22.0158 101.78L11.8307 96.3474L75.1896 5.00735L85.3747 10.4395L22.0158 101.78Z" fill="#DC4333"/>
</svg>
