<svg width="25" height="22" viewBox="0 0 25 22" fill="none" xmlns="http://www.w3.org/2000/svg">
<path d="M23 21.0002H1.5L7.01282 13.481C7.01282 13.481 10.8718 18.4938 12.5256 18.4938C14.1795 18.4938 17.4872 13.481 17.4872 13.481L23 21.0002Z" stroke="black"/>
<path d="M7.01285 13.4808C7.01285 13.4808 5.359 11.4756 5.35901 7.96667C5.35901 4.4577 8.00466 0.94873 11.9744 0.94873C15.9441 0.94873 18.5898 4.95898 18.5898 7.96667C18.5898 10.9744 17.4872 13.4808 17.4872 13.4808" stroke="black"/>
<path d="M14.2307 7.96667C14.2307 9.39359 13.1803 10.4744 11.9743 10.4744C10.7683 10.4744 9.7179 9.39359 9.7179 7.96667C9.7179 6.53976 10.7683 5.45898 11.9743 5.45898C13.1803 5.45898 14.2307 6.53976 14.2307 7.96667Z" stroke="black"/>
</svg>
