<svg width="36" height="36" viewBox="0 0 36 36" fill="none" xmlns="http://www.w3.org/2000/svg">
<path d="M10 25.4999L15.5 19.9999M17.8891 29.4999L17.8892 20.9999M18.0001 6.5L18.0001 14.2782M9.59326 9.25L15.6036 15.2605M26.5645 25.8261L20.6765 20.0869M18.1188 30L18.1187 21.1304M18 6L18 14.1164M27 8.86957L20.5656 15.1414M7 18H13.5M24 18H30.5" stroke="#0097DA" stroke-width="3"/>
<circle cx="18" cy="18" r="15.5" stroke="#0097DA" stroke-width="5"/>
<path d="M22.5 18C22.5 20.4853 20.4853 22.5 18 22.5C15.5147 22.5 13.5 20.4853 13.5 18C13.5 15.5147 15.5147 13.5 18 13.5C20.4853 13.5 22.5 15.5147 22.5 18Z" stroke="#0097DA" stroke-width="4"/>
<path d="M30 18C30 24.6274 24.6274 30 18 30C11.3726 30 6 24.6274 6 18C6 11.3726 11.3726 6 18 6C24.6274 6 30 11.3726 30 18Z" stroke="#FAAD04" stroke-width="2"/>
</svg>
