<svg width="35" height="38" viewBox="0 0 35 38" fill="none" xmlns="http://www.w3.org/2000/svg">
<path d="M18 12.5V8M18 12.5L23 16M18 12.5L13 16M18 8V0M18 8L23.5 2.5M18 8L12.5 2.5M13 16L13 21.5M13 16L8.5 13.2609M23 16V21.5M23 16L27 13.4545M18 25V29.5M18 25L23 21.5M18 25L13 21.5M18 29.5V37.5M18 29.5L12.5 35M18 29.5L23.5 35M23 21.5L27.4231 24M13 21.5L8.5 24M8.5 24L1 21M8.5 24L1.5 28M8.5 24L8 31.5M34.5 28L27.4231 24M27.4231 24L34 21M27.4231 24V31M1.5 9L8.5 13.2609M8.5 13.2609L7.5 5.5M8.5 13.2609L1 16M34 9L27 13.4545M27 13.4545L28 5.5M27 13.4545L34 16" stroke="#06AAFF" stroke-width="2"/>
</svg>
