<svg width="19" height="29" viewBox="0 0 19 29" fill="none" xmlns="http://www.w3.org/2000/svg">
<path fill-rule="evenodd" clip-rule="evenodd" d="M2.16456 19.1139C2.16456 23.5183 5.75031 26.791 9.73493 26.6445C13.593 26.5026 16.8355 23.3674 16.8354 19.1139C16.8354 15.1203 14.9493 11.0105 12.9486 7.80351C11.9606 6.21967 10.9708 4.89738 10.2283 3.97164C10.0786 3.78502 9.9392 3.61478 9.81211 3.46203C9.64744 3.6772 9.46076 3.92424 9.25655 4.19947C8.4552 5.27951 7.38859 6.78724 6.32415 8.50115C5.25754 10.2185 4.20664 12.1213 3.4258 13.9932C2.63757 15.8828 2.16456 17.6474 2.16456 19.1139ZM9.77154 1.70329C10.5306 0.86542 10.5308 0.865653 10.5311 0.865922L10.5336 0.86863L10.5396 0.875027L10.5601 0.89728C10.5776 0.916285 10.6026 0.943593 10.6346 0.978938C10.6986 1.04962 10.7907 1.15249 10.9068 1.2854C11.1389 1.55116 11.4675 1.93753 11.8604 2.42744C12.6453 3.406 13.6921 4.80415 14.7406 6.48482C16.813 9.80689 19 14.4024 19 19.1139C19 24.8254 14.6488 28.8161 9.80816 28.9941C4.77942 29.1789 1.56071e-06 25.0349 1.04308e-06 19.1139C8.72329e-07 17.1608 0.613148 15.0391 1.45415 13.023C2.30255 10.9892 3.42396 8.96684 4.52967 7.1865C5.63754 5.40267 6.74325 3.84015 7.57113 2.72435C7.98555 2.16581 8.33152 1.71764 8.57489 1.40788C8.6966 1.25297 8.79273 1.13257 8.85901 1.05019C8.89216 1.009 8.91785 0.977302 8.93555 0.955539L8.95605 0.930396L8.96333 0.92151C8.96351 0.92129 8.96418 0.920474 9.77154 1.70329ZM9.77154 1.70329L8.96418 0.920474L9.72079 -1.09613e-06L10.5311 0.865922L9.77154 1.70329Z" fill="#2A79FC"/>
<path d="M14.5 20C14.5 20 14.1264 22.5291 13 23.5C11.9233 24.4281 9.5 24.5 9.5 24.5" stroke="#2A79FC" stroke-width="2"/>
</svg>
