<svg width="43" height="43" viewBox="0 0 43 43" fill="none" xmlns="http://www.w3.org/2000/svg">
<path fill-rule="evenodd" clip-rule="evenodd" d="M21.5001 32.5C27.2991 32.5 32.0001 27.799 32.0001 22C32.0001 16.201 27.2991 11.5 21.5001 11.5C15.7011 11.5 11.0001 16.201 11.0001 22C11.0001 27.799 15.7011 32.5 21.5001 32.5ZM21.5001 35.5C28.9559 35.5 35.0001 29.4558 35.0001 22C35.0001 14.5442 28.9559 8.5 21.5001 8.5C14.0442 8.5 8.00009 14.5442 8.00009 22C8.00009 29.4558 14.0442 35.5 21.5001 35.5Z" fill="#FFD926"/>
<path fill-rule="evenodd" clip-rule="evenodd" d="M21.5 10C20.6716 10 20 9.32843 20 8.5V1.5C20 0.671573 20.6716 0 21.5 0C22.3284 0 23 0.671573 23 1.5V8.5C23 9.32843 22.3284 10 21.5 10Z" fill="#FFD926"/>
<path fill-rule="evenodd" clip-rule="evenodd" d="M21.5 43C20.6716 43 20 42.3284 20 41.5V34.5C20 33.6716 20.6716 33 21.5 33C22.3284 33 23 33.6716 23 34.5V41.5C23 42.3284 22.3284 43 21.5 43Z" fill="#FFD926"/>
<path fill-rule="evenodd" clip-rule="evenodd" d="M10 21.5C10 22.3284 9.32843 23 8.5 23H1.5C0.671573 23 3.62117e-08 22.3284 0 21.5C-3.62117e-08 20.6716 0.671573 20 1.5 20H8.5C9.32843 20 10 20.6716 10 21.5Z" fill="#FFD926"/>
<path fill-rule="evenodd" clip-rule="evenodd" d="M43 21.5C43 22.3284 42.3284 23 41.5 23H34.5C33.6716 23 33 22.3284 33 21.5C33 20.6716 33.6716 20 34.5 20H41.5C42.3284 20 43 20.6716 43 21.5Z" fill="#FFD926"/>
<path fill-rule="evenodd" clip-rule="evenodd" d="M13.3683 30.1317C13.9541 30.7175 13.9541 31.6672 13.3683 32.253L8.41857 37.2028C7.83278 37.7886 6.88304 37.7886 6.29725 37.2028C5.71146 36.617 5.71146 35.6672 6.29725 35.0814L11.247 30.1317C11.8328 29.5459 12.7825 29.5459 13.3683 30.1317Z" fill="#FFD926"/>
<path fill-rule="evenodd" clip-rule="evenodd" d="M36.7028 6.79718C37.2886 7.38296 37.2886 8.33271 36.7028 8.9185L31.7531 13.8682C31.1673 14.454 30.2176 14.454 29.6318 13.8682C29.046 13.2825 29.046 12.3327 29.6318 11.7469L34.5815 6.79718C35.1673 6.21139 36.1171 6.21139 36.7028 6.79718Z" fill="#FFD926"/>
<path fill-rule="evenodd" clip-rule="evenodd" d="M29.3951 29.8954C29.9809 29.3096 30.9307 29.3096 31.5164 29.8954L36.4662 34.8451C37.052 35.4309 37.052 36.3806 36.4662 36.9664C35.8804 37.5522 34.9307 37.5522 34.3449 36.9664L29.3951 32.0167C28.8093 31.4309 28.8093 30.4811 29.3951 29.8954Z" fill="#FFD926"/>
<path fill-rule="evenodd" clip-rule="evenodd" d="M6.06061 6.56083C6.64639 5.97504 7.59614 5.97504 8.18193 6.56083L13.1317 11.5106C13.7175 12.0964 13.7175 13.0461 13.1317 13.6319C12.5459 14.2177 11.5961 14.2177 11.0104 13.6319L6.06061 8.68215C5.47482 8.09636 5.47482 7.14661 6.06061 6.56083Z" fill="#FFD926"/>
</svg>
