<svg width="16" height="22" viewBox="0 0 16 22" fill="none" xmlns="http://www.w3.org/2000/svg">
<path d="M0.5 1.5V20.5C0.5 21.0523 0.947715 21.5 1.5 21.5H14.5C15.0523 21.5 15.5 21.0523 15.5 20.5V1.5C15.5 0.947715 15.0523 0.5 14.5 0.5H1.5C0.947715 0.5 0.5 0.947715 0.5 1.5Z" stroke="#D7BC85"/>
<rect x="3" y="4" width="2" height="2" fill="#D7BD84"/>
<rect x="6" y="4" width="7" height="1" fill="#D7BD84"/>
<rect x="6" y="8" width="6" height="1" fill="#D7BD84"/>
<rect x="6" y="12" width="7" height="1" fill="#D7BD84"/>
<rect x="6" y="16" width="5" height="1" fill="#D7BD84"/>
<rect x="3" y="8" width="2" height="2" fill="#D7BD84"/>
<rect x="3" y="12" width="2" height="2" fill="#D7BD84"/>
<rect x="3" y="16" width="2" height="2" fill="#D7BD84"/>
</svg>
