<svg width="368" height="400" viewBox="0 0 368 400" fill="none" xmlns="http://www.w3.org/2000/svg">
<g clip-path="url(#clip0_3569_642)">
<g clip-path="url(#clip1_3569_642)">
<path d="M0 5.92008L5.6 0.0800781L104 95.1201L98.4 100.96L0 5.92008ZM98.4 91.0401L104 96.8801L5.6 191.92L0 186.08L98.4 91.0401Z" fill="black"/>
</g>
<g clip-path="url(#clip2_3569_642)">
<path d="M5.6 100.96L0 95.1201L98.4 0.0800781L104 5.92008L5.6 100.96ZM104 186.08L98.4 191.92L0 96.8801L5.6 91.0401L104 186.08Z" fill="black"/>
</g>
<path d="M53.472 102.96C53.472 102.96 8 121.216 8 143.12C8 165.048 30.736 176 45.896 176H114.104C129.264 176 152 165.04 152 143.128C152 121.216 106.528 102.96 106.528 102.96M80 8C61.056 8 45.896 29.544 45.896 51.824C45.896 74.104 61.056 95.656 80 95.656C98.944 95.656 114.104 73.736 114.104 51.824C114.104 29.912 98.944 8 80 8Z" stroke="white"/>
<path d="M0 8H30.72C34.56 8 38.4 11.736 42.24 15.464C46.08 19.2 49.92 34.136 49.92 34.136L50.168 37.864M50.168 37.864H192V93.864C192 105.064 176.64 105.064 176.64 105.064H54.624M50.168 37.864L54.624 105.064M76.48 161.064H68.8C68.8 161.064 57.6 157.336 57.6 149.864C57.6 142.4 54.624 105.064 54.624 105.064M76.48 161.064C76.48 161.064 76.48 146.136 91.84 146.136C107.2 146.136 107.2 161.064 107.2 161.064M76.48 161.064C76.48 161.064 76.48 176 91.84 176C107.2 176 107.2 161.064 107.2 161.064M107.2 161.064H137.92M137.92 161.064C137.92 161.064 137.92 146.136 153.28 146.136C168.64 146.136 168.64 161.064 168.64 161.064C168.64 161.064 168.64 176 153.28 176C137.92 176 137.92 161.064 137.92 161.064Z" stroke="black"/>
<path d="M0 8H30.72C34.56 8 38.4 11.736 42.24 15.464C46.08 19.2 49.92 34.136 49.92 34.136L50.168 37.864M50.168 37.864H192V93.864C192 105.064 176.64 105.064 176.64 105.064H54.624M50.168 37.864L54.624 105.064M76.48 161.064H68.8C68.8 161.064 57.6 157.336 57.6 149.864C57.6 142.4 54.624 105.064 54.624 105.064M76.48 161.064C76.48 161.064 76.48 146.136 91.84 146.136C107.2 146.136 107.2 161.064 107.2 161.064M76.48 161.064C76.48 161.064 76.48 176 91.84 176C107.2 176 107.2 161.064 107.2 161.064M107.2 161.064H137.92M137.92 161.064C137.92 161.064 137.92 146.136 153.28 146.136C168.64 146.136 168.64 161.064 168.64 161.064C168.64 161.064 168.64 176 153.28 176C137.92 176 137.92 161.064 137.92 161.064Z" stroke="white"/>
<g clip-path="url(#clip3_3569_642)">
<g opacity="0.4">
<path d="M125.056 27.36C117.456 9.904 106.88 0.344 95.336 0.344L44.056 0.24C43.0071 0.0845245 41.9484 0.00431956 40.888 0C29.304 0 18.688 9.656 11.04 27.208C3.896 43.528 0 65.104 0 88C0 110.896 3.944 132.464 11.04 148.792C18.68 166.344 29.296 176 40.888 176C41.952 176 42.976 175.904 44.04 175.76L94.952 175.656C106.552 175.656 117.168 166.144 124.864 148.696C132.056 132.416 136 110.848 136 88C136 65.104 132.104 43.584 125.056 27.36ZM42.336 166.088H42.096C41.8191 166.096 41.5434 166.128 41.272 166.184H40.848C33.248 166.184 25.456 158.344 19.472 144.712C12.888 129.68 9.28 109.52 9.28 88C9.28 66.48 12.896 46.376 19.48 31.28C25.416 17.6 33.256 9.808 40.904 9.808C48.56 9.808 56.392 17.648 62.328 31.28C68.912 46.328 72.528 66.48 72.528 88C72.528 109.52 68.912 129.624 62.328 144.72C56.76 157.52 49.528 165.216 42.344 166.096L42.336 166.088ZM83.232 141.384C81.752 142.752 80.032 144.272 78.92 146.424C77.72 148.736 77.344 151.184 76.976 153.344C76.784 154.464 76.512 156.184 76.232 156.576C75.672 157.312 74.048 157.808 72.52 158.296C70.8151 158.742 69.1788 159.417 67.656 160.304C65.752 161.528 64.456 163.536 63.248 165.352C63.112 165.592 62.928 165.84 62.784 166.04H60.232C64.128 161.624 67.696 155.896 70.808 148.832C77.944 132.512 81.848 110.936 81.848 88.04C81.848 65.144 77.896 43.576 70.808 27.248C67.696 20.144 64.128 14.36 60.184 9.944L68.624 9.992C69.088 10.232 69.6 10.536 70.16 10.824C72.288 12.056 74.976 13.624 76.232 15.192C76.552 15.632 76.792 17.296 76.976 18.424C77.296 20.584 77.712 23.032 78.92 25.336C80.04 27.496 81.752 29.016 83.232 30.384C84.296 31.368 85.552 32.496 85.872 33.328C86.112 33.92 85.92 35.584 85.784 36.808C85.544 39.064 85.32 41.664 86.016 44.312C86.712 46.808 88.144 48.824 89.4 50.536C90.232 51.712 91.208 52.992 91.344 53.816C91.488 54.456 91.072 56.024 90.744 57.304C90.184 59.512 89.544 62.056 89.864 64.8C90.184 67.448 91.392 69.656 92.416 71.616C93.112 72.896 93.856 74.264 93.896 75.096C93.944 75.784 93.336 77.304 92.88 78.536C92.04 80.64 91.072 83.096 91.072 85.88C91.072 88.68 92.04 91.08 92.88 93.24C93.344 94.464 93.944 95.984 93.896 96.672C93.848 97.456 93.064 98.872 92.416 100.152C91.344 102.112 90.144 104.312 89.856 106.968C89.536 109.76 90.184 112.256 90.744 114.464C91.064 115.744 91.488 117.312 91.344 117.944C91.208 118.776 90.232 120.056 89.4 121.224C88.104 122.944 86.664 124.96 86.016 127.464C85.32 130.152 85.552 132.704 85.776 134.96C85.92 136.184 86.064 137.848 85.872 138.44C85.552 139.272 84.352 140.408 83.232 141.384ZM93.064 153.344C92.88 154.464 92.6 156.184 92.32 156.576C91.76 157.312 90.144 157.808 88.608 158.296C87.408 158.64 86.248 159.08 85.088 159.576C85.552 158.056 85.92 156.536 86.104 154.96C86.344 153.488 86.568 152.016 87.032 151.136C87.312 150.552 88.336 149.664 89.264 148.832C91.072 147.168 93.344 145.152 94.504 142.016C95.52 139.216 95.24 136.432 95.008 133.936C94.872 132.456 94.736 130.936 94.96 130.104C95.152 129.416 95.984 128.288 96.776 127.264C98.16 125.344 99.928 122.944 100.528 119.856C101.088 116.92 100.392 114.272 99.784 111.864C99.416 110.448 99.04 109.024 99.144 108.144C99.224 107.408 99.928 106.128 100.576 104.952C101.688 102.896 103.08 100.296 103.264 97.208C103.448 94.216 102.432 91.672 101.504 89.416C100.992 88.088 100.432 86.664 100.432 85.88C100.432 85.096 100.992 83.68 101.504 82.36C102.384 80.096 103.4 77.504 103.264 74.56C103.08 71.472 101.688 68.872 100.576 66.816C99.968 65.688 99.232 64.36 99.136 63.624C99.048 62.792 99.416 61.32 99.784 59.904C100.392 57.544 101.08 54.848 100.528 51.904C99.928 48.824 98.208 46.416 96.768 44.504C96.032 43.48 95.152 42.304 94.96 41.664C94.736 40.784 94.872 39.312 95.008 37.84C95.248 35.392 95.52 32.544 94.504 29.8C93.344 26.664 91.064 24.648 89.264 22.984C88.384 22.2 87.36 21.272 87.032 20.68C86.568 19.8 86.336 18.328 86.104 16.856C85.736 14.648 85.368 12.2 84.064 10.04H84.808C85.272 10.336 85.736 10.584 86.248 10.872C88.376 12.104 91.072 13.672 92.328 15.24C92.648 15.68 92.88 17.344 93.064 18.472C93.384 20.632 93.808 23.08 95.008 25.384C96.128 27.544 97.84 29.064 99.328 30.44C100.392 31.416 101.648 32.544 101.968 33.328C102.2 33.92 102.008 35.584 101.872 36.808C101.688 39.016 101.408 41.608 102.104 44.312C102.8 46.808 104.24 48.824 105.488 50.536C106.32 51.712 107.296 52.992 107.44 53.816C107.576 54.456 107.16 56.024 106.832 57.304C106.272 59.512 105.632 62.056 105.952 64.8C106.272 67.448 107.48 69.656 108.504 71.616C109.2 72.896 109.944 74.264 109.984 75.096C110.032 75.784 109.424 77.304 108.968 78.536C108.136 80.64 107.16 83.096 107.16 85.88C107.16 88.68 108.136 91.08 108.968 93.24C109.432 94.464 110.032 95.984 109.984 96.672C109.944 97.456 109.152 98.872 108.504 100.152C107.44 102.112 106.232 104.312 105.952 106.968C105.632 109.76 106.272 112.256 106.832 114.464C107.152 115.744 107.576 117.312 107.44 117.944C107.296 118.776 106.32 120.056 105.488 121.224C104.192 122.944 102.752 124.96 102.104 127.464C101.408 130.152 101.64 132.704 101.872 134.96C102.008 136.184 102.152 137.848 101.968 138.44C101.648 139.272 100.432 140.4 99.328 141.376C97.84 142.752 96.128 144.272 95.008 146.432C93.808 148.736 93.432 151.184 93.064 153.344ZM116.48 144.568C110.68 157.656 103.168 165.4 95.752 165.896C97.192 165.16 98.44 164.128 99.464 162.856C101.36 160.456 101.824 157.512 102.24 154.96C102.48 153.488 102.704 152.016 103.168 151.136C103.448 150.552 104.472 149.664 105.4 148.832C107.208 147.168 109.48 145.152 110.632 142.016C111.656 139.216 111.376 136.432 111.144 133.936C111.008 132.456 110.864 130.936 111.096 130.104C111.288 129.416 112.12 128.288 112.904 127.264C114.296 125.344 116.064 122.944 116.664 119.856C117.224 116.92 116.528 114.272 115.92 111.864C115.552 110.448 115.184 109.024 115.28 108.144C115.36 107.408 116.064 106.128 116.712 104.952C117.824 102.896 119.216 100.296 119.4 97.208C119.584 94.216 118.568 91.672 117.64 89.416C117.128 88.088 116.568 86.664 116.568 85.88C116.568 85.096 117.128 83.68 117.64 82.36C118.52 80.096 119.536 77.504 119.4 74.56C119.216 71.472 117.824 68.872 116.712 66.816C116.112 65.688 115.368 64.36 115.272 63.624C115.184 62.792 115.552 61.32 115.92 59.904C116.528 57.544 117.224 54.848 116.664 51.904C116.064 48.824 114.344 46.416 112.904 44.504C112.168 43.48 111.288 42.304 111.096 41.664C110.864 40.784 111.008 39.312 111.144 37.84C111.384 35.392 111.656 32.544 110.632 29.752C109.48 26.616 107.208 24.6 105.4 22.936C104.52 22.152 103.496 21.216 103.168 20.632C102.704 19.752 102.472 18.28 102.24 16.808C102.024 14.9656 101.589 13.1555 100.944 11.416C106.696 14.216 112.216 21.176 116.664 31.416C123.16 46.376 126.728 66.472 126.728 87.992C126.728 109.464 123.112 129.512 116.48 144.568Z" fill="white"/>
<path d="M40.8959 43.536C28.7919 43.536 21.0559 60.984 21.0559 88C21.0559 115.016 28.8399 132.464 40.9439 132.464C53.0479 132.464 60.7839 115.016 60.7839 88C60.7839 60.984 52.9999 43.536 40.8959 43.536ZM47.8079 114.176C46.8799 116.736 44.3279 122.608 40.9439 122.608C37.5599 122.608 34.9599 116.728 34.0319 114.176C31.6239 107.616 30.3279 98.296 30.3279 88C30.3279 77.704 31.6719 68.392 34.0879 61.824C35.0079 59.264 37.5599 53.392 40.9439 53.392C44.3279 53.392 46.8799 59.32 47.8079 61.824C50.2159 68.384 51.5679 77.704 51.5679 88C51.5679 98.296 50.2159 107.608 47.8079 114.176Z" fill="white"/>
</g>
</g>
<g clip-path="url(#clip4_3569_642)">
<path opacity="0.6" d="M179.752 71.624L169.8 70.672C168.653 66.6016 167.022 62.6831 164.944 59L171.248 51.272C171.988 50.3627 172.368 49.2136 172.316 48.0428C172.264 46.8719 171.785 45.7607 170.968 44.92L158.56 32.16C157.748 31.3139 156.645 30.8083 155.474 30.7459C154.304 30.6835 153.153 31.0689 152.256 31.824L144.64 38.224C141.033 36.1393 137.193 34.4853 133.2 33.296L132.264 23.24C132.156 22.075 131.618 20.9921 130.754 20.2034C129.889 19.4147 128.762 18.977 127.592 18.976H112.08V4.736C112.084 3.48968 111.595 2.29225 110.72 1.40499C109.845 0.517734 108.654 0.0126671 107.408 0C106.162 0.0147706 104.972 0.521863 104.098 1.41062C103.224 2.29939 102.738 3.49767 102.744 4.744V28.456H85.088C77.568 28.456 70.424 32.056 65.848 38.136L46.608 63.896L14.24 72.856C5.84 75.176 0.048 82.912 0 91.776V104.352C0.048 115.16 8.736 123.888 19.384 123.888H21.904C25.408 137.12 38.808 144.904 51.84 141.344C55.9769 140.184 59.7389 137.963 62.753 134.901C65.7672 131.839 67.9289 128.043 69.024 123.888H102.744V163.256C102.738 164.502 103.224 165.701 104.098 166.589C104.972 167.478 106.162 167.985 107.408 168C108.656 167.987 109.848 167.481 110.723 166.592C111.599 165.703 112.086 164.504 112.08 163.256V151.872H127.584C128.762 151.868 129.896 151.422 130.761 150.622C131.626 149.822 132.16 148.726 132.256 147.552L133.192 137.456C137.208 136.272 141.032 134.656 144.68 132.576L152.288 138.976C153.175 139.725 154.313 140.111 155.472 140.058C156.632 140.005 157.729 139.515 158.544 138.688L171.104 125.928C171.922 125.079 172.403 123.96 172.456 122.782C172.509 121.604 172.131 120.447 171.392 119.528L165.088 111.792C167.144 108.096 168.776 104.208 169.944 100.176L179.752 99.224C180.921 99.0975 182.002 98.5429 182.786 97.667C183.57 96.791 184.003 95.6558 184 94.48V76.32C183.995 75.1515 183.558 74.0261 182.774 73.1595C181.99 72.2929 180.914 71.7462 179.752 71.624ZM45.432 132.76C37.128 132.76 30.352 125.88 30.352 117.44C30.352 108.992 37.128 102.12 45.44 102.12C53.752 102.12 60.52 109 60.52 117.44C60.52 125.88 53.792 132.76 45.432 132.76ZM102.744 114.36H69.68C68.04 100.744 55.856 91.112 42.496 92.728C31.376 94.104 22.6 103.024 21.2 114.36H19.336C18.0155 114.36 16.708 114.1 15.4883 113.593C14.2686 113.087 13.1608 112.346 12.2281 111.411C11.2955 110.476 10.5565 109.366 10.0534 108.146C9.55021 106.925 9.29284 105.616 9.296 104.296V91.776C9.344 87.224 12.336 83.24 16.672 82.008L50.576 72.616C51.5717 72.345 52.4459 71.7442 53.056 70.912L73.312 43.92C76.112 40.176 80.504 37.992 85.128 37.992H102.728V114.36H102.744ZM112.08 65.264C123.008 61.568 134.824 67.584 138.464 78.736C142.112 89.88 136.176 101.832 125.2 105.536C120.942 106.959 116.338 106.959 112.08 105.536V65.264ZM174.656 90.12L165.784 90.968C164.796 91.072 163.867 91.4865 163.129 92.1521C162.392 92.8176 161.884 93.6999 161.68 94.672C160.516 99.9692 158.41 105.015 155.464 109.568C154.919 110.416 154.656 111.415 154.715 112.421C154.774 113.428 155.151 114.39 155.792 115.168L161.488 122.184L154.952 128.824L148.04 123.08C147.273 122.428 146.313 122.048 145.307 121.997C144.302 121.947 143.309 122.229 142.48 122.8C138.048 125.792 133.088 127.914 127.864 129.056C126.891 129.272 126.012 129.793 125.357 130.545C124.702 131.297 124.305 132.238 124.224 133.232L123.384 142.344H112.08V115.352C128.376 119.048 144.536 108.616 148.136 92.064C151.776 75.504 141.496 59.104 125.2 55.4C120.883 54.4042 116.397 54.4042 112.08 55.4V28.504H123.336L124.216 37.568C124.307 38.5585 124.709 39.4949 125.364 40.2434C126.019 40.9919 126.894 41.5143 127.864 41.736C133.087 42.9298 138.054 45.0514 142.528 48C144.256 49.136 146.448 49 148.048 47.664L154.904 41.88L161.352 48.472L155.608 55.544C154.965 56.3311 154.592 57.3032 154.541 58.318C154.491 59.3328 154.767 60.3371 155.328 61.184C158.264 65.688 160.368 70.72 161.488 76.032C161.696 77.0116 162.212 77.8989 162.96 78.564C163.709 79.2291 164.651 79.637 165.648 79.728L174.664 80.632L174.656 90.12Z" fill="white"/>
</g>
<path d="M92 16V152M88 92H16M52 32V52M52 52V72M52 52H32M52 52H72M32 124H72M104 100H152M104 76H152M24 160H152C156.243 160 160.313 158.314 163.314 155.314C166.314 152.313 168 148.243 168 144V24C168 19.7565 166.314 15.6869 163.314 12.6863C160.313 9.68571 156.243 8 152 8H24C19.7565 8 15.6869 9.68571 12.6863 12.6863C9.68571 15.6869 8 19.7565 8 24V144C8 148.243 9.68571 152.313 12.6863 155.314C15.6869 158.314 19.7565 160 24 160Z" stroke="black"/>
<path d="M4 8L32 36L60 8" stroke="black"/>
<path d="M12 12L40 40L68 12" stroke="white" stroke-width="1.5"/>
<path fill-rule="evenodd" clip-rule="evenodd" d="M20.112 144C11.696 160.032 7.536 170.864 6.456 177.936C5.992 180.976 6.096 183.32 6.672 185.08C7.256 186.856 4.864 182.92 6.328 183.624C10.664 185.712 21.416 184.6 30.032 181.328C33.328 180.072 38.656 179.296 42.064 177.888C52.96 173.368 62.224 172.368 68 173.72C74.424 175.208 81.12 176 88 176C136.6 176 176 136.6 176 88C176 39.4 136.6 0 88 0C39.4 0 0 39.4 0 88C0 109.28 7.552 128.784 20.112 144ZM28.752 171.208C31.32 170.208 33.112 169.824 36 168.632C38.016 167.792 39.896 166.936 42.064 166.056C46.536 164.248 50.304 164.008 54.728 162.808C58.752 161.712 65.272 161.584 70.536 162.808C86.0582 166.433 102.324 165.138 117.077 159.103C131.83 153.068 144.34 142.592 152.872 129.128C161.404 115.664 165.535 99.8786 164.693 83.961C163.85 68.0435 158.076 52.7825 148.17 40.2941C138.265 27.8058 124.719 18.7089 109.411 14.265C94.1036 9.8211 77.7923 10.2503 62.7394 15.4931C47.6865 20.736 34.6378 30.5326 25.4029 43.5246C16.1679 56.5166 11.2041 72.0602 11.2 88C11.2 106.576 17.784 123.584 28.752 136.864L33.496 142.608L30.032 149.208C24.648 159.448 21.256 167.144 19.328 172.816C18.92 174.016 17.224 170.512 17.224 173.72L28.744 171.208H28.752Z" fill="#BD933B"/>
<path d="M36 88H60M76 88H100M116 88H140" stroke="#BD933B" stroke-width="2.4"/>
<path d="M136 8L72 72M72 72L8 136M72 72L8 8L136 136" stroke="white" stroke-width="1.5"/>
<path d="M144 128V152M144 128H40M144 128V104M40 128V152M40 128V104M144 104H40M144 104V80M40 104V80M40 80V56H144V80M40 80H144M8 152V48L92 8L176 48V152H8Z" stroke="black"/>
<path d="M8 64L36 36L8 8" stroke="black"/>
<path d="M184 360C281.202 360 360 281.202 360 184C360 86.7979 281.202 8 184 8C86.7979 8 8 86.7979 8 184C8 281.202 86.7979 360 184 360Z" stroke="black" stroke-width="2"/>
<path d="M180 96V220M180 256V272" stroke="black" stroke-width="2"/>
<path d="M164 120H52M36 120H4M164 64H52M36 64H4M164 8H52M36 8H4" stroke="black"/>
<path fill-rule="evenodd" clip-rule="evenodd" d="M112 60.5598C112 33.5758 88.144 13.5278 61.64 14.4318C35.968 15.2958 14.4 34.5038 14.4 60.5518C14.4 85.0158 26.952 110.192 40.256 129.832C46.5982 139.16 53.569 148.044 61.12 156.424C69.3543 146.522 77.097 136.222 84.32 125.56C91.424 115.04 98.416 103.384 103.608 91.9198C108.856 80.3438 112 69.5358 112 60.5598ZM61.392 167.2L56.344 172.328L56.32 172.312L56.288 172.272L56.144 172.136C55.3658 171.354 54.5977 170.562 53.84 169.76C52.296 168.128 50.112 165.76 47.496 162.768C40.6192 154.872 34.2211 146.572 28.336 137.912C14.552 117.56 0 89.4158 0 60.5518C0 25.5678 28.944 1.12784 61.152 0.0398358C94.6 -1.09616 126.4 24.2798 126.4 60.5518C126.4 72.5198 122.32 85.5118 116.72 97.8638C111.08 110.32 103.624 122.712 96.264 133.616C87.2538 146.902 77.4661 159.645 66.952 171.776L66.816 171.936L66.768 171.984L61.392 167.2ZM61.392 167.2L66.768 172L61.728 177.632L56.344 172.328L61.392 167.2Z" fill="black"/>
<path d="M78.3999 64.56C78.3999 66.5561 78.0067 68.5326 77.2429 70.3768C76.479 72.2209 75.3594 73.8966 73.9479 75.308C72.5365 76.7195 70.8608 77.8391 69.0167 78.603C67.1725 79.3668 65.196 79.76 63.1999 79.76C61.2038 79.76 59.2273 79.3668 57.3831 78.603C55.539 77.8391 53.8633 76.7195 52.4519 75.308C51.0404 73.8966 49.9208 72.2209 49.1569 70.3768C48.3931 68.5326 47.9999 66.5561 47.9999 64.56C47.9999 60.5287 49.6013 56.6625 52.4519 53.812C55.3024 50.9614 59.1686 49.36 63.1999 49.36C67.2312 49.36 71.0974 50.9614 73.9479 53.812C76.7985 56.6625 78.3999 60.5287 78.3999 64.56ZM63.1999 93.36C70.8381 93.36 78.1635 90.3257 83.5646 84.9247C88.9656 79.5236 91.9999 72.1982 91.9999 64.56C91.9999 56.9218 88.9656 49.5964 83.5646 44.1953C78.1635 38.7943 70.8381 35.76 63.1999 35.76C55.5617 35.76 48.2363 38.7943 42.8352 44.1953C37.4342 49.5964 34.3999 56.9218 34.3999 64.56C34.3999 72.1982 37.4342 79.5236 42.8352 84.9247C48.2363 90.3257 55.5617 93.36 63.1999 93.36Z" fill="black" stroke="black" stroke-width="0.2"/>
<path d="M95.2799 111.152C93.7773 111.151 92.3268 110.602 91.1999 109.608L71.2639 92.168L35.8079 107.288C34.5262 107.846 33.0934 107.953 31.7429 107.592C30.3925 107.231 29.2042 106.424 28.3717 105.301C27.5393 104.178 27.1118 102.806 27.1591 101.409C27.2063 100.012 27.7255 98.6721 28.6319 97.608L38.3119 84.912C38.8476 84.2087 39.6408 83.7469 40.517 83.6284C41.3932 83.5099 42.2805 83.7443 42.9839 84.28C43.6872 84.8158 44.149 85.609 44.2675 86.4851C44.386 87.3613 44.1516 88.2487 43.6159 88.952L34.8239 100.456L70.5759 85.216C71.1523 84.9709 71.7861 84.8935 72.4045 84.9925C73.023 85.0916 73.6009 85.3632 74.0719 85.776L95.2239 104.288L135.544 57.984L97.0479 73.264C96.4786 73.4905 95.8579 73.5558 95.2539 73.4528C94.6499 73.3498 94.0859 73.0824 93.6239 72.68L72.4479 54.136L62.3839 65.624C61.7911 66.2507 60.9787 66.6234 60.1171 66.6639C59.2555 66.7045 58.4116 66.4097 57.7627 65.8415C57.1137 65.2732 56.7101 64.4757 56.6365 63.6163C56.5628 62.7569 56.825 61.9023 57.3679 61.232L67.7599 49.376C68.8462 48.1523 70.3717 47.4069 72.0047 47.3021C73.6376 47.1972 75.246 47.7413 76.4799 48.816L96.4799 66.32L134.84 51.08C136.149 50.5534 137.599 50.4874 138.951 50.893C140.303 51.2985 141.477 52.1515 142.28 53.312C143.067 54.47 143.44 55.8594 143.34 57.2559C143.24 58.6523 142.672 59.9743 141.728 61.008L99.8639 109.088C99.2852 109.733 98.5772 110.248 97.786 110.601C96.9948 110.954 96.1382 111.136 95.2719 111.136L95.2799 111.152Z" fill="black"/>
<path d="M50.424 78.504C49.73 78.4996 49.0543 78.2803 48.4899 77.8763C47.9255 77.4724 47.5001 76.9035 47.272 76.248C47.0523 75.5894 47.042 74.8788 47.2426 74.2141C47.4432 73.5494 47.8447 72.9632 48.392 72.536C48.9176 72.1366 49.5492 71.9008 50.2079 71.8581C50.8666 71.8154 51.5233 71.9677 52.096 72.296C52.6783 72.6382 53.144 73.1479 53.4322 73.7587C53.7205 74.3695 53.818 75.053 53.712 75.72C53.5773 76.4944 53.1753 77.1971 52.576 77.7058C51.9767 78.2145 51.2101 78.4969 50.424 78.504Z" fill="black"/>
<path d="M35.68 168C34.846 168.001 34.0423 167.688 33.4286 167.123C32.815 166.558 32.4363 165.783 32.368 164.952L30.32 140.824C11.032 125.608 0 103.448 0 79.8C0 58.44 8.896 38.376 25.056 23.296C41.152 8.272 62.536 0 85.28 0C108.016 0 129.392 8.272 145.488 23.296C161.648 38.376 170.544 58.44 170.544 79.8C170.544 101.16 161.648 121.224 145.488 136.304C129.392 151.328 108.008 159.6 85.28 159.6C77.128 159.6 69.072 158.528 61.312 156.408L37.096 167.688C36.6576 167.893 36.1798 167.999 35.696 168H35.68ZM85.28 6.664C41.92 6.664 6.664 39.472 6.664 79.8C6.664 101.832 17.184 122.472 35.528 136.44C35.8986 136.722 36.206 137.078 36.4306 137.486C36.6552 137.894 36.7919 138.344 36.832 138.808L38.6 159.64L59.608 149.848C60.334 149.509 61.1577 149.444 61.928 149.664C69.472 151.84 77.32 152.944 85.272 152.944C128.616 152.944 163.88 120.128 163.88 79.8C163.88 39.472 128.624 6.664 85.28 6.664Z" fill="black"/>
<g clip-path="url(#clip5_3569_642)">
<path d="M77.584 50.8C75.2553 58.9774 70.3254 66.1732 63.5408 71.2978C56.7562 76.4223 48.4864 79.1965 39.984 79.2C34.8368 79.2032 29.7395 78.1912 24.9839 76.2219C20.2283 74.2527 15.9078 71.3648 12.2696 67.7237C8.6315 64.0826 5.74719 59.7598 3.78182 55.0026C1.81644 50.2454 0.808593 45.1472 0.815958 40C0.823958 18.344 18.32 0.800049 39.976 0.800049C50.808 0.800049 60.576 5.20805 67.656 12.32L68.224 12.88L68.792 12.32L79.176 1.92005V34.1921H46.912L61.672 19.4401L62.232 18.88L61.672 18.312C58.8359 15.4366 55.4586 13.151 51.7349 11.5871C48.0112 10.0232 44.0147 9.21193 39.976 9.20005C35.931 9.199 31.9254 9.99495 28.1881 11.5424C24.4508 13.0899 21.055 15.3586 18.1947 18.2188C15.3345 21.0791 13.0658 24.4749 11.5183 28.2122C9.97086 31.9495 9.17491 35.955 9.17596 40C9.18831 47.2054 11.7271 54.1782 16.3503 59.7047C20.9735 65.2312 27.3884 68.9614 34.4783 70.246C41.5682 71.5305 48.884 70.2881 55.1523 66.735C61.4206 63.1818 66.2444 57.543 68.784 50.8H77.584Z" fill="black" stroke="#EEEDE9" stroke-width="0.2"/>
</g>
<g clip-path="url(#clip6_3569_642)">
<path d="M10.4081 40.0005L26.4721 32.7525L40.6561 10.3765C42.6932 7.17431 45.5107 4.5422 48.8439 2.72725C52.1771 0.912311 55.9168 -0.0259461 59.7121 0.000545829H120.12C127.128 0.000545829 133.768 3.20055 138.04 8.72055L156.36 32.4245L186.888 40.6965C190.642 41.7103 193.959 43.9295 196.328 47.0127C198.697 50.0959 199.987 53.8722 200 57.7605V69.3125C200 79.0725 192.128 87.1445 182.256 87.1445H179.632C176.472 99.1765 164.056 106.393 151.888 103.273C147.977 102.284 144.401 100.267 141.532 97.4309C138.662 94.5952 136.603 91.0437 135.568 87.1445H66.7201C63.5681 99.1765 51.1441 106.393 38.9761 103.273C35.0664 102.282 31.4925 100.265 28.6245 97.4292C25.7565 94.5935 23.6986 91.0428 22.6641 87.1445H17.7441C15.4076 87.1383 13.0952 86.6718 10.939 85.7719C8.78279 84.8719 6.82495 83.5561 5.17727 81.8995C3.52958 80.2429 2.22432 78.278 1.33602 76.1169C0.447713 73.9559 -0.00624272 71.641 6.92417e-05 69.3046V56.1445C-0.0094773 52.7359 0.968322 49.3974 2.81531 46.5325C4.6623 43.6676 7.29944 41.3989 10.4081 40.0005ZM157.624 95.8166C159.525 95.8271 161.409 95.4632 163.168 94.7456C164.928 94.028 166.53 92.9709 167.881 91.6344C169.232 90.298 170.307 88.7085 171.044 86.9567C171.781 85.2049 172.166 83.3251 172.176 81.4246C172.151 77.587 170.603 73.9164 167.873 71.2194C165.143 68.5223 161.454 67.0193 157.616 67.0406C153.781 67.0235 150.096 68.5284 147.37 71.225C144.643 73.9217 143.097 77.5898 143.072 81.4246C143.032 89.3286 149.552 95.7766 157.624 95.8166ZM44.7121 95.8166C46.6126 95.8271 48.4965 95.4632 50.2564 94.7456C52.0162 94.028 53.6175 92.9709 54.9688 91.6344C56.3201 90.298 57.3949 88.7085 58.1319 86.9567C58.8689 85.2049 59.2536 83.3251 59.2641 81.4246C59.2387 77.5884 57.692 73.919 54.9637 71.2222C52.2353 68.5253 48.5483 67.0214 44.7121 67.0406C40.8772 67.0235 37.1923 68.5284 34.4656 71.225C31.739 73.9217 30.1935 77.5898 30.1681 81.4246C30.1201 89.3286 36.6401 95.7766 44.7121 95.8166ZM17.7601 79.0325H22.0961C23.4561 66.6725 34.7201 57.7525 47.2161 59.1365C52.3361 59.6629 57.1227 61.9223 60.7832 65.5406C64.4437 69.1589 66.7584 73.919 67.3441 79.0325H135.008C136.368 66.6725 147.632 57.7525 160.128 59.1365C165.248 59.6629 170.035 61.9223 173.695 65.5406C177.356 69.1589 179.67 73.919 180.256 79.0325H182.304C187.672 79.0325 191.856 74.6165 191.856 69.3125V57.7605C191.866 55.6469 191.174 53.5897 189.89 51.9106C188.607 50.2315 186.802 49.0253 184.76 48.4805L152.84 39.8405C151.972 39.6131 151.206 39.1002 150.664 38.3845L131.568 13.6165C130.202 11.8925 128.463 10.5008 126.481 9.54605C124.5 8.59131 122.328 8.09844 120.128 8.10455H59.7281C57.313 8.07341 54.93 8.66055 52.8058 9.81016C50.6817 10.9598 48.8869 12.6336 47.5921 14.6725L32.7441 38.0965C32.3234 38.7743 31.7108 39.3117 30.9841 39.6405L13.8561 47.3845C10.4161 48.9605 8.20007 52.3685 8.24007 56.1365V69.3125H8.20007C8.20007 74.6165 12.3761 79.0325 17.7441 79.0325H17.7601Z" fill="black"/>
</g>
<path d="M22.4 109.536C16.776 104.128 8 100.312 8 95.696V72.608M8 72.608V12.616C8 12.616 12.8 8 17.6 8H123.2C128 8 132.8 12.616 132.8 12.616V21.848M8 72.608L132.8 72.616M60.8 109.528C60.8 99.336 52.2 91.072 41.6 91.072C31 91.072 23.568 99.4 22.4 109.528C22.4 118.56 31 128 41.6 128C52.2 128 60.8 118.552 60.8 109.536H132.8M132.8 109.536C132.8 99.344 141.392 91.08 152 91.08C162.608 91.08 171.2 99.344 171.2 109.536M132.8 109.536C132.8 119.736 141.392 128 152 128C162.608 128 171.2 119.736 171.2 109.536M132.8 109.536V72.616M171.2 109.536L200 100.32V68L180.8 58.768L161.6 21.848H132.8M132.8 72.616V21.848" stroke="black"/>
<path d="M62.904 96.144C62.904 111.344 49.904 124 33.448 124C17 124 4 111.344 4 96.144C4 80.944 17 68.28 33.448 68.28C49.904 68.28 62.904 80.936 62.904 96.144ZM193.52 96.144C193.52 111.344 180.52 124 164.072 124C147.616 124 134.624 111.344 134.624 96.144C134.624 80.944 147.616 68.28 164.064 68.28C180.52 68.28 193.52 80.936 193.52 96.144Z" stroke="black"/>
<path d="M32.7119 92.96H110.44L135.928 50.48M135.928 50.48L165.664 92.96M135.928 50.48V29.24M135.928 29.24V8H106.192M135.928 29.24L80.7199 65.344L59.4719 39.856L12.7439 41.984L16.9839 65.344" stroke="black"/>
<path d="M16.384 130.184L8 125.816V108.368C8 99.64 16.384 95.272 16.384 95.272M16.384 130.184C16.384 130.184 24.76 152 41.52 152C58.288 152 66.664 130.184 66.664 130.184M16.384 130.184H66.664M16.384 95.272V86.552M16.384 95.272C16.384 95.272 37.336 92.216 52 104C66.664 115.784 66.664 130.184 66.664 130.184M66.664 130.184H137.904M16.384 86.544C8 82.184 12.192 64.728 16.384 64.728H87.616C96 64.728 96 86.544 87.616 86.544H70.856M70.856 86.544H16.376M70.856 86.544L79.24 112.728H116.952L133.152 79.832V44.92C133.152 44.92 124.768 40.552 121.144 29.816C117.52 19.08 146.288 8 146.288 8V95.28H171.432V108.368L184 130.184C184 130.184 184 152 163.048 152C142.088 152 137.904 130.184 137.904 130.184M137.904 130.184L181.584 92.776" stroke="black"/>
<path d="M69.08 68.1041L46 91.8961C46 91.8961 22.704 87.3601 13.688 96.6561C4.67202 105.936 9.07202 129.96 9.07202 129.96C9.07202 129.96 32.256 110.728 41.384 120.44C50.936 130.6 27.536 148.992 27.536 148.992C27.536 148.992 57.272 158.272 64.464 144.232C69.504 134.368 64.464 110.928 64.464 110.928L87.544 87.1361M82.92 91.8961L106 68.1041C106 68.1041 129.296 72.6401 138.312 63.3441C147.328 54.0641 142.928 30.0401 142.928 30.0401C142.928 30.0401 119.752 49.2721 110.616 39.5601C101.064 29.4001 124.464 11.0081 124.464 11.0081C124.464 11.0081 94.728 1.72806 87.536 15.7681C82.496 25.6321 87.536 49.0721 87.536 49.0721L64.464 72.8641" stroke="black"/>
<path d="M72 140C109.555 140 140 109.555 140 72C140 34.4446 109.555 4 72 4C34.4446 4 4 34.4446 4 72C4 109.555 34.4446 140 72 140Z" stroke="black"/>
<path d="M72 108C91.8823 108 108 91.8823 108 72C108 52.1177 91.8823 36 72 36C52.1177 36 36 52.1177 36 72C36 91.8823 52.1177 108 72 108Z" stroke="black"/>
<path d="M48 96L24 120M96 96L120 120M96 48L120 24M48 48L24 24" stroke="black"/>
<g clip-path="url(#clip7_3569_642)">
<path fill-rule="evenodd" clip-rule="evenodd" d="M72 136C88.9739 136 105.253 129.257 117.255 117.255C129.257 105.253 136 88.9739 136 72C136 55.0261 129.257 38.7475 117.255 26.7452C105.253 14.7428 88.9739 8 72 8C55.0261 8 38.7475 14.7428 26.7452 26.7452C14.7428 38.7475 8 55.0261 8 72C8 88.9739 14.7428 105.253 26.7452 117.255C38.7475 129.257 55.0261 136 72 136ZM72 144C91.0956 144 109.409 136.414 122.912 122.912C136.414 109.409 144 91.0956 144 72C144 52.9044 136.414 34.5909 122.912 21.0883C109.409 7.58569 91.0956 0 72 0C52.9044 0 34.5909 7.58569 21.0883 21.0883C7.58569 34.5909 0 52.9044 0 72C0 91.0956 7.58569 109.409 21.0883 122.912C34.5909 136.414 52.9044 144 72 144Z" fill="black"/>
<path fill-rule="evenodd" clip-rule="evenodd" d="M68 68V32H76V68H112V76H76V112H68V76H32V68H68Z" fill="black"/>
</g>
<g clip-path="url(#clip8_3569_642)">
<path d="M132.648 104.064C129.208 100.488 125.064 98.576 120.664 98.576C116.304 98.576 112.12 100.456 108.544 104.032L97.336 115.2C96.416 114.704 95.496 114.24 94.608 113.784C93.328 113.144 92.128 112.544 91.088 111.904C80.6 105.24 71.064 96.544 61.912 85.312C57.48 79.712 54.504 74.992 52.336 70.208C55.248 67.544 57.936 64.784 60.568 62.128C61.56 61.128 62.552 60.104 63.544 59.112C70.984 51.664 70.984 42.016 63.544 34.568L53.864 24.888C52.768 23.792 51.624 22.656 50.568 21.528C48.4088 19.2662 46.1866 17.0653 43.904 14.928C40.464 11.528 36.352 9.71197 32.024 9.71197C27.696 9.71197 23.512 11.528 19.968 14.928L19.896 15L7.84004 27.16C3.36834 31.5467 0.634759 37.4031 0.144042 43.648C-0.703958 54 2.34404 63.648 4.68804 69.96C10.432 85.456 19.008 99.816 31.808 115.2C47.336 133.744 66.024 148.392 87.368 158.712C95.528 162.576 106.408 167.144 118.568 167.928C119.32 167.96 120.096 168 120.808 168C129 168 135.88 165.056 141.264 159.2C141.304 159.136 141.376 159.096 141.408 159.032C143.248 156.792 145.384 154.776 147.616 152.608C149.136 151.16 150.696 149.632 152.224 148.032C155.736 144.384 157.584 140.128 157.584 135.768C157.584 131.368 155.696 127.152 152.12 123.608L132.648 104.064ZM145.344 141.408C145.312 141.44 145.312 141.408 145.344 141.408C143.96 142.896 142.544 144.24 141.024 145.728C138.712 147.928 136.376 150.232 134.176 152.824C130.592 156.648 126.376 158.456 120.84 158.456C120.312 158.456 119.744 158.456 119.216 158.424C108.68 157.752 98.896 153.64 91.552 150.128C71.3921 140.342 53.5523 126.367 39.224 109.136C27.12 94.568 19.04 81.096 13.68 66.624C10.384 57.8 9.17604 50.92 9.71204 44.432C10.064 40.28 11.664 36.84 14.608 33.896L26.696 21.808C28.432 20.176 30.28 19.288 32.088 19.288C34.32 19.288 36.128 20.64 37.264 21.768L37.368 21.88C39.528 23.896 41.584 25.992 43.752 28.224C44.848 29.36 45.992 30.496 47.112 31.664L56.792 41.344C60.552 45.104 60.552 48.576 56.792 52.336C55.768 53.368 54.776 54.392 53.752 55.384C50.768 58.432 47.936 61.272 44.848 64.04C44.776 64.104 44.712 64.144 44.672 64.216C41.624 67.256 42.192 70.24 42.832 72.264L42.936 72.584C45.456 78.68 49 84.424 54.384 91.264L54.424 91.304C64.208 103.36 74.528 112.752 85.912 119.952C87.36 120.872 88.856 121.624 90.272 122.328C91.552 122.968 92.752 123.568 93.784 124.208C93.92 124.28 94.064 124.384 94.208 124.456C95.2918 125.025 96.496 125.327 97.72 125.336C100.664 125.336 102.504 123.496 103.104 122.896L115.232 110.768C116.432 109.568 118.352 108.112 120.592 108.112C122.784 108.112 124.592 109.496 125.696 110.696L125.768 110.776L145.304 130.304C148.952 133.928 148.96 137.648 145.344 141.408ZM90.672 39.96C99.9548 41.5264 108.512 45.9671 115.136 52.656C121.812 59.29 126.25 67.8424 127.832 77.12C128.018 78.2354 128.596 79.248 129.46 79.9765C130.325 80.7051 131.421 81.1019 132.552 81.096C132.832 81.096 133.08 81.056 133.36 81.016C133.981 80.9122 134.576 80.6871 135.109 80.3534C135.643 80.0198 136.106 79.5842 136.472 79.0716C136.837 78.559 137.098 77.9793 137.24 77.3658C137.381 76.7523 137.4 76.1169 137.296 75.496C135.386 64.2689 130.019 53.9181 121.944 45.888C113.917 37.8112 103.569 32.4415 92.344 30.528C91.0928 30.3165 89.8088 30.6082 88.7718 31.3395C87.7347 32.0708 87.0289 33.1824 86.808 34.432C86.6942 35.0491 86.7042 35.6827 86.8374 36.2959C86.9705 36.9092 87.2243 37.4898 87.5838 38.0042C87.9433 38.5185 88.4014 38.9563 88.9316 39.292C89.4618 39.6278 90.0534 39.8548 90.672 39.96ZM167.68 74.112C164.541 55.6211 155.703 38.5733 142.4 25.352C129.18 12.0537 112.135 3.21807 93.648 0.0799696C92.4016 -0.130848 91.1224 0.16198 90.0918 0.894072C89.0611 1.62616 88.3634 2.73759 88.152 3.98397C87.9435 5.23863 88.2407 6.52479 88.9784 7.56086C89.7161 8.59694 90.8342 9.29851 92.088 9.51197C108.609 12.3243 123.841 20.2188 135.664 32.096C147.556 43.9113 155.453 59.1512 158.248 75.68C158.436 76.7939 159.014 77.8046 159.879 78.5316C160.743 79.2585 161.838 79.6542 162.968 79.648C163.663 79.6626 164.353 79.5225 164.988 79.2379C165.623 78.9533 166.186 78.5313 166.638 78.0023C167.089 77.4733 167.418 76.8507 167.6 76.1793C167.781 75.5079 167.811 74.8045 167.688 74.12L167.68 74.112Z" fill="#C9C9C9"/>
</g>
<path d="M8 384V16L240 200L8 384Z" stroke="black" stroke-width="1.5"/>
<path d="M87.696 93.864L135 141.168M112 60C112 73.7913 106.521 87.0177 96.7696 96.7696C87.0177 106.521 73.7913 112 60 112C46.2087 112 32.9823 106.521 23.2304 96.7696C13.4786 87.0177 8 73.7913 8 60C8 46.2087 13.4786 32.9823 23.2304 23.2304C32.9823 13.4786 46.2087 8 60 8C73.7913 8 87.0177 13.4786 96.7696 23.2304C106.521 32.9823 112 46.2087 112 60Z" stroke="black"/>
<path d="M108 116L160 168M132.48 70.48C132.48 104.984 104.608 132.952 70.24 132.952C35.864 132.952 8 104.984 8 70.472C8 35.968 35.864 8 70.24 8C104.608 8 132.48 35.968 132.48 70.48Z" stroke="white"/>
<g clip-path="url(#clip9_3569_642)">
<path opacity="0.4" d="M88 120L32 160L56 104L0 64H64L88 0V120ZM88 0L112 64H176L120 104L144 160L88 120V0Z" fill="#D4AF5D"/>
</g>
<g clip-path="url(#clip10_3569_642)">
<path d="M88 120L32 160L56 104L0 64H64L88 0V120ZM88 0L112 64H176L120 104L144 160L88 120V0Z" fill="#D4AF5D"/>
</g>
<path d="M8.0001 44.4319H5.6001V57.2319H184.552L155.472 86.3039L153.776 87.9999L155.472 89.6959L161.128 95.3519L162.832 97.0479L164.528 95.3519L207.352 52.5279L209.048 50.8319L207.352 49.1279L164.528 6.30391L162.832 4.60791L161.128 6.30391L155.472 11.9599L153.776 13.6559L155.472 15.3519L184.552 44.4319H8.0001Z" fill="#ABABB0" stroke="#ABABB0" stroke-width="0.6"/>
<path d="M53.472 102.96C53.472 102.96 8 121.216 8 143.12C8 165.048 30.736 176 45.896 176H114.104C129.264 176 152 165.04 152 143.128C152 121.216 106.528 102.96 106.528 102.96M80 8C61.056 8 45.896 29.544 45.896 51.824C45.896 74.104 61.056 95.656 80 95.656C98.944 95.656 114.104 73.736 114.104 51.824C114.104 29.912 98.944 8 80 8Z" stroke="black"/>
<path d="M97.2 0H63.68C28.56 0 0 28.56 0 63.664V93.864C0.0146674 106.623 3.85545 119.084 11.026 129.638C18.1966 140.191 28.3674 148.351 40.224 153.064V172.648C40.2252 173.296 40.4143 173.93 40.7683 174.473C41.1224 175.015 41.6261 175.444 42.2187 175.706C42.8112 175.969 43.4671 176.054 44.107 175.951C44.7469 175.849 45.3433 175.563 45.824 175.128L65.264 157.528H97.2C132.32 157.528 160.88 128.968 160.88 93.864V63.664C160.88 28.56 132.32 0 97.2 0ZM154.176 93.864C154.176 125.272 128.624 150.824 97.2 150.824H63.96C63.1311 150.827 62.3328 151.138 61.72 151.696L46.92 165.088V150.752C46.9213 150.059 46.7072 149.383 46.3074 148.816C45.9075 148.25 45.3416 147.822 44.688 147.592C33.5863 143.651 23.9759 136.371 17.1753 126.752C10.3747 117.132 6.717 105.645 6.704 93.864V63.664C6.704 32.256 32.264 6.704 63.68 6.704H97.2C128.624 6.704 154.176 32.256 154.176 63.664V93.864Z" fill="black"/>
<path d="M124.736 102.2L104.136 88.824C103.03 88.1012 101.791 87.6041 100.492 87.3612C99.1934 87.1183 97.8592 87.1345 96.5665 87.4088C95.2737 87.6831 94.048 88.2102 92.9595 88.9596C91.8711 89.7091 90.9414 90.6662 90.224 91.776L89.264 93.264C80.344 90.312 70.512 86.544 64.624 69.512L67.064 67.392C71.248 63.76 71.688 57.392 68.048 53.208L51.936 34.672C51.3523 34.0024 50.5273 33.5912 49.6413 33.5282C48.7553 33.4653 47.8804 33.7557 47.208 34.336L37.088 43.136C28.208 50.848 32.36 62.256 33.728 66.016C33.7872 66.1814 33.8594 66.3419 33.944 66.496C40.1683 77.1768 47.6628 87.0647 56.264 95.944C69.896 109.824 94.488 122.64 95.248 123.016C98.9771 125.433 103.513 126.271 107.859 125.347C112.206 124.423 116.008 121.812 118.432 118.088L125.728 106.848C126.21 106.101 126.377 105.193 126.191 104.323C126.005 103.453 125.482 102.693 124.736 102.208V102.2ZM112.8 114.44C109.784 119.08 103.544 120.408 98.616 117.224C98.376 117.104 73.928 104.376 61.048 91.256C52.9478 82.8477 45.8595 73.5203 39.928 63.464C37.272 56.024 37.744 51.448 41.48 48.192L49.08 41.6L62.992 57.6C63.2865 57.9298 63.5122 58.3151 63.6558 58.7333C63.7994 59.1515 63.858 59.5941 63.8282 60.0353C63.7984 60.4765 63.6807 60.9072 63.4822 61.3023C63.2836 61.6974 63.0082 62.0488 62.672 62.336L58.56 65.904C58.0679 66.3292 57.7104 66.8886 57.5314 67.5138C57.3523 68.139 57.3595 68.8028 57.552 69.424C64.56 92.208 78.192 96.68 88.152 99.952L89.6 100.432C90.3047 100.668 91.0679 100.662 91.7691 100.416C92.4703 100.17 93.0694 99.6967 93.472 99.072L95.848 95.416C96.0848 95.043 96.3938 94.7211 96.757 94.4694C97.1201 94.2176 97.5299 94.0411 97.9623 93.9501C98.3946 93.8592 98.8409 93.8557 99.2746 93.9398C99.7084 94.0239 100.121 94.194 100.488 94.44L118.28 106L112.8 114.432V114.44ZM88.088 54.456C87.6646 54.3352 87.2215 54.2989 86.7841 54.3493C86.3468 54.3997 85.9236 54.5358 85.5388 54.7497C85.154 54.9637 84.8151 55.2513 84.5414 55.5963C84.2678 55.9412 84.0648 56.3366 83.944 56.76C83.8231 57.1834 83.7869 57.6264 83.8373 58.0638C83.8877 58.5012 84.0238 58.9244 84.2377 59.3092C84.4516 59.694 84.7393 60.0329 85.0842 60.3065C85.4291 60.5802 85.8246 60.7832 86.248 60.904C88.7183 61.6155 90.9673 62.9432 92.7837 64.7624C94.6 66.5816 95.9243 68.8326 96.632 71.304C96.9148 72.1101 97.4942 72.7783 98.2522 73.1724C99.0101 73.5666 99.8898 73.6573 100.712 73.4259C101.535 73.1946 102.238 72.6586 102.679 71.9271C103.121 71.1956 103.267 70.3234 103.088 69.488C102.069 65.9158 100.158 62.6614 97.5357 60.0305C94.9132 57.3996 91.6649 55.4786 88.096 54.448L88.088 54.456Z" fill="black"/>
<path d="M113.6 74.472C114.119 74.473 114.63 74.3536 115.095 74.1233C115.56 73.893 115.965 73.5581 116.278 73.1448C116.591 72.7315 116.804 72.2512 116.9 71.7416C116.997 71.232 116.973 70.707 116.832 70.208C114.848 63.2739 111.133 56.9579 106.038 51.853C100.943 46.7481 94.6343 43.0218 87.7041 41.024C86.849 40.78 85.9321 40.8856 85.1549 41.3177C84.3778 41.7498 83.8041 42.4729 83.5601 43.328C83.3161 44.183 83.4218 45.1 83.8539 45.8771C84.2859 46.6543 85.009 47.228 85.8641 47.472C91.6962 49.1534 97.0053 52.2893 101.293 56.5853C105.581 60.8814 108.706 66.1966 110.376 72.032C110.576 72.7335 110.998 73.351 111.58 73.7912C112.162 74.2314 112.871 74.4703 113.6 74.472Z" fill="black"/>
<path d="M86.2561 25.4161C85.8327 25.2952 85.3897 25.259 84.9523 25.3094C84.5149 25.3598 84.0917 25.4959 83.7069 25.7098C83.3221 25.9237 82.9832 26.2114 82.7096 26.5563C82.4359 26.9012 82.2329 27.2967 82.1121 27.7201C81.9913 28.1434 81.955 28.5865 82.0054 29.0239C82.0558 29.4612 82.1919 29.8844 82.4058 30.2692C82.6198 30.654 82.9074 30.9929 83.2524 31.2666C83.5973 31.5402 83.9927 31.7432 84.4161 31.8641C94.2951 34.7138 103.288 40.027 110.551 47.305C117.813 54.583 123.107 63.5871 125.936 73.472C126.219 74.2782 126.798 74.9463 127.556 75.3405C128.314 75.7347 129.194 75.8253 130.016 75.594C130.839 75.3626 131.542 74.8267 131.984 74.0952C132.425 73.3636 132.571 72.4915 132.392 71.656C129.249 60.6712 123.367 50.6651 115.297 42.5769C107.227 34.4887 97.2338 28.5837 86.2561 25.4161Z" fill="black"/>
<g clip-path="url(#clip11_3569_642)">
<path d="M80.0001 0C35.8881 0 7.98011e-05 35.888 7.98011e-05 80C-0.0211064 94.9723 4.1766 109.648 12.1121 122.344C8.96008 133.416 3.24808 154.36 3.18408 154.576C3.03621 155.107 3.03452 155.669 3.17919 156.201C3.32386 156.733 3.60953 157.217 4.00606 157.6C4.40258 157.984 4.89524 158.253 5.43207 158.38C5.96889 158.506 6.52997 158.486 7.05608 158.32L38.7681 148.568C51.2153 156.061 65.4717 160.013 80.0001 160C124.112 160 160 124.112 160 80C160 35.888 124.112 0 80.0001 0ZM80.0001 153.84C66.1449 153.855 52.5664 149.962 40.8241 142.608C40.4495 142.375 40.0293 142.225 39.5917 142.168C39.1542 142.112 38.7096 142.15 38.2881 142.28L10.6001 150.8C12.6321 143.376 16.2881 130.096 18.4081 122.712C18.5295 122.288 18.5587 121.843 18.4939 121.407C18.429 120.971 18.2716 120.554 18.0321 120.184C10.2628 108.223 6.13815 94.2623 6.16008 80C6.16008 39.28 39.2801 6.16 80.0001 6.16C120.72 6.16 153.84 39.28 153.84 80C153.84 120.72 120.72 153.84 80.0001 153.84Z" fill="black"/>
<path d="M132.264 98.848C126.584 95.696 121.744 92.528 118.216 90.224C116.253 88.8767 114.227 87.6246 112.144 86.472C108.152 84.488 105.128 85.896 103.984 87.056C103.838 87.1972 103.707 87.3526 103.592 87.52C99.448 93.744 94.04 99.688 92.448 100.008C90.624 99.72 82.048 94.856 73.536 87.76C64.84 80.512 59.376 73.576 58.568 68.848C64.144 63.104 66.152 59.488 66.152 55.384C66.152 51.144 56.272 33.464 54.48 31.672C52.688 29.88 48.648 29.592 42.48 30.832C41.8837 30.9516 41.3357 31.2437 40.904 31.672C40.152 32.416 22.664 50.256 30.976 71.872C40.096 95.6 63.52 123.176 93.384 127.656C96.784 128.168 99.96 128.416 102.944 128.416C120.512 128.416 130.88 119.576 133.8 102.04C133.906 101.414 133.815 100.771 133.54 100.2C133.265 99.6278 132.819 99.1555 132.264 98.848ZM94.304 121.568C62.72 116.84 42.824 85.544 36.72 69.664C30.656 53.904 41.84 39.864 44.64 36.688C46.92 36.304 49.328 36.136 50.328 36.288C52.424 39.208 59.68 52.92 60 55.384C60 57 59.472 59.248 53.208 65.52C52.9221 65.8042 52.6951 66.1419 52.54 66.5139C52.3849 66.886 52.3047 67.2849 52.304 67.688C52.304 83.8 86.288 106.152 92.304 106.152C97.544 106.152 104.368 97.352 108.248 91.624C108.48 91.632 108.856 91.704 109.392 91.984C110.504 92.544 112.424 93.792 114.848 95.376C118.048 97.472 122.312 100.256 127.344 103.136C125.056 114.12 118.68 125.224 94.304 121.568Z" fill="black"/>
</g>
<g clip-path="url(#clip12_3569_642)">
<path d="M10.4081 40.0005L26.4721 32.7525L40.6561 10.3765C42.6932 7.17431 45.5107 4.5422 48.8439 2.72725C52.1771 0.912311 55.9168 -0.0259461 59.7121 0.000545829H120.12C127.128 0.000545829 133.768 3.20055 138.04 8.72055L156.36 32.4245L186.888 40.6965C190.642 41.7103 193.959 43.9295 196.328 47.0127C198.697 50.0959 199.987 53.8722 200 57.7605V69.3125C200 79.0725 192.128 87.1445 182.256 87.1445H179.632C176.472 99.1765 164.056 106.393 151.888 103.273C147.977 102.284 144.401 100.267 141.532 97.4309C138.662 94.5952 136.603 91.0437 135.568 87.1445H66.7201C63.5681 99.1765 51.1441 106.393 38.9761 103.273C35.0664 102.282 31.4925 100.265 28.6245 97.4292C25.7565 94.5935 23.6986 91.0428 22.6641 87.1445H17.7441C15.4076 87.1383 13.0952 86.6718 10.939 85.7719C8.78279 84.8719 6.82495 83.5561 5.17727 81.8995C3.52958 80.2429 2.22432 78.278 1.33602 76.1169C0.447713 73.9559 -0.00624272 71.641 6.92417e-05 69.3046V56.1445C-0.0094773 52.7359 0.968322 49.3974 2.81531 46.5325C4.6623 43.6676 7.29944 41.3989 10.4081 40.0005ZM157.624 95.8166C159.525 95.8271 161.409 95.4632 163.168 94.7456C164.928 94.028 166.53 92.9709 167.881 91.6344C169.232 90.298 170.307 88.7085 171.044 86.9567C171.781 85.2049 172.166 83.3251 172.176 81.4246C172.151 77.587 170.603 73.9164 167.873 71.2194C165.143 68.5223 161.454 67.0193 157.616 67.0406C153.781 67.0235 150.096 68.5284 147.37 71.225C144.643 73.9217 143.097 77.5898 143.072 81.4246C143.032 89.3286 149.552 95.7766 157.624 95.8166ZM44.7121 95.8166C46.6126 95.8271 48.4965 95.4632 50.2564 94.7456C52.0162 94.028 53.6175 92.9709 54.9688 91.6344C56.3201 90.298 57.3949 88.7085 58.1319 86.9567C58.8689 85.2049 59.2536 83.3251 59.2641 81.4246C59.2387 77.5884 57.692 73.919 54.9637 71.2222C52.2353 68.5253 48.5483 67.0214 44.7121 67.0406C40.8772 67.0235 37.1923 68.5284 34.4656 71.225C31.739 73.9217 30.1935 77.5898 30.1681 81.4246C30.1201 89.3286 36.6401 95.7766 44.7121 95.8166ZM17.7601 79.0325H22.0961C23.4561 66.6725 34.7201 57.7525 47.2161 59.1365C52.3361 59.6629 57.1227 61.9223 60.7832 65.5406C64.4437 69.1589 66.7584 73.919 67.3441 79.0325H135.008C136.368 66.6725 147.632 57.7525 160.128 59.1365C165.248 59.6629 170.035 61.9223 173.695 65.5406C177.356 69.1589 179.67 73.919 180.256 79.0325H182.304C187.672 79.0325 191.856 74.6165 191.856 69.3125V57.7605C191.866 55.6469 191.174 53.5897 189.89 51.9106C188.607 50.2315 186.802 49.0253 184.76 48.4805L152.84 39.8405C151.972 39.6131 151.206 39.1002 150.664 38.3845L131.568 13.6165C130.202 11.8925 128.463 10.5008 126.481 9.54605C124.5 8.59131 122.328 8.09844 120.128 8.10455H59.7281C57.313 8.07341 54.93 8.66055 52.8058 9.81016C50.6817 10.9598 48.8869 12.6336 47.5921 14.6725L32.7441 38.0965C32.3234 38.7743 31.7108 39.3117 30.9841 39.6405L13.8561 47.3845C10.4161 48.9605 8.20007 52.3685 8.24007 56.1365V69.3125H8.20007C8.20007 74.6165 12.3761 79.0325 17.7441 79.0325H17.7601Z" fill="black"/>
</g>
<path d="M22.4 109.536C16.776 104.128 8 100.312 8 95.696V72.608M8 72.608V12.616C8 12.616 12.8 8 17.6 8H123.2C128 8 132.8 12.616 132.8 12.616V21.848M8 72.608L132.8 72.616M60.8 109.528C60.8 99.336 52.2 91.072 41.6 91.072C31 91.072 23.568 99.4 22.4 109.528C22.4 118.56 31 128 41.6 128C52.2 128 60.8 118.552 60.8 109.536H132.8M132.8 109.536C132.8 99.344 141.392 91.08 152 91.08C162.608 91.08 171.2 99.344 171.2 109.536M132.8 109.536C132.8 119.736 141.392 128 152 128C162.608 128 171.2 119.736 171.2 109.536M132.8 109.536V72.616M171.2 109.536L200 100.32V68L180.8 58.768L161.6 21.848H132.8M132.8 72.616V21.848" stroke="black"/>
<path d="M62.904 96.144C62.904 111.344 49.904 124 33.448 124C17 124 4 111.344 4 96.144C4 80.944 17 68.28 33.448 68.28C49.904 68.28 62.904 80.936 62.904 96.144ZM193.52 96.144C193.52 111.344 180.52 124 164.072 124C147.616 124 134.624 111.344 134.624 96.144C134.624 80.944 147.616 68.28 164.064 68.28C180.52 68.28 193.52 80.936 193.52 96.144Z" stroke="black"/>
<path d="M32.7119 92.96H110.44L135.928 50.48M135.928 50.48L165.664 92.96M135.928 50.48V29.24M135.928 29.24V8H106.192M135.928 29.24L80.7199 65.344L59.4719 39.856L12.7439 41.984L16.9919 65.344" stroke="black"/>
<path d="M16.384 130.184L8 125.816V108.368C8 99.64 16.384 95.272 16.384 95.272M16.384 130.184C16.384 130.184 24.76 152 41.52 152C58.288 152 66.664 130.184 66.664 130.184M16.384 130.184H66.664M16.384 95.272V86.552M16.384 95.272C16.384 95.272 37.336 92.216 52 104C66.664 115.784 66.664 130.184 66.664 130.184M66.664 130.184H137.904M16.384 86.544C8 82.184 12.192 64.728 16.384 64.728H87.616C96 64.728 96 86.544 87.616 86.544H70.856M70.856 86.544H16.376M70.856 86.544L79.24 112.728H116.952L133.152 79.832V44.92C133.152 44.92 124.768 40.552 121.144 29.816C117.52 19.08 146.288 8 146.288 8V95.28H171.432V108.368L184 130.184C184 130.184 184 152 163.048 152C142.088 152 137.904 130.184 137.904 130.184M137.904 130.184L181.584 92.776" stroke="black"/>
<path d="M69.08 68.1041L46 91.8961C46 91.8961 22.704 87.3601 13.688 96.6561C4.67202 105.936 9.07202 129.96 9.07202 129.96C9.07202 129.96 32.256 110.728 41.384 120.44C50.936 130.6 27.536 148.992 27.536 148.992C27.536 148.992 57.272 158.272 64.464 144.232C69.504 134.368 64.464 110.928 64.464 110.928L87.544 87.1361M82.92 91.8961L106 68.1041C106 68.1041 129.296 72.6401 138.312 63.3441C147.328 54.0641 142.928 30.0401 142.928 30.0401C142.928 30.0401 119.752 49.2721 110.616 39.5601C101.064 29.4001 124.464 11.0081 124.464 11.0081C124.464 11.0081 94.728 1.72806 87.536 15.7681C82.496 25.6321 87.536 49.0721 87.536 49.0721L64.464 72.8641" stroke="black"/>
<path d="M72 140C109.555 140 140 109.555 140 72C140 34.4446 109.555 4 72 4C34.4446 4 4 34.4446 4 72C4 109.555 34.4446 140 72 140Z" stroke="black"/>
<path d="M72 108C91.8823 108 108 91.8823 108 72C108 52.1177 91.8823 36 72 36C52.1177 36 36 52.1177 36 72C36 91.8823 52.1177 108 72 108Z" stroke="black"/>
<path d="M48 96L24 120M96 96L120 120M96 48L120 24M48 48L24 24" stroke="black"/>
<path d="M72 140C109.555 140 140 109.555 140 72C140 34.4446 109.555 4 72 4C34.4446 4 4 34.4446 4 72C4 109.555 34.4446 140 72 140Z" stroke="black"/>
<path d="M72 40V72M72 72V104M72 72H40H100" stroke="black"/>
</g>
<defs>
<clipPath id="clip0_3569_642">
<rect width="368" height="400" fill="white"/>
</clipPath>
<clipPath id="clip1_3569_642">
<rect width="104" height="192" fill="white"/>
</clipPath>
<clipPath id="clip2_3569_642">
<rect width="104" height="192" fill="white"/>
</clipPath>
<clipPath id="clip3_3569_642">
<rect width="136" height="176" fill="white"/>
</clipPath>
<clipPath id="clip4_3569_642">
<rect width="184" height="168" fill="white"/>
</clipPath>
<clipPath id="clip5_3569_642">
<rect width="80" height="80" fill="white"/>
</clipPath>
<clipPath id="clip6_3569_642">
<rect width="200" height="104" fill="white"/>
</clipPath>
<clipPath id="clip7_3569_642">
<rect width="144" height="144" fill="white"/>
</clipPath>
<clipPath id="clip8_3569_642">
<rect width="168" height="168" fill="white"/>
</clipPath>
<clipPath id="clip9_3569_642">
<rect width="176" height="160" fill="white"/>
</clipPath>
<clipPath id="clip10_3569_642">
<rect width="176" height="160" fill="white"/>
</clipPath>
<clipPath id="clip11_3569_642">
<rect width="160" height="160" fill="white"/>
</clipPath>
<clipPath id="clip12_3569_642">
<rect width="200" height="104" fill="white"/>
</clipPath>
</defs>
</svg>
