<svg width="19" height="20" viewBox="0 0 19 20" fill="none" xmlns="http://www.w3.org/2000/svg">
<path d="M8.6346 8.51315L5.74977 11.4869C5.74977 11.4869 2.83761 10.9203 1.71102 12.0816C0.584424 13.2429 1.13405 16.2448 1.13405 16.2448C1.13405 16.2448 4.03154 13.8408 5.17281 15.0553C6.3667 16.3258 3.44196 18.6238 3.44196 18.6238C3.44196 18.6238 7.15947 19.7842 8.05763 18.029C8.68837 16.7964 8.05763 13.8658 8.05763 13.8658L10.9425 10.8921M10.3654 11.4869L13.2502 8.51315C13.2502 8.51315 16.1624 9.07971 17.289 7.9184C18.4156 6.7571 17.8659 3.75521 17.8659 3.75521C17.8659 3.75521 14.9685 6.15923 13.8272 4.9447C12.6333 3.67416 15.558 1.37624 15.558 1.37624C15.558 1.37624 11.8405 0.215756 10.9424 1.97099C10.3116 3.20359 10.9424 6.13418 10.9424 6.13418L8.05754 9.10789" stroke="#bb974d"/>
</svg>
