<svg width="25" height="13" viewBox="0 0 25 13" fill="none" xmlns="http://www.w3.org/2000/svg">
<path d="M1.30126 5.00054L3.30946 4.09366L5.082 1.29703C5.59429 0.486409 6.49593 -0.00502756 7.46417 3.87968e-05H15.0154C15.8914 3.87968e-05 16.7213 0.400281 17.2541 1.08931L19.5441 4.05313L23.3607 5.08666C24.3289 5.35011 25 6.2266 25 7.2196V8.66352C25 9.88451 24.0164 10.8927 22.7818 10.8927H22.4539C22.0594 12.3974 20.5072 13.2992 18.9857 12.9091C17.9867 12.6507 17.2029 11.8807 16.9467 10.8927H8.34019C7.94572 12.3974 6.39347 13.2992 4.87196 12.9091C3.87298 12.6507 3.08917 11.8807 2.83302 10.8927H2.21827C0.983641 10.8927 3.62396e-05 9.88451 3.62396e-05 8.66352V7.01695C-0.00508499 6.1506 0.507208 5.36025 1.30126 5.00054ZM19.7029 11.9769C20.707 11.9769 21.5215 11.1714 21.5215 10.1784C21.5215 9.18535 20.707 8.3798 19.7029 8.3798C18.6988 8.3798 17.8842 9.18535 17.8842 10.1784C17.8791 11.1663 18.6937 11.9718 19.7029 11.9769ZM5.58917 11.9769C6.59327 11.9769 7.40781 11.1714 7.40781 10.1784C7.40781 9.18535 6.59327 8.3798 5.58917 8.3798C4.58507 8.3798 3.77052 9.18535 3.77052 10.1784C3.7654 11.1663 4.57995 11.9718 5.58917 11.9769ZM2.21827 9.87944H2.7613C2.93036 8.3342 4.33917 7.2196 5.90167 7.39186C7.22851 7.53372 8.27359 8.57232 8.41703 9.87944H16.875C17.0441 8.3342 18.4529 7.2196 20.0154 7.39186C21.3422 7.53372 22.3873 8.57232 22.5307 9.87944H22.7869C23.458 9.87944 23.9805 9.32721 23.9805 8.66352V7.2196C23.9857 6.6775 23.6219 6.20633 23.0943 6.0594L19.1035 4.98027C18.9959 4.94987 18.8986 4.88908 18.832 4.79788L16.4447 1.70234C16.1014 1.26663 15.5738 1.01331 15.0154 1.01331H7.46417C6.84941 1.00824 6.27052 1.31729 5.94777 1.83406L4.09327 4.76242C4.04204 4.84854 3.96007 4.91441 3.87298 4.95494L1.73159 5.92261C1.30126 6.1202 1.02463 6.54578 1.02975 7.01695V8.66352H1.02463C1.02463 9.32721 1.54716 9.87944 2.21827 9.87944Z" fill="#bb974d"/>
</svg>
