<svg width="25" height="16" viewBox="0 0 25 16" fill="none" xmlns="http://www.w3.org/2000/svg">
<path d="M7.86284 12.0177C7.86284 13.9182 6.23788 15.5 4.18142 15.5C2.12496 15.5 0.5 13.9182 0.5 12.0177C0.5 10.1172 2.12496 8.5354 4.18142 8.5354C6.23788 8.5354 7.86284 10.1172 7.86284 12.0177ZM24.1903 12.0177C24.1903 13.9182 22.5653 15.5 20.5089 15.5C18.4524 15.5 16.8275 13.9182 16.8275 12.0177C16.8275 10.1172 18.4524 8.5354 20.5089 8.5354C22.5653 8.5354 24.1903 10.1172 24.1903 12.0177Z" stroke="#bb974d"/>
<path d="M4.08883 11.6195H13.8053L16.9911 6.30974M16.9911 6.30974L20.708 11.6195M16.9911 6.30974V3.65487M13.2743 1H16.9911V3.65487M16.9911 3.65487L10.0885 8.16815L7.43361 4.9823L1.5929 5.24779L2.12387 8.16815" stroke="#bb974d"/>
</svg>
