<svg width="20" height="20" viewBox="0 0 20 20" fill="none" xmlns="http://www.w3.org/2000/svg">
<path d="M10 0C4.48577 0 0 4.48577 0 10C0 11.8812 0.522692 13.7073 1.51423 15.2931C1.11923 16.6769 0.405769 19.2946 0.398077 19.3219C0.361154 19.4573 0.400769 19.6019 0.501923 19.6992C0.603077 19.7965 0.749231 19.8312 0.882308 19.7904L4.84615 18.5712C6.39885 19.5065 8.17692 20 10 20C15.5142 20 20 15.5142 20 10C20 4.48577 15.5142 0 10 0ZM10 19.2308C8.26192 19.2308 6.56885 18.745 5.10346 17.8265C5.04154 17.7877 4.97038 17.7681 4.89923 17.7681C4.86115 17.7681 4.82308 17.7738 4.78615 17.785L1.325 18.8504C1.57923 17.9223 2.03615 16.2623 2.30115 15.3388C2.33192 15.2319 2.31462 15.1165 2.25423 15.0231C1.28269 13.5281 0.769231 11.7912 0.769231 10C0.769231 4.91038 4.91038 0.769231 10 0.769231C15.0896 0.769231 19.2308 4.91038 19.2308 10C19.2308 15.0896 15.0896 19.2308 10 19.2308Z" fill="#14a549"/>
<path d="M16.5327 12.3561C15.8227 11.9618 15.2181 11.5665 14.7769 11.278C14.44 11.058 14.1965 10.8991 14.0181 10.8095C13.5192 10.5607 13.1412 10.7365 12.9973 10.8818C12.9792 10.8999 12.9631 10.9195 12.9492 10.9403C12.4312 11.7176 11.7546 12.4611 11.5565 12.5011C11.3277 12.4653 10.2565 11.8565 9.19192 10.9699C8.105 10.0641 7.42115 9.19684 7.32077 8.60607C8.01808 7.88838 8.26923 7.43684 8.26923 6.923C8.26923 6.39338 7.03385 4.18223 6.81038 3.95877C6.58615 3.73492 6.08115 3.69992 5.30923 3.85377C5.235 3.86877 5.16654 3.9053 5.11269 3.95877C5.01923 4.05223 2.83231 6.28184 3.87154 8.98415C5.01231 11.9499 7.94038 15.3972 11.6735 15.9572C12.0977 16.0207 12.4954 16.0522 12.8677 16.0522C15.0638 16.0522 16.36 14.9472 16.725 12.7553C16.7523 12.5949 16.675 12.4349 16.5327 12.3561ZM11.7877 15.1965C7.84 14.6045 5.35346 10.6934 4.58961 8.708C3.83192 6.73877 5.22923 4.983 5.58 4.58607C5.86538 4.53761 6.16577 4.51723 6.29115 4.53684C6.55308 4.90107 7.46 6.61453 7.5 6.923C7.5 7.12492 7.43423 7.40607 6.65115 8.18953C6.57885 8.26146 6.53846 8.35915 6.53846 8.46146C6.53846 10.4753 10.7862 13.2691 11.5385 13.2691C12.1927 13.2691 13.0458 12.1695 13.5315 11.453C13.5596 11.4542 13.6069 11.4638 13.6742 11.4976C13.8127 11.5672 14.0527 11.7238 14.3562 11.9222C14.7569 12.1841 15.2892 12.5318 15.9177 12.8922C15.6323 14.2653 14.8346 15.6542 11.7877 15.1965Z" fill="#14a549"/>
</svg>
