<svg width="26" height="17" viewBox="0 0 26 17" fill="none" xmlns="http://www.w3.org/2000/svg">
<path d="M2.8 13.6923C2.09706 13.0164 1 12.5385 1 11.9615C1 11.3846 1 9.07692 1 9.07692M2.8 13.6923C2.94638 12.4256 3.87452 11.3846 5.2 11.3846C6.52548 11.3846 7.6 12.4178 7.6 13.6923M2.8 13.6923C2.8 14.8188 3.87452 16 5.2 16C6.52548 16 7.6 14.8188 7.6 13.6923M16.6 13.6923C13.3196 13.6923 10.8804 13.6923 7.6 13.6923M16.6 13.6923C16.6 12.4178 17.6745 11.3846 19 11.3846C20.3255 11.3846 21.4 12.4178 21.4 13.6923M16.6 13.6923C16.6 14.9668 17.6745 16 19 16C20.3255 16 21.4 14.9668 21.4 13.6923M16.6 13.6923C16.6 11.8899 16.6 9.07692 16.6 9.07692M21.4 13.6923C22.8059 13.2417 25 12.5385 25 12.5385V8.5L22.6 7.34615L20.2 2.73077H16.6M16.6 2.73077V1.57692C16.6 1.57692 16 1 15.4 1C14.8 1 2.8 1 2.2 1C1.6 1 1 1.57692 1 1.57692V9.07692M16.6 2.73077V9.07692M16.6 9.07692H1" stroke="#BCBCBE"/>
</svg>
