<svg width="24" height="20" viewBox="0 0 24 20" fill="none" xmlns="http://www.w3.org/2000/svg">
<path d="M2.04762 16.2727L1 15.7273V13.5455C1 12.4545 2.04762 11.9091 2.04762 11.9091M2.04762 16.2727C2.04762 16.2727 3.09524 19 5.19048 19C7.28571 19 8.33333 16.2727 8.33333 16.2727M2.04762 16.2727H8.33333M2.04762 11.9091V10.8182M2.04762 11.9091C2.04762 11.9091 4.66667 11.5275 6.5 13C8.33333 14.4725 8.33333 16.2727 8.33333 16.2727M2.04762 10.8182C1 10.2727 1.52381 8.09091 2.04762 8.09091H10.9524C12 8.09091 12 10.8182 10.9524 10.8182H8.85714M2.04762 10.8182H8.85714M8.85714 10.8182L9.90476 14.0909H14.619L16.6437 9.97854V5.6149C16.6437 5.6149 15.596 5.06945 15.1429 3.72727C14.6897 2.3851 18.2857 1 18.2857 1V11.9091H21.4286V13.5455L23 16.2727C23 16.2727 23 19 20.381 19C17.7619 19 17.2381 16.2727 17.2381 16.2727M17.2381 16.2727H8.33333M17.2381 16.2727L22.6978 11.5974" stroke="#484849"/>
</svg>
