<svg width="23" height="22" viewBox="0 0 23 22" fill="none" xmlns="http://www.w3.org/2000/svg">
<path d="M7.2333 19.9998C15.913 19.9998 20.6595 13.0754 20.6595 7.07097C20.6595 6.87428 20.6553 6.67844 20.6462 6.48361C21.5674 5.84218 22.3683 5.04174 23 4.13062C22.1546 4.49257 21.2445 4.73606 20.2901 4.84606C21.2644 4.28337 22.0124 3.39355 22.3651 2.33271C21.4534 2.85316 20.4437 3.23133 19.3687 3.43562C18.5076 2.55238 17.2816 2 15.9241 2C13.3183 2 11.205 4.03498 11.205 6.54343C11.205 6.90014 11.2464 7.24687 11.3273 7.57959C7.40544 7.38949 3.92768 5.58145 1.60052 2.83187C1.19534 3.50338 0.961609 4.28354 0.961609 5.11592C0.961609 6.69229 1.79477 8.08415 3.06153 8.89828C2.28733 8.8753 1.56016 8.67067 0.924408 8.33001C0.923706 8.3491 0.923706 8.36769 0.923706 8.38797C0.923706 10.5887 2.55019 12.4262 4.7096 12.8425C4.31303 12.9464 3.89574 13.0024 3.4653 13.0024C3.16173 13.0024 2.86588 12.9736 2.57827 12.9204C3.1791 14.7259 4.92123 16.0397 6.98658 16.0765C5.3715 17.2955 3.33685 18.0216 1.12568 18.0216C0.745247 18.0216 0.369377 18.0007 0 17.9588C2.08834 19.2477 4.56834 20 7.23347 20" fill="#1DA1F2"/>
</svg>
