<svg width="75" height="136" viewBox="0 0 75 136" fill="none" xmlns="http://www.w3.org/2000/svg">
<path d="M70 13.5V121L63 119L56.5 108.5L52.5 94.5L47.5 83.5L49.5 47L55.5 29.5L60.5 18.5L70 13.5Z" fill="#EDEDEF"/>
<path d="M43.5 133.5V2.5" stroke="#D6D6DA"/>
<path d="M37.0835 125.18L37.0835 127.801L36.2725 127.801L36.2725 125.18L37.0835 125.18Z" fill="#939399"/>
<path d="M37.0835 120.6L37.0835 123.221L36.2725 123.221L36.2725 120.6L37.0835 120.6Z" fill="#939399"/>
<path d="M37.0835 117.02L37.0835 119.641L36.2725 119.641L36.2725 117.02L37.0835 117.02Z" fill="#939399"/>
<path d="M37.0835 112.44L37.0835 115.061L36.2725 115.061L36.2725 112.44L37.0835 112.44Z" fill="#939399"/>
<path d="M37.0835 107.86L37.0835 110.481L36.2725 110.481L36.2725 107.86L37.0835 107.86Z" fill="#939399"/>
<path d="M37.0835 103.28L37.0835 105.901L36.2725 105.901L36.2725 103.28L37.0835 103.28Z" fill="#939399"/>
<path d="M37.0835 98.6999L37.0835 101.321L36.2725 101.321L36.2725 98.6999L37.0835 98.6999Z" fill="#939399"/>
<path d="M37.0835 94.1199L37.0835 96.741L36.2725 96.741L36.2725 94.1199L37.0835 94.1199Z" fill="#939399"/>
<path d="M37.0835 89.5399L37.0835 92.161L36.2725 92.161L36.2725 89.5399L37.0835 89.5399Z" fill="#939399"/>
<path d="M37.0835 84.9598L37.0835 87.5809L36.2725 87.5809L36.2725 84.9598L37.0835 84.9598Z" fill="#939399"/>
<path d="M37.0835 80.3798L37.0835 83.0009L36.2725 83.0009L36.2725 80.3798L37.0835 80.3798Z" fill="#939399"/>
<path d="M37.0835 75.7997L37.0835 78.4208L36.2725 78.4208L36.2725 75.7997L37.0835 75.7997Z" fill="#939399"/>
<path d="M37.0835 71.2197L37.0835 73.8408L36.2725 73.8408L36.2725 71.2197L37.0835 71.2197Z" fill="#939399"/>
<path d="M37.0835 66.6397L37.0835 69.2608L36.2725 69.2608L36.2725 66.6397L37.0835 66.6397Z" fill="#939399"/>
<path d="M37.0835 62.0596L37.0835 64.6807L36.2725 64.6807L36.2725 62.0596L37.0835 62.0596Z" fill="#939399"/>
<path d="M37.0835 57.4796L37.0835 60.1007L36.2725 60.1007L36.2725 57.4796L37.0835 57.4796Z" fill="#939399"/>
<path d="M37.0835 52.8996L37.0835 55.5206L36.2725 55.5206L36.2725 52.8996L37.0835 52.8996Z" fill="#939399"/>
<path d="M37.0835 48.3195L37.0835 50.9406L36.2725 50.9406L36.2725 48.3195L37.0835 48.3195Z" fill="#939399"/>
<path d="M37.0835 43.7395L37.0835 46.3606L36.2725 46.3606L36.2725 43.7395L37.0835 43.7395Z" fill="#939399"/>
<path d="M37.0835 39.1594L37.0835 41.7805L36.2725 41.7805L36.2725 39.1594L37.0835 39.1594Z" fill="#939399"/>
<path d="M37.0835 34.5794L37.0835 37.2005L36.2725 37.2005L36.2725 34.5794L37.0835 34.5794Z" fill="#939399"/>
<path d="M37.0835 29.9994L37.0835 32.6205L36.2725 32.6205L36.2725 29.9994L37.0835 29.9994Z" fill="#939399"/>
<path d="M37.0835 25.4193L37.0835 28.0404L36.2725 28.0404L36.2725 25.4193L37.0835 25.4193Z" fill="#939399"/>
<path d="M37.0835 20.8393L37.0835 23.4604L36.2725 23.4604L36.2725 20.8393L37.0835 20.8393Z" fill="#939399"/>
<path d="M37.0835 16.2592L37.0835 18.8803L36.2725 18.8803L36.2725 16.2592L37.0835 16.2592Z" fill="#939399"/>
<path d="M37.0835 12.6792L37.0835 15.3003L36.2725 15.3003L36.2725 12.6792L37.0835 12.6792Z" fill="#939399"/>
<path d="M37.0835 8.09915L37.0835 10.7202L36.2725 10.7202L36.2725 8.09915L37.0835 8.09915Z" fill="#939399"/>
<path d="M37.0835 130.18L37.0835 132.801L36.2725 132.801L36.2725 130.18L37.0835 130.18Z" fill="#939399"/>
<path d="M37.0835 2.87891L37.0835 5.5L36.2725 5.5L36.2725 2.87891L37.0835 2.87891Z" fill="#939399"/>
<path d="M3.20968 9L0 12.5L6.5 19H42.5L52.9516 22V29.8438L43 53.875V67H51.5V55.5L57.5 33.5L62 21.6875L66.5 19L71 13L67.7903 9.90625L63.2742 14.4375H8.62903L3.20968 9Z" fill="#C7C7CD"/>
<path d="M4 126L0.5 122.281L5.53226 116.5H42.5L52.9516 112.312V104.156L43 82.125V67H51.5V80.5L57.5 101L62 112L66 116.5L70.5 121.375L67.5 125L62.5 120.5H8.87592L4 126Z" fill="#C7C7CD"/>
<path d="M50 5L43 2.5L50 8.34742e-08L50 5Z" fill="#D6D6DA"/>
<path fill-rule="evenodd" clip-rule="evenodd" d="M74.5 3L49 3L49 2L74.5 2L74.5 3Z" fill="#D6D6DA"/>
<path d="M50 136L43 133.5L50 131L50 136Z" fill="#D6D6DA"/>
<path fill-rule="evenodd" clip-rule="evenodd" d="M74.5 134L49 134L49 133L74.5 133L74.5 134Z" fill="#D6D6DA"/>
</svg>
