<svg width="72" height="136" viewBox="0 0 72 136" fill="none" xmlns="http://www.w3.org/2000/svg">
<path d="M21.5 133.5V2.5" stroke="#D6D6DA"/>
<path d="M70.5 13V121.5L64 119L51.5 118L47 106.5L39.5 95.5L27 83V54L44.5 30.5L49 17.5L64.5 16.5L70.5 13Z" fill="#EDEDEF"/>
<path d="M38.0835 122.18L38.0835 124.801L37.2725 124.801L37.2725 122.18L38.0835 122.18Z" fill="#939399"/>
<path d="M38.0835 117.6L38.0835 120.221L37.2725 120.221L37.2725 117.6L38.0835 117.6Z" fill="#939399"/>
<path d="M38.0835 113.02L38.0835 115.641L37.2725 115.641L37.2725 113.02L38.0835 113.02Z" fill="#939399"/>
<path d="M38.0835 108.44L38.0835 111.061L37.2725 111.061L37.2725 108.44L38.0835 108.44Z" fill="#939399"/>
<path d="M38.0835 103.86L38.0835 106.481L37.2725 106.481L37.2725 103.86L38.0835 103.86Z" fill="#939399"/>
<path d="M38.0835 99.28L38.0835 101.901L37.2725 101.901L37.2725 99.28L38.0835 99.28Z" fill="#939399"/>
<path d="M38.0835 94.6999L38.0835 97.321L37.2725 97.321L37.2725 94.6999L38.0835 94.6999Z" fill="#939399"/>
<path d="M38.0835 90.1199L38.0835 92.741L37.2725 92.741L37.2725 90.1199L38.0835 90.1199Z" fill="#939399"/>
<path d="M38.0835 85.5399L38.0835 88.161L37.2725 88.161L37.2725 85.5399L38.0835 85.5399Z" fill="#939399"/>
<path d="M38.0835 80.9598L38.0835 83.5809L37.2725 83.5809L37.2725 80.9598L38.0835 80.9598Z" fill="#939399"/>
<path d="M38.0835 76.3798L38.0835 79.0009L37.2725 79.0009L37.2725 76.3798L38.0835 76.3798Z" fill="#939399"/>
<path d="M38.0835 71.7997L38.0835 74.4208L37.2725 74.4208L37.2725 71.7997L38.0835 71.7997Z" fill="#939399"/>
<path d="M38.0835 67.2197L38.0835 69.8408L37.2725 69.8408L37.2725 67.2197L38.0835 67.2197Z" fill="#939399"/>
<path d="M38.0835 62.6397L38.0835 65.2608L37.2725 65.2608L37.2725 62.6397L38.0835 62.6397Z" fill="#939399"/>
<path d="M38.0835 58.0596L38.0835 60.6807L37.2725 60.6807L37.2725 58.0596L38.0835 58.0596Z" fill="#939399"/>
<path d="M38.0835 53.4796L38.0835 56.1007L37.2725 56.1007L37.2725 53.4796L38.0835 53.4796Z" fill="#939399"/>
<path d="M38.0835 48.8996L38.0835 51.5206L37.2725 51.5206L37.2725 48.8996L38.0835 48.8996Z" fill="#939399"/>
<path d="M38.0835 44.3195L38.0835 46.9406L37.2725 46.9406L37.2725 44.3195L38.0835 44.3195Z" fill="#939399"/>
<path d="M38.0835 39.7395L38.0835 42.3606L37.2725 42.3606L37.2725 39.7395L38.0835 39.7395Z" fill="#939399"/>
<path d="M38.0835 35.1594L38.0835 37.7805L37.2725 37.7805L37.2725 35.1594L38.0835 35.1594Z" fill="#939399"/>
<path d="M38.0835 30.5794L38.0835 33.2005L37.2725 33.2005L37.2725 30.5794L38.0835 30.5794Z" fill="#939399"/>
<path d="M38.0835 25.9994L38.0835 28.6205L37.2725 28.6205L37.2725 25.9994L38.0835 25.9994Z" fill="#939399"/>
<path d="M38.0835 21.4193L38.0835 24.0404L37.2725 24.0404L37.2725 21.4193L38.0835 21.4193Z" fill="#939399"/>
<path d="M38.0835 16.8393L38.0835 19.4604L37.2725 19.4604L37.2725 16.8393L38.0835 16.8393Z" fill="#939399"/>
<path d="M38.0835 12.2592L38.0835 14.8803L37.2725 14.8803L37.2725 12.2592L38.0835 12.2592Z" fill="#939399"/>
<path d="M38.0835 7.6792L38.0835 10.3003L37.2725 10.3003L37.2725 7.6792L38.0835 7.6792Z" fill="#939399"/>
<path d="M38.0835 3.09915L38.0835 5.72025L37.2725 5.72025L37.2725 3.09915L38.0835 3.09915Z" fill="#939399"/>
<path d="M38.0835 127.18L38.0835 129.801L37.2725 129.801L37.2725 127.18L38.0835 127.18Z" fill="#939399"/>
<path d="M38.0835 132.18L38.0835 133.801L37.2725 133.801L37.2725 132.18L38.0835 132.18Z" fill="#939399"/>
<path d="M3.70968 9L0.5 12.5L7 19H39L43.4516 22V29.8438L21 53.875V67H29.5V55.5L49.5 33.5L54.5 21.6875L57 19H67L71.5 13L68.2903 9.90625L63.7742 14.4375H9.12903L3.70968 9Z" fill="#C7C7CD"/>
<path d="M4.5 126L1 122.281L6.03226 116.5H39L43.4516 112.312V104.156L21 82.125L21 67H29.5V80.5L48.5 101L52.5 112L56.8597 116.5H66.5L71 121.375L68 125L63 120.5H9.37592L4.5 126Z" fill="#C7C7CD"/>
<path d="M28 5L21 2.5L28 8.34742e-08L28 5Z" fill="#D6D6DA"/>
<path fill-rule="evenodd" clip-rule="evenodd" d="M52.5 3L27 3L27 2L52.5 2L52.5 3Z" fill="#D6D6DA"/>
<path d="M28 136L21 133.5L28 131L28 136Z" fill="#D6D6DA"/>
<path fill-rule="evenodd" clip-rule="evenodd" d="M52.5 134L27 134L27 133L52.5 133L52.5 134Z" fill="#D6D6DA"/>
</svg>
