<svg width="107" height="128" viewBox="0 0 107 128" fill="none" xmlns="http://www.w3.org/2000/svg">
<path d="M104.5 122.5L74.5 122.5" stroke="#D6D6DA"/>
<path d="M104.5 6.49999L74.5 6.5" stroke="#D6D6DA"/>
<path d="M74 121.5V6.5L54.5 7.5L48.5 23L30.5 43.5V83L48.5 103.5L51 119L74 121.5Z" fill="#EDEDEF"/>
<path d="M3 0L2.62268e-07 3L5.5 9H42L47 14V23L26 44V64H34V45.5L51 25.5L55 14L60 9H72.5L77.5 4L74.5 1L69.5 6H9L3 0Z" fill="#C7C7CD"/>
<path d="M3 128L0 125L5.5 119H42L47 114V105L26 84L26 64H34L34 82.5L51 102.5L55 114L60 119H72.5L77.5 124L74.5 127L69.5 122L9 122L3 128Z" fill="#C7C7CD"/>
<path d="M102 13L104.5 6L107 13H102Z" fill="#D6D6DA"/>
<path fill-rule="evenodd" clip-rule="evenodd" d="M104 64.5V12H105V64.5H104Z" fill="#D6D6DA"/>
<path d="M107 115.5L104.5 122.5L102 115.5L107 115.5Z" fill="#D6D6DA"/>
<path fill-rule="evenodd" clip-rule="evenodd" d="M105 64L105 116.5L104 116.5L104 64L105 64Z" fill="#D6D6DA"/>
</svg>
