<svg width="206" height="256" viewBox="0 0 206 256" fill="none" xmlns="http://www.w3.org/2000/svg">
<circle cx="103" cy="138" r="32" fill="#EDEDEF"/>
<circle cx="103.5" cy="138.5" r="12" fill="#C7C7CD" stroke="#7B7B89"/>
<circle cx="103" cy="138" r="82" stroke="#EDEDEF" stroke-width="42"/>
<circle cx="103" cy="138" r="100" stroke="#C7C7CD" stroke-width="6"/>
<path d="M104.023 38.5V110H93.5682C93.5682 110 91.9999 108.639 92 107.5C92 106 96.7045 38.5 96.7045 38.5H104.023Z" fill="#C7C7CD"/>
<path d="M103.5 38V110H113.5C113.5 110 115 108.629 115 107.483C115 105.972 110.5 38 110.5 38H103.5Z" fill="#C7C7CD"/>
<path d="M197.696 108.583L129.736 130.802L126.487 120.866C126.487 120.866 127.294 118.952 128.376 118.598C129.802 118.132 195.422 101.627 195.422 101.627L197.696 108.583Z" fill="#C7C7CD"/>
<path d="M198.009 107.931L129.574 130.306L132.681 139.81C132.681 139.81 134.451 140.81 135.54 140.454C136.976 139.984 200.184 114.584 200.184 114.584L198.009 107.931Z" fill="#C7C7CD"/>
<path d="M163.69 216.408L120.781 159.215L129.143 152.941C129.143 152.941 131.215 153.089 131.898 154C132.798 155.2 169.544 212.016 169.544 212.016L163.69 216.408Z" fill="#C7C7CD"/>
<path d="M164.408 216.494L121.199 158.902L113.2 164.903C113.2 164.903 112.823 166.9 113.511 167.817C114.417 169.025 158.809 220.695 158.809 220.695L164.408 216.494Z" fill="#C7C7CD"/>
<path d="M43.4099 215.69L85.8975 158.588L94.8606 165.571C94.8606 165.571 95.2183 167.617 94.5 168.5C93.5536 169.664 49.0878 220.307 49.0878 220.307L43.4099 215.69Z" fill="#C7C7CD"/>
<path d="M43.5 216.408L86.303 158.918L78.5444 152.609C78.5444 152.609 76.5156 152.726 75.7923 153.616C74.8394 154.788 38.069 211.992 38.069 211.992L43.5 216.408Z" fill="#C7C7CD"/>
<path d="M11.0042 104.995L78.0448 129.851L74.4104 139.653C74.4104 139.653 72.5888 140.65 71.5212 140.255C70.1148 139.733 8.46014 111.857 8.46014 111.857L11.0042 104.995Z" fill="#C7C7CD"/>
<path d="M10.3537 105.311L77.8631 130.341L81.3394 120.965C81.3394 120.965 80.5754 119.082 79.5004 118.683C78.0841 118.158 12.7871 98.748 12.7871 98.748L10.3537 105.311Z" fill="#C7C7CD"/>
<path d="M108 158C108 160.485 105.985 162.5 103.5 162.5C101.015 162.5 99 160.485 99 158C99 155.515 101.015 153.5 103.5 153.5C105.985 153.5 108 155.515 108 158ZM87.5 143C87.5 145.485 85.4853 147.5 83 147.5C80.5147 147.5 78.5 145.485 78.5 143C78.5 140.515 80.5147 138.5 83 138.5C85.4853 138.5 87.5 140.515 87.5 143Z" fill="white" stroke="#A5A5AF"/>
<path d="M96 121.5C96 123.985 93.9853 126 91.5 126C89.0147 126 87 123.985 87 121.5C87 119.015 89.0147 117 91.5 117C93.9853 117 96 119.015 96 121.5ZM119.5 121.5C119.5 123.985 117.485 126 115 126C112.515 126 110.5 123.985 110.5 121.5C110.5 119.015 112.515 117 115 117C117.485 117 119.5 119.015 119.5 121.5ZM129 143.5C129 145.985 126.985 148 124.5 148C122.015 148 120 145.985 120 143.5C120 141.015 122.015 139 124.5 139C126.985 139 129 141.015 129 143.5Z" fill="white" stroke="#CFCFD2"/>
<path d="M13.3994 245.094L9.5 238.584L16.7419 241.212L13.3994 245.094Z" fill="#A5A5AF"/>
<path fill-rule="evenodd" clip-rule="evenodd" d="M20.4983 248.019L13.9406 242.888L14.6091 242.112L21.1668 247.243L20.4983 248.019Z" fill="#A5A5AF"/>
<path d="M26.7829 248.991L30.6823 255.5L23.4404 252.873L26.7829 248.991Z" fill="#A5A5AF"/>
<path fill-rule="evenodd" clip-rule="evenodd" d="M20.7689 246.916L26.2417 251.196L25.5732 251.973L20.1004 247.693L20.7689 246.916Z" fill="#A5A5AF"/>
<path d="M97.9166 5.03755L91 2.31523L97.9166 0.0843067V5.03755Z" fill="#A5A5AF"/>
<path fill-rule="evenodd" clip-rule="evenodd" d="M103.468 3.01547L96.981 3.00663L97.0129 2.00714L103.5 2.01598L103.468 3.01547Z" fill="#A5A5AF"/>
<path d="M109 0L116.076 2.76243L109 5.03755V0Z" fill="#A5A5AF"/>
<path fill-rule="evenodd" clip-rule="evenodd" d="M103 2L110.095 2.07103L110.063 3.07051L102.968 2.99949L103 2Z" fill="#A5A5AF"/>
<path d="M10.768 65.366L9.43301 58.0538L15.0981 62.866L10.768 65.366Z" fill="#A5A5AF"/>
<path fill-rule="evenodd" clip-rule="evenodd" d="M43 117L12 63.5L12.866 63L43.866 116.5L43 117Z" fill="#A5A5AF"/>
<path d="M91.5 2.30199V139M115.5 2.69534V139" stroke="#A5A5AF"/>
<path d="M80 146.5L10 239M100.5 162L30.5 255" stroke="#A5A5AF"/>
</svg>
