<svg width="79" height="143" viewBox="0 0 79 143" fill="none" xmlns="http://www.w3.org/2000/svg">
<path d="M37.5 119.5H7.5V7H37.5L59.5 10.5L65.5 5.5H71.5V62V120.5H65.5L59.5 115.5L37.5 119.5Z" stroke="#CACAD0"/>
<path d="M0.5 125.5L7.5 121.5V119.075V119V6L0.5 1.5V125.5Z" fill="#EDEDEF"/>
<path d="M7.5 119V119.075M7.5 119.075V121.5L0.5 125.5V1.5L7.5 6V119.075Z" stroke="#C7C7CD"/>
<path d="M78.5 125L71.5 121V118.575V118.5V5.5L78.5 1V125Z" fill="#EDEDEF"/>
<path d="M71.5 118.5V118.575M71.5 118.575V121L78.5 125V1L71.5 5.5V118.575Z" stroke="#C7C7CD"/>
<path d="M7.49999 120L7.5 141" stroke="#D6D6DA"/>
<path d="M7.50001 6.26997L7.50001 119" stroke="#797987"/>
<path d="M71.5 120L71.5 141" stroke="#D6D6DA"/>
<path d="M71.5 5.00001L71.5 119" stroke="#797987"/>
<path d="M14 143L7 140.5L14 138L14 143Z" fill="#D6D6DA"/>
<path fill-rule="evenodd" clip-rule="evenodd" d="M40.5 141L13 141L13 140L40.5 140L40.5 141Z" fill="#D6D6DA"/>
<path d="M65.5 138L72.5 140.5L65.5 143L65.5 138Z" fill="#D6D6DA"/>
<path fill-rule="evenodd" clip-rule="evenodd" d="M40 140L66.5 140L66.5 141L40 141L40 140Z" fill="#D6D6DA"/>
</svg>
