<svg width="71" height="136" viewBox="0 0 71 136" fill="none" xmlns="http://www.w3.org/2000/svg">
<path d="M69.5 14.5V121.5L64 119L53.5 115.5L49.5 105L41 83.5L44 49.5L50.5 21L59.5 17L69.5 14.5Z" fill="#EDEDEF"/>
<path d="M36.5 121.379L36.5 124L35.689 124L35.689 121.379L36.5 121.379Z" fill="#939399"/>
<path d="M36.5 116.799L36.5 119.42L35.689 119.42L35.689 116.799L36.5 116.799Z" fill="#939399"/>
<path d="M36.5 112.219L36.5 114.84L35.689 114.84L35.689 112.219L36.5 112.219Z" fill="#939399"/>
<path d="M36.5 107.639L36.5 110.26L35.689 110.26L35.689 107.639L36.5 107.639Z" fill="#939399"/>
<path d="M36.5 103.059L36.5 105.68L35.689 105.68L35.689 103.059L36.5 103.059Z" fill="#939399"/>
<path d="M36.5 98.4787L36.5 101.1L35.689 101.1L35.689 98.4787L36.5 98.4787Z" fill="#939399"/>
<path d="M36.5 93.8987L36.5 96.5198L35.689 96.5198L35.689 93.8987L36.5 93.8987Z" fill="#939399"/>
<path d="M36.5 89.3186L36.5 91.9397L35.689 91.9397L35.689 89.3186L36.5 89.3186Z" fill="#939399"/>
<path d="M36.5 84.7386L36.5 87.3597L35.689 87.3597L35.689 84.7386L36.5 84.7386Z" fill="#939399"/>
<path d="M36.5 80.1586L36.5 82.7797L35.689 82.7797L35.689 80.1586L36.5 80.1586Z" fill="#939399"/>
<path d="M36.5 75.5785L36.5 78.1996L35.689 78.1996L35.689 75.5785L36.5 75.5785Z" fill="#939399"/>
<path d="M36.5 70.9985L36.5 73.6196L35.689 73.6196L35.689 70.9985L36.5 70.9985Z" fill="#939399"/>
<path d="M36.5 66.4184L36.5 69.0395L35.689 69.0395L35.689 66.4184L36.5 66.4184Z" fill="#939399"/>
<path d="M36.5 61.8384L36.5 64.4595L35.689 64.4595L35.689 61.8384L36.5 61.8384Z" fill="#939399"/>
<path d="M36.5 57.2584L36.5 59.8795L35.689 59.8795L35.689 57.2584L36.5 57.2584Z" fill="#939399"/>
<path d="M36.5 52.6783L36.5 55.2994L35.689 55.2994L35.689 52.6783L36.5 52.6783Z" fill="#939399"/>
<path d="M36.5 48.0983L36.5 50.7194L35.689 50.7194L35.689 48.0983L36.5 48.0983Z" fill="#939399"/>
<path d="M36.5 43.5182L36.5 46.1393L35.689 46.1393L35.689 43.5182L36.5 43.5182Z" fill="#939399"/>
<path d="M36.5 38.9382L36.5 41.5593L35.689 41.5593L35.689 38.9382L36.5 38.9382Z" fill="#939399"/>
<path d="M36.5 34.3582L36.5 36.9793L35.689 36.9793L35.689 34.3582L36.5 34.3582Z" fill="#939399"/>
<path d="M36.5 29.7781L36.5 32.3992L35.689 32.3992L35.689 29.7781L36.5 29.7781Z" fill="#939399"/>
<path d="M36.5 25.1981L36.5 27.8192L35.689 27.8192L35.689 25.1981L36.5 25.1981Z" fill="#939399"/>
<path d="M36.5 20.618L36.5 23.2391L35.689 23.2391L35.689 20.618L36.5 20.618Z" fill="#939399"/>
<path d="M36.5 16.038L36.5 18.6591L35.689 18.6591L35.689 16.038L36.5 16.038Z" fill="#939399"/>
<path d="M36.5 11.458L36.5 14.0791L35.689 14.0791L35.689 11.458L36.5 11.458Z" fill="#939399"/>
<path d="M36.5 6.87793L36.5 9.49902L35.689 9.49902L35.689 6.87793L36.5 6.87793Z" fill="#939399"/>
<path d="M36.5 2.29788L36.5 4.91898L35.689 4.91898L35.689 2.29788L36.5 2.29788Z" fill="#939399"/>
<path d="M36.5 126.379L36.5 129L35.689 129L35.689 126.379L36.5 126.379Z" fill="#939399"/>
<path d="M36.5 130.879L36.5 133.5L35.689 133.5L35.689 130.879L36.5 130.879Z" fill="#939399"/>
<path d="M37.5 133.5V2.5" stroke="#D6D6DA"/>
<path d="M3.20968 9L0 12.5L6.5 19H38.5L46.9516 22V29.8438L36.5 53.875V67H45V55.5L51.5 33.5L56 21.6875L62.5 19H66.5L71 13.5L67.7903 9.90625L63.2742 14.4375H8.62903L3.20968 9Z" fill="#C7C7CD"/>
<path d="M4 126L0.5 122.281L5.53226 116.5H38.5L47.9516 112.312L46.9516 104.156L36.5 82.125V67H45V80.5L50.5 101L55 112L61.3597 116.5H66L70.5 121.375L67.5 125L62.5 120.5H8.87592L4 126Z" fill="#C7C7CD"/>
<path d="M44 5L37 2.5L44 8.34742e-08L44 5Z" fill="#D6D6DA"/>
<path fill-rule="evenodd" clip-rule="evenodd" d="M68.5 3L43 3L43 2L68.5 2L68.5 3Z" fill="#D6D6DA"/>
<path d="M44 136L37 133.5L44 131L44 136Z" fill="#D6D6DA"/>
<path fill-rule="evenodd" clip-rule="evenodd" d="M68.5 134L43 134L43 133L68.5 133L68.5 134Z" fill="#D6D6DA"/>
</svg>
