<svg width="17" height="22" viewBox="0 0 17 22" fill="none" xmlns="http://www.w3.org/2000/svg">
<path d="M0.5 1V21M1 21.5H16M16.5 21V5M16.5 5L12 0.5M16.5 5H12V0.5M12 0.5H1" stroke="#BABABC"/>
<path d="M2.5 15V16M3.5 16V17M4.5 17V18M5.5 16V17M6.5 15V16M6.5 19V20M5.5 18V19M3.5 18V19M2.5 19V20M8.5 15V19.5H11M12 19.5H14.5V17.5H12.5V15.5H15" stroke="#BABABC"/>
<path d="M3.5 5V5.5M3.5 5.5H6.5M3.5 5.5V8.5M6.5 5.5H13.5V8.5M6.5 5.5V11.5M6.5 11.5H3.5V8.5M6.5 11.5H13.5V8.5M3.5 8.5H13.5" stroke="#BABABC"/>
</svg>
