<svg width="17" height="22" viewBox="0 0 17 22" fill="none" xmlns="http://www.w3.org/2000/svg">
<path d="M0.5 1V21M1 21.5H16M16.5 21V5M16.5 5L12 0.5M16.5 5H12V0.5M12 0.5H1" stroke="#BABABC"/>
<path d="M3 15.5H5.5V17M4.5 17V18M3.5 18V19.5M3.5 20V19.5M3.5 19.5H6M8.5 17V20M8.5 15V16M11.5 15V15.5M11.5 20V17.5M11.5 17.5H13M11.5 17.5V15.5M13.5 17V16M13 15.5H11.5" stroke="#BABABC"/>
<path d="M3.5 4V4.5M3.5 12V11.5M3.5 11.5H13.5V6.5M3.5 11.5V6.5M13.5 6V6.5M13.5 6.5H7.5M3.5 6.5H7.5M3.5 6.5V4.5M7.5 6.5V4.5H3.5" stroke="#BABABC"/>
</svg>
