<svg width="380" height="384" fill="none" xmlns="http://www.w3.org/2000/svg"><mask id="a" style="mask-type:alpha" maskUnits="userSpaceOnUse" x="0" y="0" width="380" height="384"><path d="M378.595 361.998c0 .001 0 .002.062.002h-.062c0 11.874-9.626 21.5-21.5 21.5h-335c-11.874 0-21.5-9.626-21.5-21.5 0-13.4-.019-63.325-.04-118.605l-.007-20.046C.524 160.51.5 95.639.5 72.5c0-7.143 2.237-12.542 5.958-16.156 3.724-3.617 8.988-5.499 15.137-5.499 12.502 0 64.004-.232 76.505-.345 6.308-.057 11.949-1.444 16.014-5.043 4.077-3.61 6.481-9.364 6.481-17.957v-5.492 0-.002 0-.002 0-.002 0V22v0c0-11.874 9.626-21.5 21.5-21.5h93c11.259 0 20.497 8.654 21.423 19.674a1758.56 1758.56 0 00-.012 7.826c0 8.608 2.662 14.288 6.864 17.804 4.185 3.501 9.817 4.786 15.63 4.786 5.748 0 22.86.103 39.668.205l3.031.019c15.719.096 30.548.186 34.796.186 12.113 0 21.596 9.766 21.596 22 0 6.25.126 78.501.252 149.188l.173 96.414.057 31.494.016 8.797.005 2.314.001.593v.198z" fill="#fff" stroke="#E2E2E6"/></mask><g mask="url(#a)"><path d="M120.095 23c0-12.15 9.85-22 22-22h93c12.15 0 22 9.85 22 22 0 0-.089-11-.089 6S267.5 51.09 279 51.09s68.458.41 77.495.41c12.4 0 22.096 10 22.096 22.5s.504 288 .504 288c0 12.15-9.85 22-22 22h-335c-12.15 0-22-9.85-22-22C.095 331.989 0 119.777 0 73.5 0 59 9.095 51.345 21.595 51.345c12.5 0 64-.232 76.5-.345 12.499-.113 22-5.5 22-22.5V23z" fill="#fff"/><path d="M378.595 361.998c0 .001 0 .002.06.002h-.06c0 11.874-9.626 21.5-21.5 21.5h-335c-11.874 0-21.5-9.626-21.5-21.5 0-13.4-.019-63.125-.04-118.184l-.007-19.967C.524 161.26.5 96.639.5 73.5c0-7.143 2.237-12.542 5.958-16.156 3.724-3.617 8.988-5.499 15.137-5.499 12.502 0 64.004-.232 76.505-.345 6.308-.057 11.949-1.444 16.014-5.043 4.077-3.61 6.481-9.364 6.481-17.957v-5.492 0-.002 0-.002 0-.002 0V23v0c0-11.874 9.626-21.5 21.5-21.5h93c11.259 0 20.497 8.654 21.423 19.674a1758.56 1758.56 0 00-.012 7.826c0 8.608 2.662 14.288 6.864 17.804 4.185 3.501 9.817 4.786 15.63 4.786 5.748 0 22.86.103 39.668.205l3.031.019c15.719.096 30.548.186 34.796.186 12.113 0 21.596 9.766 21.596 22 0 6.25.126 78.251.252 148.688l.173 96.071.057 31.38.016 8.765.005 2.306.001.591v.197z" stroke="#D8D8DD"/></g></svg>