<svg width="25" height="16" fill="none" xmlns="http://www.w3.org/2000/svg"><path d="M7.863 12.018c0 1.9-1.625 3.482-3.682 3.482C2.125 15.5.5 13.918.5 12.018c0-1.9 1.625-3.483 3.681-3.483 2.057 0 3.682 1.582 3.682 3.483zm16.327 0c0 1.9-1.625 3.482-3.681 3.482-2.057 0-3.681-1.582-3.681-3.482 0-1.9 1.624-3.483 3.68-3.483 2.057 0 3.682 1.582 3.682 3.483z" stroke="#BCBCBE"/><path d="M4.089 11.62h9.716l3.186-5.31m0 0l3.717 5.31m-3.717-5.31V3.655M13.274 1h3.717v2.655m0 0L10.09 8.168 7.434 4.982l-5.841.266.53 2.92" stroke="#BCBCBE"/></svg>