<svg width="25" height="13" fill="none" xmlns="http://www.w3.org/2000/svg"><path d="M1.301 5l2.008-.906 1.773-2.797A2.8 2.8 0 017.464 0h7.551c.876 0 1.706.4 2.24 1.09l2.29 2.963 3.816 1.034A2.217 2.217 0 0125 7.22v1.444c0 1.22-.984 2.229-2.218 2.229h-.328c-.395 1.504-1.947 2.406-3.468 2.016a2.828 2.828 0 01-2.04-2.016H8.34c-.394 1.504-1.947 2.406-3.468 2.016a2.828 2.828 0 01-2.039-2.016h-.615A2.224 2.224 0 010 8.663V7.018A2.206 2.206 0 011.301 5zm18.402 6.977a1.809 1.809 0 001.819-1.799 1.81 1.81 0 00-1.82-1.798 1.81 1.81 0 00-1.818 1.798c-.005.988.81 1.794 1.819 1.799zm-14.114 0a1.809 1.809 0 001.819-1.799A1.81 1.81 0 005.589 8.38a1.81 1.81 0 00-1.818 1.798c-.006.988.809 1.794 1.818 1.799zM2.22 9.879h.542c.17-1.545 1.578-2.66 3.14-2.487a2.823 2.823 0 012.516 2.487h8.458c.17-1.545 1.578-2.66 3.14-2.487a2.823 2.823 0 012.516 2.487h.256c.671 0 1.194-.552 1.194-1.215V7.22a1.195 1.195 0 00-.887-1.16l-3.99-1.08a.5.5 0 01-.272-.182l-2.387-3.096a1.818 1.818 0 00-1.43-.689h-7.55a1.77 1.77 0 00-1.517.821L4.093 4.762a.503.503 0 01-.22.193l-2.141.968c-.43.197-.707.623-.702 1.094v1.647h-.005c0 .663.522 1.215 1.193 1.215z" fill="#BCBCBE"/></svg>