<svg width="19" height="20" fill="none" xmlns="http://www.w3.org/2000/svg"><path d="M8.635 8.513L5.75 11.487s-2.912-.567-4.039.595c-1.127 1.16-.577 4.163-.577 4.163s2.898-2.404 4.039-1.19c1.194 1.27-1.731 3.569-1.731 3.569s3.717 1.16 4.616-.595c.63-1.233 0-4.163 0-4.163l2.885-2.974m-.578.595l2.885-2.974s2.912.567 4.039-.595c1.127-1.16.577-4.163.577-4.163s-2.897 2.404-4.039 1.19c-1.194-1.27 1.731-3.569 1.731-3.569s-3.717-1.16-4.616.595c-.63 1.233 0 4.163 0 4.163L8.058 9.108" stroke="#BCBCBE"/></svg>