<svg width="24" height="20" fill="none" xmlns="http://www.w3.org/2000/svg"><path d="M2.048 16.273L1 15.727v-2.181c0-1.091 1.048-1.637 1.048-1.637m0 4.364S3.095 19 5.19 19c2.096 0 3.143-2.727 3.143-2.727m-6.285 0h6.285m-6.285-4.364v-1.09m0 1.09S4.667 11.527 6.5 13c1.833 1.473 1.833 3.273 1.833 3.273m-6.285-5.455c-1.048-.545-.524-2.727 0-2.727h8.904c1.048 0 1.048 2.727 0 2.727H8.857m-6.81 0h6.81m0 0l1.048 3.273h4.714l2.025-4.112V5.615s-1.048-.546-1.501-1.888C14.69 2.385 18.286 1 18.286 1v10.91h3.143v1.636L23 16.273S23 19 20.381 19c-2.62 0-3.143-2.727-3.143-2.727m0 0H8.333m8.905 0l5.46-4.676" stroke="#BCBCBE"/></svg>