<svg width="26" height="17" fill="none" xmlns="http://www.w3.org/2000/svg"><path d="M2.8 13.692c-.703-.676-1.8-1.153-1.8-1.73V9.076m1.8 4.615c.146-1.266 1.075-2.307 2.4-2.307s2.4 1.033 2.4 2.307m-4.8 0C2.8 14.82 3.875 16 5.2 16s2.4-1.181 2.4-2.308m9 0h-9m9 0c0-1.274 1.074-2.307 2.4-2.307 1.326 0 2.4 1.033 2.4 2.307m-4.8 0C16.6 14.967 17.674 16 19 16c1.326 0 2.4-1.033 2.4-2.308m-4.8 0V9.077m4.8 4.615L25 12.54V8.5l-2.4-1.154-2.4-4.615h-3.6m0 0V1.577S16 1 15.4 1H2.2c-.6 0-1.2.577-1.2.577v7.5M16.6 2.73v6.346m0 0H1" stroke="#BCBCBE"/></svg>