<svg width="113" height="18" fill="none" xmlns="http://www.w3.org/2000/svg"><path d="M5.13 4.47c.52 0 .96.015 1.32.045.37.02.705.06 1.005.12.3.05.615.12.945.21l-.21 2.07-.945-.03c-.29-.01-.6-.015-.93-.015-.33-.01-.725-.015-1.185-.015-.42 0-.745.085-.975.255-.23.17-.39.47-.48.9-.09.43-.135 1.035-.135 1.815s.045 1.385.135 1.815c.09.43.25.73.48.9.23.17.555.255.975.255.73 0 1.335-.005 1.815-.015.49-.02.98-.06 1.47-.12l.21 2.055c-.5.17-1.015.29-1.545.36-.52.07-1.17.105-1.95.105-1.11 0-2-.17-2.67-.51-.66-.35-1.14-.915-1.44-1.695-.29-.78-.435-1.83-.435-3.15 0-1.32.145-2.37.435-3.15.3-.78.78-1.34 1.44-1.68.67-.35 1.56-.525 2.67-.525zm13.435.18v6.15c0 1.07-.14 1.93-.42 2.58a2.6 2.6 0 01-1.335 1.41c-.62.28-1.45.42-2.49.42-1.11 0-2-.14-2.67-.42-.66-.29-1.14-.76-1.44-1.41-.29-.65-.435-1.51-.435-2.58V4.65h2.82v6.15c0 .59.045 1.05.135 1.38.1.33.265.56.495.69.23.13.545.195.945.195.41 0 .73-.065.96-.195.23-.13.39-.36.48-.69.09-.33.135-.79.135-1.38V4.65h2.82zm5.42-.21c.53.01 1.114.045 1.755.105.64.06 1.26.185 1.86.375l-.18 1.83c-.44-.01-.98-.02-1.62-.03-.63-.01-1.25-.015-1.86-.015-.46 0-.78.04-.96.12-.17.07-.256.25-.256.54 0 .24.07.425.21.555.15.12.41.245.78.375l1.936.72c.84.34 1.425.75 1.755 1.23.34.48.51 1.105.51 1.875 0 .78-.13 1.395-.39 1.845-.25.45-.67.77-1.26.96-.59.19-1.39.285-2.4.285-.35 0-.865-.025-1.545-.075-.67-.05-1.43-.18-2.28-.39l.165-1.98c.89.02 1.64.04 2.25.06.61.01 1.07.015 1.38.015.5 0 .834-.04 1.005-.12.17-.09.255-.27.255-.54 0-.25-.06-.43-.18-.54-.12-.12-.34-.23-.66-.33l-2.07-.825c-.82-.33-1.4-.73-1.74-1.2-.34-.48-.51-1.1-.51-1.86 0-.79.13-1.4.39-1.83.27-.43.7-.73 1.29-.9.6-.17 1.39-.255 2.37-.255zm13.389.21v2.145h-2.985V15h-2.82V6.795h-3V4.65h8.805zm5.332-.21c.86 0 1.585.085 2.175.255.59.17 1.065.46 1.425.87.37.4.635.95.795 1.65.17.69.255 1.56.255 2.61 0 1.05-.085 1.925-.255 2.625-.16.69-.425 1.24-.795 1.65-.36.4-.835.685-1.425.855-.59.17-1.315.255-2.175.255-.86 0-1.585-.085-2.175-.255-.59-.17-1.07-.455-1.44-.855-.36-.41-.625-.96-.795-1.65-.16-.7-.24-1.575-.24-2.625s.08-1.92.24-2.61c.17-.7.435-1.25.795-1.65.37-.41.85-.7 1.44-.87.59-.17 1.315-.255 2.175-.255zm0 2.145c-.44 0-.785.09-1.035.27-.24.18-.41.505-.51.975-.1.47-.15 1.135-.15 1.995 0 .86.05 1.525.15 1.995.1.47.27.795.51.975.25.18.595.27 1.035.27.44 0 .78-.09 1.02-.27.25-.18.42-.505.51-.975.1-.47.15-1.135.15-1.995 0-.86-.05-1.525-.15-1.995-.09-.47-.26-.795-.51-.975-.24-.18-.58-.27-1.02-.27zM59.869 4.65c.65 0 .985.33 1.005.99l.39 9.36H58.7l-.33-8.22h-.24l-1.32 5.805c-.1.58-.46.87-1.08.87h-1.575c-.61 0-.975-.29-1.095-.87L51.74 6.78h-.24L51.214 15H48.65l.375-9.36c.03-.66.365-.99 1.005-.99h2.52c.6 0 .955.295 1.065.885l1.02 4.605c.05.25.09.5.12.75s.065.505.105.765h.165c.04-.26.075-.515.105-.765s.07-.505.12-.765l.99-4.59c.1-.59.46-.885 1.08-.885h2.55zm26.261-.18c.52 0 .96.015 1.32.045.37.02.705.06 1.005.12.3.05.615.12.945.21l-.21 2.07-.945-.03c-.29-.01-.6-.015-.93-.015-.33-.01-.725-.015-1.185-.015-.42 0-.745.085-.975.255-.23.17-.39.47-.48.9-.09.43-.135 1.035-.135 1.815s.045 1.385.135 1.815c.09.43.25.73.48.9.23.17.555.255.975.255.73 0 1.335-.005 1.815-.015.49-.02.98-.06 1.47-.12l.21 2.055c-.5.17-1.015.29-1.545.36-.52.07-1.17.105-1.95.105-1.11 0-2-.17-2.67-.51-.66-.35-1.14-.915-1.44-1.695-.29-.78-.435-1.83-.435-3.15 0-1.32.145-2.37.435-3.15.3-.78.78-1.34 1.44-1.68.67-.35 1.56-.525 2.67-.525zm10.135.18c.23 0 .43.065.6.195.18.13.3.31.36.54L100.06 15h-2.88l-.615-2.46h-3.18l-.63 2.46h-2.88l2.835-9.615a.96.96 0 01.345-.54c.18-.13.385-.195.615-.195h2.595zM94.57 7.86l-.675 2.655h2.145l-.675-2.655c-.04-.17-.08-.35-.12-.54-.03-.2-.055-.385-.075-.555h-.405c-.03.17-.06.355-.09.555-.03.19-.065.37-.105.54zm10.514-3.36c.97 0 1.76.095 2.37.285.61.18 1.055.5 1.335.96.29.45.435 1.075.435 1.875 0 .67-.15 1.235-.45 1.695-.29.45-.825.72-1.605.81v.09c.19.03.39.095.6.195.22.1.42.26.6.48.18.22.315.525.405.915l.855 3.195h-2.955l-.735-3.105c-.08-.31-.195-.52-.345-.63-.14-.11-.355-.165-.645-.165h-.705c-.21-.01-.41-.015-.6-.015V15h-2.76V4.65c.44-.04.855-.07 1.245-.09.39-.03.815-.045 1.275-.045.47-.01 1.03-.015 1.68-.015zm-.06 2.04h-1.38v2.52h1.38c.53 0 .89-.085 1.08-.255.19-.17.285-.505.285-1.005 0-.51-.095-.845-.285-1.005-.19-.17-.55-.255-1.08-.255z" fill="#fff"/><path d="M74 1.5L64 11l1 3.5h8l-.5 3.5h4l1-7H69l10-9.5h-5z" fill="#D4B05C"/><path d="M74 7.5l-.5 2.5h4l1-6.5-4.5 4z" fill="#D4B05C"/></svg>