<?xml version="1.0" encoding="utf-8"?><svg viewBox="0 0 46 50" xmlns="http://www.w3.org/2000/svg" xmlns:xlink="http://www.w3.org/1999/xlink"><style>:root>svg{display:none}:root>svg:target{display:block}</style><svg version="1.2" baseProfile="tiny-ps" viewBox="0 0 13 24" id="icon-arrow-next" xmlns="http://www.w3.org/2000/svg"><path class="aashp0" d="M0 .74L.7.01 13 11.89l-.7.73L0 .74zm12.3 10.64l.7.73L.7 23.99l-.7-.73 12.3-11.88z" fill="currentColor"/></svg><svg version="1.2" baseProfile="tiny-ps" viewBox="0 0 13 24" id="icon-arrow-prev" xmlns="http://www.w3.org/2000/svg"><path class="abshp0" d="M.7 12.62l-.7-.73L12.3.01l.7.73L.7 12.62zM13 23.26l-.7.73L0 12.11l.7-.73L13 23.26z" fill="currentColor"/></svg><svg fill="none" viewBox="0 0 20 23" id="icon-auth-white" xmlns="http://www.w3.org/2000/svg"><path d="M6.684 12.87S1 15.152 1 17.89C1 20.631 3.842 22 5.737 22h8.526C16.158 22 19 20.63 19 17.891s-5.684-5.021-5.684-5.021M10 1C7.632 1 5.737 3.693 5.737 6.478c0 2.785 1.895 5.479 4.263 5.479s4.263-2.74 4.263-5.479S12.368 1 10 1z" stroke="#fff"/></svg><svg fill="none" viewBox="0 0 25 23" id="icon-basket" xmlns="http://www.w3.org/2000/svg"><path d="M0 1h3.84c.48 0 .96.467 1.44.933.48.467.96 2.334.96 2.334l.031.466m3.289 15.4H8.6s-1.4-.466-1.4-1.4c0-.933-.372-5.6-.372-5.6m2.732 7s0-1.866 1.92-1.866 1.92 1.866 1.92 1.866m-3.84 0S9.56 22 11.48 22s1.92-1.867 1.92-1.867m0 0h3.84m0 0s0-1.866 1.92-1.866 1.92 1.866 1.92 1.866S21.08 22 19.16 22s-1.92-1.867-1.92-1.867zM6.271 4.733H24v7c0 1.4-1.92 1.4-1.92 1.4H6.828m-.557-8.4l.557 8.4" stroke="currentColor"/></svg><svg fill="none" viewBox="0 0 25 23" id="icon-basket-white" xmlns="http://www.w3.org/2000/svg"><path d="M0 1h3.84c.48 0 .96.467 1.44.933.48.467.96 2.334.96 2.334l.031.466m3.289 15.4H8.6s-1.4-.466-1.4-1.4c0-.933-.372-5.6-.372-5.6m2.732 7s0-1.866 1.92-1.866 1.92 1.866 1.92 1.866m-3.84 0S9.56 22 11.48 22s1.92-1.867 1.92-1.867m0 0h3.84m0 0s0-1.866 1.92-1.866 1.92 1.866 1.92 1.866S21.08 22 19.16 22s-1.92-1.867-1.92-1.867zM6.271 4.733H24v7c0 1.4-1.92 1.4-1.92 1.4H6.828m-.557-8.4l.557 8.4" stroke="#fff"/></svg><svg fill="none" viewBox="0 0 17 22" id="icon-btn-01" xmlns="http://www.w3.org/2000/svg"><g opacity=".4" fill="#fff"><path d="M15.632 3.42C14.682 1.238 13.36.043 11.917.043L5.507.03A2.778 2.778 0 005.111 0C3.663 0 2.336 1.207 1.38 3.401.487 5.441 0 8.138 0 11s.493 5.558 1.38 7.599C2.335 20.793 3.662 22 5.111 22c.133 0 .261-.012.394-.03l6.364-.013c1.45 0 2.777-1.189 3.739-3.37C16.507 16.552 17 13.856 17 11c0-2.862-.487-5.552-1.368-7.58zM5.292 20.761h-.03a.599.599 0 00-.103.012h-.053c-.95 0-1.924-.98-2.672-2.684C1.611 16.21 1.16 13.69 1.16 11c0-2.69.452-5.203 1.275-7.09.742-1.71 1.722-2.684 2.678-2.684.957 0 1.936.98 2.678 2.684.823 1.881 1.275 4.4 1.275 7.09 0 2.69-.452 5.203-1.275 7.09-.696 1.6-1.6 2.562-2.498 2.672zm5.112-3.088c-.185.171-.4.361-.539.63-.15.289-.197.595-.243.865-.024.14-.058.355-.093.404-.07.092-.273.154-.464.215a2.429 2.429 0 00-.608.251c-.238.153-.4.404-.551.631-.017.03-.04.061-.058.086h-.319c.487-.552.933-1.268 1.322-2.151.892-2.04 1.38-4.737 1.38-7.599s-.494-5.558-1.38-7.599c-.389-.888-.835-1.611-1.328-2.163l1.055.006c.058.03.122.068.192.104.266.154.602.35.759.546.04.055.07.263.093.404.04.27.092.576.243.864.14.27.354.46.539.631.133.123.29.264.33.368.03.074.006.282-.011.435-.03.282-.058.607.029.938.087.312.266.564.423.778.104.147.226.307.243.41.018.08-.034.276-.075.436-.07.276-.15.594-.11.937.04.331.191.607.319.852.087.16.18.331.185.435.006.086-.07.276-.127.43-.105.263-.226.57-.226.918 0 .35.121.65.226.92.058.153.133.343.127.429-.006.098-.104.275-.185.435-.134.245-.284.52-.32.852-.04.349.041.661.111.937.04.16.093.356.075.435-.017.104-.139.264-.243.41-.162.215-.342.467-.423.78-.087.336-.058.655-.03.937.018.153.036.361.012.435-.04.104-.19.245-.33.367zm1.229 1.495c-.023.14-.058.355-.093.404-.07.092-.272.154-.464.215-.15.043-.295.098-.44.16.058-.19.104-.38.127-.577.03-.184.058-.368.116-.478.035-.073.163-.184.279-.288.226-.208.51-.46.655-.852.127-.35.092-.698.063-1.01-.017-.185-.034-.375-.006-.479.024-.086.128-.227.227-.355.173-.24.394-.54.469-.926.07-.367-.017-.698-.093-.999-.046-.177-.093-.355-.08-.465.01-.092.098-.252.179-.399.139-.257.313-.582.336-.968.023-.374-.104-.692-.22-.974-.064-.166-.134-.344-.134-.442 0-.098.07-.275.134-.44.11-.283.237-.607.22-.975-.023-.386-.197-.711-.336-.968-.076-.141-.168-.307-.18-.399-.011-.104.035-.288.081-.465.076-.295.162-.632.093-1-.075-.385-.29-.686-.47-.925-.092-.128-.202-.275-.226-.355-.028-.11-.011-.294.006-.478.03-.306.064-.662-.063-1.005-.145-.392-.43-.644-.655-.852-.11-.098-.238-.214-.279-.288-.058-.11-.087-.294-.116-.478-.046-.276-.092-.582-.255-.852h.093c.058.037.116.068.18.104.266.154.603.35.76.546.04.055.069.263.092.404.04.27.093.576.243.864.14.27.354.46.54.632.133.122.29.263.33.361.029.074.005.282-.012.435-.023.276-.058.6.029.938.087.312.267.564.423.778.104.147.226.307.244.41.017.08-.035.276-.076.436-.07.276-.15.594-.11.937.04.331.191.607.319.852.087.16.18.331.185.435.006.086-.07.276-.127.43-.104.263-.226.57-.226.918 0 .35.122.65.226.92.058.153.133.343.127.429-.005.098-.104.275-.185.435-.133.245-.284.52-.319.852-.04.349.04.661.11.937.04.16.093.356.076.435-.018.104-.14.264-.244.41-.162.215-.342.467-.423.78-.087.336-.058.655-.029.937.017.153.035.361.012.435-.04.104-.192.245-.33.367-.186.172-.4.362-.54.632-.15.288-.197.594-.243.864zm2.927-1.097c-.725 1.636-1.664 2.604-2.591 2.666.18-.092.336-.221.464-.38.237-.3.295-.668.347-.987.03-.184.058-.368.116-.478.035-.073.163-.184.279-.288.226-.208.51-.46.654-.852.128-.35.093-.698.064-1.01-.017-.185-.035-.375-.006-.479.024-.086.128-.227.226-.355.174-.24.395-.54.47-.926.07-.367-.017-.698-.093-.999-.046-.177-.092-.355-.08-.465.01-.092.098-.252.179-.399.139-.257.313-.582.336-.968.023-.374-.104-.692-.22-.974-.064-.166-.134-.344-.134-.442 0-.098.07-.275.134-.44.11-.283.237-.607.22-.975-.023-.386-.197-.711-.336-.968-.075-.141-.168-.307-.18-.399-.011-.104.035-.288.081-.465.076-.295.163-.632.093-1-.075-.385-.29-.686-.47-.925-.092-.128-.202-.275-.226-.355-.029-.11-.011-.294.006-.478.03-.306.064-.662-.064-1.011-.144-.392-.428-.644-.654-.852-.11-.098-.238-.215-.279-.288-.058-.11-.087-.294-.116-.478a2.92 2.92 0 00-.162-.674c.719.35 1.409 1.22 1.965 2.5.812 1.87 1.258 4.382 1.258 7.072 0 2.684-.452 5.19-1.281 7.072z"/><path d="M5.112 5.442c-1.513 0-2.48 2.181-2.48 5.558s.973 5.558 2.486 5.558c1.513 0 2.48-2.181 2.48-5.558s-.973-5.558-2.486-5.558zm.864 8.83c-.116.32-.435 1.054-.858 1.054s-.748-.735-.864-1.054c-.301-.82-.463-1.985-.463-3.272 0-1.287.168-2.451.47-3.272.115-.32.434-1.054.857-1.054s.742.741.858 1.054c.301.82.47 1.985.47 3.272 0 1.287-.169 2.451-.47 3.272z"/></g></svg><svg fill="none" viewBox="0 0 23 21" id="icon-btn-02" xmlns="http://www.w3.org/2000/svg"><path opacity=".6" d="M22.469 8.953l-1.244-.119a6.628 6.628 0 00-.607-1.459l.788-.966a.598.598 0 00-.035-.794L19.82 4.02a.577.577 0 00-.788-.042l-.952.8a6.654 6.654 0 00-1.43-.616l-.117-1.257a.587.587 0 00-.584-.533H14.01V.592A.59.59 0 0013.426 0a.59.59 0 00-.583.593v2.964h-2.207c-.94 0-1.833.45-2.405 1.21l-2.405 3.22-4.046 1.12C.73 9.397.006 10.364 0 11.472v1.572c.006 1.351 1.092 2.442 2.423 2.442h.315c.438 1.654 2.113 2.627 3.742 2.182a3.082 3.082 0 002.148-2.182h4.215v4.921a.59.59 0 00.583.593.59.59 0 00.584-.593v-1.423h1.938a.588.588 0 00.584-.54l.117-1.262c.502-.148.98-.35 1.436-.61l.951.8a.576.576 0 00.782-.036l1.57-1.595a.606.606 0 00.036-.8l-.788-.967c.257-.462.461-.948.607-1.452l1.226-.119A.595.595 0 0023 11.81V9.54a.593.593 0 00-.531-.587zm-16.79 7.642c-1.038 0-1.885-.86-1.885-1.915 0-1.056.847-1.915 1.886-1.915s1.885.86 1.885 1.915c0 1.055-.84 1.915-1.885 1.915zm7.164-2.3H8.71c-.205-1.702-1.728-2.906-3.398-2.704-1.39.172-2.487 1.287-2.662 2.704h-.233a1.255 1.255 0 01-1.255-1.258v-1.565c.006-.569.38-1.067.922-1.221l4.238-1.174a.57.57 0 00.31-.213L9.164 5.49c.35-.468.899-.741 1.477-.741h2.2v9.546zm1.167-6.137c1.366-.462 2.843.29 3.298 1.684.456 1.393-.286 2.887-1.658 3.35a2.587 2.587 0 01-1.64 0V8.158zm7.822 3.107l-1.109.106a.587.587 0 00-.513.463 5.666 5.666 0 01-.777 1.862.595.595 0 00.041.7l.712.877-.817.83-.864-.718a.572.572 0 00-.695-.035 5.281 5.281 0 01-1.827.782.583.583 0 00-.455.522l-.105 1.139H14.01v-3.374c2.037.462 4.057-.842 4.507-2.911.455-2.07-.83-4.12-2.867-4.583a3.648 3.648 0 00-1.64 0V3.563h1.407l.11 1.133a.59.59 0 00.456.521A5.597 5.597 0 0117.816 6c.216.142.49.125.69-.042l.857-.723.806.824-.718.884a.595.595 0 00-.035.705c.367.563.63 1.192.77 1.856a.586.586 0 00.52.462l1.127.113v1.186z" fill="#fff"/></svg><svg fill="none" viewBox="0 0 22 21" id="icon-calculator" xmlns="http://www.w3.org/2000/svg"><path d="M11.5 2v17m-.5-7.5H2M6.5 4v2.5m0 0V9m0-2.5H4m2.5 0H9m-5 9h5m4-3h6m-6-3h6M3 20h16a2 2 0 002-2V3a2 2 0 00-2-2H3a2 2 0 00-2 2v15a2 2 0 002 2z" stroke="currentColor"/></svg><svg fill="none" viewBox="0 0 8 6" id="icon-caret" xmlns="http://www.w3.org/2000/svg"><path d="M.5 1L4 4.5 7.5 1" stroke="#000"/></svg><svg fill="none" viewBox="0 0 10 7" id="icon-caret-white" xmlns="http://www.w3.org/2000/svg"><path d="M1.5 1.5L5 5l3.5-3.5" stroke="#fff" stroke-width="1.5"/></svg><svg fill="none" viewBox="0 0 22 24" id="icon-chat" xmlns="http://www.w3.org/2000/svg"><path fill-rule="evenodd" clip-rule="evenodd" d="M2.514 18C1.462 20.004.942 21.358.807 22.242c-.058.38-.045.673.027.893.073.222-.226-.27-.043-.182.542.261 1.886.122 2.963-.287.412-.157 1.078-.254 1.504-.43 1.362-.565 2.52-.69 3.242-.521.803.186 1.64.285 2.5.285 6.075 0 11-4.925 11-11S17.075 0 11 0 0 4.925 0 11c0 2.66.944 5.098 2.514 7zm1.08 3.401c.321-.125.545-.173.906-.322.252-.105.487-.212.758-.322.559-.226 1.03-.256 1.583-.406.503-.137 1.318-.153 1.976 0A9.6 9.6 0 101.4 11c0 2.322.823 4.448 2.194 6.108l.593.718-.433.825c-.673 1.28-1.097 2.242-1.338 2.951-.051.15-.263-.288-.263.113l1.44-.314z" fill="#BD933B"/><path d="M4.5 11h3M9.5 11h3M14.5 11h3" stroke="#BD933B" stroke-width="2.4"/></svg><svg fill="none" viewBox="0 0 18 18" id="icon-close" xmlns="http://www.w3.org/2000/svg"><path d="M17 1L9 9m-8 8l8-8m0 0L1 1l16 16" stroke="#fff" stroke-width="1.5"/></svg><svg fill="none" viewBox="0 0 23 20" id="icon-garage" xmlns="http://www.w3.org/2000/svg"><path d="M18 16v3m0-3H5m13 0v-3M5 19v-3m0 0v-3m0 0h13M5 13v-3m13 3v-3m0 0V7H5v3m13 0H5m-4 9V6l10.5-5L22 6v13H1z" stroke="currentColor"/></svg><svg fill="none" viewBox="0 0 6 9" id="icon-go-to" xmlns="http://www.w3.org/2000/svg"><path d="M1 8l3.5-3.5L1 1" stroke="currentColor"/></svg><svg fill="none" viewBox="0 0 46 46" id="icon-info" xmlns="http://www.w3.org/2000/svg"><circle cx="23" cy="23" r="22" stroke="currentColor" stroke-width="2"/><path d="M22.5 12v15.5m0 4.5v2" stroke="currentColor" stroke-width="2"/></svg><svg fill="none" viewBox="0 0 21 16" id="icon-list" xmlns="http://www.w3.org/2000/svg"><path d="M20.5 15h-14m-2 0h-4m20-7h-14m-2 0h-4m20-7h-14m-2 0h-4" stroke="currentColor"/></svg><svg fill="none" viewBox="0 0 16 23" id="icon-location" xmlns="http://www.w3.org/2000/svg"><path fill-rule="evenodd" clip-rule="evenodd" d="M14 7.57c0-3.373-2.982-5.879-6.295-5.766C4.496 1.912 1.8 4.313 1.8 7.569c0 3.058 1.569 6.205 3.232 8.66a31.017 31.017 0 002.608 3.324 49.126 49.126 0 002.9-3.858c.888-1.315 1.762-2.772 2.411-4.205C13.607 10.043 14 8.692 14 7.57zM7.674 20.9l-.631.641-.003-.002-.004-.005-.018-.017a15.958 15.958 0 01-.288-.297c-.193-.204-.466-.5-.793-.874a32.804 32.804 0 01-2.395-3.107C1.819 14.695 0 11.177 0 7.569 0 3.196 3.618.141 7.644.005c4.181-.142 8.156 3.03 8.156 7.564 0 1.496-.51 3.12-1.21 4.664-.705 1.557-1.637 3.106-2.557 4.469a50.917 50.917 0 01-3.664 4.77l-.017.02-.006.006-.672-.598zm0 0l.672.6-.63.704-.673-.663.631-.641z" fill="currentColor"/><path d="M9.8 8.07a1.9 1.9 0 11-3.8 0 1.9 1.9 0 013.8 0zm-1.9 3.6a3.6 3.6 0 100-7.2 3.6 3.6 0 000 7.2z" fill="currentColor" stroke="currentColor" stroke-width=".2"/></svg><svg fill="none" viewBox="0 0 22 21" id="icon-messenger" xmlns="http://www.w3.org/2000/svg"><path d="M11.91 13.894a.772.772 0 01-.51-.193l-2.492-2.18-4.432 1.89a.773.773 0 01-.897-1.21l1.21-1.587a.416.416 0 01.663.505l-1.099 1.438 4.469-1.905a.416.416 0 01.437.07l2.644 2.314 5.04-5.788-4.812 1.91a.417.417 0 01-.428-.073L9.056 6.767 7.798 8.203a.417.417 0 01-.627-.549L8.47 6.172a.776.776 0 011.09-.07L12.06 8.29l4.795-1.905a.778.778 0 01.93.279.778.778 0 01-.069.962l-5.233 6.01a.771.771 0 01-.574.256zm-7.763-1.249h-.001.001z" fill="currentColor"/><path d="M6.303 9.813a.42.42 0 01-.394-.282.42.42 0 01.14-.464.42.42 0 01.463-.03.42.42 0 01.202.428.42.42 0 01-.41.348z" fill="currentColor"/><path d="M4.46 21a.415.415 0 01-.414-.381l-.256-3.016C1.379 15.701 0 12.931 0 9.975c0-2.67 1.112-5.178 3.132-7.063C5.144 1.034 7.817 0 10.66 0c2.842 0 5.514 1.034 7.526 2.912 2.02 1.885 3.132 4.393 3.132 7.063s-1.112 5.178-3.132 7.063c-2.012 1.878-4.685 2.912-7.526 2.912-1.019 0-2.026-.134-2.996-.399l-3.027 1.41a.415.415 0 01-.175.039zM10.66.833C5.24.833.833 4.934.833 9.975c0 2.754 1.315 5.334 3.608 7.08a.417.417 0 01.163.296l.221 2.604 2.626-1.224a.416.416 0 01.29-.023c.943.272 1.924.41 2.918.41 5.418 0 9.826-4.102 9.826-9.143S16.077.833 10.659.833z" fill="currentColor"/></svg><svg fill="none" viewBox="0 0 10 10" id="icon-more" xmlns="http://www.w3.org/2000/svg"><path d="M9.698 6.35a4.889 4.889 0 01-4.7 3.55A4.893 4.893 0 01.102 5C.103 2.293 2.29.1 4.997.1c1.354 0 2.575.551 3.46 1.44l.071.07.071-.07L9.897.24v4.034H5.864L7.709 2.43l.07-.07-.07-.071A3.825 3.825 0 004.997 1.15 3.849 3.849 0 001.147 5a3.849 3.849 0 007.451 1.35h1.1z" fill="currentColor" stroke="#EEEDE9" stroke-width=".2"/></svg><svg fill="none" viewBox="0 0 25 13" id="icon-nav-01" xmlns="http://www.w3.org/2000/svg"><path d="M1.301 5l2.008-.906 1.773-2.797A2.8 2.8 0 017.464 0h7.551c.876 0 1.706.4 2.24 1.09l2.29 2.963 3.816 1.034A2.217 2.217 0 0125 7.22v1.444c0 1.22-.984 2.229-2.218 2.229h-.328c-.395 1.504-1.947 2.406-3.468 2.016a2.828 2.828 0 01-2.04-2.016H8.34c-.394 1.504-1.947 2.406-3.468 2.016a2.828 2.828 0 01-2.039-2.016h-.615A2.224 2.224 0 010 8.663V7.018A2.206 2.206 0 011.301 5zm18.402 6.977a1.809 1.809 0 001.819-1.799 1.81 1.81 0 00-1.82-1.798 1.81 1.81 0 00-1.818 1.798c-.005.988.81 1.794 1.819 1.799zm-14.114 0a1.809 1.809 0 001.819-1.799A1.81 1.81 0 005.589 8.38a1.81 1.81 0 00-1.818 1.798c-.006.988.809 1.794 1.818 1.799zM2.22 9.879h.542c.17-1.545 1.578-2.66 3.14-2.487a2.823 2.823 0 012.516 2.487h8.458c.17-1.545 1.578-2.66 3.14-2.487a2.823 2.823 0 012.516 2.487h.256c.671 0 1.194-.552 1.194-1.215V7.22a1.195 1.195 0 00-.887-1.16l-3.99-1.08a.5.5 0 01-.272-.182l-2.387-3.096a1.818 1.818 0 00-1.43-.689h-7.55a1.77 1.77 0 00-1.517.821L4.093 4.762a.503.503 0 01-.22.193l-2.141.968c-.43.197-.707.623-.702 1.094v1.647h-.005c0 .663.522 1.215 1.193 1.215z" fill="currentColor"/></svg><svg fill="none" viewBox="0 0 26 17" id="icon-nav-02" xmlns="http://www.w3.org/2000/svg"><path d="M2.8 13.692c-.703-.676-1.8-1.153-1.8-1.73V9.076m1.8 4.615c.146-1.266 1.075-2.307 2.4-2.307s2.4 1.033 2.4 2.307m-4.8 0C2.8 14.82 3.875 16 5.2 16s2.4-1.181 2.4-2.308m9 0h-9m9 0c0-1.274 1.074-2.307 2.4-2.307 1.326 0 2.4 1.033 2.4 2.307m-4.8 0C16.6 14.967 17.674 16 19 16c1.326 0 2.4-1.033 2.4-2.308m-4.8 0V9.077m4.8 4.615L25 12.54V8.5l-2.4-1.154-2.4-4.615h-3.6m0 0V1.577S16 1 15.4 1H2.2c-.6 0-1.2.577-1.2.577v7.5M16.6 2.73v6.346m0 0H1" stroke="currentColor"/></svg><svg fill="none" viewBox="0 0 25 16" id="icon-nav-03" xmlns="http://www.w3.org/2000/svg"><path d="M7.863 12.018c0 1.9-1.625 3.482-3.682 3.482C2.125 15.5.5 13.918.5 12.018c0-1.9 1.625-3.483 3.681-3.483 2.057 0 3.682 1.582 3.682 3.483zm16.327 0c0 1.9-1.625 3.482-3.681 3.482-2.057 0-3.681-1.582-3.681-3.482 0-1.9 1.624-3.483 3.68-3.483 2.057 0 3.682 1.582 3.682 3.483z" stroke="currentColor"/><path d="M4.089 11.62h9.716l3.186-5.31m0 0l3.717 5.31m-3.717-5.31V3.655M13.274 1h3.717v2.655m0 0L10.09 8.168 7.434 4.982l-5.841.266.53 2.92" stroke="currentColor"/></svg><svg fill="none" viewBox="0 0 24 20" id="icon-nav-04" xmlns="http://www.w3.org/2000/svg"><path d="M2.048 16.273L1 15.727v-2.181c0-1.091 1.048-1.637 1.048-1.637m0 4.364S3.095 19 5.19 19c2.096 0 3.143-2.727 3.143-2.727m-6.285 0h6.285m-6.285-4.364v-1.09m0 1.09S4.667 11.527 6.5 13c1.833 1.473 1.833 3.273 1.833 3.273m-6.285-5.455c-1.048-.545-.524-2.727 0-2.727h8.904c1.048 0 1.048 2.727 0 2.727H8.857m-6.81 0h6.81m0 0l1.048 3.273h4.714l2.025-4.112V5.615s-1.048-.546-1.501-1.888C14.69 2.385 18.286 1 18.286 1v10.91h3.143v1.636L23 16.273S23 19 20.381 19c-2.62 0-3.143-2.727-3.143-2.727m0 0H8.333m8.905 0l5.46-4.676" stroke="currentColor"/></svg><svg fill="none" viewBox="0 0 19 20" id="icon-nav-05" xmlns="http://www.w3.org/2000/svg"><path d="M8.635 8.513L5.75 11.487s-2.912-.567-4.039.595c-1.127 1.16-.577 4.163-.577 4.163s2.898-2.404 4.039-1.19c1.194 1.27-1.731 3.569-1.731 3.569s3.717 1.16 4.616-.595c.63-1.233 0-4.163 0-4.163l2.885-2.974m-.578.595l2.885-2.974s2.912.567 4.039-.595c1.127-1.16.577-4.163.577-4.163s-2.897 2.404-4.039 1.19c-1.194-1.27 1.731-3.569 1.731-3.569s-3.717-1.16-4.616.595c-.63 1.233 0 4.163 0 4.163L8.058 9.108" stroke="currentColor"/></svg><svg fill="none" viewBox="0 0 18 18" id="icon-nav-06" xmlns="http://www.w3.org/2000/svg"><circle cx="9" cy="9" r="8.5" stroke="currentColor"/><circle cx="9" cy="9" r="4.5" stroke="currentColor"/><path d="M6 12l-3 3m9-3l3 3M12 6l3-3M6 6L3 3" stroke="currentColor"/></svg><svg fill="none" viewBox="0 0 18 18" id="icon-nav-07" xmlns="http://www.w3.org/2000/svg"><path fill-rule="evenodd" clip-rule="evenodd" d="M9 17A8 8 0 109 1a8 8 0 000 16zm0 1A9 9 0 109 0a9 9 0 000 18z" fill="currentColor"/><path fill-rule="evenodd" clip-rule="evenodd" d="M8.5 8.5V4h1v4.5H14v1H9.5V14h-1V9.5H4v-1h4.5z" fill="currentColor"/></svg><svg fill="none" viewBox="0 0 21 21" id="icon-phone" xmlns="http://www.w3.org/2000/svg"><path d="M16.581 13.008c-.43-.447-.948-.686-1.498-.686-.545 0-1.068.235-1.515.682L12.167 14.4c-.115-.062-.23-.12-.341-.177-.16-.08-.31-.155-.44-.235-1.311-.833-2.503-1.92-3.647-3.324-.554-.7-.926-1.29-1.197-1.888.364-.333.7-.678 1.029-1.01.124-.125.248-.253.372-.377.93-.931.93-2.137 0-3.068l-1.21-1.21c-.137-.137-.28-.279-.412-.42a20.924 20.924 0 00-.833-.825c-.43-.425-.944-.652-1.485-.652-.541 0-1.064.227-1.507.652l-.009.009L.98 3.395a3.243 3.243 0 00-.962 2.061c-.106 1.294.275 2.5.568 3.289.718 1.937 1.79 3.732 3.39 5.655 1.941 2.318 4.277 4.149 6.945 5.439 1.02.483 2.38 1.054 3.9 1.152.094.004.191.009.28.009 1.024 0 1.884-.368 2.557-1.1.005-.008.014-.013.018-.021.23-.28.497-.532.776-.803.19-.181.385-.372.576-.572.439-.456.67-.988.67-1.533 0-.55-.236-1.077-.683-1.52l-2.434-2.443zm1.587 4.668c-.004 0-.004.004 0 0-.173.186-.35.354-.54.54-.289.275-.581.563-.856.887-.448.478-.975.704-1.667.704-.066 0-.137 0-.203-.004-1.317-.084-2.54-.598-3.458-1.037a19.69 19.69 0 01-6.541-5.124C3.39 11.821 2.38 10.137 1.71 8.328c-.412-1.103-.563-1.963-.496-2.774.044-.519.244-.949.612-1.317l1.511-1.511c.217-.204.448-.315.674-.315.279 0 .505.169.647.31l.013.014c.27.252.527.514.798.793.137.142.28.284.42.43l1.21 1.21c.47.47.47.904 0 1.374-.128.129-.252.257-.38.381-.373.381-.727.736-1.113 1.082-.009.008-.017.013-.022.022-.381.38-.31.753-.23 1.006l.013.04c.315.762.758 1.48 1.431 2.335l.005.005c1.223 1.507 2.513 2.681 3.936 3.581.181.115.368.209.545.297.16.08.31.155.439.235.017.009.035.022.053.031a.96.96 0 00.439.11c.368 0 .598-.23.673-.305l1.516-1.516c.15-.15.39-.332.67-.332.274 0 .5.173.638.323l.009.01 2.442 2.441c.456.453.456.918.004 1.388zM11.334 4.995a5.62 5.62 0 013.058 1.587 5.65 5.65 0 011.587 3.058.595.595 0 00.59.497c.035 0 .066-.005.101-.01a.599.599 0 00.492-.69 6.836 6.836 0 00-1.919-3.701 6.836 6.836 0 00-3.7-1.92.601.601 0 00-.692.488.592.592 0 00.483.691zM20.96 9.264a11.247 11.247 0 00-3.16-6.095A11.247 11.247 0 0011.706.01a.596.596 0 00-.687.488.601.601 0 00.492.691 10.07 10.07 0 015.447 2.823 10.04 10.04 0 012.823 5.448.595.595 0 00.59.496.587.587 0 00.59-.691z" fill="#C9C9C9"/></svg><svg fill="none" viewBox="0 0 32 50" id="icon-play" xmlns="http://www.w3.org/2000/svg"><path d="M1 48V2l29 23L1 48z" stroke="currentColor" stroke-width="1.5"/></svg><svg fill="none" viewBox="0 0 18 18" id="icon-search" xmlns="http://www.w3.org/2000/svg"><path d="M10.962 11.733l5.913 5.913M14 7.5a6.5 6.5 0 11-13 0 6.5 6.5 0 0113 0z" stroke="currentColor"/></svg><svg fill="none" viewBox="0 0 21 22" id="icon-search-white" xmlns="http://www.w3.org/2000/svg"><path d="M13.5 14.5L20 21M16.56 8.81c0 4.313-3.484 7.809-7.78 7.809-4.297 0-7.78-3.496-7.78-7.81C1 4.496 4.483 1 8.78 1c4.296 0 7.78 3.496 7.78 7.81z" stroke="#fff"/></svg><svg version="1.2" baseProfile="tiny-ps" viewBox="0 0 22 20" id="icon-star" xmlns="http://www.w3.org/2000/svg"><style>.beshp0{opacity:.4;fill:#d4af5d}</style><g id="beотзывы"><g id="be1"><g id="beобщая"><path id="beФигура 668 копия 5" class="beshp0" d="M11 15l-7 5 3-7-7-5h8l3-8v15zm0-15l3 8h8l-7 5 3 7-7-5V0z"/></g></g></g></svg><svg version="1.2" baseProfile="tiny-ps" viewBox="0 0 22 20" id="icon-star-active" xmlns="http://www.w3.org/2000/svg"><style>.bfshp0{fill:#d4af5d}</style><g id="bfотзывы"><g id="bf1"><g id="bfобщая"><path id="bfФигура 668 копия 4" class="bfshp0" d="M11 15l-7 5 3-7-7-5h8l3-8v15zm0-15l3 8h8l-7 5 3 7-7-5V0z"/></g></g></g></svg><svg fill="none" viewBox="0 0 27 13" id="icon-steps" xmlns="http://www.w3.org/2000/svg"><path d="M1 5.554H.7v1.6h22.369l-3.635 3.634-.212.212.212.212.707.707.213.212.212-.212 5.353-5.353.212-.212-.212-.213L20.566.788l-.212-.212-.213.212-.707.707-.212.212.212.212 3.635 3.635H1z" fill="#ABABB0" stroke="#ABABB0" stroke-width=".6"/></svg><svg fill="none" viewBox="0 0 20 23" id="icon-user" xmlns="http://www.w3.org/2000/svg"><path d="M6.684 12.87S1 15.152 1 17.89C1 20.631 3.842 22 5.737 22h8.526C16.158 22 19 20.63 19 17.891s-5.684-5.021-5.684-5.021M10 1C7.632 1 5.737 3.693 5.737 6.478c0 2.785 1.895 5.479 4.263 5.479s4.263-2.74 4.263-5.479S12.368 1 10 1z" stroke="currentColor"/></svg><svg fill="none" viewBox="0 0 21 22" id="icon-viber" xmlns="http://www.w3.org/2000/svg"><path d="M12.15 0H7.96C3.57 0 0 3.57 0 7.958v3.775a7.973 7.973 0 005.028 7.4v2.448a.419.419 0 00.7.31l2.43-2.2h3.992c4.39 0 7.96-3.57 7.96-7.958V7.958C20.11 3.57 16.54 0 12.15 0zm7.122 11.733c0 3.926-3.194 7.12-7.122 7.12H7.995a.418.418 0 00-.28.109l-1.85 1.674v-1.792a.418.418 0 00-.279-.395 7.135 7.135 0 01-4.748-6.716V7.958c0-3.926 3.195-7.12 7.122-7.12h4.19c3.928 0 7.122 3.194 7.122 7.12v3.775z" fill="currentColor"/><path d="M15.592 12.775l-2.575-1.672a1.254 1.254 0 00-1.739.369l-.12.186c-1.115-.369-2.344-.84-3.08-2.969l.305-.265c.523-.454.578-1.25.123-1.773L6.492 4.334a.42.42 0 00-.591-.042l-1.265 1.1c-1.11.964-.591 2.39-.42 2.86a.417.417 0 00.027.06 19.145 19.145 0 002.79 3.681c1.704 1.735 4.778 3.337 4.873 3.384a2.097 2.097 0 002.898-.616l.912-1.405a.42.42 0 00-.124-.58zm-1.492 1.53c-.377.58-1.157.746-1.773.348-.03-.015-3.086-1.606-4.696-3.246a18.703 18.703 0 01-2.64-3.474c-.332-.93-.273-1.502.194-1.909l.95-.824 1.739 2a.415.415 0 01-.04.592l-.514.446a.418.418 0 00-.126.44c.876 2.848 2.58 3.407 3.825 3.816l.181.06a.418.418 0 00.484-.17l.297-.457a.414.414 0 01.58-.122l2.224 1.445-.685 1.054zM11.011 6.807a.418.418 0 10-.23.806 1.896 1.896 0 011.298 1.3.42.42 0 00.807-.227 2.739 2.739 0 00-1.874-1.88z" fill="currentColor"/><path d="M14.2 9.309a.419.419 0 00.404-.533 5.32 5.32 0 00-3.641-3.648.418.418 0 10-.23.806 4.477 4.477 0 013.064 3.07.42.42 0 00.403.305z" fill="currentColor"/><path d="M10.782 3.177a.418.418 0 10-.23.806 7.585 7.585 0 015.19 5.201.42.42 0 00.807-.227 8.429 8.429 0 00-5.767-5.78z" fill="currentColor"/></svg><svg fill="none" viewBox="0 0 20 20" id="icon-whatsapp" xmlns="http://www.w3.org/2000/svg"><path d="M10 0C4.486 0 0 4.486 0 10a9.96 9.96 0 001.514 5.293C1.12 16.677.406 19.295.398 19.322a.383.383 0 00.484.468l3.964-1.219A9.976 9.976 0 0010 20c5.514 0 10-4.486 10-10S15.514 0 10 0zm0 19.23a9.207 9.207 0 01-4.897-1.404.385.385 0 00-.317-.041L1.325 18.85c.254-.928.711-2.588.976-3.511a.386.386 0 00-.047-.316A9.195 9.195 0 01.77 10C.77 4.91 4.91.77 10 .77s9.23 4.14 9.23 9.23c0 5.09-4.14 9.23-9.23 9.23z" fill="currentColor"/><path d="M16.533 12.356c-.71-.394-1.315-.79-1.756-1.078a9.28 9.28 0 00-.759-.469c-.499-.248-.877-.072-1.02.073a.38.38 0 00-.049.058c-.518.778-1.194 1.521-1.393 1.561-.228-.036-1.3-.644-2.364-1.531-1.087-.906-1.77-1.773-1.871-2.364.697-.718.948-1.17.948-1.683 0-.53-1.235-2.74-1.459-2.964-.224-.224-.729-.26-1.5-.105a.388.388 0 00-.197.105c-.094.093-2.28 2.323-1.241 5.025 1.14 2.966 4.068 6.413 7.801 6.973.425.064.822.095 1.195.095 2.196 0 3.492-1.105 3.857-3.297a.383.383 0 00-.192-.399zm-4.745 2.84c-3.948-.591-6.435-4.503-7.198-6.488-.758-1.97.64-3.725.99-4.122.285-.048.586-.069.711-.05.262.365 1.169 2.079 1.209 2.387 0 .202-.066.483-.849 1.267a.383.383 0 00-.113.271c0 2.014 4.248 4.808 5 4.808.655 0 1.508-1.1 1.993-1.816.029.001.076.01.143.045.139.07.379.226.682.424.4.262.933.61 1.562.97-.286 1.373-1.083 2.762-4.13 2.305z" fill="currentColor"/></svg><svg fill="none" viewBox="0 0 25 13" id="top-nav-01" xmlns="http://www.w3.org/2000/svg"><path d="M1.301 5l2.008-.906 1.773-2.797A2.8 2.8 0 017.464 0h7.551c.876 0 1.706.4 2.24 1.09l2.29 2.963 3.816 1.034A2.217 2.217 0 0125 7.22v1.444c0 1.22-.984 2.229-2.218 2.229h-.328c-.395 1.504-1.947 2.406-3.468 2.016a2.828 2.828 0 01-2.04-2.016H8.34c-.394 1.504-1.947 2.406-3.468 2.016a2.828 2.828 0 01-2.039-2.016h-.615A2.224 2.224 0 010 8.663V7.018A2.206 2.206 0 011.301 5zm18.402 6.977a1.809 1.809 0 001.819-1.799 1.81 1.81 0 00-1.82-1.798 1.81 1.81 0 00-1.818 1.798c-.005.988.81 1.794 1.819 1.799zm-14.114 0a1.809 1.809 0 001.819-1.799A1.81 1.81 0 005.589 8.38a1.81 1.81 0 00-1.818 1.798c-.006.988.809 1.794 1.818 1.799zM2.22 9.879h.542c.17-1.545 1.578-2.66 3.14-2.487a2.823 2.823 0 012.516 2.487h8.458c.17-1.545 1.578-2.66 3.14-2.487a2.823 2.823 0 012.516 2.487h.256c.671 0 1.194-.552 1.194-1.215V7.22a1.195 1.195 0 00-.887-1.16l-3.99-1.08a.5.5 0 01-.272-.182l-2.387-3.096a1.818 1.818 0 00-1.43-.689h-7.55a1.77 1.77 0 00-1.517.821L4.093 4.762a.503.503 0 01-.22.193l-2.141.968c-.43.197-.707.623-.702 1.094v1.647h-.005c0 .663.522 1.215 1.193 1.215z" fill="currentColor"/></svg><svg fill="none" viewBox="0 0 26 17" id="top-nav-02" xmlns="http://www.w3.org/2000/svg"><path d="M2.8 13.692c-.703-.676-1.8-1.153-1.8-1.73V9.076m1.8 4.615c.146-1.266 1.075-2.307 2.4-2.307s2.4 1.033 2.4 2.307m-4.8 0C2.8 14.82 3.875 16 5.2 16s2.4-1.181 2.4-2.308m9 0h-9m9 0c0-1.274 1.074-2.307 2.4-2.307 1.326 0 2.4 1.033 2.4 2.307m-4.8 0C16.6 14.967 17.674 16 19 16c1.326 0 2.4-1.033 2.4-2.308m-4.8 0V9.077m4.8 4.615L25 12.54V8.5l-2.4-1.154-2.4-4.615h-3.6m0 0V1.577S16 1 15.4 1H2.2c-.6 0-1.2.577-1.2.577v7.5M16.6 2.73v6.346m0 0H1" stroke="currentColor"/></svg><svg fill="none" viewBox="0 0 25 16" id="top-nav-03" xmlns="http://www.w3.org/2000/svg"><path d="M7.863 12.018c0 1.9-1.625 3.482-3.682 3.482C2.125 15.5.5 13.918.5 12.018c0-1.9 1.625-3.483 3.681-3.483 2.057 0 3.682 1.582 3.682 3.483zm16.327 0c0 1.9-1.625 3.482-3.681 3.482-2.057 0-3.681-1.582-3.681-3.482 0-1.9 1.624-3.483 3.68-3.483 2.057 0 3.682 1.582 3.682 3.483z" stroke="currentColor"/><path d="M4.089 11.62h9.716l3.186-5.31m0 0l3.717 5.31m-3.717-5.31V3.655M13.274 1h3.717v2.655m0 0L10.09 8.168 7.434 4.982l-5.841.266.531 2.92" stroke="currentColor"/></svg><svg fill="none" viewBox="0 0 24 20" id="top-nav-04" xmlns="http://www.w3.org/2000/svg"><path d="M2.048 16.273L1 15.727v-2.181c0-1.091 1.048-1.637 1.048-1.637m0 4.364S3.095 19 5.19 19c2.096 0 3.143-2.727 3.143-2.727m-6.285 0h6.285m-6.285-4.364v-1.09m0 1.09S4.667 11.527 6.5 13c1.833 1.473 1.833 3.273 1.833 3.273m-6.285-5.455c-1.048-.545-.524-2.727 0-2.727h8.904c1.048 0 1.048 2.727 0 2.727H8.857m-6.81 0h6.81m0 0l1.048 3.273h4.714l2.025-4.112V5.615s-1.048-.546-1.501-1.888C14.69 2.385 18.286 1 18.286 1v10.91h3.143v1.636L23 16.273S23 19 20.381 19c-2.62 0-3.143-2.727-3.143-2.727m0 0H8.333m8.905 0l5.46-4.676" stroke="currentColor"/></svg><svg fill="none" viewBox="0 0 19 20" id="top-nav-05" xmlns="http://www.w3.org/2000/svg"><path d="M8.635 8.513L5.75 11.487s-2.912-.567-4.039.595c-1.127 1.16-.577 4.163-.577 4.163s2.898-2.404 4.039-1.19c1.194 1.27-1.731 3.569-1.731 3.569s3.717 1.16 4.616-.595c.63-1.233 0-4.163 0-4.163l2.885-2.974m-.578.595l2.885-2.974s2.912.567 4.039-.595c1.127-1.16.577-4.163.577-4.163s-2.897 2.404-4.039 1.19c-1.194-1.27 1.731-3.569 1.731-3.569s-3.717-1.16-4.616.595c-.63 1.233 0 4.163 0 4.163L8.058 9.108" stroke="currentColor"/></svg><svg fill="none" viewBox="0 0 18 18" id="top-nav-06" xmlns="http://www.w3.org/2000/svg"><circle cx="9" cy="9" r="8.5" stroke="currentColor"/><circle cx="9" cy="9" r="4.5" stroke="currentColor"/><path d="M6 12l-3 3m9-3l3 3M12 6l3-3M6 6L3 3" stroke="currentColor"/></svg><svg fill="none" viewBox="0 0 18 18" id="top-nav-07" xmlns="http://www.w3.org/2000/svg"><circle cx="9" cy="9" r="8.5" stroke="currentColor"/><path d="M9 5v4m0 4V9m0 0H5h7.5" stroke="currentColor"/></svg></svg>