<svg width="137" height="327" fill="none" xmlns="http://www.w3.org/2000/svg"><g clip-path="url(#clip0_2383_774)"><path d="M68.312 326.625h31.201c19.757 0 37.044-16.052 37.044-37.044V37.687c0-19.757-16.052-37.044-37.044-37.044H68.312l.024 37.044v253.129l-.024 35.809z" fill="url(#paint0_radial_2383_774)"/><path opacity=".3" d="M68.312 326.625h31.201c19.757 0 37.044-16.052 37.044-37.044V37.687c0-19.757-16.052-37.044-37.044-37.044H68.312l.024 37.044v253.129l-.024 35.809z" fill="url(#paint1_linear_2383_774)"/><mask id="a" style="mask-type:alpha" maskUnits="userSpaceOnUse" x="80" y="-1" width="29" height="332"><path d="M80.992-.591h27.165v330.92H80.992V-.591z" fill="url(#paint2_linear_2383_774)"/></mask><g mask="url(#a)"><path opacity=".6" d="M81.34.485l26.477 1.323v324.34H81.34V.485z" fill="url(#paint3_linear_2383_774)"/></g><path d="M114.436 323.5l-5.295 1.324V1.808l5.295 2.648V323.5z" fill="#3D3933"/><path opacity=".6" d="M77.288 15.46v-2.469l30.869-8.643 1.235 1.234-32.104 9.879zm1.235 9.879l-1.234-1.235 34.573-11.113 1.235 1.235-34.574 11.113zm0 16.052l-1.235-1.235 37.043-14.817 1.235 1.235L78.523 41.39zm0 18.522l-1.234-2.47 34.573-14.817 1.235 2.47-34.574 14.817zm2.47 19.757V77.2c1.235 0 19.756-9.879 30.869-16.053l1.235 2.47c-30.87 16.052-32.104 16.052-32.104 16.052zm0 23.46l-1.235-1.235 33.339-18.521 1.235 2.47-33.34 17.286zm0 24.696l-1.235-1.235 32.104-18.522 2.47 1.235-33.34 18.522zm0 27.165l-1.235-2.47 32.104-17.287 2.47 1.235-33.34 18.522zm0 28.399v-3.704l32.104-18.522 1.235 2.47-33.34 19.756zm0 25.931v-2.47l32.104-18.521 1.235 1.234-33.34 19.757zm0 25.93l-1.235-2.469 32.104-18.522 1.235 2.469-32.104 18.522zm-1.235 22.226l-1.235-1.235 33.339-17.287 1.235 2.47-33.339 16.052zm-2.471 22.226v-2.47l33.34-14.817 1.234 1.235-34.574 16.052zm.001 16.052l-1.234-1.235 35.808-13.582 1.235 2.469-35.808 12.348zm-2.47 14.817v-2.469l35.809-11.113 1.234 2.469-37.043 11.113zm0 9.879l-1.235-1.235 37.044-9.878 1.234 1.234-37.043 9.879zm.001 6.085v-1.235l37.043-6.085 1.235 1.235-38.278 6.085z" fill="#3D3933"/><g opacity=".8"><path opacity=".8" d="M114.331 4.348v318.484c12.347-4.94 22.226-17.198 22.226-32.016V37.686c0-14.816-9.879-28.399-22.226-33.338z" fill="url(#paint4_radial_2383_774)"/><mask id="b" style="mask-type:alpha" maskUnits="userSpaceOnUse" x="102" y="3" width="35" height="319"><path opacity=".8" d="M109.391 54.974l22.226-1.235s1.235 0 1.235-1.235c0 0 0-1.234-1.235-1.234l-22.226 1.234c0 1.235-1.234 1.235 0 2.47-1.234 0 0 0 0 0zm0 14.817s0-1.235 0 0c-1.234-1.235-1.234-2.47 0-2.47l22.226-2.469s1.235 0 1.235 1.235c0 0 0 1.235-1.235 1.235l-22.226 2.47c1.235 0 0 0 0 0zm1.235 14.818s0-1.235 0 0c-1.235-1.235-1.235-2.47 0-2.47l20.991-3.704s1.235 0 1.235 1.234c0 0 0 1.235-1.235 1.235l-20.991 3.705c1.235 0 1.235 0 0 0zm0 16.052s-1.235 0 0 0c-1.235-1.235-1.235-2.47 0-2.47l22.226-4.94s1.235 0 1.235 1.236c0 0 0 1.235-1.235 1.235l-22.226 4.939zm0 16.052c-1.235-1.235-1.235-2.47 0-2.47l22.226-4.939s1.235 0 1.235 1.235c0 0 0 1.235-1.235 1.235l-22.226 4.939c1.235 0 1.235 0 0 0zm0 17.287s-1.235 0 0 0c-1.235-1.235-1.235-2.47 0-2.47l22.226-6.174s1.235 0 1.235 1.235c0 0 0 1.235-1.235 1.235L110.626 134zm0 18.521c-1.235 0-1.235-1.235 0 0-1.235-1.235-1.235-2.469 0-2.469l24.696-7.409s1.235 0 1.235 1.235c0 0 0 1.235-1.235 1.235l-24.696 7.408zm0 18.522c-1.235 0-1.235-1.235 0 0-1.235-1.235-1.235-2.47 0-2.47l22.226-7.408s1.235 0 1.235 1.234c0 0 0 1.235-1.235 1.235l-22.226 7.409zm0 17.287c-1.235 0-1.235 0 0 0-1.235-1.235-1.235-2.47 0-2.47l23.461-8.643s1.235 0 1.235 1.235c0 0 0 1.234-1.235 1.234l-23.461 8.644zm-1.235 17.287c-1.234-1.235-1.234-2.47 0-2.47l24.696-9.878h1.235v1.235l-25.931 11.113c1.235 0 0 0 0 0zm0 17.287s-1.234 0 0 0c-1.234-1.235-1.234-2.47 0-2.47l24.696-9.878h1.235s0 1.235-1.235 1.235l-24.696 11.113zm-1.234 16.052c-1.235-1.235-1.235-2.47 0-2.47l22.226-9.878h1.234v1.235l-23.46 11.113c1.234 0 0 0 0 0zm0 14.817s-1.235 0 0 0c-1.235-1.235-1.235-2.47 0-2.47l23.46-9.878h1.235v1.235l-24.695 11.113zm0 14.817c-1.235 0-1.235 0 0 0-1.235-1.234-1.235-1.234 0-2.469l24.695-11.113h1.235v1.235l-25.93 12.347zm-1.235 12.348s-1.235-1.235 0 0c-1.235-1.235-1.235-2.469 0-2.469 6.174-1.235 20.991-7.409 23.461-9.879h1.234v1.235c-2.469 3.704-22.226 9.878-24.695 11.113zm0 11.113c-1.235 0-1.235 0 0 0-1.235-1.235-1.235-2.469 0-2.469 0 0 18.522-4.94 23.461-11.113h1.234v1.234c-4.939 7.409-23.46 12.348-24.695 12.348zm-1.235 9.878s-1.235-1.234 0 0c-1.235-1.234-1.235-2.469 0-2.469 0 0 18.522-4.939 23.461-11.113h1.235v1.235c-4.939 6.173-23.461 11.113-24.696 12.347zm-1.235 8.644s-1.234-1.235 0 0c-1.234-1.235-1.234-2.47 0-2.47 0 0 18.522-4.939 23.461-11.113h1.235v1.235c-4.939 6.174-23.461 11.113-24.696 12.348zm0 6.174c-1.234 0-1.234-1.235 0 0-1.234-1.235-1.234-2.47 0-2.47 0 0 18.522-4.939 23.461-11.113h1.235v1.235c-4.939 6.174-23.461 11.113-24.696 12.348 0-1.235 0 0 0 0zm-1.234 4.939s-1.235 0 0 0c-1.235-1.235-1.235-2.47 0-2.47 0 0 18.521-4.939 23.46-11.113h1.235v1.235c-4.939 7.409-23.461 12.348-24.695 12.348zm29.634-276.59c-4.939-3.705-18.521-2.47-24.695-2.47-1.235 0-1.235 0-1.235-1.235 0 0 0-1.234 1.235-1.234 1.234 0 19.756-1.235 24.695 2.469 1.235 1.235 1.235 1.235 0 2.47 1.235 0 1.235 0 0 0zm0-9.879s-1.235 0 0 0c-4.939-3.704-18.521-2.47-24.695-2.47 0 0-1.235 0-1.235-1.234 0 0 0-1.235 1.235-1.235 1.234 0 19.756-1.234 24.695 2.47 1.235 1.235 1.235 1.235 0 2.47zm-1.235-8.643c-3.704-3.704-18.521-3.704-23.46-3.704 0 0-1.235 0-1.235-1.235 0 0 0-1.235 1.235-1.235 1.234 0 19.756 0 24.695 4.94 0 0 0 1.234-1.235 1.234 1.235 0 1.235 0 0 0zm-1.234-7.409c-4.939-3.704-18.522-4.939-23.461-4.939 0 0-1.235 0-1.235-1.235 0 0 0-1.234 1.235-1.234s19.756 0 24.695 4.939c0 1.234 0 2.47-1.234 2.47 1.234 0 0 0 0 0zm-2.47-4.939c-3.704-3.704-16.052-4.939-20.991-4.939 0 0-1.235 0-1.235-1.235 0 0 0-1.235 1.235-1.235s17.287 0 22.226 4.94c0 1.234 0 1.234-1.235 2.47 1.235 0 1.235 0 0 0zm-2.469-3.704c-4.94-4.94-18.522-4.94-18.522-4.94s-1.235 0-1.235-1.234c0 0 0-1.235 1.235-1.235 0 0 13.582 0 18.522 4.94 1.234 0 1.234 1.234 0 2.469z" fill="url(#paint5_linear_2383_774)"/></mask><g mask="url(#b)"><path opacity=".8" d="M109.391 54.974l22.226-1.235s1.235 0 1.235-1.235c0 0 0-1.234-1.235-1.234l-22.226 1.234c0 1.235-1.234 1.235 0 2.47zm0 14.817c-1.234-1.235-1.234-2.47 0-2.47l22.226-2.469s1.235 0 1.235 1.235c0 0 0 1.235-1.235 1.235l-22.226 2.47zm1.235 14.818c-1.235-1.235-1.235-2.47 0-2.47l20.991-3.704s1.235 0 1.235 1.234c0 0 0 1.235-1.235 1.235l-20.991 3.705c1.235 0 1.235 0 0 0zm0 16.052c-1.235-1.235-1.235-2.47 0-2.47l22.226-4.94s1.235 0 1.235 1.236c0 0 0 1.235-1.235 1.235l-22.226 4.939zm0 16.052c-1.235-1.235-1.235-2.47 0-2.47l22.226-4.939s1.235 0 1.235 1.235c0 0 0 1.235-1.235 1.235l-22.226 4.939c1.235 0 1.235 0 0 0zm0 17.287c-1.235-1.235-1.235-2.47 0-2.47l22.226-6.174s1.235 0 1.235 1.235c0 0 0 1.235-1.235 1.235L110.626 134zm0 18.521c-1.235-1.235-1.235 0 0 0-1.235-1.235-1.235-2.469 0-2.469l24.696-7.409s1.235 0 1.235 1.235c0 0 0 1.235-1.235 1.235l-24.696 7.408zm0 18.522c-1.235-1.235-1.235 0 0 0-1.235-1.235-1.235-2.47 0-2.47l22.226-7.408s1.235 0 1.235 1.234c0 0 0 1.235-1.235 1.235l-22.226 7.409zm0 17.287c-1.235 0-1.235 0 0 0-1.235-1.235-1.235-2.47 0-2.47l23.461-8.643s1.235 0 1.235 1.235c0 0 0 1.234-1.235 1.234l-23.461 8.644zm-1.235 17.287c-1.234-1.235-1.234-2.47 0-2.47l24.696-9.878h1.235v1.235l-25.931 11.113zm0 17.287c-1.234-1.235-1.234-2.47 0-2.47l24.696-9.878h1.235s0 1.235-1.235 1.235l-24.696 11.113zm-1.234 16.052c-1.235-1.235-1.235-2.47 0-2.47l22.226-9.878h1.234v1.235l-23.46 11.113zm0 14.817c-1.235-1.235-1.235-2.47 0-2.47l23.46-9.878h1.235v1.235l-24.695 11.113zm0 14.817c-1.235 0-1.235 0 0 0-1.235-1.234-1.235-1.234 0-2.469l24.695-11.113h1.235v1.235l-25.93 12.347zm-1.235 12.348c-1.235-1.235-1.235-2.469 0-2.469 6.174-1.235 20.991-7.409 23.461-9.879h1.234v1.235c-2.469 3.705-22.226 9.878-24.695 11.113zm0 11.113c-1.235 0-1.235 0 0 0-1.235-1.235-1.235-2.469 0-2.469 0 0 18.522-4.939 23.461-11.113h1.234v1.234c-4.939 7.409-23.46 12.348-24.695 12.348zm-1.235 9.878c-1.235-1.234-1.235-2.469 0-2.469 0 0 18.522-4.939 23.461-11.113h1.235v1.235c-4.939 6.173-23.461 11.113-24.696 12.347zm-1.235 8.644c-1.234-1.235-1.234-2.47 0-2.47 0 0 18.522-4.939 23.461-11.113h1.235v1.235c-4.939 6.174-23.461 11.113-24.696 12.348zm0 6.174c-1.234-1.235-1.234 0 0 0-1.234-1.235-1.234-2.47 0-2.47 0 0 18.522-4.939 23.461-11.113h1.235v1.235c-4.939 6.174-23.461 11.113-24.696 12.348zm-1.234 4.939c-1.235-1.235-1.235-2.47 0-2.47 0 0 18.521-4.939 23.46-11.113h1.235v1.235c-4.939 7.409-23.461 12.348-24.695 12.348zm29.634-276.59c-4.939-3.705-18.521-2.47-24.695-2.47-1.235 0-1.235 0-1.235-1.235 0 0 0-1.234 1.235-1.234 1.234 0 19.756-1.235 24.695 2.469 1.235 1.235 1.235 1.235 0 2.47 1.235 0 1.235 0 0 0zm0-9.879c-4.939-3.704-18.521-2.47-24.695-2.47 0 0-1.235 0-1.235-1.234 0 0 0-1.235 1.235-1.235 1.234 0 19.756-1.234 24.695 2.47 1.235 1.235 1.235 1.235 0 2.47zm-1.235-8.643c-3.704-3.704-18.521-3.704-23.46-3.704 0 0-1.235 0-1.235-1.235 0 0 0-1.235 1.235-1.235 1.234 0 19.756 0 24.695 4.94 0 0 0 1.234-1.235 1.234 1.235 0 1.235 0 0 0zm-1.234-7.409c-4.939-3.704-18.522-4.939-23.461-4.939 0 0-1.235 0-1.235-1.235 0 0 0-1.234 1.235-1.234s18.432 0 23.372 4.939c0 1.234 1.323 2.47.089 2.47z" fill="url(#paint6_linear_2383_774)"/></g></g><path d="M81.34 326.148h-5.295V.485h5.296v325.663z" fill="#3D3933"/><mask id="c" style="mask-type:alpha" maskUnits="userSpaceOnUse" x="60" y="-8" width="18" height="346"><path d="M60-8h17.287v345.738H60V-8z" fill="url(#paint7_radial_2383_774)"/></mask><g mask="url(#c)"><path opacity=".5" d="M68.103.485h9.266v325.663h-9.266V.485z" fill="url(#paint8_radial_2383_774)"/></g><path d="M68.688 326.64H37.485C17.727 326.64.44 310.587.44 289.595V37.689C.44 17.93 16.493.644 37.485.644h31.203l-.024 37.045V290.83l.024 35.81z" fill="url(#paint9_radial_2383_774)"/><path opacity=".3" d="M68.688 326.64H37.485C17.727 326.64.44 310.587.44 289.595V37.689C.44 17.93 16.493.644 37.485.644h31.203l-.024 37.045V290.83l.024 35.81z" fill="url(#paint10_linear_2383_774)"/><mask id="d" style="mask-type:alpha" maskUnits="userSpaceOnUse" x="28" y="-1" width="29" height="332"><path d="M56.007-.59H28.84v330.934h27.167V-.591z" fill="url(#paint11_linear_2383_774)"/></mask><g mask="url(#d)"><path opacity=".6" d="M55.658.485L29.181 1.809v324.354h26.477V.485z" fill="url(#paint12_linear_2383_774)"/></g><path d="M22.561 323.515l5.296 1.324V1.809L22.56 4.457v319.058z" fill="#3D3933"/><path opacity=".6" d="M59.711 15.462v-2.47l-30.87-8.644-1.236 1.235 32.106 9.879zm-1.235 9.878l1.235-1.234-34.576-11.114-1.235 1.235L58.477 25.34zm0 16.053l1.235-1.235L22.666 25.34l-1.235 1.235 37.045 14.818zm0 18.523l1.235-2.47-34.576-14.818-1.235 2.47 34.576 14.818zm-2.47 19.757v-2.47c-1.235 0-19.757-9.878-30.87-16.052L23.9 63.62c30.87 16.052 32.105 16.052 32.105 16.052zm0 23.462l1.235-1.235-33.34-18.522-1.235 2.47 33.34 17.287zm0 24.697l1.235-1.235-32.105-18.523-2.47 1.235 33.34 18.523zm0 27.166l1.235-2.47-32.105-17.287-2.47 1.234 33.34 18.523zm0 28.401v-3.704l-32.105-18.523-1.235 2.47 33.34 19.757zm0 25.932v-2.47l-32.105-18.523-1.235 1.235 33.34 19.758zm0 25.931l1.235-2.47-32.106-18.522-1.235 2.47 32.106 18.522zm1.235 22.227l1.235-1.235-33.34-17.287-1.235 2.469 33.34 16.053zm2.471 22.227v-2.47l-33.34-14.818-1.236 1.235 34.576 16.053zm-.002 16.053l1.236-1.235-35.81-13.583-1.235 2.47 35.81 12.348zm2.471 14.818v-2.47l-35.81-11.113-1.235 2.469 37.045 11.114zm0 9.878l1.235-1.234-37.045-9.879-1.235 1.235 37.045 9.878zm-.001 6.086v-1.235l-37.045-6.085-1.235 1.235 38.28 6.085z" fill="#3D3933"/><g opacity=".8"><path opacity=".8" d="M22.667 4.348v318.498C10.319 317.907.44 305.648.44 290.83V37.689c0-14.818 9.879-28.401 22.227-33.34z" fill="url(#paint13_radial_2383_774)"/><mask id="e" style="mask-type:alpha" maskUnits="userSpaceOnUse" x="0" y="3" width="35" height="319"><path opacity=".8" d="M27.606 54.977L5.38 53.742s-1.235 0-1.235-1.235c0 0 0-1.235 1.235-1.235l22.227 1.235c0 1.235 1.235 1.235 0 2.47 1.235 0 0 0 0 0zm0 14.818s0-1.235 0 0c1.235-1.235 1.235-2.47 0-2.47L5.38 64.855s-1.235 0-1.235 1.235c0 0 0 1.235 1.235 1.235l22.227 2.47c-1.235 0 0 0 0 0zm-1.235 14.818s0-1.235 0 0c1.235-1.235 1.235-2.47 0-2.47L5.38 78.439s-1.235 0-1.235 1.234c0 0 0 1.235 1.235 1.235l20.992 3.705c-1.234 0-1.234 0 0 0zm0 16.052s1.235 0 0 0c1.235-1.234 1.235-2.47 0-2.47L4.144 93.258s-1.234 0-1.234 1.234c0 0 0 1.235 1.234 1.235l22.227 4.939zm0 16.053c1.235-1.235 1.235-2.469 0-2.469l-22.227-4.94s-1.234 0-1.234 1.235c0 0 0 1.235 1.234 1.235l22.227 4.939c-1.234 0-1.234 0 0 0zm0 17.288s1.235 0 0 0c1.235-1.235 1.235-2.47 0-2.47l-22.227-6.174s-1.234 0-1.234 1.235c0 0 0 1.235 1.234 1.235l22.227 6.174zm0 18.522c1.235 0 1.235-1.234 0 0 1.235-1.234 1.235-2.469 0-2.469L1.675 142.65s-1.235 0-1.235 1.235c0 0 0 1.234 1.235 1.234l24.696 7.409zm0 18.523c1.235 0 1.235-1.235 0 0 1.235-1.235 1.235-2.47 0-2.47l-22.227-7.409s-1.234 0-1.234 1.235c0 0 0 1.235 1.234 1.235l22.227 7.409zm0 17.288c1.235 0 1.235 0 0 0 1.235-1.235 1.235-2.47 0-2.47L2.91 177.225s-1.235 0-1.235 1.235c0 0 0 1.235 1.235 1.235l23.461 8.644zm1.235 17.287c1.235-1.235 1.235-2.469 0-2.469L2.91 193.278H1.675v1.235l25.931 11.113c-1.235 0 0 0 0 0zm0 17.288s1.235 0 0 0c1.235-1.235 1.235-2.47 0-2.47L2.91 210.566H1.675s0 1.234 1.235 1.234l24.696 11.114zm1.235 16.053c1.235-1.235 1.235-2.47 0-2.47l-22.227-9.879H5.38v1.235l23.462 11.114c-1.235 0 0 0 0 0zm0 14.818s1.235 0 0 0c1.235-1.235 1.235-2.47 0-2.47L5.38 241.436H4.144v1.235l24.697 11.114zm0 14.818c1.235 0 1.235 0 0 0 1.235-1.235 1.235-1.235 0-2.47L4.144 255.02H2.91v1.235l25.931 12.348zm1.235 12.348s1.235-1.235 0 0c1.235-1.235 1.235-2.469 0-2.469-6.174-1.235-20.992-7.409-23.462-9.879H5.38v1.235c2.47 3.704 22.227 9.878 24.697 11.113zm0 11.114c1.235 0 1.235 0 0 0 1.235-1.235 1.235-2.47 0-2.47 0 0-18.523-4.939-23.462-11.113H5.38v1.234c4.94 7.409 23.462 12.349 24.697 12.349zm1.235 9.878s1.235-1.235 0 0c1.235-1.235 1.235-2.469 0-2.469 0 0-18.523-4.94-23.462-11.114H6.614v1.235c4.94 6.174 23.462 11.113 24.697 12.348zm1.235 8.644s1.234-1.235 0 0c1.234-1.235 1.234-2.47 0-2.47 0 0-18.523-4.939-23.462-11.113H7.849v1.235c4.94 6.174 23.462 11.113 24.697 12.348zm0 6.174c1.234 0 1.234-1.235 0 0 1.234-1.235 1.234-2.469 0-2.469 0 0-18.523-4.94-23.462-11.114H7.849v1.235c4.94 6.174 23.462 11.113 24.697 12.348 0-1.235 0 0 0 0zm1.234 4.94s1.235 0 0 0c1.235-1.235 1.235-2.47 0-2.47 0 0-18.522-4.939-23.461-11.114H9.084v1.235c4.94 7.409 23.462 12.349 24.696 12.349zM4.144 45.098c4.94-3.704 18.523-2.47 24.697-2.47 1.235 0 1.235 0 1.235-1.234 0 0 0-1.235-1.235-1.235s-19.757-1.235-24.697 2.47c-1.234 1.234-1.234 1.234 0 2.469-1.234 0-1.234 0 0 0zm0-9.879s1.235 0 0 0c4.94-3.704 18.523-2.47 24.697-2.47 0 0 1.235 0 1.235-1.234 0 0 0-1.235-1.235-1.235S9.084 29.045 4.144 32.75c-1.234 1.234-1.234 1.234 0 2.47zm1.235-8.643c3.705-3.705 18.523-3.705 23.462-3.705 0 0 1.235 0 1.235-1.235 0 0 0-1.235-1.235-1.235s-19.757 0-24.697 4.94c0 0 0 1.235 1.235 1.235-1.235 0-1.235 0 0 0zm1.235-7.41c4.94-3.704 18.523-4.939 23.462-4.939 0 0 1.235 0 1.235-1.235 0 0 0-1.235-1.235-1.235s-19.757 0-24.697 4.94c0 1.235 0 2.47 1.235 2.47-1.235 0 0 0 0 0zm2.47-4.939c3.704-3.704 16.053-4.94 20.992-4.94 0 0 1.235 0 1.235-1.234 0 0 0-1.235-1.235-1.235s-17.288 0-22.227 4.94c0 1.234 0 1.234 1.235 2.47-1.235 0-1.235 0 0 0zm2.47-3.704c4.939-4.94 18.522-4.94 18.522-4.94s1.235 0 1.235-1.235c0 0 0-1.234-1.235-1.234 0 0-13.583 0-18.523 4.939-1.234 0-1.234 1.235 0 2.47z" fill="url(#paint14_linear_2383_774)"/></mask><g mask="url(#e)"><path opacity=".8" d="M27.606 54.977L5.38 53.742s-1.234 0-1.234-1.235c0 0 0-1.235 1.234-1.235l22.227 1.235c0 1.235 1.235 1.235 0 2.47zm0 14.818c1.235-1.235 1.235-2.47 0-2.47L5.38 64.855s-1.234 0-1.234 1.235c0 0 0 1.235 1.234 1.235l22.227 2.47zm-1.235 14.818c1.235-1.235 1.235-2.47 0-2.47L5.38 78.439s-1.234 0-1.234 1.234c0 0 0 1.235 1.234 1.235l20.993 3.705c-1.235 0-1.235 0 0 0zm0 16.052c1.235-1.234 1.235-2.47 0-2.47L4.146 93.258s-1.235 0-1.235 1.234c0 0 0 1.235 1.234 1.235l22.227 4.939zm0 16.053c1.235-1.235 1.235-2.469 0-2.469l-22.226-4.94s-1.235 0-1.235 1.235c0 0 0 1.235 1.234 1.235l22.227 4.939c-1.234 0-1.234 0 0 0zm0 17.288c1.235-1.235 1.235-2.47 0-2.47l-22.226-6.174s-1.235 0-1.235 1.235c0 0 0 1.235 1.234 1.235l22.227 6.174zm0 18.522c1.235-1.234 1.235 0 0 0 1.235-1.234 1.235-2.469 0-2.469L1.675 142.65s-1.235 0-1.235 1.235c0 0 0 1.234 1.235 1.234l24.697 7.409zm0 18.523c1.235-1.235 1.235 0 0 0 1.235-1.235 1.235-2.47 0-2.47l-22.226-7.409s-1.235 0-1.235 1.235c0 0 0 1.235 1.234 1.235l22.227 7.409zm0 17.288c1.235 0 1.235 0 0 0 1.235-1.235 1.235-2.47 0-2.47L2.91 177.225s-1.235 0-1.235 1.235c0 0 0 1.235 1.235 1.235l23.462 8.644zm1.235 17.287c1.235-1.235 1.235-2.469 0-2.469L2.91 193.278H1.675v1.235l25.931 11.113zm0 17.288c1.235-1.235 1.235-2.47 0-2.47L2.91 210.566H1.675s0 1.234 1.235 1.234l24.696 11.114zm1.235 16.053c1.235-1.235 1.235-2.47 0-2.47l-22.227-9.879H5.38v1.235l23.462 11.114zm0 14.818c1.235-1.235 1.235-2.47 0-2.47L5.38 241.437H4.145v1.234l24.696 11.114zm0 14.818c1.235 0 1.235 0 0 0 1.235-1.235 1.235-1.235 0-2.47L4.144 255.02H2.91v1.235l25.931 12.348zm1.235 12.348c1.235-1.235 1.235-2.469 0-2.469-6.174-1.235-20.992-7.409-23.462-9.879H5.38v1.235c2.47 3.704 22.227 9.878 24.697 11.113zm0 11.114c1.235 0 1.235 0 0 0 1.235-1.235 1.235-2.47 0-2.47 0 0-18.523-4.939-23.462-11.113H5.38v1.234c4.94 7.409 23.462 12.349 24.697 12.349zm1.235 9.878c1.235-1.235 1.235-2.469 0-2.469 0 0-18.523-4.94-23.462-11.114H6.614v1.235c4.94 6.174 23.462 11.113 24.697 12.348zm1.235 8.644c1.235-1.235 1.235-2.47 0-2.47 0 0-18.523-4.939-23.462-11.113H7.849v1.235c4.94 6.174 23.462 11.113 24.697 12.348zm0 6.174c1.235-1.234 1.235 0 0 0 1.235-1.234 1.235-2.469 0-2.469 0 0-18.523-4.94-23.462-11.114H7.849v1.235c4.94 6.174 23.462 11.114 24.697 12.348zm1.235 4.94c1.234-1.235 1.234-2.47 0-2.47 0 0-18.523-4.939-23.462-11.114H9.084v1.235c4.94 7.409 23.462 12.349 24.697 12.349zM4.145 45.098c4.939-3.704 18.522-2.47 24.696-2.47 1.235 0 1.235 0 1.235-1.234 0 0 0-1.235-1.235-1.235s-19.757-1.235-24.697 2.47c-1.234 1.234-1.234 1.234 0 2.469-1.234 0-1.234 0 0 0zm0-9.879c4.939-3.704 18.522-2.47 24.696-2.47 0 0 1.235 0 1.235-1.234 0 0 0-1.235-1.235-1.235S9.084 29.045 4.144 32.75c-1.234 1.234-1.234 1.234 0 2.47zm1.234-8.643c3.705-3.705 18.523-3.705 23.462-3.705 0 0 1.235 0 1.235-1.235 0 0 0-1.235-1.235-1.235s-19.757 0-24.697 4.94c0 0 0 1.235 1.235 1.235-1.234 0-1.234 0 0 0zm1.235-7.41c4.94-3.704 18.523-4.939 23.462-4.939 0 0 1.235 0 1.235-1.235 0 0 0-1.235-1.235-1.235s-18.433 0-23.373 4.94c0 1.235-1.324 2.47-.089 2.47z" fill="url(#paint15_linear_2383_774)"/></g></g><path d="M55.658 326.163h5.296V.485h-5.296v325.678z" fill="#3D3933"/><mask id="f" style="mask-type:alpha" maskUnits="userSpaceOnUse" x="59" y="-8" width="18" height="346"><path d="M77-8H59.712v345.753H77V-8z" fill="url(#paint16_radial_2383_774)"/></mask><g mask="url(#f)"><path opacity=".5" d="M68.897.485H59.63v325.678h9.267V.485z" fill="url(#paint17_radial_2383_774)"/></g></g><defs><linearGradient id="paint1_linear_2383_774" x1="68.255" y1="8.978" x2="68.255" y2="328.488" gradientUnits="userSpaceOnUse"><stop stop-color="#585248"/><stop offset=".221" stop-color="#403B33"/><stop offset=".478" stop-color="#201C16"/><stop offset=".606" stop-color="#2B251C"/><stop offset=".828" stop-color="#483B2D"/><stop offset="1" stop-color="#63503D"/></linearGradient><linearGradient id="paint2_linear_2383_774" x1="95.07" y1="11.55" x2="95.07" y2="328.582" gradientUnits="userSpaceOnUse"><stop/><stop offset=".16" stop-color="#030303"/><stop offset=".261" stop-color="#0B0B0B"/><stop offset=".347" stop-color="#1A1A1A"/><stop offset=".424" stop-color="#2F2F2F"/><stop offset=".495" stop-color="#4A4A4A"/><stop offset=".561" stop-color="#6B6B6B"/><stop offset=".624" stop-color="#939393"/><stop offset=".684" stop-color="#C1C1C1"/><stop offset=".741" stop-color="#F3F3F3"/><stop offset=".753" stop-color="#fff"/><stop offset=".796" stop-color="#FCFCFC"/><stop offset=".832" stop-color="#F2F2F2"/><stop offset=".866" stop-color="#E0E0E0"/><stop offset=".897" stop-color="#C8C8C8"/><stop offset=".928" stop-color="#A9A9A9"/><stop offset=".957" stop-color="#828282"/><stop offset=".986" stop-color="#565656"/><stop offset="1" stop-color="#3C3C3C"/></linearGradient><linearGradient id="paint3_linear_2383_774" x1="95.061" y1="11.109" x2="95.061" y2="323.105" gradientUnits="userSpaceOnUse"><stop stop-color="#585248"/><stop offset=".229" stop-color="#555046"/><stop offset=".375" stop-color="#4D473F"/><stop offset=".498" stop-color="#3E3A33"/><stop offset=".608" stop-color="#292622"/><stop offset=".708" stop-color="#0E0D0C"/><stop offset=".753"/><stop offset=".821" stop-color="#030303"/><stop offset=".878" stop-color="#0D0D0B"/><stop offset=".93" stop-color="#1F1D19"/><stop offset=".98" stop-color="#37332D"/><stop offset="1" stop-color="#433F37"/></linearGradient><linearGradient id="paint5_linear_2383_774" x1="134.557" y1="162.792" x2="113.505" y2="162.792" gradientUnits="userSpaceOnUse"><stop/><stop offset=".056" stop-color="#242424"/><stop offset=".152" stop-color="#5E5E5E"/><stop offset=".249" stop-color="#8F8F8F"/><stop offset=".344" stop-color="#B7B7B7"/><stop offset=".437" stop-color="#D7D7D7"/><stop offset=".526" stop-color="#EDEDED"/><stop offset=".612" stop-color="#FAFAFA"/><stop offset=".688" stop-color="#fff"/></linearGradient><linearGradient id="paint6_linear_2383_774" x1="134.557" y1="162.792" x2="113.504" y2="162.792" gradientUnits="userSpaceOnUse"><stop stop-color="#fff"/><stop offset=".102" stop-color="#CCCAC8"/><stop offset=".206" stop-color="#9E9C98"/><stop offset=".311" stop-color="#787570"/><stop offset=".412" stop-color="#5B5750"/><stop offset=".511" stop-color="#46413A"/><stop offset=".604" stop-color="#39342D"/><stop offset=".688" stop-color="#353028"/></linearGradient><linearGradient id="paint10_linear_2383_774" x1="68.745" y1="8.979" x2="68.745" y2="328.503" gradientUnits="userSpaceOnUse"><stop stop-color="#585248"/><stop offset=".221" stop-color="#403B33"/><stop offset=".478" stop-color="#201C16"/><stop offset=".606" stop-color="#2B251C"/><stop offset=".828" stop-color="#483B2D"/><stop offset="1" stop-color="#63503D"/></linearGradient><linearGradient id="paint11_linear_2383_774" x1="41.928" y1="11.551" x2="41.928" y2="328.597" gradientUnits="userSpaceOnUse"><stop/><stop offset=".16" stop-color="#030303"/><stop offset=".261" stop-color="#0B0B0B"/><stop offset=".347" stop-color="#1A1A1A"/><stop offset=".424" stop-color="#2F2F2F"/><stop offset=".495" stop-color="#4A4A4A"/><stop offset=".561" stop-color="#6B6B6B"/><stop offset=".624" stop-color="#939393"/><stop offset=".684" stop-color="#C1C1C1"/><stop offset=".741" stop-color="#F3F3F3"/><stop offset=".753" stop-color="#fff"/><stop offset=".796" stop-color="#FCFCFC"/><stop offset=".832" stop-color="#F2F2F2"/><stop offset=".866" stop-color="#E0E0E0"/><stop offset=".897" stop-color="#C8C8C8"/><stop offset=".928" stop-color="#A9A9A9"/><stop offset=".957" stop-color="#828282"/><stop offset=".986" stop-color="#565656"/><stop offset="1" stop-color="#3C3C3C"/></linearGradient><linearGradient id="paint12_linear_2383_774" x1="41.937" y1="11.11" x2="41.937" y2="323.12" gradientUnits="userSpaceOnUse"><stop stop-color="#585248"/><stop offset=".229" stop-color="#555046"/><stop offset=".375" stop-color="#4D473F"/><stop offset=".498" stop-color="#3E3A33"/><stop offset=".608" stop-color="#292622"/><stop offset=".708" stop-color="#0E0D0C"/><stop offset=".753"/><stop offset=".821" stop-color="#030303"/><stop offset=".878" stop-color="#0D0D0B"/><stop offset=".93" stop-color="#1F1D19"/><stop offset=".98" stop-color="#37332D"/><stop offset="1" stop-color="#433F37"/></linearGradient><linearGradient id="paint14_linear_2383_774" x1="2.439" y1="162.8" x2="23.493" y2="162.8" gradientUnits="userSpaceOnUse"><stop/><stop offset=".056" stop-color="#242424"/><stop offset=".152" stop-color="#5E5E5E"/><stop offset=".249" stop-color="#8F8F8F"/><stop offset=".344" stop-color="#B7B7B7"/><stop offset=".437" stop-color="#D7D7D7"/><stop offset=".526" stop-color="#EDEDED"/><stop offset=".612" stop-color="#FAFAFA"/><stop offset=".688" stop-color="#fff"/></linearGradient><linearGradient id="paint15_linear_2383_774" x1="2.439" y1="162.8" x2="23.493" y2="162.8" gradientUnits="userSpaceOnUse"><stop stop-color="#fff"/><stop offset=".102" stop-color="#CCCAC8"/><stop offset=".206" stop-color="#9E9C98"/><stop offset=".311" stop-color="#787570"/><stop offset=".412" stop-color="#5B5750"/><stop offset=".511" stop-color="#46413A"/><stop offset=".604" stop-color="#39342D"/><stop offset=".688" stop-color="#353028"/></linearGradient><radialGradient id="paint0_radial_2383_774" cx="0" cy="0" r="1" gradientUnits="userSpaceOnUse" gradientTransform="rotate(180 45.041 -31.234) scale(413.122)"><stop stop-color="#585248"/><stop offset=".221" stop-color="#403B33"/><stop offset=".478" stop-color="#201C16"/><stop offset=".705" stop-color="#15120E"/><stop offset="1"/></radialGradient><radialGradient id="paint4_radial_2383_774" cx="0" cy="0" r="1" gradientUnits="userSpaceOnUse" gradientTransform="rotate(180 65.097 44.264) scale(162.98)"><stop stop-color="#585248"/><stop offset=".462" stop-color="#565046"/><stop offset=".628" stop-color="#4F4A41"/><stop offset=".746" stop-color="#443F37"/><stop offset=".842" stop-color="#332F29"/><stop offset=".923" stop-color="#1D1B18"/><stop offset=".994" stop-color="#020202"/><stop offset="1"/></radialGradient><radialGradient id="paint7_radial_2383_774" cx="0" cy="0" r="1" gradientUnits="userSpaceOnUse" gradientTransform="rotate(180 36.637 45.2) scale(185.993)"><stop stop-color="#fff"/><stop offset=".373" stop-color="#FDFDFD"/><stop offset=".507" stop-color="#F6F6F6"/><stop offset=".603" stop-color="#EBEBEB"/><stop offset=".68" stop-color="#DADADA"/><stop offset=".746" stop-color="#C4C4C4"/><stop offset=".805" stop-color="#A8A8A8"/><stop offset=".858" stop-color="#888"/><stop offset=".907" stop-color="#626262"/><stop offset=".952" stop-color="#373737"/><stop offset=".993" stop-color="#090909"/><stop offset="1"/></radialGradient><radialGradient id="paint8_radial_2383_774" cx="0" cy="0" r="1" gradientUnits="userSpaceOnUse" gradientTransform="matrix(-99.704 0 0 -175.194 75.218 93.17)"><stop stop-color="#585248"/><stop offset=".462" stop-color="#565046"/><stop offset=".628" stop-color="#4F4A41"/><stop offset=".746" stop-color="#443F37"/><stop offset=".842" stop-color="#332F29"/><stop offset=".923" stop-color="#1D1B18"/><stop offset=".994" stop-color="#020202"/><stop offset="1"/></radialGradient><radialGradient id="paint9_radial_2383_774" cx="0" cy="0" r="1" gradientUnits="userSpaceOnUse" gradientTransform="translate(46.916 -62.47) scale(413.141)"><stop stop-color="#585248"/><stop offset=".221" stop-color="#403B33"/><stop offset=".478" stop-color="#201C16"/><stop offset=".705" stop-color="#15120E"/><stop offset="1"/></radialGradient><radialGradient id="paint13_radial_2383_774" cx="0" cy="0" r="1" gradientUnits="userSpaceOnUse" gradientTransform="translate(6.803 88.533) scale(162.987)"><stop stop-color="#585248"/><stop offset=".462" stop-color="#565046"/><stop offset=".628" stop-color="#4F4A41"/><stop offset=".746" stop-color="#443F37"/><stop offset=".842" stop-color="#332F29"/><stop offset=".923" stop-color="#1D1B18"/><stop offset=".994" stop-color="#020202"/><stop offset="1"/></radialGradient><radialGradient id="paint16_radial_2383_774" cx="0" cy="0" r="1" gradientUnits="userSpaceOnUse" gradientTransform="translate(63.725 90.403) scale(186.002)"><stop stop-color="#fff"/><stop offset=".373" stop-color="#FDFDFD"/><stop offset=".507" stop-color="#F6F6F6"/><stop offset=".603" stop-color="#EBEBEB"/><stop offset=".68" stop-color="#DADADA"/><stop offset=".746" stop-color="#C4C4C4"/><stop offset=".805" stop-color="#A8A8A8"/><stop offset=".858" stop-color="#888"/><stop offset=".907" stop-color="#626262"/><stop offset=".952" stop-color="#373737"/><stop offset=".993" stop-color="#090909"/><stop offset="1"/></radialGradient><radialGradient id="paint17_radial_2383_774" cx="0" cy="0" r="1" gradientUnits="userSpaceOnUse" gradientTransform="matrix(99.7085 0 0 175.202 61.781 93.174)"><stop stop-color="#585248"/><stop offset=".462" stop-color="#565046"/><stop offset=".628" stop-color="#4F4A41"/><stop offset=".746" stop-color="#443F37"/><stop offset=".842" stop-color="#332F29"/><stop offset=".923" stop-color="#1D1B18"/><stop offset=".994" stop-color="#020202"/><stop offset="1"/></radialGradient><clipPath id="clip0_2383_774"><path fill="#fff" d="M0 0h137v327H0z"/></clipPath></defs></svg>