<svg width="561" height="445" fill="none" xmlns="http://www.w3.org/2000/svg"><path d="M438.637 219.821h7.29v14.246h-7.29c-.428-.736-.739-1.806-.943-3.039h-58.483c-1.767-2.432-1.325-6.459 0-9.308h58.717c.19-.793.428-1.45.709-1.899z" fill="#C4C4C4"/><path d="M437.928 221.72c.19-.793.428-1.45.709-1.899h7.29v14.246h-7.29c-.428-.736-.739-1.806-.943-3.039m.234-9.308c-.6 2.508-.72 6.372-.234 9.308m.234-9.308h-58.717c-1.325 2.849-1.767 6.876 0 9.308h58.483" stroke="#000"/><path d="M421.185 239.195c-2.298-2.583-3.019-6.521-3.093-8.167h16.127c.073 2.193.424 3.515.873 4.27-.399 3.264-3.39 3.96-4.85 3.897h-9.057zm-8.837-66.292l8.837 48.817h4.197l-9.278-50.526c-1.591 1.215-3.167 1.646-3.756 1.709z" fill="#000" fill-opacity=".8"/><path d="M430.242 239.195h-9.057c-2.298-2.583-3.019-6.521-3.093-8.167h9.058m3.092 8.167c1.473.064 4.507-.645 4.86-3.989m-4.86 3.989c-1.031-.823-3.092-3.609-3.092-8.167m9.941 4.938c-.884.57-2.695.38-2.872-4.938h-7.069m-5.965-9.308l-8.837-48.817c.589-.063 2.165-.494 3.756-1.709l9.278 50.526h-4.197z" stroke="#000"/><path d="M271.847 275.856h26.731c.81-1.52 2.651-4.103 3.534-2.28h2.21c0 2.462-.045 4.535-.061 6.268-.054 5.625.181 7.672 3.153 7.788h8.174v-7.028c4.065 0 4.198.076 4.198 3.419s0 3.609-4.198 3.609h-18.557c.354-6.99-.199-7.769-2.43-7.788-17.849-.152-23.416-1.139-26.067.76-1.261 0-2.076.26-2.601.715l-.762-.715a15.804 15.804 0 006.676-4.748z" fill="#000" fill-opacity=".8"/><path d="M307.414 287.632h8.174m-8.174 0h-10.383c.354-6.99-.199-7.769-2.43-7.788m12.813 7.788c-2.972-.116-3.207-2.163-3.153-7.788m11.327 7.788c4.198 0 4.198-.266 4.198-3.609s-.133-3.419-4.198-3.419v7.028zm-20.987-7.788c-17.849-.152-23.416-1.139-26.067.76-1.261 0-2.076.26-2.601.715l-.762-.715a15.804 15.804 0 006.676-4.748h26.731c.81-1.52 2.651-4.103 3.534-2.28h2.21c0 2.462-.045 4.535-.061 6.268m-9.66 0h9.66" stroke="#fff"/><path d="M199.609 115.349h-2.21v-2.279h6.186c8.174 6.648 1.105 8.547 21.208 7.977 12.15 8.358 0 8.358 27.835 7.408 25.405-6.458 0-5.318 59.867-6.458.884 0 1.4-.506 1.547-.76h1.767l.442.57c10.074.912 11.046-4.938 13.476-8.547h7.29v1.709h-4.639c-1.061 3.799-4.419 7.611-6.849 8.168-7.953 1.823-20.103.95-54.565 2.659-4.419 0-5.744 6.268-41.09 6.268-14.315.76-18.979 6.374-19.22 9.498-.716 9.269 38.439 44.068 48.822 50.526h4.418v10.067c-6.362 0-5.302 0-6.627-2.849h-9.941c-4.197-2.659-8.592-4.369-10.383-6.458-15.464-18.045-22.533-26.688-33.358-44.638-2.474-4.103-2.651-7.858-1.767-9.497 4.197-7.788 14.359-10.448 14.359-12.917 0-2.469-7.29-1.899-9.278-3.609-2.651-2.279-2.651-6.838-7.29-6.838zm64.285 99.343v-7.598h-4.418c-2.209 2.279-1.104 2.279-10.825 2.279v5.319h15.243zm-64.065 122.517h-2.209v2.279h6.186c8.174-6.648 1.104-8.547 21.208-7.978 12.15-8.357 0-8.357 27.835-7.408 25.405 6.459 0 5.319 59.867 6.459.884 0 1.399.506 1.547.759h1.767l.442-.569c10.074-.912 11.046 4.938 13.476 8.547h7.29v-1.709h-4.639c-1.061-3.799-4.419-7.611-6.849-8.168-7.953-1.824-20.103-.95-54.565-2.659-4.419 0-5.744-6.269-41.09-6.269-14.316-.759-18.979-6.373-19.22-9.497-.716-9.27 38.439-44.068 48.822-50.526h4.418v-10.068c-6.362 0-5.302 0-6.627 2.85h-9.941c-4.198 2.659-8.593 4.368-10.383 6.458-15.464 18.045-22.533 26.688-33.358 44.638-2.474 4.103-2.651 7.858-1.767 9.497 4.197 7.788 14.359 10.447 14.359 12.917 0 2.469-7.29 1.899-9.278 3.609-2.651 2.279-2.651 6.838-7.291 6.838zm64.286-99.343v7.598h-4.418c-2.209-2.28-1.105-2.28-10.825-2.28v-5.318h15.243z" fill="#878787"/><path d="M337.017 114.969h-4.639c-1.061 3.799-4.419 7.611-6.849 8.168-7.953 1.823-20.103.95-54.565 2.659-4.419 0-5.744 6.268-41.09 6.268-14.315.76-18.979 6.374-19.22 9.498-.716 9.269 38.439 44.068 48.822 50.526h4.418v10.067c-6.362 0-5.302 0-6.627-2.849h-9.941c-4.197-2.659-8.592-4.369-10.383-6.458-15.464-18.045-22.533-26.688-33.358-44.638-2.474-4.103-2.651-7.858-1.767-9.497 4.197-7.788 14.359-10.448 14.359-12.917 0-2.469-7.29-1.899-9.278-3.609-2.651-2.279-2.651-6.838-7.29-6.838h-2.21v-2.279h6.186c8.174 6.648 1.105 8.547 21.208 7.977 12.15 8.358 0 8.358 27.835 7.408 25.405-6.458 0-5.318 59.867-6.458.884 0 1.4-.506 1.547-.76h1.767l.442.57c10.074.912 11.046-4.938 13.476-8.547h7.29v1.709zm0 0c-24.522 0-24.522 222.24.221 222.62m-.221-222.62c9.72.38 10.604 222.24.221 222.62m0 0h-4.639c-1.061-3.799-4.419-7.611-6.849-8.168-7.953-1.824-20.103-.95-54.565-2.659-4.419 0-5.744-6.269-41.09-6.269-14.316-.759-18.979-6.373-19.22-9.497-.716-9.27 38.439-44.068 48.822-50.526h4.418v-10.068c-6.362 0-5.302 0-6.627 2.85h-9.941c-4.198 2.659-8.593 4.368-10.383 6.458-15.464 18.045-22.533 26.688-33.358 44.638-2.474 4.103-2.651 7.858-1.767 9.497 4.197 7.788 14.359 10.447 14.359 12.917 0 2.469-7.29 1.899-9.278 3.609-2.651 2.279-2.651 6.838-7.291 6.838h-2.209v2.279h6.186c8.174-6.648 1.104-8.547 21.208-7.978 12.15-8.357 0-8.357 27.835-7.408 25.405 6.459 0 5.319 59.867 6.459.884 0 1.399.506 1.547.759h1.767l.442-.569c10.074-.912 11.046 4.938 13.476 8.547h7.29v-1.709zm-73.344-130.495v7.598h-15.243v-5.319c9.721 0 8.616 0 10.825-2.279h4.418zm.221 38.37v-7.598h-15.243v5.318c9.72 0 8.616 0 10.825 2.28h4.418z" stroke="#000"/><path d="M209.7 119.674c-8.153-10.812-4.848-4.742-12.339-8.536m0 0c1.763-5.88 8.152-17.072 17.186-20.487 13.735-1.075 40.543-3.224 52.882-3.224 12.371 0 39.249 2.152 53.019 3.229 9.058 3.419 15.464 14.626 17.231 20.514m-140.318-.032c-6.766 22.573-14.763 78.229-14.763 116.471 0 37.412 7.997 91.861 14.763 113.945m127.947-221.836c8.174-10.827 4.86-4.749 12.371-8.548m0 0c6.407 9.688 7.07 78.145 7.07 116.439 0 37.309.221 101.432-6.887 114.009m-12.403-8.328c8.195 10.549 4.872 4.627 12.403 8.328m0 0c-1.772 5.737-8.195 16.656-17.276 19.987-13.806 1.049-40.754 3.146-53.157 3.146-12.339 0-39.147-2.103-52.882-3.154-9.034-3.341-15.423-14.29-17.186-20.043m12.339-8.351c-8.153 10.578-4.848 4.639-12.339 8.351" stroke="#000" stroke-width="5"/><path d="M295.427 220.371v2.419h7.398l-.243-.67c-1.671-4.613-2.602-8.212-3.087-10.829-.489-2.634-.52-4.239-.423-4.882l.006-.037v-.038c0-.54 0-.959.034-1.303.034-.342.098-.557.189-.705.16-.262.521-.496 1.699-.609 1.153-.111 2.9-.093 5.584-.045l.924.016c2.452.045 5.581.102 9.568.107 0 2.066-.006 3.573-.081 4.683-.083 1.22-.247 1.843-.489 2.182-.202.284-.513.437-1.206.492-.456.036-.997.027-1.68.015-.26-.004-.541-.009-.846-.012v-1.712h-2.767v1.98l-2.256 1.94-.55.473.637.346 3.929 2.133c-.081 3.438-.076 6.344.109 8.413.095 1.06.24 1.937.462 2.562.11.312.252.597.446.812.202.225.477.386.816.386h6.185c.298 0 .391.012.454.045.029.016.131.077.239.433.11.358.201.935.262 1.86.061.919.092 2.153.092 3.811v.5h.5c.612 0 .979.05 1.219.158.196.088.339.229.452.551.123.353.193.882.228 1.696.031.751.031 1.697.031 2.903v.77h.5c.725 0 1.187.158 1.482.366.29.204.463.486.553.828.188.717-.011 1.639-.286 2.29l-.285.672.73.023.619.018c.968.029 1.791.054 2.491.094.848.048 1.483.118 1.955.234.472.117.719.266.857.428.13.155.22.39.22.815 0 .518-.004.848-.082 1.104-.062.206-.174.37-.471.52-.331.167-.877.307-1.793.4-.907.093-2.129.136-3.781.136h-.474l-.025.473c-.325 6.009-3.757 9.478-5.628 10.624-.779-.598-1.665-.714-2.448-.613a4.917 4.917 0 00-2.096.814l-.212.149v26.542h-7.664c-.685-.028-1.152-.165-1.484-.389-.327-.22-.578-.561-.765-1.102-.189-.551-.303-1.285-.363-2.254-.06-.965-.065-2.132-.051-3.538.005-.544.013-1.123.021-1.738.019-1.338.04-2.847.04-4.535v-.5h-2.421c-.27-.399-.643-.641-1.115-.627-.495.016-.947.32-1.304.642-.656.594-1.279 1.52-1.7 2.264h-26.671l-.15.183a15.309 15.309 0 01-6.463 4.597c-1.283.47-2.466.686-3.395.68-.965-.005-1.519-.245-1.733-.519-2.094-2.682-3.668-6.959-4.815-12.192-1.144-5.22-1.852-11.334-2.249-17.643-.779-12.389-.357-25.484.285-33.939h10.481c.416.896.879 1.693 1.496 2.369.691.756 1.555 1.339 2.717 1.756 2.289.823 5.753 1.002 11.386.622l.019-.001.018-.003c3.279-.47 5.019-.47 7.162-.47h.002c2.081 0 4.527 0 9.055-.424zm6.172 67.761c-.043.653-.215 1.225-.852 1.614-.426.26-1.106.469-2.196.512-1.087.042-2.552-.082-4.519-.458l-.046-.009h-24.367l-.02.002c-.353.028-.795-.032-1.068-.215a.568.568 0 01-.242-.317c-.042-.14-.053-.366.058-.718l.192-.604-.632-.046a3.533 3.533 0 01-1.479-.466c-.487-.293-.855-.718-.929-1.342 0-.243-.002-.477-.004-.704-.007-.754-.013-1.424.057-2.022.09-.773.299-1.309.708-1.662.396-.344 1.071-.593 2.274-.593h.16l.131-.093c.574-.412 1.333-.688 2.462-.854 1.134-.166 2.604-.216 4.577-.202 1.606.011 3.525.065 5.846.131l1.647.046c3.075.084 6.773.174 11.24.212.545.005.897.059 1.146.187.22.113.415.313.57.758.162.463.265 1.156.302 2.198.036 1.034.005 2.377-.083 4.12l-.027.525h5.094z" fill="#A5883A" fill-opacity=".5" stroke="#fff"/><path d="M315.588 260.85c.81-.57 2.784-1.368 4.197 0h10.093c.226-1.339 1.255-2.61 2.72-3.42-2.209-5.698 7.953-9.573 7.953 0 1.037 1.213 1.553 2.371 1.669 3.42h3.854c2.43 0 4.418 5.432 0 8.167-3.032 1.877-11.656 2.494-16.402 1.71-1.287-.213-2.289-.528-2.817-.95-.442.633-1.9 1.71-4.198.95h-7.069v-9.877z" fill="#000" fill-opacity=".3"/><path d="M319.785 260.85c-1.413-1.368-3.387-.57-4.197 0v9.877h7.069c2.298.76 3.756-.317 4.198-.95.528.422 1.53.737 2.817.95 4.746.784 13.37.167 16.402-1.71 4.418-2.735 2.43-8.167 0-8.167m-26.289 0c2.651 5.508 2.651 5.508 15.023 5.508 5.964 0 11.973-1.254 11.266-5.508m-26.289 0h10.093m16.196 0h-3.854m0 0c.446 4.043-5.061 6.466-9.622 4.178-2.232-1.119-2.971-2.691-2.72-4.178m12.342 0c-.116-1.049-.632-2.207-1.669-3.42 0-9.573-10.162-5.698-7.953 0-1.465.81-2.494 2.081-2.72 3.42" stroke="#000"/><path d="M329.672 270.727c4.746.784 13.371.167 16.402-1.71l3.535 3.229v3.989l1.325 3.446c26.952-3.446 49.485 7.951 73.565-24.15 2.43-2.469 8.35-8.054 12.592-10.637.707 6.23 2.651 8.168 3.534 8.358l1.768 2.279 3.534 3.799-12.371 20.351c3.1 1.607 8.393 1.514 12.371.923v14.816c-16.789-.152-30.412-.823-35.125-1.14-4.595-2.279-42.71-3.609-61.193-3.988-9.19 7.178-23.638 4.178-23.638 0v-12.727c-.397-1.291-.483-2.356-.359-3.229.372-2.621 2.638-3.514 4.06-3.609z" fill="#000" fill-opacity=".8"/><path d="M442.393 255.531c-1.944 2.887-5.818 9.434-7.511 12.347-5.396 6.65-4.538 10.139-1.326 11.803m8.837-24.15l3.534 3.799-12.371 20.351m8.837-24.15l-1.768-2.279m-7.069 26.429c3.1 1.607 8.393 1.514 12.371.923v14.816c-16.789-.152-30.412-.823-35.125-1.14-4.595-2.279-42.71-3.609-61.193-3.988-9.19 7.178-23.638 4.178-23.638 0v-12.727c-.397-1.291-.483-2.356-.359-3.229m23.997-2.09l-3.535-3.229c-3.031 1.877-11.656 2.494-16.402 1.71-1.422.095-3.688.988-4.06 3.609m23.997-2.09v3.989l1.325 3.446c26.952-3.446 49.485 7.951 73.565-24.15 2.43-2.469 8.35-8.054 12.592-10.637.707 6.23 2.651 8.168 3.534 8.358m-91.016 18.994c-3.535 7.435-22.754 5.319-23.997 2.09m18.474 5.345c0 2.063.133 4.244 6.848 2.063 0-.443 2.475-1.064 12.372 0m17.231 0c13.697 0 25.051-1.026 28.056-7.408m32.032-21.084c-4.933 7.399-14.271 22.62-12.15 24.313" stroke="#fff"/><path d="M437.091 244.894c1.178-.887 2.828-3.913 0-8.928m5.302-2.089c0 2.089.883 7.826 3.534 8.737v16.716" stroke="#000"/><path d="M376.781 218.681c-3.534 2.279-2.209 16.715 0 16.715h-4.86c-.353 5.927-2.651 9.561-4.86 8.928-1.033-.296-1.884-1.322-2.554-2.849-2.043 4.862-3.41 6.268-4.294 5.508-1.668-.737-2.954-2.75-3.872-5.508-1.86 4.862-4.674 5.698-5.186 5.508-1.533-.569-2.714-2.618-3.545-5.508-1.775 6.99-2.861 7.012-4.628 6.838-.512-.05-.993-.246-1.444-.57-6.085-4.372-6.609-32.114-.159-41.219.298-.421.611-.802.94-1.139 1.546-1.589 5.286-2.47 6.569 5.888.953-2.151 2.151-3.61 3.593-3.989 1.841-.484 3.062-.228 4.549 4.939.847-2.237 1.911-3.979 3.183-4.939 1.761-1.33 4.286 3.475 4.639 6.742.611-1.688 1.348-3.096 2.209-4.083 1.657-1.899 4.86 4.027 4.86 8.738h4.86z" fill="#000" fill-opacity=".8"/><path d="M371.921 235.396c-.353 5.927-2.651 9.561-4.86 8.928-1.033-.296-1.884-1.322-2.554-2.849m7.414-6.079c-2.474-3.039-2.209-13.676 0-16.715m0 16.715h4.86c-2.209 0-3.534-14.436 0-16.715h-4.86m0 0c0-4.711-3.203-10.637-4.86-8.738-.861.987-1.598 2.395-2.209 4.083m0 0c-.353-3.267-2.878-8.072-4.639-6.742-1.272.96-2.336 2.702-3.183 4.939m7.822 1.803c-2.812 7.765-2.968 21.463-.345 27.449m0 0c-2.043 4.862-3.41 6.268-4.294 5.508-1.668-.737-2.954-2.75-3.872-5.508m0 0c-1.86 4.862-4.674 5.698-5.186 5.508-1.533-.569-2.714-2.618-3.545-5.508m8.731 0c-2.589-7.782-2.25-21.496.689-29.252m0 0c-1.487-5.167-2.708-5.423-4.549-4.939-1.442.379-2.64 1.838-3.593 3.989m0 0c-1.283-8.358-5.023-7.477-6.569-5.888a9.405 9.405 0 00-.94 1.139c-6.45 9.105-5.926 36.847.159 41.219.451.324.932.52 1.444.57 1.767.174 2.853.152 4.628-6.838m1.278-30.202c-3.177 7.173-3.623 22.04-1.278 30.202" stroke="#fff"/><path d="M291.73 261.989c.53-4.255-.663-19.944-1.768-22.224-.736-1.519 0-.95-7.29-.95-1.59 2.432-4.934 3.166-6.406 3.23 0 19.944 0 19.944 15.464 19.944z" fill="#000" fill-opacity=".3"/><path d="M376.781 235.396c-2.209 0-3.534-14.436 0-16.715v16.715zm-39.985 12.347h4.742c-6.085-4.372-6.609-32.114-.159-41.219h-4.583c-5.014 2.92-6.586 31.355-1.569 39.51.465.756.988 1.338 1.569 1.709z" fill="#C4C4C4"/><path d="M376.781 235.396c-2.209 0-3.534-14.436 0-16.715m0 16.715s2.121-1.177 2.651-4.368m-2.651 4.368v-16.715m0 0s2.651 1.216 2.651 3.039m-42.636 26.023h4.742c-6.085-4.372-6.609-32.114-.159-41.219h-4.583c-5.014 2.92-6.586 31.355-1.569 39.51.465.756.988 1.338 1.569 1.709z" stroke="#000"/><path d="M354.469 176.702c3.256-3.799 11.267 0 8.174 4.749s-12.243 0-8.174-4.749z" fill="#000"/><path d="M354.469 176.702c3.256-3.799 11.267 0 8.174 4.749s-12.243 0-8.174-4.749zm0-14.246c3.256-3.799 11.267 0 8.174 4.749s-12.243 0-8.174-4.749zm63.844-150.249c13.785 2.28 11.929 5.002 9.278 6.078-5.522 2.243-40.604 5.585-58.984-3.229-2.65-1.271-.22-4.217 14.802-5.128-1.634-2.249 19.882-3.42 25.405-1.077 4.007.728 7.486 1.823 9.499 3.356z" fill="#000"/><path d="M298.578 197.217c-1.473-3.483 6.892-11.321 52.135-14.816m0 0c0 4.103 9.279 2.659 15.685 2.659m-15.685-2.659c0-17.361-.164-25.091 3.756-26.793m-55.891 46.927c.221-5.382 10.78-16.832 53.903-17.895m-34.905 21.314c.059-.943.762-2.147 2.429-3.419m46.393-17.475c0 6.382 0 9.497-3.755 9.497-21.296.365-33.176 3.114-39.323 6.022m43.078-15.519c3.681.886 11.087 3.039 11.267 4.559 5.67 2.532 19.308 5.812 28.498-1.33 1.104-.858 4.418-2.849 0-5.888m-28.498-25.263l.225-3.989m-.225 3.989c14.669 3.899 20.987 2.659 30.486 0m-30.486 0l-10.493-.95m10.493-45.778c0 7.294 0 7.598 2.209 7.598l-1.984 35.141m0 0c-2.229-.221-4.469-.453-6.632-.647m-16.789 3.106c.626-.273 1.357-.391 2.209-.37l10.494.95m-12.703-.58c.142-4.049 7.805-3.909 16.789-3.106m34.905 29.899c1.546 5.888-14.095 10.675-29.824 3.989v-9.118m29.824 5.129v-10.068c1.767 1.064 4.639 1.166 5.302.95 1.802-.586 2.657-.95 4.695-2.279m-8.009-13.866c5.832 0 7.511 0 11.046 2.659 4.544 3.419.966 8.595-3.037 11.207m-8.009-13.866c.589-.824 1.016-2.774-1.988-3.989l1.988-34.001 1.988-1.14v-6.035m-42.967 44.215l4.086-3.686m34.905 7.295c9.997 0 15.685 1.14 9.997 11.207m8.224-67.432l-.99 3.989c-3.888 8.51-58.984 4.369-58.984-2.659v-4.559m44.404-5.519c31.811 9.128 7.437 12.484-1.768 12.737-42.194.38-55.007-9.117-29.823-10.637m-7.953-81.559v3.3c0 1.33.221 1.677 1.105 2.28 6.406 4.368 42.018 8.395 54.565 2.469 1.065-.503 2.651-.95 2.651-5.129m-95.213 227.749h2.849c-5.017-8.155-3.445-36.59 1.569-39.51h-6.738m-6.738 0l3.535-1.709m-3.535 1.709c-1.105-.253-3.315-1.405-3.315-3.989m3.315 3.989h6.738m-6.738 0c-2.246 5.319-5.39 18.539 0 28.872m3.535-30.581c-1.768-.482-4.949-2.003-3.535-4.236m3.535 4.236l3.203 1.709m-6.738-5.945c-1.38.652-2.471 1.313-3.315 1.956m107.586-184.25c2.651-1.076 4.507-3.799-9.278-6.078m9.278 6.078c-5.522 2.243-40.604 5.585-58.984-3.229-2.65-1.271-.22-4.217 14.802-5.128m34.904 2.279c-2.013-1.533-5.492-2.628-9.499-3.356m9.499 3.356c8.154 6.21-17.821 8.486-30.044 4.988m-4.86-7.267c-1.634-2.249 19.882-3.42 25.405-1.077m-25.405 1.077c1.682 2.314 27.825 2.304 26.639-.236m-26.639.236c-2.812 3.462.662 6.97 4.86 7.267m20.545-8.344c.721.306 1.115.586 1.234.841m-1.234-.84c.424.265.84.547 1.234.84m0 0c5.073 3.78 6.591 9.513-21.779 7.503m-33.8 159.507c3.256-3.799 11.267 0 8.174 4.749s-12.243 0-8.174-4.749zm0-14.246c3.256-3.799 11.267 0 8.174 4.749s-12.243 0-8.174-4.749z" stroke="#000"/><path d="M408.814 94.824c31.811 9.128 7.437 12.484-1.768 12.737-42.194.38-55.007-9.117-29.823-10.637 10.275.614 23.019-.547 31.591-2.1zm-28.94-63.242c-1.767-.304-2.062-3.073-1.988-4.42 10.068 2.902 28.299 2.757 39.985 1.836v2.835c-8.139 2.983-25.358 3.152-37.997 2.608v-2.86zm0 22.794V51.51c-.957-.628-2.297-2.263 0-3.783 2.872-1.9 0-1.52 0-1.71 0-.19-2.872-1.367 1.326-3.608v-2.403c15.356.744 26.855-.326 34.462-2.393v7.266c0 .822-.398 2.696-1.988 3.608v.38c.589.433 1.546 1.567.663 2.643-8.455 2.342-24.987 3.318-34.463 2.866zm-1.325 18.994v-1.52c-.81-.886-1.812-3.038.662-4.558v-1.52c-.662-.696-1.59-2.355 0-3.419 1.591-1.063.663-1.456 0-1.52-.662-.19-1.723-.755-.662-1.666 5.522.386 20.059.468 34.02-2.292.536.274.704.522.681.73a.374.374 0 01-.053.153c-.116.194-.393.34-.628.416 1.591.153.663 1.583 0 2.28 1.237 1.064.516 2.09 0 2.47v.949c1.252.697 3.005 2.393 0 3.609.737.621 1.989 2.058 1.105 2.832-8.226 2.48-25.396 3.521-35.125 3.056zm33.137 3.61v4.178c0 2.28.441 4.375-.884 4.559v3.818c-8.945 2.09-23.122 2.865-31.812 2.45V83.49a4.825 4.825 0 01-.441-.432V78.24c11.493.602 25.84-.815 34.02-2.654l-.883 1.392z" fill="#000"/><path d="M408.814 94.824c31.811 9.128 7.437 12.484-1.768 12.737-42.194.38-55.007-9.117-29.823-10.637m31.591-2.1c-8.572 1.553-21.316 2.714-31.591 2.1m31.591-2.1v1.53m-31.591.57v1.52m36.027-40.84a1.27 1.27 0 00-.053.154m.053-.153a.374.374 0 01-.053.153m.053-.153c.023-.208-.145-.456-.681-.73-13.961 2.76-28.498 2.678-34.02 2.292-1.061.911 0 1.477.662 1.667.663.063 1.591.456 0 1.52-1.59 1.063-.662 2.722 0 3.418v1.52c-2.474 1.52-1.472 3.672-.662 4.559v1.52c9.73.464 26.899-.578 35.125-3.057.884-.774-.368-2.21-1.105-2.832 3.005-1.216 1.252-2.912 0-3.609v-.95c.516-.38 1.237-1.405 0-2.47.663-.696 1.591-2.127 0-2.279.235-.077.512-.222.628-.416m-2.395 27.959v3.818c-8.945 2.09-23.122 2.865-31.812 2.45V83.49m31.812 2.227c1.325-.184.884-2.28.884-4.559V76.98l.883-1.392c-8.18 1.84-22.527 3.255-34.02 2.654v4.817c.133.149.28.293.441.432m31.812 2.227c-13.205 1.831-27.478 1.522-31.812-2.227m29.824 12.864v3.989c-3.093 3.419-22.754 4.103-31.591 0v-1.9m31.591-2.089c6.995 2.596 16.789 7.94 0 8.548-9.058.328-28.498 1.785-38.218-3.989-2.43-1.444 1.546-2.09 6.627-2.47m.663-71.281c-.074 1.347.221 4.116 1.988 4.42v2.859c12.639.544 29.858.375 37.997-2.608v-2.835c-11.686.92-29.917 1.066-39.985-1.836zm37.776 12.967v4.75c0 .822-.398 2.696-1.988 3.608v.38c.589.433 1.546 1.567.663 2.643-8.455 2.342-24.987 3.318-34.463 2.866V51.51c-.957-.628-2.297-2.263 0-3.783 2.872-1.9 0-1.52 0-1.71 0-.19-2.872-1.367 1.326-3.608v-2.403c15.356.744 26.855-.326 34.462-2.393v2.516z" stroke="#fff"/><path d="M370.596 21.134c6.406 4.37 41.797 8.206 54.345 2.28 1.546 0 4.197 2.431 1.546 4.559 1.398 3.697-2.228 7.305-10.825 9.64-7.607 2.067-19.106 3.137-34.462 2.393a240.273 240.273 0 01-9.279-.636c-.985-.087-1.325-1.52-1.325-1.52 0-3.41.134-3.799 2.43-3.799 2.43 0 4.352.282 6.848.39 12.639.544 29.858.375 37.997-2.608 2.303-.843 3.878-1.912 4.419-3.253-1.323.15-2.809.291-4.419.418-11.686.92-29.917 1.066-39.985-1.836-4.558-1.314-7.443-3.253-7.29-6.027zm49.484 33.242c12.372-6.23 2.21-12.094-4.418-14.247v4.75c6.43 2.825 4.412 5.042-1.325 6.631-8.455 2.342-24.987 3.318-34.463 2.866v-1.52h-7.953c-2.295 0-2.43.39-2.43 3.799 0 0 .34 1.433 1.326 1.52 11.239 2.36 30.862.917 41.752-1.3a63.957 63.957 0 001.768-.384c2.909-.679 4.971-1.41 5.743-2.115zM369.491 77.17c-.985-.087-1.325-1.52-1.325-1.52 0-3.41.134-3.8 2.43-3.8h7.953v1.52c9.73.465 26.899-.577 35.125-3.056 5.221-1.574 6.839-3.727.663-6.441l-1.768-.95c.516-.38 1.238-1.405 0-2.47.582-.61 1.366-1.785.479-2.168-.083.031-.227.009-.479-.11.196.018.354.056.479.11.182-.068.069-.394.149-.527.014-.052.032-.103.053-.153a.36.36 0 01-.053.153c-.127.477.111.98 1.14 1.366 6.627 2.153 16.789 8.016 4.418 14.246-.811.741-3.043 1.51-6.186 2.217-8.18 1.84-22.527 3.255-34.02 2.654-3.333-.175-6.425-.519-9.058-1.072zm-.662 18.614c-.986-.086-1.326-1.52-1.326-1.52 0-3.409.134-3.798 2.43-3.798h9.058v1.52c8.689.414 22.866-.361 31.811-2.45 7.429-1.736 11.267-4.389.884-8.378V76.98c6.627 2.153 18.777 8.776 6.406 15.006-1.057.966-4.526 1.979-9.278 2.84 13.255 4.758 14.835 7.418 13.255 8.747-10.383 8.738-57.592 1.893-56.775-2.089-.052-.255.084-.579.444-.938 1.71-2.221 7.559-3.077 11.485-3.431v1.33c-5.081.38-9.057 1.025-6.627 2.469 9.72 5.774 29.16 4.317 38.218 3.989 16.789-.608 6.995-5.952 0-8.548v-1.53c-8.572 1.553-21.316 2.714-31.591 2.1a57.934 57.934 0 01-8.394-1.14z" fill="#A5883A"/><path d="M426.487 27.973c2.651-2.128 0-4.56-1.546-4.56-12.548 5.927-47.939 2.09-54.345-2.279-.153 2.775 2.732 4.714 7.29 6.028 10.068 2.902 28.299 2.757 39.985 1.836 1.61-.127 3.096-.268 4.419-.418m4.197-.607c-1.08.208-2.505.415-4.197.607m4.197-.607c1.398 3.697-2.228 7.305-10.825 9.64-7.607 2.067-19.106 3.137-34.462 2.393a240.273 240.273 0 01-9.279-.636c-.985-.087-1.325-1.52-1.325-1.52 0-3.41.134-3.799 2.43-3.799 2.43 0 4.352.282 6.848.39 12.639.544 29.858.375 37.997-2.608 2.303-.843 3.878-1.912 4.419-3.253m-43.299 61.886h-9.058c-2.296 0-2.43.39-2.43 3.799 0 0 .34 1.433 1.326 1.52 2.457.515 5.315.955 8.394 1.139 10.275.614 23.019-.547 31.591-2.1m-29.823-4.358c-3.19 0-2.872 1.382 0 1.52m0-1.52v1.52m34.206-34.228c.014-.052.032-.103.053-.153a.36.36 0 01-.053.153zm0 0c-.127.477.111.98 1.14 1.366 6.627 2.153 16.789 8.016 4.418 14.246-.811.741-3.043 1.51-6.186 2.217-8.18 1.84-22.527 3.255-34.02 2.654-3.333-.175-6.425-.519-9.058-1.072-.985-.086-1.325-1.52-1.325-1.52 0-3.409.134-3.798 2.43-3.798h7.953v1.52c9.73.464 26.899-.578 35.125-3.057 5.221-1.574 6.839-3.727.663-6.441l-1.768-.95c.516-.38 1.238-1.405 0-2.47.663-.696 1.591-2.127 0-2.279.803.38.512-.222.628-.416zm-34.206 34.227c8.689.415 22.866-.36 31.811-2.45 7.429-1.735 11.267-4.388.884-8.377V76.98c6.627 2.153 18.777 8.776 6.406 15.006-1.057.966-4.526 1.979-9.278 2.84m0 0v1.53c6.995 2.595 16.789 7.939 0 8.547-9.058.328-28.498 1.785-38.218-3.989-2.43-1.444 1.546-2.09 6.627-2.47v-1.33m31.591-2.289c13.255 4.76 14.835 7.419 13.255 8.748-10.383 8.738-57.592 1.893-56.775-2.089m0 0c.601-2.928 7.493-3.969 11.929-4.37m-11.929 4.37c-.221-1.072 2.916-3.376 11.929-4.37m38.439-56.984c6.628 2.153 16.79 8.016 4.418 14.247-.772.705-2.834 1.436-5.743 2.115-.559.13-1.149.258-1.768.384-10.89 2.217-30.513 3.66-41.752 1.3-.986-.087-1.326-1.52-1.326-1.52 0-3.41.135-3.8 2.43-3.8h7.953v1.52c9.476.453 26.008-.523 34.463-2.865 5.737-1.589 7.755-3.806 1.325-6.632V40.13z" stroke="#000"/><path d="M289.3 155.618l12.592 4.179c2.031.502 9.592 9.327 14.204 28.302h-14.204l-10.383-11.207-14.914-5.318c1.471-3.842 3.139-7.039 4.973-9.571 2.334-3.224 4.934-5.367 7.732-6.385z" fill="#414141"/><path d="M301.892 159.797l-12.592-4.179c-2.798 1.018-5.398 3.161-7.732 6.385m20.324-2.206c-4.861-1.202-5.917 1.392-9.486 6.838m9.486-6.838c2.031.502 9.592 9.327 14.204 28.302h-14.204l-10.383-11.207m0 0l-14.914-5.318c1.471-3.842 3.139-7.039 4.973-9.571m9.941 14.889l.448-5.128.449-5.129m0 0l-3.106-1.899-7.732-2.733" stroke="#fff"/><path d="M288.416 292.761c-23.196-18.995-17.231-117.008-2.982-129.392l3.866 1.367c-19.441 23.933-11.803 118.337 2.43 126.296-.177 1.352-1.326 1.729-3.314 1.729z" fill="#000" fill-opacity=".3" stroke="#fff"/><path d="M299.461 292.761c3.02-.633 20.325-29.822 20.325-71.041 0-13.547-1.522-24.698-3.691-33.621m-16.634 104.662c-5.794 1.215-17.893-22.414-17.893-71.041 0-29.829 5.341-46.697 10.838-55.085l-3.107-1.899m10.162 128.025c-1.325.278-3.092 0-5.081 0-.914-.374-1.799-.956-2.651-1.729m-6.295-127.663c-14.249 12.384-20.214 110.397 2.982 129.392m0 0h-3.756c-11.929-10.637-15.022-32.291-15.022-70.851 0-22.01 4.122-42.928 6.957-50.336 1.47-3.842 3.139-7.039 4.973-9.571l7.731 2.733m-.883 128.025c1.988 0 3.137-.376 3.313-1.729m-2.43-126.296c-19.44 23.933-11.802 118.338 2.43 126.296" stroke="#000" stroke-opacity=".3"/><path d="M298.357 197.787H262.79c-4.065 3.647-4.05 11.523-3.535 15.006h31.149c5.965 0 7.953-5.319 7.953-15.006z" fill="#A5883A" fill-opacity=".3"/><path d="M298.357 197.787H262.79c-4.065 3.647-4.05 11.523-3.535 15.006h31.149c5.965 0 7.953-5.319 7.953-15.006z" fill="#A5883A" fill-opacity=".3"/><path d="M298.357 197.787H262.79c-4.065 3.647-4.05 11.523-3.535 15.006h31.149c5.965 0 7.953-5.319 7.953-15.006z" fill="#A5883A" fill-opacity=".3"/><path d="M298.357 197.787H262.79c-4.065 3.647-4.05 11.523-3.535 15.006h31.149c5.965 0 7.953-5.319 7.953-15.006z" stroke="#fff"/><path d="M298.357 197.787H262.79c-4.065 3.647-4.05 11.523-3.535 15.006h31.149c5.965 0 7.953-5.319 7.953-15.006z" stroke="#fff"/><path d="M298.357 197.787H262.79c-4.065 3.647-4.05 11.523-3.535 15.006h31.149c5.965 0 7.953-5.319 7.953-15.006z" stroke="#fff"/><path d="M289.299 201.776H262.79v3.798h25.184l1.325-3.798z" fill="#000" fill-opacity=".3"/><path d="M232.083 1c-22.312 8.548-38.439 39.51-48.014 73.7-.519 2.85 2.788 3.04 3.831 0 6.849-19.945 19.352-19.945 52.578-19.945h97.864" stroke="#000" stroke-width="2"/><path opacity=".25" d="M333.703 86.287H184.366m0 0H33.04v113.589m151.326-113.59V77.93m0 8.358v9.497h11.487v17.096h-90.795v95.354M33.04 77.929h151.326m0 0h149.337m-149.337 0V51.906m154.197 33.051v11.967m0 0v17.285m0-17.285h24.964m0 7.788v-7.788m0 0V84.957m-24.964 254.341h122.828v26.593H267.429m71.134-26.593v-29.822h-74.668v-8.927m74.668 38.749v54.515H196.295v-54.515h-91.237v-86.806m162.371 113.399L461.391 4.609M267.429 365.891v-65.342m0 65.342H33.039v-109.03m234.39 109.03l132.769 27.922m-132.769-27.922l-3.755 6.838m3.755-6.838v6.838m-53.461-11.967v69.142h105.818v-69.142m-52.357-60.213h-3.534m3.534 0v-111.31m-3.534 111.31V147.361h17.894v44.727" stroke="#000"/><path d="M316.03 428.574l3.535 1.33-1.768.759-1.767.76m18.999-38.939l3.534 1.329-1.767.76-1.767.76" stroke="#000"/><path d="M228.383 441.378c0-.591-.208-1.057-.623-1.399-.415-.347-1.174-.674-2.278-.981-1.103-.313-1.909-.652-2.417-1.019-.722-.517-1.084-1.196-1.084-2.036 0-.815.335-1.477 1.004-1.985.674-.512 1.533-.769 2.578-.769.708 0 1.34.137 1.897.411a3.11 3.11 0 011.304 1.142c.307.488.461 1.033.461 1.633h-.908c0-.727-.249-1.311-.747-1.75-.498-.444-1.167-.667-2.007-.667-.815 0-1.465.184-1.948.55-.484.361-.725.835-.725 1.421 0 .542.217.984.652 1.325.434.342 1.13.645 2.087.909.957.258 1.682.529 2.175.813.493.278.864.612 1.113 1.003.25.391.374.852.374 1.384 0 .84-.337 1.514-1.011 2.022-.669.508-1.552.761-2.651.761a5.242 5.242 0 01-2.073-.402c-.625-.269-1.101-.645-1.428-1.128a2.932 2.932 0 01-.483-1.663h.9c0 .752.281 1.345.843 1.78.561.434 1.308.652 2.241.652.83 0 1.496-.183 1.999-.55.503-.366.755-.852.755-1.457zm5.72 2.768a3.459 3.459 0 01-1.831-.498 3.407 3.407 0 01-1.267-1.384c-.303-.596-.454-1.262-.454-1.999v-.315c0-.762.146-1.448.439-2.058a3.528 3.528 0 011.238-1.436 3.026 3.026 0 011.714-.527c.962 0 1.724.329 2.285.988.566.655.85 1.551.85 2.688v.491h-5.655v.169c0 .898.257 1.648.769 2.248.518.596 1.167.894 1.949.894.468 0 .881-.086 1.237-.257.362-.171.689-.444.982-.82l.549.418c-.644.932-1.579 1.398-2.805 1.398zm-.161-7.47a2.2 2.2 0 00-1.67.725c-.449.483-.723 1.133-.82 1.948h4.753v-.095c-.024-.762-.242-1.382-.652-1.86-.41-.479-.947-.718-1.611-.718zm7.771 6.731c.61 0 1.12-.171 1.531-.513.415-.347.639-.793.673-1.34h.843a2.506 2.506 0 01-.454 1.325c-.279.396-.65.706-1.114.931a3.327 3.327 0 01-1.479.336c-1.04 0-1.865-.361-2.476-1.084-.605-.722-.908-1.694-.908-2.915v-.263c0-.781.137-1.472.41-2.073.274-.601.664-1.064 1.172-1.392.513-.327 1.111-.49 1.795-.49.869 0 1.584.259 2.146.776.566.518.869 1.199.908 2.044h-.843c-.039-.621-.263-1.121-.673-1.502-.406-.381-.918-.571-1.538-.571-.791 0-1.407.285-1.846.857-.435.571-.652 1.372-.652 2.402v.256c0 1.011.217 1.8.652 2.366.439.567 1.057.85 1.853.85zm6.167-9.361v2.029h1.641v.718h-1.641v5.281c0 .439.078.766.234.981.161.215.428.322.799.322.146 0 .383-.024.71-.073l.037.718c-.23.083-.542.124-.938.124-.6 0-1.037-.173-1.311-.52-.273-.351-.41-.866-.41-1.545v-5.288h-1.458v-.718h1.458v-2.029h.879zm4.438 9.954h-.879v-7.925h.879V444zm-1.032-10.217a.58.58 0 01.161-.418.567.567 0 01.439-.176c.186 0 .332.059.44.176a.57.57 0 01.168.418.566.566 0 01-.168.417.582.582 0 01-.44.169.58.58 0 01-.439-.169.576.576 0 01-.161-.417zm2.937 6.137c0-.761.146-1.447.439-2.058a3.385 3.385 0 011.253-1.421 3.378 3.378 0 011.838-.512c1.055 0 1.909.371 2.563 1.113.655.737.982 1.716.982 2.937v.183c0 .767-.149 1.458-.447 2.073a3.29 3.29 0 01-1.245 1.413c-.537.332-1.15.498-1.838.498-1.05 0-1.905-.368-2.564-1.105-.654-.743-.981-1.724-.981-2.945v-.176zm.879.242c0 .947.244 1.726.732 2.337.493.605 1.138.908 1.934.908.791 0 1.43-.303 1.919-.908.493-.611.739-1.414.739-2.41v-.169c0-.605-.112-1.159-.337-1.662-.224-.503-.539-.891-.944-1.165a2.405 2.405 0 00-1.392-.417c-.781 0-1.419.307-1.912.923-.493.61-.739 1.411-.739 2.402v.161zm8.847-4.087l.03 1.355a3.106 3.106 0 011.113-1.113 2.869 2.869 0 011.472-.388c.85 0 1.482.239 1.897.717.415.479.625 1.197.63 2.154v5.2h-.872v-5.208c-.005-.708-.156-1.235-.454-1.582-.293-.346-.764-.52-1.413-.52-.542 0-1.023.171-1.443.513-.415.337-.723.794-.923 1.37V444h-.872v-7.925h.835zm13.235 5.047l.33 1.655.403-1.582 2.314-7.859h.813l2.285 7.859.396 1.597.351-1.67 1.926-7.786h.923L284.193 444h-.864l-2.417-8.342-.271-1.055-.264 1.055-2.475 8.342h-.864l-2.725-10.664h.923l1.948 7.786zM289.438 444h-.879v-7.925h.879V444zm-1.033-10.217a.58.58 0 01.161-.418.567.567 0 01.439-.176c.186 0 .332.059.44.176a.57.57 0 01.168.418.566.566 0 01-.168.417.582.582 0 01-.44.169.58.58 0 01-.439-.169.576.576 0 01-.161-.417zm3.069 6.181c0-1.23.273-2.209.82-2.937.552-.732 1.299-1.098 2.241-1.098 1.069 0 1.885.422 2.446 1.267v-4.446h.872V444h-.82l-.037-1.055c-.561.801-1.387 1.201-2.475 1.201-.914 0-1.651-.366-2.212-1.098-.557-.737-.835-1.731-.835-2.981v-.103zm.886.154c0 1.011.202 1.809.608 2.395.405.581.976.872 1.714.872 1.079 0 1.845-.476 2.299-1.428v-3.721c-.454-1.03-1.215-1.546-2.285-1.546-.737 0-1.311.291-1.721.872-.41.576-.615 1.428-.615 2.556zm9.162-6.072v2.029h1.641v.718h-1.641v5.281c0 .439.079.766.235.981.161.215.427.322.798.322.147 0 .383-.024.711-.073l.036.718c-.229.083-.542.124-.937.124-.601 0-1.038-.173-1.311-.52-.274-.351-.41-.866-.41-1.545v-5.288h-1.458v-.718h1.458v-2.029h.878zm4.329 3.37c.288-.474.657-.84 1.106-1.099.449-.259.94-.388 1.472-.388.85 0 1.482.239 1.897.717.415.479.625 1.197.63 2.154v5.2h-.872v-5.208c-.004-.708-.156-1.235-.454-1.582-.293-.346-.764-.52-1.413-.52-.542 0-1.023.171-1.443.513-.415.337-.723.794-.923 1.37V444h-.872v-11.25h.872v4.666zm104.667-39.741c0-.591-.207-1.057-.622-1.399-.416-.346-1.175-.674-2.278-.981-1.104-.313-1.91-.652-2.417-1.018-.723-.518-1.084-1.196-1.084-2.036 0-.816.334-1.477 1.003-1.985.674-.513 1.533-.769 2.578-.769.708 0 1.341.136 1.897.41.562.273.996.654 1.304 1.142a3 3 0 01.461 1.634h-.908c0-.728-.249-1.311-.747-1.751-.498-.444-1.167-.666-2.007-.666-.815 0-1.465.183-1.948.549-.483.361-.725.835-.725 1.421 0 .542.217.984.652 1.326.434.341 1.13.644 2.087.908.957.259 1.682.53 2.175.813.494.278.865.613 1.114 1.003.249.391.373.852.373 1.385 0 .839-.337 1.513-1.01 2.021-.669.508-1.553.762-2.652.762a5.225 5.225 0 01-2.073-.403c-.625-.269-1.101-.645-1.428-1.128-.322-.483-.483-1.038-.483-1.663h.901c0 .752.28 1.346.842 1.78.561.435 1.309.652 2.241.652.83 0 1.497-.183 2-.549.503-.366.754-.852.754-1.458zm5.581 2.029c.61 0 1.121-.171 1.531-.513.415-.346.64-.793.674-1.34h.842a2.504 2.504 0 01-.454 1.326c-.278.395-.65.705-1.113.93a3.333 3.333 0 01-1.48.337c-1.04 0-1.865-.362-2.475-1.084-.606-.723-.909-1.695-.909-2.915v-.264c0-.781.137-1.472.41-2.073.274-.6.665-1.064 1.172-1.391.513-.327 1.111-.491 1.795-.491.869 0 1.584.259 2.146.776.566.518.869 1.199.908 2.044h-.842c-.039-.62-.264-1.121-.674-1.502-.405-.38-.918-.571-1.538-.571-.791 0-1.406.286-1.846.857-.434.571-.652 1.372-.652 2.402v.257c0 1.01.218 1.799.652 2.365.44.567 1.057.85 1.853.85zm8.467-6.584a3.2 3.2 0 00-.593-.052c-.547 0-1.011.154-1.392.462-.376.302-.644.744-.806 1.325v5.442h-.871v-7.925h.857l.014 1.26c.464-.937 1.209-1.406 2.234-1.406.244 0 .437.032.579.095l-.022.799zm6.489 6.174c-.527.766-1.369 1.15-2.527 1.15-.844 0-1.486-.244-1.926-.733-.439-.493-.664-1.22-.674-2.182v-5.157h.872v5.047c0 1.509.61 2.263 1.831 2.263 1.269 0 2.073-.525 2.41-1.575v-5.735h.878v7.925h-.849l-.015-1.003zm9.529-2.879c0 1.236-.273 2.217-.82 2.945-.547.722-1.282 1.084-2.205 1.084-1.103 0-1.938-.41-2.505-1.231l-.036 1.084h-.821v-11.25h.872v4.475c.556-.864 1.382-1.296 2.475-1.296.938 0 1.678.359 2.22 1.077.547.713.82 1.706.82 2.981v.131zm-.879-.153c0-1.045-.203-1.851-.608-2.417-.405-.572-.976-.857-1.714-.857-.561 0-1.037.139-1.428.417-.391.274-.686.676-.886 1.209v3.574c.439.996 1.216 1.494 2.329 1.494.723 0 1.287-.286 1.692-.857.41-.571.615-1.426.615-2.563zm10.129-3.142a3.193 3.193 0 00-.593-.052c-.547 0-1.011.154-1.391.462-.376.302-.645.744-.806 1.325v5.442h-.872v-7.925h.857l.015 1.26c.464-.937 1.208-1.406 2.234-1.406.244 0 .437.032.578.095l-.022.799zm6.102 7.177c-.088-.249-.144-.617-.169-1.106a3.087 3.087 0 01-1.179.931 3.626 3.626 0 01-1.509.322c-.762 0-1.379-.213-1.853-.637-.469-.425-.703-.962-.703-1.612 0-.771.32-1.382.959-1.831.645-.449 1.541-.674 2.688-.674h1.59v-.901c0-.566-.176-1.01-.528-1.333-.346-.327-.854-.49-1.523-.49-.61 0-1.116.156-1.516.469-.401.312-.601.688-.601 1.127l-.879-.007c0-.63.293-1.174.879-1.633.586-.464 1.306-.696 2.161-.696.884 0 1.58.222 2.087.667.513.439.777 1.054.791 1.845v3.75c0 .767.081 1.341.242 1.721v.088h-.937zm-2.754-.63c.586 0 1.108-.141 1.567-.424a2.498 2.498 0 001.011-1.136v-1.743h-1.568c-.874.01-1.557.171-2.05.484-.494.307-.74.732-.74 1.274 0 .444.163.813.491 1.106.332.293.761.439 1.289.439zm5.442-3.405c0-1.231.273-2.21.82-2.937.552-.733 1.299-1.099 2.241-1.099 1.069 0 1.885.422 2.446 1.267v-4.446h.872v11.25h-.82l-.037-1.054c-.562.8-1.387 1.201-2.476 1.201-.913 0-1.65-.366-2.212-1.099-.556-.737-.834-1.731-.834-2.981v-.102zm.886.153c0 1.011.202 1.81.608 2.395.405.582.976.872 1.714.872 1.079 0 1.845-.476 2.299-1.428v-3.721c-.454-1.03-1.215-1.545-2.285-1.545-.737 0-1.311.29-1.721.871-.41.576-.615 1.429-.615 2.556zm8.782 3.882h-.879v-7.925h.879v7.925zm-1.033-10.217a.576.576 0 01.6-.593c.186 0 .332.058.44.176a.566.566 0 01.168.417.579.579 0 01-.608.586.576.576 0 01-.439-.169.576.576 0 01-.161-.417zm8.518 9.214c-.527.766-1.37 1.15-2.527 1.15-.845 0-1.487-.244-1.926-.733-.44-.493-.664-1.22-.674-2.182v-5.157h.871v5.047c0 1.509.611 2.263 1.832 2.263 1.269 0 2.072-.525 2.409-1.575v-5.735h.879v7.925h-.849l-.015-1.003zm7.895-1.011c0-.434-.175-.784-.527-1.047-.347-.264-.872-.469-1.575-.615-.703-.152-1.25-.323-1.64-.513-.386-.195-.674-.432-.865-.711-.185-.278-.278-.615-.278-1.01 0-.625.261-1.14.784-1.546.522-.41 1.191-.615 2.007-.615.883 0 1.591.22 2.124.659.537.435.805 1.004.805 1.707h-.879c0-.464-.195-.85-.586-1.157-.385-.308-.874-.462-1.464-.462-.577 0-1.04.129-1.392.388-.347.254-.52.586-.52.996 0 .396.144.703.432.923.293.215.823.413 1.59.593.771.181 1.347.374 1.728.579.386.205.671.452.857.74.185.288.278.637.278 1.047 0 .669-.271 1.204-.813 1.604-.537.401-1.24.601-2.109.601-.923 0-1.672-.222-2.249-.667-.571-.449-.857-1.015-.857-1.699h.879c.035.513.249.913.645 1.201.4.283.928.425 1.582.425.61 0 1.103-.134 1.479-.403.376-.268.564-.608.564-1.018zm-244.124 5.17h-3.098v4.439h-.908v-10.664h3.464c1.138 0 2.027.276 2.666.827.64.552.96 1.324.96 2.315 0 .683-.2 1.286-.601 1.809-.4.522-.937.884-1.611 1.084l2.666 4.534v.095h-.96l-2.578-4.439zm-3.098-.769h2.761c.757 0 1.365-.215 1.824-.644.459-.43.689-.987.689-1.67 0-.752-.24-1.336-.718-1.751-.479-.415-1.15-.622-2.014-.622h-2.542v4.687zm9.412 5.208h-.879v-7.925h.879v7.925zm-1.033-10.217c0-.166.054-.306.161-.418a.569.569 0 01.44-.176c.185 0 .332.059.439.176a.57.57 0 01.169.418.58.58 0 01-.608.585.582.582 0 01-.44-.168.58.58 0 01-.161-.417zm4.219 2.292l.029 1.289c.293-.478.659-.837 1.099-1.077a3.015 3.015 0 011.465-.358c1.25 0 2.043.512 2.38 1.538a2.95 2.95 0 011.135-1.136 3.129 3.129 0 011.568-.402c1.699 0 2.566.927 2.6 2.783v5.288h-.879v-5.222c-.005-.708-.159-1.233-.462-1.575-.297-.342-.786-.513-1.464-.513-.63.01-1.163.215-1.597.616a2.144 2.144 0 00-.725 1.45v5.244h-.879v-5.288c-.005-.679-.166-1.184-.484-1.516-.312-.337-.795-.506-1.45-.506-.551 0-1.025.159-1.421.476-.395.313-.688.779-.879 1.399v5.435h-.878v-7.925h.842zm18.325 5.046l.33 1.656.402-1.582 2.315-7.859h.813l2.285 7.859.396 1.596.351-1.67 1.926-7.785h.923l-2.732 10.664h-.864l-2.417-8.342-.271-1.055-.264 1.055-2.475 8.342h-.864l-2.725-10.664h.923l1.948 7.785zm12.253 2.879h-.878v-7.925h.878v7.925zm-1.032-10.217a.579.579 0 01.6-.594c.186 0 .332.059.44.176a.568.568 0 01.168.418.566.566 0 01-.168.417.582.582 0 01-.44.168.58.58 0 01-.439-.168.576.576 0 01-.161-.417zm3.069 6.181c0-1.23.273-2.209.82-2.937.552-.732 1.299-1.098 2.241-1.098 1.069 0 1.885.422 2.446 1.267v-4.446h.872v11.25h-.82l-.037-1.055c-.561.801-1.387 1.201-2.476 1.201-.913 0-1.65-.366-2.211-1.098-.557-.738-.835-1.731-.835-2.981v-.103zm.886.154c0 1.011.202 1.809.608 2.395.405.581.976.872 1.714.872 1.079 0 1.845-.476 2.299-1.429v-3.72c-.454-1.031-1.215-1.546-2.285-1.546-.737 0-1.311.291-1.721.872-.41.576-.615 1.428-.615 2.556zm9.162-6.072v2.029h1.641v.718h-1.641v5.281c0 .439.079.766.235.981.161.215.427.322.798.322.147 0 .383-.024.711-.073l.036.718c-.229.083-.542.124-.937.124-.601 0-1.038-.173-1.311-.52-.274-.351-.41-.866-.41-1.545v-5.288h-1.458v-.718h1.458v-2.029h.878zm4.329 3.369a3.1 3.1 0 011.106-1.098c.449-.259.94-.388 1.472-.388.85 0 1.482.239 1.897.717.415.479.625 1.197.63 2.154v5.2h-.872v-5.208c-.004-.708-.156-1.235-.454-1.582-.293-.346-.764-.52-1.413-.52-.542 0-1.023.171-1.443.513-.415.337-.723.793-.923 1.37v5.427h-.872v-11.25h.872v4.665zm174.799-46.79c-1.206-.347-2.085-.772-2.636-1.275a2.456 2.456 0 01-.821-1.875c0-.839.335-1.533 1.004-2.08.674-.551 1.548-.827 2.622-.827.732 0 1.384.141 1.955.425.577.283 1.021.673 1.333 1.171.318.498.476 1.043.476 1.634h-1.413c0-.645-.205-1.15-.615-1.516-.411-.372-.989-.557-1.736-.557-.694 0-1.236.154-1.626.461-.386.303-.579.725-.579 1.267 0 .435.183.804.55 1.106.371.298.998.572 1.882.821.889.249 1.582.525 2.08.827.503.298.874.647 1.113 1.048.244.4.366.871.366 1.413 0 .865-.336 1.558-1.01 2.08-.674.518-1.575.777-2.703.777a5.043 5.043 0 01-2.051-.418c-.634-.283-1.125-.669-1.472-1.157a2.827 2.827 0 01-.513-1.663h1.414c0 .645.237 1.155.71 1.531.479.371 1.116.557 1.912.557.742 0 1.311-.152 1.707-.454.395-.303.593-.716.593-1.238 0-.523-.183-.925-.549-1.209-.367-.288-1.031-.571-1.993-.849zm7.024 4.753h-1.355v-7.925h1.355v7.925zm-1.465-10.027c0-.219.066-.405.198-.556.137-.152.337-.227.601-.227.263 0 .464.075.6.227a.798.798 0 01.205.556c0 .22-.068.403-.205.55-.136.146-.337.219-.6.219-.264 0-.464-.073-.601-.219a.792.792 0 01-.198-.55zm3.311 5.999c0-1.216.288-2.192.864-2.93.576-.742 1.331-1.113 2.263-1.113.928 0 1.663.317 2.205.952v-4.131h1.355v11.25h-1.245l-.066-.849c-.542.664-1.296.996-2.263.996-.918 0-1.668-.376-2.249-1.128-.576-.752-.864-1.734-.864-2.945v-.102zm1.355.154c0 .898.186 1.601.557 2.109.371.508.883.762 1.538.762.859 0 1.487-.386 1.882-1.157v-3.641c-.405-.747-1.028-1.12-1.868-1.12-.664 0-1.181.256-1.552.769s-.557 1.272-.557 2.278zm10.73 4.021c-1.074 0-1.948-.352-2.622-1.055-.674-.708-1.011-1.653-1.011-2.834v-.249c0-.787.149-1.487.447-2.102a3.52 3.52 0 011.26-1.451 3.173 3.173 0 011.757-.527c1.031 0 1.832.339 2.403 1.018s.857 1.65.857 2.915v.564h-5.369c.02.781.247 1.414.681 1.897.44.479.996.718 1.67.718.479 0 .884-.098 1.216-.293.332-.195.623-.454.872-.777l.827.645c-.664 1.02-1.66 1.531-2.988 1.531zm-.169-7.105a1.8 1.8 0 00-1.376.601c-.372.395-.601.952-.689 1.67h3.97v-.103c-.039-.688-.225-1.22-.557-1.596-.332-.381-.781-.572-1.348-.572zm11.851 5.091l1.524-6.058h1.354l-2.307 7.925h-1.098l-1.927-6.006-1.875 6.006h-1.098l-2.3-7.925h1.348l1.56 5.933 1.845-5.933h1.092l1.882 6.058zm9.155 1.867c-.078-.156-.141-.434-.19-.835-.63.655-1.382.982-2.256.982-.781 0-1.423-.22-1.926-.659-.498-.445-.747-1.006-.747-1.685 0-.825.312-1.465.937-1.919.63-.459 1.514-.688 2.652-.688h1.318v-.623c0-.474-.142-.85-.425-1.128-.283-.283-.701-.425-1.252-.425-.484 0-.889.122-1.216.366-.327.245-.491.54-.491.887h-1.362c0-.396.139-.777.417-1.143a2.9 2.9 0 011.143-.879 3.864 3.864 0 011.589-.322c.913 0 1.629.229 2.146.688.518.455.786 1.082.806 1.883v3.647c0 .728.093 1.306.278 1.736v.117h-1.421zm-2.248-1.032c.425 0 .827-.11 1.208-.33.381-.22.657-.505.828-.857v-1.626h-1.062c-1.66 0-2.49.486-2.49 1.458 0 .424.141.756.425.996.283.239.646.359 1.091.359zm6.987 1.032h-1.355v-11.25h1.355v11.25zm3.648 0h-1.355v-11.25h1.355v11.25zm7.251-6.965c.6-.737 1.381-1.106 2.343-1.106 1.675 0 2.52.945 2.534 2.834v5.237h-1.354v-5.244c-.005-.571-.137-.994-.396-1.267-.254-.273-.652-.41-1.194-.41-.439 0-.825.117-1.157.351a2.386 2.386 0 00-.776.923v5.647h-1.355v-11.25h1.355v4.285zm8.378 6.965h-1.355v-7.925h1.355v7.925zm-1.464-10.027a.82.82 0 01.197-.556c.137-.152.337-.227.601-.227.264 0 .464.075.601.227a.803.803 0 01.205.556.78.78 0 01-.205.55c-.137.146-.337.219-.601.219-.264 0-.464-.073-.601-.219a.796.796 0 01-.197-.55zm3.317 5.999c0-1.235.286-2.217.857-2.944.572-.733 1.329-1.099 2.271-1.099.967 0 1.721.342 2.263 1.025l.066-.879h1.238v7.735c0 1.025-.305 1.833-.916 2.424-.605.591-1.421.886-2.446.886-.571 0-1.13-.122-1.677-.366-.547-.244-.965-.578-1.253-1.003l.703-.813c.582.718 1.292 1.076 2.132 1.076.659 0 1.172-.185 1.538-.556.371-.371.557-.894.557-1.568v-.681c-.542.625-1.282.938-2.22.938-.927 0-1.679-.374-2.256-1.121-.571-.747-.857-1.765-.857-3.054zm1.363.154c0 .893.183 1.596.549 2.109.366.508.879.762 1.538.762.855 0 1.482-.388 1.883-1.165v-3.618c-.416-.757-1.038-1.135-1.868-1.135-.659 0-1.174.256-1.546.769-.371.513-.556 1.272-.556 2.278zm8.738-3.091c.6-.737 1.381-1.106 2.343-1.106 1.675 0 2.52.945 2.535 2.834v5.237h-1.355v-5.244c-.005-.571-.137-.994-.396-1.267-.254-.273-.652-.41-1.194-.41-.439 0-.825.117-1.157.351a2.386 2.386 0 00-.776.923v5.647h-1.355v-11.25h1.355v4.285zm8.745-2.878v1.918h1.479v1.048h-1.479v4.914c0 .318.066.557.197.718.132.156.357.235.674.235.157 0 .371-.03.645-.088v1.098a3.918 3.918 0 01-1.04.147c-.606 0-1.062-.183-1.37-.55-.307-.366-.461-.886-.461-1.56v-4.914h-1.443v-1.048h1.443v-1.918h1.355zm-207.377-13.589v-10.664h3.15c1.142 0 2.009.237 2.6.71.591.469.886 1.162.886 2.08 0 .552-.151 1.033-.454 1.443-.298.405-.708.696-1.231.872.621.137 1.119.442 1.495.915a2.55 2.55 0 01.571 1.641c0 .942-.305 1.68-.916 2.212-.605.527-1.45.791-2.534.791h-3.567zm.901-5.127v4.365h2.703c.771 0 1.382-.195 1.831-.586.454-.395.681-.942.681-1.64 0-.66-.217-1.18-.652-1.56-.43-.386-1.025-.579-1.787-.579h-2.776zm0-.754h2.461c.752-.015 1.333-.191 1.743-.528.415-.342.623-.837.623-1.487 0-.683-.215-1.186-.645-1.508-.425-.328-1.069-.491-1.933-.491h-2.249v4.014zm13.096 5.881c-.088-.249-.144-.618-.169-1.106-.307.4-.7.71-1.179.93a3.604 3.604 0 01-1.509.322c-.761 0-1.379-.212-1.853-.637-.468-.425-.703-.962-.703-1.611 0-.772.32-1.382.96-1.831.644-.449 1.54-.674 2.688-.674h1.589v-.901c0-.566-.176-1.011-.527-1.333-.347-.327-.855-.491-1.524-.491-.61 0-1.115.157-1.516.469-.4.313-.6.689-.6 1.128l-.879-.007c0-.63.293-1.175.879-1.634.585-.463 1.306-.695 2.16-.695.884 0 1.58.222 2.088.666.512.44.776 1.055.791 1.846v3.75c0 .766.08 1.34.241 1.721v.088h-.937zm-2.754-.63c.586 0 1.108-.142 1.567-.425a2.49 2.49 0 001.011-1.135v-1.743h-1.567c-.874.01-1.558.171-2.051.483-.493.308-.74.733-.74 1.275 0 .444.164.813.491 1.106.332.293.762.439 1.289.439zm8.723.037c.61 0 1.121-.171 1.531-.513.415-.347.639-.794.674-1.34h.842a2.497 2.497 0 01-.454 1.325c-.278.396-.65.706-1.113.93a3.319 3.319 0 01-1.48.337c-1.04 0-1.865-.361-2.476-1.084-.605-.722-.908-1.694-.908-2.915v-.263c0-.782.137-1.472.41-2.073.274-.601.664-1.065 1.172-1.392.513-.327 1.111-.49 1.795-.49.869 0 1.584.258 2.146.776.566.518.869 1.199.908 2.043h-.842c-.039-.62-.264-1.12-.674-1.501-.405-.381-.918-.571-1.538-.571-.791 0-1.407.285-1.846.857-.435.571-.652 1.372-.652 2.402v.256c0 1.011.217 1.8.652 2.366.439.566 1.057.85 1.853.85zm6.687-3.399l-1.003.967v3.025h-.879v-11.25h.879v7.2l.827-.894 3.033-2.981h1.105l-3.361 3.34 3.654 4.585h-1.047l-3.208-3.992zm10.217 1.978c0-.435-.175-.784-.527-1.048-.347-.263-.872-.468-1.575-.615-.703-.151-1.25-.322-1.64-.513-.386-.195-.674-.432-.865-.71-.185-.278-.278-.615-.278-1.011 0-.625.261-1.14.784-1.545.522-.41 1.191-.615 2.007-.615.883 0 1.591.219 2.124.659.537.434.805 1.003.805 1.706h-.879c0-.464-.195-.849-.586-1.157-.385-.308-.874-.461-1.464-.461-.577 0-1.04.129-1.392.388-.347.254-.52.586-.52.996 0 .395.144.703.432.923.293.215.823.412 1.589.593.772.181 1.348.374 1.729.579.386.205.671.451.857.739.185.289.278.638.278 1.048 0 .669-.271 1.203-.813 1.604-.537.4-1.24.6-2.109.6-.923 0-1.672-.222-2.249-.666-.571-.449-.857-1.016-.857-1.699h.879c.035.512.249.913.645 1.201.4.283.928.425 1.582.425.61 0 1.103-.135 1.479-.403.376-.269.564-.608.564-1.018zm9.229-1.868c0 1.235-.274 2.217-.82 2.944-.547.723-1.28 1.084-2.198 1.084-1.084 0-1.914-.38-2.49-1.142v4.043h-.872v-10.972h.813l.044 1.121c.572-.845 1.399-1.267 2.483-1.267.948 0 1.69.358 2.227 1.076.542.718.813 1.714.813 2.989v.124zm-.879-.154c0-1.01-.208-1.809-.623-2.395-.415-.586-.993-.879-1.735-.879-.538 0-.999.13-1.385.389-.385.258-.681.634-.886 1.127v3.802c.21.454.51.8.901 1.04.391.239.852.359 1.384.359.738 0 1.311-.293 1.721-.879.415-.591.623-1.446.623-2.564zm7.83 4.036c-.088-.249-.144-.618-.169-1.106-.308.4-.701.71-1.179.93a3.61 3.61 0 01-1.509.322c-.762 0-1.379-.212-1.853-.637-.469-.425-.703-.962-.703-1.611 0-.772.32-1.382.959-1.831.645-.449 1.541-.674 2.688-.674h1.59v-.901c0-.566-.176-1.011-.528-1.333-.346-.327-.854-.491-1.523-.491-.61 0-1.116.157-1.516.469-.401.313-.601.689-.601 1.128l-.879-.007c0-.63.293-1.175.879-1.634.586-.463 1.306-.695 2.161-.695.884 0 1.58.222 2.087.666.513.44.777 1.055.791 1.846v3.75c0 .766.081 1.34.242 1.721v.088h-.937zm-2.754-.63c.586 0 1.108-.142 1.567-.425a2.49 2.49 0 001.011-1.135v-1.743h-1.568c-.874.01-1.557.171-2.05.483-.494.308-.74.733-.74 1.275 0 .444.163.813.491 1.106.332.293.761.439 1.289.439zm8.723.037c.61 0 1.12-.171 1.531-.513.415-.347.639-.794.673-1.34h.843a2.506 2.506 0 01-.454 1.325c-.279.396-.65.706-1.114.93a3.315 3.315 0 01-1.479.337c-1.04 0-1.865-.361-2.476-1.084-.605-.722-.908-1.694-.908-2.915v-.263c0-.782.137-1.472.41-2.073.274-.601.664-1.065 1.172-1.392.513-.327 1.111-.49 1.794-.49.87 0 1.585.258 2.146.776.567.518.87 1.199.909 2.043h-.843c-.039-.62-.263-1.12-.673-1.501-.406-.381-.918-.571-1.539-.571-.791 0-1.406.285-1.845.857-.435.571-.652 1.372-.652 2.402v.256c0 1.011.217 1.8.652 2.366.439.566 1.057.85 1.853.85zm7.873.739a3.461 3.461 0 01-1.831-.498 3.407 3.407 0 01-1.267-1.384c-.303-.596-.454-1.262-.454-1.999v-.315c0-.762.147-1.448.44-2.059.297-.61.71-1.088 1.237-1.435a3.028 3.028 0 011.714-.527c.962 0 1.724.329 2.285.988.567.655.85 1.551.85 2.688v.491h-5.654v.169c0 .898.256 1.647.769 2.248.517.596 1.167.894 1.948.894.469 0 .881-.086 1.238-.257.361-.171.688-.444.981-.82l.55.417c-.645.933-1.58 1.399-2.806 1.399zm-.161-7.47a2.2 2.2 0 00-1.67.725c-.449.483-.722 1.133-.82 1.948h4.753v-.095c-.024-.762-.241-1.382-.651-1.861-.411-.478-.948-.717-1.612-.717zm-135.444-27.943c0 .981-.171 1.843-.513 2.585-.337.743-.82 1.314-1.45 1.714-.63.401-1.358.601-2.183.601-1.245 0-2.251-.445-3.017-1.333-.767-.894-1.15-2.097-1.15-3.611v-1.099c0-.971.171-1.831.512-2.578.347-.752.835-1.328 1.465-1.728.63-.406 1.355-.608 2.175-.608.821 0 1.543.198 2.168.593.63.396 1.116.955 1.458 1.677.342.723.52 1.56.535 2.513v1.274zm-.901-1.157c0-1.284-.291-2.29-.872-3.018-.581-.727-1.377-1.091-2.388-1.091-.991 0-1.782.366-2.373 1.098-.586.728-.878 1.746-.878 3.055v1.113c0 1.265.292 2.268.878 3.01.586.737 1.382 1.106 2.388 1.106 1.021 0 1.817-.364 2.388-1.091.571-.733.857-1.751.857-3.054v-1.128zm3.596 5.91v-7.207h-1.311v-.717h1.311v-.96c0-.81.205-1.433.615-1.868.415-.434.991-.651 1.729-.651.332 0 .642.041.93.124l-.066.732a3.448 3.448 0 00-.798-.087c-.484 0-.86.151-1.128.454-.269.298-.403.722-.403 1.274v.982h1.889v.717h-1.889v7.207h-.879zm4.966 0v-7.207h-1.311v-.717h1.311v-.96c0-.81.205-1.433.615-1.868.415-.434.991-.651 1.728-.651.333 0 .643.041.931.124l-.066.732a3.45 3.45 0 00-.799-.087c-.483 0-.859.151-1.128.454-.268.298-.402.722-.402 1.274v.982h1.889v.717h-1.889v7.207h-.879zm9.082-2.014c0-.434-.176-.784-.528-1.047-.346-.264-.871-.469-1.574-.615-.703-.152-1.25-.323-1.641-.513-.386-.195-.674-.432-.864-.711-.186-.278-.278-.615-.278-1.01 0-.625.261-1.14.783-1.546.523-.41 1.192-.615 2.007-.615.884 0 1.592.22 2.124.659.537.435.806 1.004.806 1.707h-.879c0-.464-.195-.85-.586-1.157-.386-.308-.874-.462-1.465-.462-.576 0-1.04.13-1.392.388-.346.254-.52.586-.52.996 0 .396.144.704.433.923.293.215.822.413 1.589.594.771.18 1.348.373 1.728.578.386.205.672.452.857.74.186.288.279.637.279 1.047 0 .669-.271 1.204-.813 1.604-.537.401-1.241.601-2.11.601-.923 0-1.672-.222-2.248-.667-.572-.449-.857-1.015-.857-1.699h.879c.034.513.249.913.644 1.201.401.283.928.425 1.582.425.611 0 1.104-.134 1.48-.403.376-.268.564-.608.564-1.018zm5.925 2.161a3.459 3.459 0 01-1.831-.498 3.414 3.414 0 01-1.267-1.384c-.303-.596-.454-1.263-.454-2v-.315c0-.762.146-1.448.439-2.058a3.535 3.535 0 011.238-1.436 3.034 3.034 0 011.714-.527c.962 0 1.724.33 2.285.989.567.654.85 1.55.85 2.688v.491h-5.655v.168c0 .898.257 1.648.769 2.249.518.595 1.167.893 1.949.893.468 0 .881-.085 1.237-.256.362-.171.689-.445.982-.821l.549.418c-.644.933-1.579 1.399-2.805 1.399zm-.161-7.471c-.659 0-1.216.242-1.67.725-.449.484-.723 1.133-.82 1.948h4.753v-.095c-.024-.761-.242-1.382-.652-1.86-.41-.479-.947-.718-1.611-.718zm6.204-2.629v2.029h1.64v.717h-1.64v5.281c0 .44.078.767.234.982.161.214.427.322.798.322.147 0 .384-.025.711-.073l.036.717c-.229.083-.542.125-.937.125-.601 0-1.038-.174-1.311-.52-.274-.352-.41-.867-.41-1.546v-5.288h-1.458v-.717h1.458v-2.029h.879zM202.21 71.77l.329 1.656.403-1.582 2.315-7.86h.813l2.285 7.86.395 1.596.352-1.67 1.926-7.785h.923l-2.732 10.664h-.864l-2.417-8.343-.271-1.054-.264 1.054-2.476 8.343h-.864l-2.724-10.664h.922l1.949 7.785zm12.143-3.706c.288-.473.657-.84 1.106-1.098.449-.26.94-.389 1.472-.389.85 0 1.482.24 1.897.718.415.479.625 1.197.63 2.153v5.2h-.871v-5.207c-.005-.708-.157-1.235-.454-1.582-.293-.346-.765-.52-1.414-.52-.542 0-1.023.171-1.443.513-.415.337-.723.793-.923 1.37v5.427h-.871v-11.25h.871v4.665zm10.43 6.731a3.458 3.458 0 01-1.831-.498 3.409 3.409 0 01-1.267-1.384c-.303-.596-.454-1.262-.454-2v-.315c0-.761.146-1.447.439-2.058a3.53 3.53 0 011.238-1.435 3.03 3.03 0 011.714-.528c.962 0 1.723.33 2.285.99.566.654.85 1.55.85 2.687v.49h-5.655v.17c0 .898.257 1.647.769 2.248.518.596 1.167.893 1.949.893.468 0 .881-.085 1.237-.256.362-.17.689-.444.982-.82l.549.417c-.644.933-1.579 1.4-2.805 1.4zm-.161-7.47a2.2 2.2 0 00-1.67.725c-.449.483-.723 1.132-.82 1.948h4.753v-.095c-.024-.762-.242-1.382-.652-1.86-.41-.48-.947-.719-1.611-.719zm7.91 7.47a3.458 3.458 0 01-1.831-.498 3.409 3.409 0 01-1.267-1.384c-.303-.596-.454-1.262-.454-2v-.315c0-.761.146-1.447.439-2.058a3.53 3.53 0 011.238-1.435 3.03 3.03 0 011.714-.528c.962 0 1.723.33 2.285.99.566.654.85 1.55.85 2.687v.49h-5.655v.17c0 .898.257 1.647.769 2.248.518.596 1.167.893 1.949.893.468 0 .881-.085 1.237-.256.362-.17.689-.444.982-.82l.549.417c-.644.933-1.579 1.4-2.805 1.4zm-.161-7.47a2.2 2.2 0 00-1.67.725c-.449.483-.723 1.132-.82 1.948h4.753v-.095c-.024-.762-.242-1.382-.652-1.86-.41-.48-.947-.719-1.611-.719zm5.823 7.324h-.879v-11.25h.879v11.25zm4.284-1.824l.132.681.176-.718 1.904-6.064h.747l1.883 6.013.205.835.168-.769 1.626-6.08h.908l-2.307 7.926h-.747l-2.036-6.284-.095-.433-.095.44-2 6.277h-.747l-2.3-7.925h.901l1.677 6.101zm12.481 1.97a3.458 3.458 0 01-1.831-.498 3.402 3.402 0 01-1.267-1.384c-.303-.596-.455-1.262-.455-2v-.315c0-.761.147-1.447.44-2.058.298-.61.71-1.089 1.238-1.435a3.028 3.028 0 011.714-.528c.962 0 1.723.33 2.285.99.566.654.849 1.55.849 2.687v.49h-5.654v.17c0 .898.256 1.647.769 2.248.518.596 1.167.893 1.948.893.469 0 .882-.085 1.238-.256.361-.17.689-.444.982-.82l.549.417c-.645.933-1.58 1.4-2.805 1.4zm-.161-7.47a2.2 2.2 0 00-1.67.725c-.45.483-.723 1.132-.821 1.948h4.754v-.095c-.025-.762-.242-1.382-.652-1.86-.41-.48-.947-.719-1.611-.719zm5.822 7.324h-.879v-11.25h.879v11.25zm3.37 0h-.879v-11.25h.879v11.25zm7.133-2.014c0-.435-.175-.784-.527-1.048-.347-.264-.872-.469-1.575-.615-.703-.151-1.25-.322-1.64-.513-.386-.195-.674-.432-.865-.71-.185-.278-.278-.615-.278-1.011 0-.625.261-1.14.784-1.545.522-.41 1.191-.616 2.007-.616.883 0 1.591.22 2.124.66.537.434.805 1.003.805 1.706h-.879c0-.464-.195-.85-.586-1.157-.385-.308-.874-.462-1.464-.462-.577 0-1.04.13-1.392.389-.347.254-.52.586-.52.996 0 .395.144.703.432.923.293.214.823.412 1.589.593.772.18 1.348.373 1.729.579.386.204.671.451.857.74.185.287.278.636.278 1.047 0 .669-.271 1.203-.813 1.604-.537.4-1.24.6-2.109.6-.923 0-1.673-.222-2.249-.666-.571-.45-.857-1.016-.857-1.7h.879c.034.513.249.913.645 1.202.4.283.928.424 1.582.424.61 0 1.103-.134 1.479-.402.376-.269.564-.608.564-1.019zm9.434 1.42c.61 0 1.12-.17 1.531-.512.415-.347.639-.794.673-1.34h.843a2.508 2.508 0 01-.454 1.325c-.279.396-.65.706-1.114.93a3.32 3.32 0 01-1.479.337c-1.04 0-1.865-.361-2.476-1.084-.605-.722-.908-1.694-.908-2.915v-.264c0-.78.137-1.472.41-2.072.274-.6.664-1.065 1.172-1.392.513-.327 1.111-.49 1.795-.49.869 0 1.584.258 2.146.776.566.517.869 1.198.908 2.043h-.843c-.039-.62-.263-1.12-.673-1.501-.406-.381-.918-.572-1.538-.572-.791 0-1.407.286-1.846.857-.435.572-.652 1.373-.652 2.403v.256c0 1.01.217 1.8.652 2.366.439.566 1.057.85 1.853.85zm5.786.594h-.879v-11.25h.879v11.25zm5.457.146a3.456 3.456 0 01-1.831-.498 3.411 3.411 0 01-1.268-1.384c-.302-.596-.454-1.262-.454-2v-.315c0-.761.147-1.447.44-2.058.298-.61.71-1.089 1.238-1.435a3.027 3.027 0 011.713-.528c.962 0 1.724.33 2.286.99.566.654.849 1.55.849 2.687v.49h-5.654v.17c0 .898.256 1.647.769 2.248.518.596 1.167.893 1.948.893.469 0 .882-.085 1.238-.256.361-.17.688-.444.981-.82l.55.417c-.645.933-1.58 1.4-2.805 1.4zm-.162-7.47a2.2 2.2 0 00-1.669.725c-.45.483-.723 1.132-.821 1.948h4.754v-.095c-.025-.762-.242-1.382-.652-1.86-.41-.48-.948-.719-1.612-.719zm9.844 7.324c-.088-.25-.144-.618-.168-1.106-.308.4-.701.71-1.179.93a3.614 3.614 0 01-1.509.322c-.762 0-1.38-.212-1.853-.637-.469-.425-.703-.962-.703-1.611 0-.772.319-1.382.959-1.831.645-.45 1.541-.674 2.688-.674h1.589v-.901c0-.567-.175-1.01-.527-1.333-.347-.327-.854-.49-1.523-.49-.611 0-1.116.155-1.516.468-.401.312-.601.688-.601 1.128l-.879-.008c0-.63.293-1.174.879-1.633.586-.464 1.306-.696 2.161-.696.883 0 1.579.223 2.087.667.513.44.776 1.055.791 1.846v3.75c0 .766.081 1.34.242 1.72v.089h-.938zm-2.754-.63c.586 0 1.109-.142 1.568-.425.464-.283.8-.662 1.01-1.135v-1.743h-1.567c-.874.01-1.558.17-2.051.483-.493.308-.74.732-.74 1.274 0 .445.164.813.491 1.106.332.293.762.44 1.289.44zm9.456-6.548a3.281 3.281 0 00-.593-.051c-.547 0-1.011.153-1.392.461-.376.303-.645.745-.806 1.326v5.442h-.871v-7.925h.857l.014 1.26c.464-.938 1.209-1.407 2.234-1.407.244 0 .437.032.579.096l-.022.798zm6.101 7.178c-.088-.25-.144-.618-.169-1.106-.307.4-.7.71-1.179.93a3.607 3.607 0 01-1.509.322c-.761 0-1.379-.212-1.853-.637-.468-.425-.703-.962-.703-1.611 0-.772.32-1.382.96-1.831.644-.45 1.54-.674 2.688-.674h1.589v-.901c0-.567-.176-1.01-.527-1.333-.347-.327-.855-.49-1.524-.49-.61 0-1.115.155-1.516.468-.4.312-.6.688-.6 1.128l-.879-.008c0-.63.293-1.174.879-1.633.586-.464 1.306-.696 2.16-.696.884 0 1.58.223 2.088.667.512.44.776 1.055.791 1.846v3.75c0 .766.08 1.34.241 1.72v.089h-.937zm-2.754-.63c.586 0 1.108-.142 1.567-.425a2.494 2.494 0 001.011-1.135v-1.743h-1.567c-.874.01-1.558.17-2.051.483-.493.308-.74.732-.74 1.274 0 .445.164.813.491 1.106.332.293.762.44 1.289.44zm6.628-7.295l.03 1.355c.298-.488.669-.86 1.113-1.113a2.87 2.87 0 011.472-.389c.85 0 1.482.24 1.897.718.415.479.625 1.197.63 2.153v5.2h-.872v-5.207c-.004-.708-.156-1.235-.454-1.582-.293-.346-.764-.52-1.413-.52-.542 0-1.023.171-1.443.513-.415.337-.723.793-.923 1.37v5.427h-.872v-7.925h.835zm10.342 7.331c.611 0 1.121-.17 1.531-.512.415-.347.64-.794.674-1.34h.842a2.5 2.5 0 01-.454 1.325 2.848 2.848 0 01-1.113.93 3.321 3.321 0 01-1.48.337c-1.04 0-1.865-.361-2.475-1.084-.606-.722-.909-1.694-.909-2.915v-.264c0-.78.137-1.472.411-2.072.273-.6.664-1.065 1.171-1.392.513-.327 1.111-.49 1.795-.49.869 0 1.584.258 2.146.776.566.517.869 1.198.908 2.043h-.842c-.039-.62-.264-1.12-.674-1.501-.405-.381-.918-.572-1.538-.572-.791 0-1.406.286-1.846.857-.434.572-.652 1.373-.652 2.403v.256c0 1.01.218 1.8.652 2.366.44.566 1.057.85 1.853.85zm7.874.74a3.458 3.458 0 01-1.831-.498 3.402 3.402 0 01-1.267-1.384c-.303-.596-.454-1.262-.454-2v-.315c0-.761.146-1.447.439-2.058.298-.61.71-1.089 1.238-1.435a3.028 3.028 0 011.714-.528c.962 0 1.723.33 2.285.99.566.654.849 1.55.849 2.687v.49h-5.654v.17c0 .898.256 1.647.769 2.248.518.596 1.167.893 1.948.893.469 0 .882-.085 1.238-.256.361-.17.689-.444.982-.82l.549.417c-.645.933-1.58 1.4-2.805 1.4zm-.161-7.47a2.2 2.2 0 00-1.67.725c-.45.483-.723 1.132-.821 1.948h4.754v-.095c-.025-.762-.242-1.382-.652-1.86-.41-.48-.947-.719-1.611-.719zm-87.29 72.019h-4.973v4.98h-.901V133.66h6.607v.769h-5.706v4.146h4.973v.769zm3.34 4.98h-.879v-11.25h.879v11.25zm7.39 0c-.088-.249-.144-.617-.168-1.106a3.087 3.087 0 01-1.179.931 3.626 3.626 0 01-1.509.322c-.762 0-1.38-.213-1.853-.637-.469-.425-.703-.962-.703-1.612 0-.771.32-1.382.959-1.831.645-.449 1.541-.674 2.688-.674h1.59v-.9c0-.567-.176-1.011-.528-1.333-.347-.328-.854-.491-1.523-.491-.611 0-1.116.156-1.516.469-.401.312-.601.688-.601 1.127l-.879-.007c0-.63.293-1.174.879-1.633.586-.464 1.306-.696 2.161-.696.883 0 1.579.222 2.087.667.513.439.776 1.054.791 1.845v3.75c0 .767.081 1.341.242 1.721v.088h-.938zm-2.754-.63c.586 0 1.109-.141 1.568-.424a2.498 2.498 0 001.011-1.136v-1.743h-1.568c-.874.01-1.557.171-2.051.484-.493.307-.739.732-.739 1.274 0 .444.163.813.49 1.106.332.293.762.439 1.289.439zm6.629-7.294l.029 1.355c.298-.489.669-.86 1.113-1.114a2.872 2.872 0 011.473-.388c.849 0 1.481.239 1.897.718.415.478.625 1.196.629 2.153v5.2h-.871v-5.207c-.005-.708-.156-1.236-.454-1.582-.293-.347-.764-.52-1.414-.52-.542 0-1.023.171-1.443.512-.415.337-.722.794-.923 1.37v5.427h-.871V136.4h.835zm10.342 7.331c.61 0 1.12-.171 1.53-.513.415-.346.64-.793.674-1.34h.842a2.495 2.495 0 01-.454 1.326 2.854 2.854 0 01-1.113.93 3.315 3.315 0 01-1.479.337c-1.04 0-1.866-.362-2.476-1.084-.605-.723-.908-1.694-.908-2.915v-.264c0-.781.137-1.472.41-2.073.273-.6.664-1.064 1.172-1.391.513-.327 1.111-.491 1.794-.491.869 0 1.585.259 2.146.776.567.518.869 1.199.908 2.044h-.842c-.039-.62-.263-1.121-.674-1.502-.405-.38-.918-.571-1.538-.571-.791 0-1.406.286-1.845.857-.435.571-.652 1.372-.652 2.402v.257c0 1.01.217 1.799.652 2.365.439.567 1.057.85 1.853.85zm7.873.74a3.459 3.459 0 01-1.831-.498 3.414 3.414 0 01-1.267-1.384c-.303-.596-.454-1.263-.454-2v-.315c0-.762.146-1.448.439-2.058a3.535 3.535 0 011.238-1.436 3.034 3.034 0 011.714-.527c.962 0 1.724.33 2.285.989.567.654.85 1.55.85 2.688v.491h-5.655v.168c0 .898.257 1.648.77 2.249.517.595 1.167.893 1.948.893.469 0 .881-.085 1.238-.256.361-.171.688-.445.981-.821l.549.418c-.644.933-1.579 1.399-2.805 1.399zm-.161-7.471c-.659 0-1.216.242-1.67.725-.449.484-.723 1.133-.82 1.948h4.753v-.095c-.024-.761-.242-1.382-.652-1.86-.41-.479-.947-.718-1.611-.718zm10.386 5.501l.132.681.175-.718 1.905-6.064h.747l1.882 6.013.205.835.169-.769 1.626-6.079h.908l-2.307 7.924h-.747l-2.037-6.284-.095-.432-.095.439-1.999 6.277h-.748l-2.299-7.924h.901l1.677 6.101zm10.393 1.823h-.879V136.4h.879v7.924zm-1.033-10.217a.58.58 0 01.161-.417.565.565 0 01.44-.176c.185 0 .332.058.439.176a.567.567 0 01.169.417.58.58 0 01-.608.586.582.582 0 01-.44-.168.585.585 0 01-.161-.418zm3.069 6.182c0-1.231.273-2.21.82-2.937.552-.733 1.299-1.099 2.241-1.099 1.07 0 1.885.422 2.447 1.267v-4.446h.871v11.25h-.82l-.037-1.054c-.561.8-1.386 1.201-2.475 1.201-.913 0-1.651-.366-2.212-1.099-.557-.737-.835-1.731-.835-2.981v-.102zm.886.154c0 1.01.203 1.809.608 2.395.405.581.977.871 1.714.871 1.079 0 1.846-.476 2.3-1.428v-3.721c-.454-1.03-1.216-1.545-2.285-1.545-.738 0-1.311.29-1.722.871-.41.577-.615 1.429-.615 2.557zm9.163-6.072v2.029h1.64v.717h-1.64v5.281c0 .44.078.767.234.982.161.214.427.322.798.322.147 0 .384-.025.711-.073l.037.717c-.23.083-.542.125-.938.125-.601 0-1.038-.174-1.311-.52-.273-.352-.41-.867-.41-1.546v-5.288h-1.458v-.717h1.458v-2.029h.879zm4.328 3.369c.288-.474.657-.84 1.106-1.099.45-.259.94-.388 1.473-.388.849 0 1.481.239 1.896.718.416.478.625 1.196.63 2.153v5.2h-.871v-5.207c-.005-.708-.156-1.236-.454-1.582-.293-.347-.764-.52-1.414-.52-.542 0-1.023.171-1.443.512-.415.337-.722.794-.923 1.37v5.427h-.871v-11.25h.871v4.666zm-73.166-89.249l1.436-7.587h2.19l-2.366 10.664h-2.212l-1.736-7.134-1.736 7.134h-2.212l-2.365-10.664h2.19l1.442 7.573 1.758-7.573h1.861l1.75 7.587zm6.746-3.984c.561-.674 1.267-1.01 2.116-1.01 1.719 0 2.591.998 2.615 2.995v5.076h-2.117V46.55c0-.455-.097-.79-.292-1.004-.196-.22-.521-.33-.975-.33-.62 0-1.069.24-1.347.718v5.633h-2.117v-11.25h2.117v4.189zm9.975 7.207c-1.162 0-2.109-.356-2.841-1.07-.728-.712-1.092-1.662-1.092-2.848v-.206c0-.795.154-1.506.462-2.13a3.364 3.364 0 011.303-1.451c.567-.342 1.211-.513 1.934-.513 1.084 0 1.936.342 2.556 1.026.625.683.938 1.653.938 2.907v.865h-5.047c.069.517.274.932.615 1.245.347.312.784.468 1.311.468.816 0 1.453-.295 1.912-.886l1.04 1.165c-.317.449-.747.8-1.289 1.054a4.263 4.263 0 01-1.802.374zm-.241-6.504c-.42 0-.762.142-1.026.425-.259.283-.425.688-.498 1.216h2.945v-.169c-.01-.468-.137-.83-.381-1.084-.244-.258-.591-.388-1.04-.388zm8.357 6.504c-1.163 0-2.11-.356-2.842-1.07-.728-.712-1.092-1.662-1.092-2.848v-.206c0-.795.154-1.506.462-2.13a3.36 3.36 0 011.304-1.451c.566-.342 1.211-.513 1.933-.513 1.084 0 1.936.342 2.556 1.026.625.683.938 1.653.938 2.907v.865h-5.047c.069.517.274.932.616 1.245.346.312.783.468 1.311.468.815 0 1.452-.295 1.911-.886l1.04 1.165c-.317.449-.747.8-1.289 1.054a4.262 4.262 0 01-1.801.374zm-.242-6.504c-.42 0-.762.142-1.026.425-.258.283-.424.688-.498 1.216h2.945v-.169c-.01-.468-.137-.83-.381-1.084-.244-.258-.591-.388-1.04-.388zm6.943 6.358h-2.124v-11.25h2.124v11.25zm8.643-2.879l1.04-5.046h2.043l-2.021 7.925h-1.773l-1.501-4.988-1.502 4.988h-1.765l-2.021-7.925h2.043l1.033 5.039 1.45-5.04h1.531l1.443 5.047zm7.785 3.025c-1.162 0-2.109-.356-2.841-1.07-.728-.712-1.092-1.662-1.092-2.848v-.206c0-.795.154-1.506.462-2.13a3.364 3.364 0 011.303-1.451c.567-.342 1.211-.513 1.934-.513 1.084 0 1.936.342 2.556 1.026.625.683.938 1.653.938 2.907v.865h-5.047c.069.517.274.932.616 1.245.346.312.783.468 1.311.468.815 0 1.452-.295 1.911-.886l1.04 1.165c-.317.449-.747.8-1.289 1.054a4.263 4.263 0 01-1.802.374zm-.241-6.504c-.42 0-.762.142-1.026.425-.258.283-.424.688-.498 1.216h2.945v-.169c-.01-.468-.137-.83-.381-1.084-.244-.258-.591-.388-1.04-.388zm6.943 6.358h-2.124v-11.25h2.124v11.25zm3.984 0h-2.124v-11.25h2.124v11.25zM154.53 34.723h-4.218v4.358h-2.198V28.417h6.944v1.78h-4.746v2.754h4.218v1.772zm5.149 4.505c-1.162 0-2.109-.357-2.842-1.07-.727-.713-1.091-1.662-1.091-2.849v-.205c0-.796.154-1.506.462-2.131a3.364 3.364 0 011.303-1.45c.567-.342 1.211-.513 1.934-.513 1.084 0 1.936.342 2.556 1.025.625.684.937 1.653.937 2.908v.864h-5.046c.068.518.274.933.615 1.245.347.313.784.469 1.311.469.816 0 1.453-.295 1.912-.886l1.04 1.164c-.317.45-.747.801-1.289 1.055a4.267 4.267 0 01-1.802.373zm-.241-6.504c-.42 0-.762.141-1.026.424-.259.284-.425.689-.498 1.216h2.944v-.168c-.009-.469-.136-.83-.38-1.084-.245-.259-.591-.388-1.04-.388zm6.657-1.568l.066.916c.567-.708 1.326-1.062 2.278-1.062.84 0 1.465.246 1.875.74.41.493.62 1.23.63 2.211v5.12h-2.117v-5.068c0-.45-.098-.774-.293-.974-.195-.206-.52-.308-.974-.308-.596 0-1.042.254-1.34.762v5.588h-2.117v-7.925h1.992zm6.131 3.904c0-1.235.275-2.22.827-2.952.557-.732 1.316-1.098 2.278-1.098.772 0 1.409.288 1.912.864v-4.043h2.124v11.25h-1.912l-.102-.842c-.528.659-1.207.989-2.037.989-.932 0-1.682-.367-2.248-1.1-.562-.736-.842-1.76-.842-3.068zm2.116.154c0 .742.13 1.31.388 1.706.259.396.635.594 1.128.594.655 0 1.116-.276 1.385-.828v-3.127c-.264-.552-.721-.828-1.37-.828-1.02 0-1.531.828-1.531 2.483zm10.313 4.014c-1.162 0-2.11-.357-2.842-1.07-.728-.713-1.091-1.662-1.091-2.849v-.205c0-.796.153-1.506.461-2.131.308-.63.742-1.114 1.304-1.45.566-.342 1.211-.513 1.933-.513 1.084 0 1.936.342 2.557 1.025.625.684.937 1.653.937 2.908v.864h-5.046c.068.518.273.933.615 1.245.347.313.784.469 1.311.469.815 0 1.453-.295 1.912-.886l1.04 1.164c-.318.45-.747.801-1.289 1.055a4.267 4.267 0 01-1.802.373zm-.242-6.504c-.42 0-.762.141-1.025.424-.259.284-.425.689-.498 1.216h2.944v-.168c-.01-.469-.137-.83-.381-1.084-.244-.259-.591-.388-1.04-.388zm9.163.417a5.76 5.76 0 00-.762-.058c-.801 0-1.326.27-1.575.813v5.185h-2.116v-7.925h1.999l.059.945c.424-.727 1.013-1.091 1.765-1.091.234 0 .454.031.659.095l-.029 2.036zM70.546 96.533h-4.973v4.98h-.901V90.849h6.606v.77h-5.705v4.145h4.973v.769zm5.266 5.127a3.459 3.459 0 01-1.831-.498 3.41 3.41 0 01-1.267-1.384c-.303-.596-.454-1.263-.454-2v-.315c0-.761.146-1.448.44-2.058.297-.61.71-1.089 1.237-1.436a3.03 3.03 0 011.714-.527c.962 0 1.724.33 2.285.989.566.654.85 1.55.85 2.688v.49H73.13v.17c0 .898.257 1.647.77 2.248.517.595 1.166.893 1.948.893.468 0 .881-.085 1.237-.256.362-.171.689-.444.982-.82l.55.417c-.645.933-1.58 1.399-2.806 1.399zm-.161-7.47c-.66 0-1.216.241-1.67.724-.45.484-.723 1.133-.82 1.949h4.753v-.096c-.024-.761-.242-1.381-.652-1.86-.41-.478-.947-.718-1.611-.718zm5.676-.601l.03 1.355c.297-.489.668-.86 1.113-1.114a2.872 2.872 0 011.472-.388c.85 0 1.482.24 1.897.718.415.478.625 1.196.63 2.153v5.2h-.872v-5.207c-.005-.708-.156-1.235-.454-1.582-.293-.347-.764-.52-1.413-.52-.543 0-1.023.17-1.443.513-.415.337-.723.793-.923 1.37v5.426h-.872v-7.924h.835zm7.06 3.889c0-1.23.274-2.21.821-2.937.552-.733 1.299-1.099 2.241-1.099 1.07 0 1.885.423 2.447 1.267v-4.446h.871v11.25h-.82l-.037-1.054c-.561.801-1.387 1.201-2.475 1.201-.913 0-1.65-.366-2.212-1.099-.557-.737-.835-1.73-.835-2.98v-.103zm.887.154c0 1.01.203 1.809.608 2.395.405.581.976.871 1.714.871 1.079 0 1.845-.476 2.3-1.428v-3.72c-.455-1.03-1.216-1.546-2.286-1.546-.737 0-1.31.29-1.72.872-.411.576-.616 1.428-.616 2.556zm10.869 4.028a3.46 3.46 0 01-1.831-.498 3.411 3.411 0 01-1.267-1.384c-.303-.596-.454-1.263-.454-2v-.315c0-.761.146-1.448.44-2.058.297-.61.71-1.089 1.237-1.436a3.03 3.03 0 011.714-.527c.962 0 1.724.33 2.285.989.566.654.85 1.55.85 2.688v.49h-5.655v.17c0 .898.257 1.647.77 2.248.517.595 1.166.893 1.948.893.468 0 .881-.085 1.237-.256.362-.171.689-.444.982-.82l.549.417c-.644.933-1.579 1.399-2.805 1.399zm-.161-7.47c-.66 0-1.216.241-1.67.724-.45.484-.723 1.133-.82 1.949h4.753v-.096c-.024-.761-.242-1.381-.652-1.86-.41-.478-.947-.718-1.611-.718zm4.49 3.288c0-1.23.273-2.21.82-2.937.552-.733 1.299-1.099 2.241-1.099 1.07 0 1.885.423 2.446 1.267v-4.446h.872v11.25h-.82l-.037-1.054c-.561.801-1.387 1.201-2.475 1.201-.914 0-1.651-.366-2.212-1.099-.557-.737-.835-1.73-.835-2.98v-.103zm.886.154c0 1.01.203 1.809.608 2.395.405.581.976.871 1.714.871 1.079 0 1.845-.476 2.299-1.428v-3.72c-.454-1.03-1.215-1.546-2.285-1.546-.737 0-1.311.29-1.721.872-.41.576-.615 1.428-.615 2.556zm14.377 3.288c.611 0 1.121-.171 1.531-.512.415-.347.64-.794.674-1.34h.842a2.5 2.5 0 01-.454 1.325 2.854 2.854 0 01-1.113.93 3.316 3.316 0 01-1.48.337c-1.04 0-1.865-.361-2.475-1.084-.606-.723-.908-1.694-.908-2.915v-.264c0-.781.136-1.472.41-2.073.273-.6.664-1.064 1.172-1.391.512-.327 1.11-.49 1.794-.49.869 0 1.584.258 2.146.776.566.517.869 1.198.908 2.043h-.842c-.039-.62-.264-1.12-.674-1.501-.405-.381-.918-.572-1.538-.572-.791 0-1.406.286-1.846.857-.434.572-.652 1.372-.652 2.402v.257c0 1.01.218 1.8.652 2.366.44.566 1.057.849 1.853.849zm5.786.593h-.878v-11.25h.878v11.25zm5.457.147a3.459 3.459 0 01-1.831-.498 3.412 3.412 0 01-1.267-1.384c-.303-.596-.454-1.263-.454-2v-.315c0-.761.146-1.448.439-2.058a3.53 3.53 0 011.238-1.436 3.03 3.03 0 011.714-.527c.962 0 1.724.33 2.285.989.566.654.85 1.55.85 2.688v.49h-5.655v.17c0 .898.257 1.647.769 2.248.518.595 1.167.893 1.949.893.468 0 .881-.085 1.237-.256.362-.171.689-.444.982-.82l.549.417c-.644.933-1.579 1.399-2.805 1.399zm-.161-7.47c-.659 0-1.216.241-1.67.724-.449.484-.723 1.133-.82 1.949h4.753v-.096c-.024-.761-.242-1.381-.652-1.86-.41-.478-.947-.718-1.611-.718zm9.844 7.323c-.088-.249-.144-.617-.169-1.105-.307.4-.7.71-1.179.93a3.61 3.61 0 01-1.509.322c-.762 0-1.379-.212-1.853-.637-.469-.425-.703-.962-.703-1.612 0-.771.32-1.381.96-1.83.644-.45 1.54-.674 2.688-.674h1.589v-.901c0-.567-.176-1.011-.527-1.333-.347-.328-.855-.491-1.524-.491-.61 0-1.116.156-1.516.469-.4.312-.601.688-.601 1.128l-.879-.008c0-.63.293-1.174.879-1.633.586-.464 1.307-.696 2.161-.696.884 0 1.58.222 2.087.667.513.44.777 1.054.791 1.845v3.75c0 .767.081 1.341.242 1.722v.087h-.937zm-2.754-.629c.586 0 1.108-.142 1.567-.425a2.493 2.493 0 001.011-1.136V97.58h-1.568c-.874.01-1.557.171-2.05.484-.493.307-.74.732-.74 1.274 0 .445.164.813.491 1.106.332.293.761.44 1.289.44zm9.455-6.548a3.264 3.264 0 00-.593-.052c-.547 0-1.011.154-1.392.462-.376.303-.644.745-.805 1.326v5.441h-.872v-7.924h.857l.015 1.26c.464-.938 1.208-1.407 2.234-1.407.244 0 .437.032.578.095l-.022.799zm6.101 7.177c-.088-.249-.144-.617-.168-1.105-.308.4-.701.71-1.179.93a3.61 3.61 0 01-1.509.322c-.762 0-1.379-.212-1.853-.637-.469-.425-.703-.962-.703-1.612 0-.771.32-1.381.959-1.83.645-.45 1.541-.674 2.688-.674h1.59v-.901c0-.567-.176-1.011-.528-1.333-.346-.328-.854-.491-1.523-.491-.611 0-1.116.156-1.516.469-.401.312-.601.688-.601 1.128l-.879-.008c0-.63.293-1.174.879-1.633.586-.464 1.306-.696 2.161-.696.884 0 1.579.222 2.087.667.513.44.777 1.054.791 1.845v3.75c0 .767.081 1.341.242 1.722v.087h-.938zm-2.754-.629c.586 0 1.109-.142 1.568-.425a2.493 2.493 0 001.011-1.136V97.58h-1.568c-.874.01-1.557.171-2.051.484-.493.307-.739.732-.739 1.274 0 .445.163.813.49 1.106.332.293.762.44 1.289.44zm6.629-7.295l.029 1.355c.298-.489.669-.86 1.113-1.114a2.877 2.877 0 011.473-.388c.849 0 1.482.24 1.897.718.415.478.625 1.196.629 2.153v5.2h-.871v-5.207c-.005-.708-.156-1.235-.454-1.582-.293-.347-.764-.52-1.414-.52-.542 0-1.023.17-1.443.513-.415.337-.722.793-.922 1.37v5.426h-.872v-7.924h.835zm10.342 7.331c.61 0 1.12-.171 1.53-.512.415-.347.64-.794.674-1.34h.843a2.502 2.502 0 01-.455 1.325 2.854 2.854 0 01-1.113.93 3.315 3.315 0 01-1.479.337c-1.04 0-1.866-.361-2.476-1.084-.605-.723-.908-1.694-.908-2.915v-.264c0-.781.137-1.472.41-2.073.273-.6.664-1.064 1.172-1.391.513-.327 1.111-.49 1.794-.49.87 0 1.585.258 2.146.776.567.517.87 1.198.909 2.043h-.843c-.039-.62-.263-1.12-.674-1.501-.405-.381-.918-.572-1.538-.572-.791 0-1.406.286-1.845.857-.435.572-.652 1.372-.652 2.402v.257c0 1.01.217 1.8.652 2.366.439.566 1.057.849 1.853.849zm7.873.74a3.459 3.459 0 01-1.831-.498 3.412 3.412 0 01-1.267-1.384c-.303-.596-.454-1.263-.454-2v-.315c0-.761.146-1.448.439-2.058a3.53 3.53 0 011.238-1.436 3.033 3.033 0 011.714-.527c.962 0 1.724.33 2.285.989.567.654.85 1.55.85 2.688v.49h-5.654v.17c0 .898.256 1.647.769 2.248.517.595 1.167.893 1.948.893.469 0 .881-.085 1.238-.256.361-.171.688-.444.981-.82l.549.417c-.644.933-1.579 1.399-2.805 1.399zm-.161-7.47c-.659 0-1.216.241-1.67.724-.449.484-.722 1.133-.82 1.949h4.753v-.096c-.024-.761-.241-1.381-.652-1.86-.41-.478-.947-.718-1.611-.718zM98.371 220.724h-3.098v4.438h-.908v-10.664h3.465c1.137 0 2.026.276 2.665.828.64.551.96 1.323.96 2.314 0 .684-.2 1.287-.601 1.809-.4.523-.937.884-1.611 1.084l2.666 4.534v.095h-.959l-2.579-4.438zm-3.098-.769h2.761c.757 0 1.365-.215 1.824-.645.459-.43.689-.986.689-1.67 0-.752-.24-1.335-.718-1.75-.479-.415-1.15-.623-2.014-.623h-2.542v4.688zm9.412 5.207h-.879v-7.925h.879v7.925zm-1.033-10.217c0-.166.054-.305.161-.418a.568.568 0 01.44-.175c.185 0 .332.058.439.175a.567.567 0 01.169.418.576.576 0 01-.608.586.579.579 0 01-.44-.169.58.58 0 01-.161-.417zm4.219 2.292l.029 1.289c.293-.478.659-.837 1.099-1.076.439-.24.928-.359 1.465-.359 1.25 0 2.043.513 2.38 1.538a2.947 2.947 0 011.135-1.135 3.12 3.12 0 011.568-.403c1.699 0 2.566.928 2.6 2.783v5.288h-.879v-5.222c-.005-.708-.159-1.233-.461-1.575-.298-.342-.787-.512-1.465-.512-.63.009-1.162.214-1.597.615a2.146 2.146 0 00-.725 1.45v5.244h-.879v-5.288c-.005-.679-.166-1.184-.483-1.516-.313-.337-.796-.505-1.451-.505-.551 0-1.025.158-1.421.476-.395.312-.688.778-.878 1.399v5.434h-.879v-7.925h.842zm-30.154 21.889c0-1.23.274-2.209.82-2.937.552-.732 1.3-1.098 2.242-1.098 1.069 0 1.884.422 2.446 1.267v-4.446h.872v11.25h-.82l-.037-1.055c-.562.801-1.387 1.202-2.476 1.202-.913 0-1.65-.367-2.212-1.099-.556-.737-.835-1.731-.835-2.981v-.103zm.886.154c0 1.011.203 1.809.608 2.395.406.581.977.872 1.714.872 1.08 0 1.846-.476 2.3-1.428v-3.721c-.454-1.03-1.216-1.545-2.285-1.545-.737 0-1.311.29-1.721.871-.41.576-.616 1.428-.616 2.556zm8.782 3.882h-.879v-7.925h.88v7.925zm-1.033-10.217c0-.166.054-.305.161-.418a.567.567 0 01.44-.175.57.57 0 01.44.175.57.57 0 01.168.418.577.577 0 01-.608.586.577.577 0 01-.44-.169.579.579 0 01-.16-.417zm8.423 10.217c-.088-.249-.144-.618-.168-1.106-.308.401-.7.711-1.18.93a3.608 3.608 0 01-1.508.323c-.762 0-1.38-.213-1.853-.638-.469-.424-.703-.962-.703-1.611 0-.771.32-1.382.96-1.831.644-.449 1.54-.674 2.687-.674h1.59v-.901c0-.566-.176-1.01-.528-1.333-.347-.327-.854-.49-1.523-.49-.61 0-1.116.156-1.516.468-.4.313-.601.689-.601 1.128l-.879-.007c0-.63.293-1.174.879-1.633.586-.464 1.306-.696 2.16-.696.884 0 1.58.222 2.088.666.513.44.776 1.055.791 1.846v3.75c0 .767.08 1.34.242 1.721v.088h-.938zm-2.754-.63c.586 0 1.109-.141 1.568-.425a2.49 2.49 0 001.01-1.135v-1.743h-1.567c-.874.01-1.557.171-2.05.483-.494.308-.74.733-.74 1.275 0 .444.163.813.49 1.106.332.293.762.439 1.29.439zm6.592-7.295l.03 1.289c.292-.478.659-.837 1.098-1.076.44-.24.928-.359 1.465-.359 1.25 0 2.043.513 2.38 1.538a2.943 2.943 0 011.136-1.135 3.116 3.116 0 011.567-.403c1.699 0 2.566.928 2.6 2.783v5.288h-.879v-5.222c-.005-.708-.159-1.233-.461-1.575-.298-.342-.786-.512-1.465-.512-.63.009-1.162.214-1.597.615a2.15 2.15 0 00-.725 1.45v5.244h-.879v-5.288c-.005-.679-.166-1.184-.483-1.516-.313-.337-.796-.505-1.45-.505-.552 0-1.026.158-1.421.476-.396.312-.689.778-.88 1.399v5.434h-.878v-7.925h.842zm15.571 8.072a3.461 3.461 0 01-1.831-.498 3.41 3.41 0 01-1.267-1.385c-.302-.595-.454-1.262-.454-1.999v-.315c0-.762.147-1.448.44-2.058a3.519 3.519 0 011.237-1.436 3.036 3.036 0 011.714-.527c.962 0 1.724.329 2.285.989.567.654.85 1.55.85 2.688v.49h-5.654v.169c0 .898.256 1.648.769 2.248.517.596 1.167.894 1.948.894.469 0 .881-.086 1.238-.257.361-.17.688-.444.981-.82l.55.418c-.645.932-1.58 1.399-2.806 1.399zm-.161-7.471c-.659 0-1.216.242-1.67.725-.449.483-.722 1.133-.82 1.948h4.753v-.095c-.024-.762-.241-1.382-.651-1.86-.411-.479-.948-.718-1.612-.718zm6.204-2.63v2.029h1.641v.718h-1.641v5.281c0 .439.078.766.234.981.161.215.428.323.799.323.146 0 .383-.025.71-.074l.037.718c-.23.083-.542.125-.938.125-.6 0-1.037-.174-1.311-.52-.273-.352-.41-.867-.41-1.546v-5.288h-1.458v-.718h1.458v-2.029h.879zm6.526 10.101a3.459 3.459 0 01-1.831-.498 3.403 3.403 0 01-1.267-1.385c-.303-.595-.454-1.262-.454-1.999v-.315c0-.762.146-1.448.439-2.058a3.521 3.521 0 011.238-1.436 3.031 3.031 0 011.714-.527c.962 0 1.723.329 2.285.989.566.654.849 1.55.849 2.688v.49h-5.654v.169c0 .898.256 1.648.769 2.248.518.596 1.167.894 1.948.894.469 0 .882-.086 1.238-.257.362-.17.689-.444.982-.82l.549.418c-.645.932-1.58 1.399-2.805 1.399zm-.161-7.471c-.66 0-1.216.242-1.67.725-.449.483-.723 1.133-.821 1.948h4.754v-.095c-.025-.762-.242-1.382-.652-1.86-.41-.479-.947-.718-1.611-.718zm8.503.146a3.283 3.283 0 00-.593-.051c-.547 0-1.011.154-1.392.462-.376.302-.644.744-.805 1.325v5.442h-.872v-7.925h.857l.015 1.26c.463-.937 1.208-1.406 2.233-1.406.245 0 .437.032.579.095l-.022.798zm285.904-97.133c0-.415-.146-.733-.439-.952-.293-.225-.821-.459-1.582-.703-.762-.249-1.365-.494-1.809-.733-1.211-.654-1.817-1.536-1.817-2.644 0-.576.161-1.089.484-1.538.327-.454.793-.808 1.399-1.062.61-.254 1.294-.381 2.05-.381.762 0 1.441.139 2.037.418.595.273 1.057.661 1.384 1.164a3.04 3.04 0 01.498 1.714h-2.197c0-.488-.154-.867-.462-1.135-.307-.274-.74-.41-1.296-.41-.537 0-.955.114-1.253.344a1.062 1.062 0 00-.446.893c0 .347.173.638.52.872.351.234.866.454 1.545.659 1.25.376 2.161.842 2.732 1.399.571.557.857 1.25.857 2.08 0 .923-.349 1.648-1.048 2.175-.698.523-1.638.784-2.819.784-.821 0-1.568-.149-2.242-.447-.673-.302-1.189-.715-1.545-1.237-.352-.523-.527-1.128-.527-1.817h2.204c0 1.177.703 1.765 2.11 1.765.522 0 .93-.105 1.223-.315.293-.214.439-.512.439-.893zm8.306 1.992c-.523.635-1.245.952-2.168.952-.85 0-1.499-.244-1.948-.732-.445-.489-.672-1.204-.681-2.146v-5.193h2.116v5.12c0 .825.376 1.237 1.128 1.237.718 0 1.211-.249 1.48-.747v-5.61h2.124v7.925h-1.993l-.058-.806zm7.939-1.384c0-.259-.129-.462-.388-.608-.254-.152-.664-.286-1.23-.403-1.885-.396-2.827-1.196-2.827-2.402 0-.703.29-1.289.871-1.758.586-.474 1.35-.711 2.293-.711 1.005 0 1.809.237 2.409.711.606.473.908 1.089.908 1.846h-2.116c0-.303-.098-.552-.293-.748-.195-.2-.501-.3-.916-.3-.356 0-.632.081-.827.242a.76.76 0 00-.293.615c0 .234.11.425.329.571.225.142.601.267 1.128.374.528.102.972.22 1.333.352 1.118.41 1.677 1.12 1.677 2.131 0 .723-.31 1.308-.93 1.758-.62.444-1.421.666-2.402.666-.664 0-1.255-.117-1.773-.351-.512-.24-.915-.564-1.208-.975a2.277 2.277 0 01-.439-1.34h2.006c.02.376.159.664.418.864.259.201.605.301 1.04.301.405 0 .71-.076.915-.227a.726.726 0 00.315-.608zm10.562-1.699c0 1.22-.278 2.199-.835 2.937-.552.732-1.299 1.098-2.241 1.098-.801 0-1.448-.278-1.941-.835v3.736h-2.117v-10.972h1.963l.073.776c.513-.615 1.182-.923 2.007-.923.977 0 1.736.362 2.278 1.084.542.723.813 1.719.813 2.989v.11zm-2.117-.154c0-.738-.132-1.306-.395-1.707-.259-.4-.638-.6-1.136-.6-.664 0-1.12.253-1.369.761v3.245c.259.522.72.784 1.384.784 1.011 0 1.516-.828 1.516-2.483zm7.083 4.189c-1.162 0-2.11-.356-2.842-1.069-.728-.713-1.091-1.663-1.091-2.849v-.205c0-.796.153-1.507.461-2.132.308-.63.742-1.113 1.304-1.45.566-.342 1.211-.513 1.933-.513 1.084 0 1.936.342 2.556 1.026.625.683.938 1.653.938 2.907v.865h-5.046c.068.517.273.932.615 1.245.347.312.784.469 1.311.469.815 0 1.452-.296 1.911-.887l1.041 1.165a3.215 3.215 0 01-1.29 1.055 4.262 4.262 0 01-1.801.373zm-.242-6.504c-.42 0-.762.142-1.025.425-.259.283-.425.689-.498 1.216h2.944v-.169c-.01-.468-.137-.83-.381-1.084-.244-.258-.591-.388-1.04-.388zm6.658-1.567l.066.915c.566-.708 1.325-1.062 2.277-1.062.84 0 1.465.247 1.875.74.411.493.621 1.231.63 2.212v5.12h-2.116v-5.069c0-.449-.098-.774-.293-.974-.196-.205-.52-.307-.974-.307-.596 0-1.043.253-1.341.761v5.589h-2.116v-7.925h1.992zm10.752 5.735c0-.259-.13-.462-.389-.608-.253-.152-.664-.286-1.23-.403-1.885-.396-2.827-1.196-2.827-2.402 0-.703.29-1.289.871-1.758.586-.474 1.351-.711 2.293-.711 1.006 0 1.809.237 2.41.711.605.473.908 1.089.908 1.846h-2.117c0-.303-.098-.552-.293-.748-.195-.2-.5-.3-.915-.3-.357 0-.633.081-.828.242a.763.763 0 00-.293.615c0 .234.11.425.33.571.224.142.6.267 1.128.374.527.102.971.22 1.333.352 1.118.41 1.677 1.12 1.677 2.131 0 .723-.31 1.308-.93 1.758-.621.444-1.421.666-2.403.666-.664 0-1.255-.117-1.772-.351-.513-.24-.916-.564-1.209-.975a2.277 2.277 0 01-.439-1.34h2.007c.019.376.158.664.417.864.259.201.606.301 1.04.301.405 0 .711-.076.916-.227a.726.726 0 00.315-.608zm5.661 2.19h-2.124v-7.925h2.124v7.925zm-2.248-9.976c0-.317.105-.579.315-.784.215-.205.505-.307.871-.307.362 0 .65.102.865.307.214.205.322.467.322.784 0 .322-.11.586-.33.791-.215.205-.5.308-.857.308-.356 0-.644-.103-.864-.308a1.045 1.045 0 01-.322-.791zm3.669 5.94c0-.786.152-1.487.454-2.102a3.337 3.337 0 011.304-1.428c.571-.337 1.233-.506 1.985-.506 1.069 0 1.941.328 2.615.982.678.654 1.057 1.543 1.135 2.666l.015.542c0 1.216-.34 2.192-1.019 2.93-.678.732-1.589 1.098-2.731 1.098-1.143 0-2.056-.366-2.74-1.098-.678-.733-1.018-1.729-1.018-2.989v-.095zm2.117.154c0 .752.141 1.328.425 1.728.283.396.688.594 1.216.594.512 0 .913-.196 1.201-.586.288-.396.432-1.026.432-1.89 0-.737-.144-1.309-.432-1.714-.288-.405-.694-.608-1.216-.608-.518 0-.918.203-1.201.608-.284.401-.425 1.023-.425 1.868zm8.642-4.043l.066.915c.567-.708 1.326-1.062 2.278-1.062.84 0 1.465.247 1.875.74.41.493.62 1.231.63 2.212v5.12h-2.117v-5.069c0-.449-.097-.774-.293-.974-.195-.205-.52-.307-.974-.307-.595 0-1.042.253-1.34.761v5.589h-2.117v-7.925h1.992zm-193.498 23.087v-10.664h3.735c1.294 0 2.275.249 2.944.747.669.493 1.004 1.218 1.004 2.175 0 .523-.134.984-.403 1.384a2.336 2.336 0 01-1.121.872c.547.137.977.413 1.289.828.318.415.476.922.476 1.523 0 1.025-.327 1.802-.981 2.329-.654.527-1.587.796-2.798.806h-4.145zm2.197-4.644v2.879h1.882c.518 0 .921-.122 1.209-.367.293-.249.439-.59.439-1.025 0-.977-.505-1.472-1.516-1.487h-2.014zm0-1.552h1.626c1.108-.02 1.663-.462 1.663-1.326 0-.484-.142-.83-.425-1.04-.279-.215-.72-.322-1.326-.322h-1.538v2.688zm11.697.256a5.767 5.767 0 00-.762-.059c-.801 0-1.326.271-1.575.813v5.186h-2.116v-7.925h1.999l.059.945c.425-.728 1.013-1.091 1.765-1.091.234 0 .454.031.659.095l-.029 2.036zm5.398 5.94a2.344 2.344 0 01-.213-.711c-.512.572-1.179.857-1.999.857-.777 0-1.421-.224-1.934-.674a2.17 2.17 0 01-.762-1.699c0-.84.311-1.484.931-1.933.625-.45 1.526-.677 2.702-.682h.974v-.454c0-.366-.095-.659-.285-.879-.186-.219-.481-.329-.886-.329-.357 0-.638.085-.843.256-.2.171-.3.406-.3.703h-2.117c0-.459.142-.883.425-1.274.283-.391.684-.696 1.201-.916.518-.224 1.099-.336 1.743-.336.977 0 1.751.246 2.322.739.576.489.864 1.177.864 2.066v3.435c.005.752.11 1.321.315 1.706v.125h-2.138zm-1.751-1.472c.313 0 .601-.069.864-.205.264-.142.459-.33.586-.564v-1.363h-.791c-1.059 0-1.623.366-1.692 1.099l-.007.124c0 .264.093.481.278.652.186.171.44.257.762.257zm8.079-1.707l-.762.762v2.417h-2.117v-11.25h2.117v6.233l.41-.528 2.029-2.38h2.542l-2.864 3.303 3.113 4.622h-2.432l-2.036-3.179zm8.635 3.325c-1.162 0-2.109-.356-2.842-1.069-.727-.713-1.091-1.663-1.091-2.849v-.205c0-.796.154-1.507.461-2.132.308-.629.743-1.113 1.304-1.45.566-.342 1.211-.512 1.934-.512 1.084 0 1.936.341 2.556 1.025.625.683.937 1.653.937 2.908v.864h-5.046c.068.517.273.932.615 1.245.347.312.784.469 1.311.469.816 0 1.453-.296 1.912-.886l1.04 1.164a3.212 3.212 0 01-1.289 1.055 4.266 4.266 0 01-1.802.373zm-.242-6.504c-.42 0-.761.142-1.025.425-.259.283-.425.689-.498 1.216h2.944v-.168c-.01-.469-.136-.831-.381-1.084-.244-.259-.59-.389-1.04-.389zm9.002 4.168c0-.259-.13-.462-.388-.608-.254-.151-.664-.286-1.231-.403-1.885-.395-2.827-1.196-2.827-2.402 0-.703.291-1.289.872-1.758.586-.474 1.35-.71 2.292-.71 1.006 0 1.809.236 2.41.71.605.474.908 1.089.908 1.846h-2.117c0-.303-.097-.552-.293-.747-.195-.201-.5-.301-.915-.301-.357 0-.633.081-.828.242a.763.763 0 00-.293.615c0 .235.11.425.33.572.224.141.6.266 1.128.373.527.103.971.22 1.333.352 1.118.41 1.677 1.12 1.677 2.131 0 .723-.31 1.309-.93 1.758-.62.444-1.421.666-2.403.666-.664 0-1.254-.117-1.772-.351-.513-.24-.916-.564-1.209-.974a2.28 2.28 0 01-.439-1.341h2.007c.019.376.159.664.417.865.259.2.606.3 1.04.3.406 0 .711-.076.916-.227a.725.725 0 00.315-.608zm-126.536 49.453h-4.218v4.358h-2.198v-10.664h6.944v1.78h-4.746v2.754h4.218v1.772zm3.897 4.358h-2.124v-11.25h2.124v11.25zm6.343 0a2.337 2.337 0 01-.213-.71c-.512.571-1.179.857-1.999.857-.777 0-1.421-.225-1.934-.674a2.171 2.171 0 01-.762-1.699c0-.84.311-1.485.931-1.934.625-.449 1.526-.676 2.702-.681h.974v-.454c0-.366-.095-.659-.285-.879-.186-.22-.481-.33-.886-.33-.357 0-.638.086-.843.257-.2.171-.3.405-.3.703h-2.117c0-.459.142-.884.425-1.274.283-.391.684-.696 1.201-.916.518-.225 1.099-.337 1.743-.337.977 0 1.751.247 2.322.74.576.488.864 1.177.864 2.065v3.435c.005.752.11 1.321.315 1.707v.124h-2.138zm-1.751-1.472c.313 0 .601-.068.864-.205.264-.141.459-.329.586-.564v-1.362h-.791c-1.059 0-1.623.366-1.692 1.098l-.007.125c0 .264.093.481.278.652.186.171.44.256.762.256zm7.149-6.452l.066.915c.566-.708 1.325-1.062 2.277-1.062.84 0 1.465.247 1.875.74.411.493.62 1.23.63 2.212v5.119h-2.116v-5.068c0-.449-.098-.774-.293-.974-.196-.205-.52-.308-.975-.308-.595 0-1.042.254-1.34.762v5.588h-2.117v-7.924h1.993zm9.755 6.364c.391 0 .708-.107.953-.322.244-.215.371-.5.38-.857h1.985a2.739 2.739 0 01-.439 1.48 2.932 2.932 0 01-1.187 1.04 3.708 3.708 0 01-1.655.366c-1.133 0-2.026-.359-2.681-1.077-.654-.722-.981-1.719-.981-2.988v-.139c0-1.221.325-2.195.974-2.923.65-.727 1.541-1.091 2.673-1.091.992 0 1.785.283 2.381.85.6.561.906 1.311.915 2.248h-1.985c-.009-.41-.136-.742-.38-.996-.245-.259-.567-.388-.967-.388-.493 0-.867.181-1.121.542-.249.356-.373.937-.373 1.743v.22c0 .815.124 1.401.373 1.758.249.356.628.534 1.135.534zm8.174 1.707c-1.162 0-2.109-.357-2.841-1.069-.728-.713-1.092-1.663-1.092-2.85v-.205c0-.796.154-1.506.462-2.131a3.363 3.363 0 011.303-1.45c.567-.342 1.211-.513 1.934-.513 1.084 0 1.936.342 2.556 1.025.625.684.938 1.653.938 2.908v.864h-5.047c.069.518.274.933.615 1.246.347.312.784.468 1.311.468.816 0 1.453-.295 1.912-.886l1.04 1.165c-.317.449-.747.8-1.289 1.054a4.267 4.267 0 01-1.802.374zm-.241-6.504c-.42 0-.762.142-1.026.425-.259.283-.425.688-.498 1.216h2.945v-.169c-.01-.469-.137-.83-.381-1.084-.244-.259-.591-.388-1.04-.388zM448.041 55.378c0-.59-.208-1.057-.623-1.399-.415-.347-1.174-.674-2.278-.981-1.103-.313-1.909-.652-2.417-1.018-.723-.518-1.084-1.197-1.084-2.037 0-.815.335-1.477 1.004-1.984.673-.513 1.533-.77 2.578-.77.708 0 1.34.137 1.897.41a3.11 3.11 0 011.303 1.143c.308.489.462 1.033.462 1.634h-.908c0-.728-.249-1.311-.747-1.751-.499-.444-1.167-.666-2.007-.666-.816 0-1.465.183-1.949.549-.483.361-.725.835-.725 1.42 0 .543.218.985.652 1.326.435.342 1.131.645 2.088.909.957.258 1.682.53 2.175.813.493.278.864.612 1.113 1.003.249.39.374.852.374 1.384 0 .84-.337 1.514-1.011 2.022-.669.508-1.553.762-2.651.762a5.233 5.233 0 01-2.073-.403c-.625-.269-1.101-.645-1.428-1.128a2.925 2.925 0 01-.484-1.663h.901c0 .752.281 1.345.842 1.78.562.434 1.309.652 2.242.652.83 0 1.496-.183 1.999-.55.503-.366.755-.852.755-1.457zm7.749 1.619c-.528.766-1.37 1.15-2.527 1.15-.845 0-1.487-.245-1.927-.733-.439-.493-.664-1.22-.673-2.183v-5.156h.871v5.047c0 1.508.611 2.263 1.831 2.263 1.27 0 2.073-.525 2.41-1.575v-5.735h.879V58h-.85l-.014-1.003zm7.895-1.011c0-.435-.176-.784-.527-1.047-.347-.264-.872-.47-1.575-.616-.703-.151-1.25-.322-1.641-.513-.385-.195-.673-.432-.864-.71-.185-.278-.278-.615-.278-1.01 0-.626.261-1.14.783-1.546.523-.41 1.192-.615 2.007-.615.884 0 1.592.22 2.124.659.537.434.806 1.003.806 1.706h-.879c0-.463-.195-.85-.586-1.157-.386-.307-.874-.461-1.465-.461-.576 0-1.04.13-1.391.388-.347.254-.52.586-.52.996 0 .396.144.703.432.923.293.215.823.413 1.589.593.772.18 1.348.374 1.729.579.385.205.671.451.857.74.185.288.278.637.278 1.047 0 .669-.271 1.203-.813 1.604-.537.4-1.24.6-2.109.6-.923 0-1.673-.222-2.249-.666-.571-.45-.857-1.016-.857-1.7h.879c.034.514.249.914.645 1.202.4.283.927.425 1.582.425.61 0 1.103-.134 1.479-.403.376-.269.564-.608.564-1.018zm9.229-1.868c0 1.235-.274 2.217-.821 2.944-.547.723-1.279 1.085-2.197 1.085-1.084 0-1.914-.381-2.49-1.143v4.043h-.872V50.075h.813l.044 1.12c.571-.844 1.399-1.266 2.483-1.266.947 0 1.689.359 2.227 1.076.542.718.813 1.714.813 2.989v.124zm-.879-.154c0-1.01-.208-1.809-.623-2.395-.415-.586-.994-.879-1.736-.879-.537 0-.998.13-1.384.389-.386.258-.681.634-.886 1.127v3.802c.21.454.51.8.901 1.04.39.24.852.359 1.384.359.737 0 1.311-.293 1.721-.88.415-.59.623-1.444.623-2.563zm5.896 4.183a3.456 3.456 0 01-1.831-.499 3.402 3.402 0 01-1.267-1.384c-.303-.596-.455-1.262-.455-2v-.314c0-.762.147-1.448.44-2.058a3.52 3.52 0 011.238-1.436 3.027 3.027 0 011.714-.527c.961 0 1.723.33 2.285.988.566.655.849 1.55.849 2.688v.491h-5.654v.169c0 .898.256 1.648.769 2.248.518.596 1.167.894 1.948.894.469 0 .882-.086 1.238-.257.361-.17.689-.444.982-.82l.549.418c-.645.932-1.58 1.399-2.805 1.399zm-.161-7.471a2.2 2.2 0 00-1.67.725c-.45.483-.723 1.133-.821 1.948h4.754v-.095c-.025-.762-.242-1.382-.652-1.86-.41-.479-.947-.718-1.611-.718zm5.676-.6l.029 1.354c.298-.488.669-.86 1.113-1.113a2.874 2.874 0 011.473-.388c.849 0 1.481.239 1.897.718.415.478.625 1.196.629 2.153V58h-.871v-5.208c-.005-.708-.156-1.235-.454-1.582-.293-.346-.764-.52-1.414-.52-.542 0-1.023.171-1.443.513-.415.337-.722.794-.923 1.37V58h-.871v-7.925h.835zm12.158 5.91c0-.435-.176-.784-.527-1.047-.347-.264-.872-.47-1.575-.616-.703-.151-1.25-.322-1.641-.513-.385-.195-.673-.432-.864-.71-.185-.278-.278-.615-.278-1.01 0-.626.261-1.14.783-1.546.523-.41 1.192-.615 2.007-.615.884 0 1.592.22 2.124.659.537.434.806 1.003.806 1.706h-.879c0-.463-.195-.85-.586-1.157-.386-.307-.874-.461-1.465-.461-.576 0-1.04.13-1.391.388-.347.254-.52.586-.52.996 0 .396.144.703.432.923.293.215.823.413 1.589.593.772.18 1.348.374 1.729.579.385.205.671.451.857.74.185.288.278.637.278 1.047 0 .669-.271 1.203-.813 1.604-.537.4-1.24.6-2.109.6-.923 0-1.673-.222-2.249-.666-.571-.45-.857-1.016-.857-1.7h.879c.034.514.249.914.645 1.202.4.283.927.425 1.582.425.61 0 1.103-.134 1.479-.403.376-.269.564-.608.564-1.018zM499.442 58h-.879v-7.925h.879V58zm-1.033-10.217c0-.166.054-.306.161-.418a.568.568 0 01.44-.175c.185 0 .332.058.439.175a.565.565 0 01.169.418.579.579 0 01-.608.586.58.58 0 01-.44-.169.582.582 0 01-.161-.417zm2.937 6.137c0-.761.147-1.447.44-2.058a3.38 3.38 0 011.252-1.42 3.374 3.374 0 011.838-.513c1.055 0 1.91.37 2.564 1.113.654.737.981 1.716.981 2.937v.183c0 .767-.149 1.458-.446 2.073a3.286 3.286 0 01-1.246 1.413c-.537.332-1.149.498-1.838.498-1.05 0-1.904-.368-2.563-1.105-.655-.743-.982-1.724-.982-2.945v-.176zm.879.242c0 .947.244 1.726.733 2.337.493.605 1.137.908 1.933.908.791 0 1.431-.303 1.919-.908.493-.61.74-1.414.74-2.41v-.169a4.02 4.02 0 00-.337-1.662c-.225-.503-.54-.891-.945-1.165a2.398 2.398 0 00-1.392-.417c-.781 0-1.418.307-1.911.923-.493.61-.74 1.41-.74 2.402v.161zm8.848-4.087l.029 1.355c.298-.488.669-.86 1.113-1.113a2.874 2.874 0 011.473-.388c.849 0 1.481.239 1.896.718.416.478.625 1.196.63 2.153V58h-.871v-5.208c-.005-.708-.156-1.235-.454-1.582-.293-.346-.764-.52-1.414-.52-.542 0-1.023.171-1.443.513-.415.337-.722.794-.923 1.37V58h-.871v-7.925h.835zm-59.715 25.332c.611 0 1.121-.171 1.531-.513.415-.347.64-.793.674-1.34h.842a2.5 2.5 0 01-.454 1.325 2.847 2.847 0 01-1.113.93 3.321 3.321 0 01-1.48.338c-1.04 0-1.865-.362-2.475-1.085-.606-.722-.908-1.694-.908-2.915v-.263c0-.781.136-1.472.41-2.073.273-.6.664-1.064 1.172-1.392.512-.327 1.11-.49 1.794-.49.869 0 1.585.258 2.146.776.566.518.869 1.199.908 2.044h-.842c-.039-.62-.264-1.121-.674-1.502-.405-.38-.918-.571-1.538-.571-.791 0-1.406.285-1.846.857-.434.571-.651 1.372-.651 2.402v.256c0 1.011.217 1.8.651 2.366.44.567 1.057.85 1.853.85zm5.787.593h-.879V64.75h.879V76zm5.456.147a3.458 3.458 0 01-1.831-.499 3.41 3.41 0 01-1.267-1.384c-.303-.596-.454-1.262-.454-2v-.314c0-.762.146-1.448.439-2.058a3.528 3.528 0 011.238-1.436 3.03 3.03 0 011.714-.527c.962 0 1.724.33 2.285.989.567.654.85 1.55.85 2.688v.49h-5.655v.169c0 .898.257 1.648.769 2.248.518.596 1.167.894 1.949.894.468 0 .881-.086 1.237-.257.362-.17.689-.444.982-.82l.549.418c-.644.932-1.579 1.398-2.805 1.398zm-.161-7.471c-.659 0-1.216.242-1.67.725-.449.483-.723 1.133-.82 1.948h4.753v-.095c-.024-.762-.242-1.382-.652-1.86-.41-.479-.947-.718-1.611-.718zM472.284 76c-.088-.249-.144-.618-.169-1.106-.307.4-.7.71-1.179.93a3.612 3.612 0 01-1.509.323c-.761 0-1.379-.213-1.853-.638-.469-.424-.703-.962-.703-1.611 0-.772.32-1.382.96-1.831.644-.45 1.54-.674 2.688-.674h1.589v-.9c0-.567-.176-1.012-.527-1.334-.347-.327-.855-.49-1.524-.49-.61 0-1.116.156-1.516.468-.4.313-.601.689-.601 1.128l-.878-.007c0-.63.292-1.174.878-1.633.586-.464 1.307-.696 2.161-.696.884 0 1.58.222 2.087.666.513.44.777 1.055.791 1.846v3.75c0 .766.081 1.34.242 1.721V76h-.937zm-2.754-.63c.586 0 1.108-.142 1.567-.425a2.494 2.494 0 001.011-1.135v-1.743h-1.567c-.874.01-1.558.17-2.051.483-.493.308-.74.733-.74 1.275 0 .444.164.813.491 1.106.332.293.761.44 1.289.44zm9.455-6.548a3.264 3.264 0 00-.593-.051c-.547 0-1.011.154-1.392.461-.375.303-.644.745-.805 1.326V76h-.872v-7.925h.857l.015 1.26c.464-.938 1.208-1.406 2.234-1.406.244 0 .437.031.578.095l-.022.798zM485.086 76c-.087-.249-.144-.618-.168-1.106-.308.4-.701.71-1.179.93a3.612 3.612 0 01-1.509.323c-.762 0-1.379-.213-1.853-.638-.469-.424-.703-.962-.703-1.611 0-.772.32-1.382.959-1.831.645-.45 1.541-.674 2.688-.674h1.59v-.9c0-.567-.176-1.012-.528-1.334-.346-.327-.854-.49-1.523-.49-.61 0-1.116.156-1.516.468-.401.313-.601.689-.601 1.128l-.879-.007c0-.63.293-1.174.879-1.633.586-.464 1.306-.696 2.161-.696.884 0 1.579.222 2.087.666.513.44.777 1.055.791 1.846v3.75c0 .766.081 1.34.242 1.721V76h-.938zm-2.753-.63c.585 0 1.108-.142 1.567-.425a2.494 2.494 0 001.011-1.135v-1.743h-1.568c-.874.01-1.557.17-2.051.483-.493.308-.739.733-.739 1.275 0 .444.163.813.49 1.106.332.293.762.44 1.29.44zm6.628-7.295l.029 1.355c.298-.488.669-.86 1.114-1.113a2.87 2.87 0 011.472-.388c.849 0 1.482.239 1.897.718.415.478.625 1.196.63 2.153V76h-.872v-5.207c-.005-.709-.156-1.236-.454-1.583-.293-.346-.764-.52-1.414-.52-.542 0-1.023.171-1.443.513-.415.337-.722.794-.922 1.37V76h-.872v-7.925h.835zm10.342 7.332c.61 0 1.12-.171 1.53-.513a1.82 1.82 0 00.674-1.34h.843a2.508 2.508 0 01-.454 1.325c-.279.396-.65.706-1.114.93a3.32 3.32 0 01-1.479.338c-1.04 0-1.865-.362-2.476-1.085-.605-.722-.908-1.694-.908-2.915v-.263c0-.781.137-1.472.41-2.073.274-.6.664-1.064 1.172-1.392.513-.327 1.111-.49 1.794-.49.87 0 1.585.258 2.146.776.567.518.87 1.199.909 2.044h-.843c-.039-.62-.263-1.121-.674-1.502-.405-.38-.917-.571-1.538-.571-.791 0-1.406.285-1.845.857-.435.571-.652 1.372-.652 2.402v.256c0 1.011.217 1.8.652 2.366.439.567 1.057.85 1.853.85zm7.873.74a3.458 3.458 0 01-1.831-.499 3.41 3.41 0 01-1.267-1.384c-.303-.596-.454-1.262-.454-2v-.314c0-.762.147-1.448.439-2.058a3.528 3.528 0 011.238-1.436 3.032 3.032 0 011.714-.527c.962 0 1.724.33 2.285.989.567.654.85 1.55.85 2.688v.49h-5.654v.169c0 .898.256 1.648.769 2.248.517.596 1.167.894 1.948.894.469 0 .881-.086 1.238-.257.361-.17.688-.444.981-.82l.549.418c-.644.932-1.579 1.398-2.805 1.398zm-.161-7.471c-.659 0-1.216.242-1.67.725-.449.483-.722 1.133-.82 1.948h4.753v-.095c-.024-.762-.241-1.382-.652-1.86-.41-.479-.947-.718-1.611-.718zM19.948 209.706c0 .982-.17 1.843-.512 2.586-.337.742-.82 1.313-1.45 1.713-.63.401-1.358.601-2.183.601-1.245 0-2.251-.444-3.018-1.333-.766-.894-1.15-2.097-1.15-3.611v-1.099c0-.971.171-1.831.513-2.578.347-.752.835-1.328 1.465-1.728.63-.405 1.355-.608 2.175-.608.82 0 1.543.198 2.168.593.63.396 1.116.955 1.458 1.677.341.723.52 1.56.534 2.513v1.274zm-.9-1.157c0-1.284-.291-2.29-.872-3.018-.581-.727-1.377-1.091-2.388-1.091-.991 0-1.782.366-2.373 1.099-.586.727-.879 1.745-.879 3.054v1.113c0 1.265.293 2.268.879 3.01.586.738 1.382 1.106 2.388 1.106 1.02 0 1.816-.364 2.387-1.091.572-.732.857-1.751.857-3.054v-1.128zm5.434 4.702l2.41-6.716h.9l-2.959 7.924h-.71l-2.974-7.924h.901l2.432 6.716zm7.72 1.355a3.46 3.46 0 01-1.831-.498 3.412 3.412 0 01-1.267-1.384c-.303-.596-.455-1.263-.455-2v-.315c0-.762.147-1.448.44-2.058a3.52 3.52 0 011.238-1.435 3.027 3.027 0 011.713-.528c.962 0 1.724.33 2.286.989.566.654.85 1.55.85 2.688v.491H29.52v.168c0 .899.256 1.648.769 2.249.518.595 1.167.893 1.948.893.469 0 .882-.085 1.238-.256.361-.171.689-.444.982-.82l.549.417c-.645.933-1.58 1.399-2.805 1.399zm-.161-7.471c-.66 0-1.216.242-1.67.725-.45.484-.723 1.133-.82 1.949h4.753v-.096c-.025-.761-.242-1.381-.652-1.86-.41-.478-.947-.718-1.611-.718zm8.503.147a3.288 3.288 0 00-.593-.052c-.547 0-1.011.154-1.392.462-.376.303-.644.745-.806 1.326v5.441h-.871v-7.924h.857l.014 1.259c.464-.937 1.209-1.406 2.234-1.406.244 0 .437.032.579.095l-.022.799zm6.101 7.177c-.088-.249-.144-.617-.168-1.105-.308.4-.701.71-1.18.93a3.608 3.608 0 01-1.508.322c-.762 0-1.38-.212-1.854-.637-.468-.425-.703-.962-.703-1.612 0-.771.32-1.381.96-1.831.644-.449 1.54-.673 2.688-.673h1.59v-.901c0-.567-.176-1.011-.528-1.333-.347-.327-.855-.491-1.523-.491-.61 0-1.116.156-1.517.469-.4.312-.6.688-.6 1.128l-.88-.008c0-.63.294-1.174.88-1.633.586-.464 1.306-.696 2.16-.696.884 0 1.58.222 2.088.667.513.439.776 1.054.79 1.845v3.75c0 .767.081 1.341.242 1.722v.087h-.937zm-2.754-.629a2.93 2.93 0 001.568-.425c.463-.283.8-.662 1.01-1.135v-1.744h-1.567c-.874.01-1.558.171-2.05.484-.494.307-.74.732-.74 1.274 0 .445.163.813.49 1.106.332.293.762.44 1.29.44zm6.775.629h-.879v-11.25h.879v11.25zm3.37 0h-.88v-11.25h.88v11.25zm-28.8 13.562h-3.098v4.438h-.908v-10.664h3.464c1.138 0 2.027.276 2.666.828.64.552.96 1.323.96 2.315 0 .683-.2 1.286-.6 1.809-.401.522-.938.883-1.612 1.084l2.666 4.533v.095h-.96l-2.578-4.438zm-3.098-.769H24.9c.757 0 1.365-.215 1.824-.645.46-.429.689-.986.689-1.669 0-.752-.24-1.336-.718-1.751-.479-.415-1.15-.623-2.014-.623h-2.542v4.688zm9.412 5.207h-.88v-7.924h.88v7.924zm-1.033-10.217a.579.579 0 01.6-.593c.186 0 .333.059.44.176a.565.565 0 01.169.417.57.57 0 01-.169.418.58.58 0 01-.44.168.58.58 0 01-.439-.168.583.583 0 01-.16-.418zm4.219 2.293l.03 1.289c.292-.479.658-.838 1.098-1.077.44-.239.928-.359 1.465-.359 1.25 0 2.043.513 2.38 1.538a2.952 2.952 0 011.135-1.135 3.118 3.118 0 011.568-.403c1.699 0 2.566.928 2.6 2.783v5.288h-.88v-5.222c-.004-.708-.158-1.233-.46-1.574-.298-.342-.787-.513-1.465-.513-.63.01-1.163.215-1.597.615a2.149 2.149 0 00-.725 1.45v5.244h-.88v-5.288c-.004-.678-.165-1.184-.483-1.516-.312-.337-.795-.505-1.45-.505-.552 0-1.025.159-1.42.476-.396.312-.69.779-.88 1.399v5.434h-.878v-7.924h.842zM4.582 246.424c0-1.231.273-2.21.82-2.937.552-.733 1.3-1.099 2.242-1.099 1.069 0 1.884.423 2.446 1.267v-4.446h.871v11.25h-.82l-.037-1.054c-.561.801-1.386 1.201-2.475 1.201-.913 0-1.65-.366-2.212-1.099-.557-.737-.835-1.731-.835-2.981v-.102zm.886.154c0 1.01.203 1.809.608 2.395.405.581.977.871 1.714.871 1.08 0 1.846-.476 2.3-1.428v-3.721c-.454-1.03-1.216-1.545-2.285-1.545-.738 0-1.311.29-1.721.871-.41.577-.616 1.429-.616 2.557zm8.782 3.881h-.879v-7.924h.879v7.924zm-1.033-10.217a.579.579 0 01.6-.593c.186 0 .333.059.44.176a.565.565 0 01.169.417.57.57 0 01-.169.418.58.58 0 01-.44.168.58.58 0 01-.439-.168.583.583 0 01-.16-.418zm8.423 10.217c-.088-.249-.144-.617-.168-1.105-.308.4-.701.71-1.18.93a3.608 3.608 0 01-1.508.322c-.762 0-1.38-.212-1.853-.637-.47-.425-.704-.962-.704-1.612 0-.771.32-1.381.96-1.831.644-.449 1.54-.673 2.688-.673h1.59v-.901c0-.567-.176-1.011-.528-1.333-.347-.327-.855-.491-1.523-.491-.61 0-1.116.156-1.517.469-.4.312-.6.688-.6 1.128l-.879-.008c0-.63.293-1.174.879-1.633.586-.464 1.306-.696 2.16-.696.884 0 1.58.222 2.088.667.513.439.776 1.054.79 1.845v3.75c0 .767.081 1.341.243 1.722v.087h-.938zm-2.754-.629c.586 0 1.109-.142 1.568-.425.463-.283.8-.662 1.01-1.135v-1.744h-1.567c-.874.01-1.558.171-2.05.484-.494.307-.74.732-.74 1.274 0 .445.163.813.49 1.106.332.293.762.44 1.29.44zm6.592-7.295l.03 1.289c.292-.479.659-.838 1.098-1.077.44-.239.928-.359 1.465-.359 1.25 0 2.043.513 2.38 1.538a2.952 2.952 0 011.135-1.135 3.118 3.118 0 011.568-.403c1.699 0 2.566.928 2.6 2.783v5.288h-.879v-5.222c-.005-.708-.159-1.233-.461-1.574-.298-.342-.787-.513-1.465-.513-.63.01-1.162.215-1.597.615a2.149 2.149 0 00-.725 1.45v5.244h-.879v-5.288c-.005-.678-.166-1.184-.483-1.516-.313-.337-.796-.505-1.45-.505-.552 0-1.026.159-1.421.476-.396.312-.689.779-.88 1.399v5.434h-.878v-7.924h.842zm15.571 8.071a3.459 3.459 0 01-1.83-.498 3.412 3.412 0 01-1.268-1.384c-.303-.596-.454-1.263-.454-2v-.315c0-.762.147-1.448.44-2.058.297-.61.71-1.089 1.237-1.435a3.027 3.027 0 011.714-.528c.962 0 1.724.33 2.285.989.567.654.85 1.55.85 2.688v.491h-5.654v.168c0 .899.256 1.648.769 2.249.517.595 1.167.893 1.948.893.469 0 .881-.085 1.238-.256.361-.171.688-.444.981-.82l.55.417c-.645.933-1.58 1.399-2.806 1.399zm-.16-7.471c-.66 0-1.217.242-1.67.725-.45.484-.723 1.133-.821 1.949h4.753v-.096c-.024-.761-.241-1.381-.652-1.86-.41-.478-.947-.718-1.61-.718zm6.203-2.629v2.029h1.64v.717h-1.64v5.281c0 .44.078.767.234.982.161.214.427.322.798.322.147 0 .384-.025.711-.073l.037.717c-.23.083-.542.125-.938.125-.6 0-1.037-.173-1.311-.52-.273-.352-.41-.867-.41-1.545v-5.289h-1.458v-.717h1.458v-2.029h.879zm6.526 10.1a3.46 3.46 0 01-1.831-.498 3.412 3.412 0 01-1.267-1.384c-.303-.596-.455-1.263-.455-2v-.315c0-.762.147-1.448.44-2.058a3.52 3.52 0 011.238-1.435 3.027 3.027 0 011.713-.528c.962 0 1.724.33 2.286.989.566.654.85 1.55.85 2.688v.491h-5.655v.168c0 .899.256 1.648.77 2.249.517.595 1.166.893 1.947.893.469 0 .882-.085 1.238-.256.361-.171.689-.444.981-.82l.55.417c-.645.933-1.58 1.399-2.805 1.399zm-.162-7.471c-.659 0-1.215.242-1.67.725-.449.484-.722 1.133-.82 1.949h4.754v-.096c-.025-.761-.242-1.381-.652-1.86-.41-.478-.947-.718-1.611-.718zm8.504.147a3.289 3.289 0 00-.593-.052c-.547 0-1.011.154-1.392.462-.376.303-.644.745-.806 1.326v5.441h-.871v-7.924h.857l.014 1.259c.464-.937 1.209-1.406 2.234-1.406.245 0 .437.032.579.095l-.022.799z" fill="#A5883A"/><path d="M282.014 192.08c-7.957 0-7.736 68.387 0 68.387m0-68.387c7.957 0 7.736 68.387 0 68.387m0-68.387h-17.899c-7.614 5.897-6.509 64.591 0 68.387h17.899m.52-43.815c1.975-3.185 1.743 21.087 0 18.337-1.744-2.751-1.976-15.151 0-18.337zm-2.409 24.189c-.766 0-.766 5.678 0 5.678s.766-5.678 0-5.678zm5.744-4.199c-.766 0-.766 5.323 0 5.323s.766-5.323 0-5.323zm0-20.534c-.766 0-.766 4.968 0 4.968s.766-4.968 0-4.968zm-4.86-12.537c-.766 0-.766 4.968 0 4.968.765 0 .765-4.968 0-4.968zm-3.535 15.995c-.545 0-.545 5.678 0 5.678.781 0 .781-5.678 0-5.678z" stroke="#000"/></svg>